%TF.GenerationSoftware,KiCad,Pcbnew,8.0.3*%
%TF.CreationDate,2024-06-27T13:33:53-07:00*%
%TF.ProjectId,new midi keyboard,6e657720-6d69-4646-9920-6b6579626f61,rev?*%
%TF.SameCoordinates,Original*%
%TF.FileFunction,Drillmap*%
%TF.FilePolarity,Positive*%
%FSLAX45Y45*%
G04 Gerber Fmt 4.5, Leading zero omitted, Abs format (unit mm)*
G04 Created by KiCad (PCBNEW 8.0.3) date 2024-06-27 13:33:53*
%MOMM*%
%LPD*%
G01*
G04 APERTURE LIST*
%ADD10C,0.050000*%
%ADD11C,0.200000*%
%ADD12C,0.100000*%
%ADD13C,0.102000*%
%ADD14C,0.139700*%
%ADD15C,0.150000*%
G04 APERTURE END LIST*
D10*
X3617700Y-5159500D02*
X40530950Y-5159500D01*
X40530950Y-13494750D01*
X3617700Y-13494750D01*
X3617700Y-5159500D01*
D11*
D12*
X7414800Y-8271875D02*
X7444800Y-8301875D01*
X7444800Y-8271875D02*
X7414800Y-8301875D01*
X11108477Y-6451823D02*
X11138477Y-6481823D01*
X11138477Y-6451823D02*
X11108477Y-6481823D01*
X11501905Y-8351875D02*
X11531905Y-8381875D01*
X11531905Y-8351875D02*
X11501905Y-8381875D01*
X12414250Y-7526000D02*
X12444250Y-7556000D01*
X12444250Y-7526000D02*
X12414250Y-7556000D01*
X12415425Y-8760875D02*
X12445425Y-8790875D01*
X12445425Y-8760875D02*
X12415425Y-8790875D01*
X14558550Y-8231875D02*
X14588550Y-8261875D01*
X14588550Y-8231875D02*
X14558550Y-8261875D01*
X15511050Y-8716750D02*
X15541050Y-8746750D01*
X15541050Y-8716750D02*
X15511050Y-8746750D01*
X6041050Y-8493625D02*
G75*
G02*
X5961050Y-8493625I-40000J0D01*
G01*
X5961050Y-8493625D02*
G75*
G02*
X6041050Y-8493625I40000J0D01*
G01*
X6041050Y-9255625D02*
G75*
G02*
X5961050Y-9255625I-40000J0D01*
G01*
X5961050Y-9255625D02*
G75*
G02*
X6041050Y-9255625I40000J0D01*
G01*
X7946050Y-8493625D02*
G75*
G02*
X7866050Y-8493625I-40000J0D01*
G01*
X7866050Y-8493625D02*
G75*
G02*
X7946050Y-8493625I40000J0D01*
G01*
X7946050Y-9255625D02*
G75*
G02*
X7866050Y-9255625I-40000J0D01*
G01*
X7866050Y-9255625D02*
G75*
G02*
X7946050Y-9255625I40000J0D01*
G01*
X9851050Y-8493625D02*
G75*
G02*
X9771050Y-8493625I-40000J0D01*
G01*
X9771050Y-8493625D02*
G75*
G02*
X9851050Y-8493625I40000J0D01*
G01*
X9851050Y-9255625D02*
G75*
G02*
X9771050Y-9255625I-40000J0D01*
G01*
X9771050Y-9255625D02*
G75*
G02*
X9851050Y-9255625I40000J0D01*
G01*
X11756050Y-8493625D02*
G75*
G02*
X11676050Y-8493625I-40000J0D01*
G01*
X11676050Y-8493625D02*
G75*
G02*
X11756050Y-8493625I40000J0D01*
G01*
X11756050Y-9255625D02*
G75*
G02*
X11676050Y-9255625I-40000J0D01*
G01*
X11676050Y-9255625D02*
G75*
G02*
X11756050Y-9255625I40000J0D01*
G01*
X15089800Y-11113000D02*
G75*
G02*
X15009800Y-11113000I-40000J0D01*
G01*
X15009800Y-11113000D02*
G75*
G02*
X15089800Y-11113000I40000J0D01*
G01*
X15089800Y-11875000D02*
G75*
G02*
X15009800Y-11875000I-40000J0D01*
G01*
X15009800Y-11875000D02*
G75*
G02*
X15089800Y-11875000I40000J0D01*
G01*
X16010550Y-9208000D02*
G75*
G02*
X15930550Y-9208000I-40000J0D01*
G01*
X15930550Y-9208000D02*
G75*
G02*
X16010550Y-9208000I40000J0D01*
G01*
X16010550Y-9970000D02*
G75*
G02*
X15930550Y-9970000I-40000J0D01*
G01*
X15930550Y-9970000D02*
G75*
G02*
X16010550Y-9970000I40000J0D01*
G01*
X16994800Y-11113000D02*
G75*
G02*
X16914800Y-11113000I-40000J0D01*
G01*
X16914800Y-11113000D02*
G75*
G02*
X16994800Y-11113000I40000J0D01*
G01*
X16994800Y-11875000D02*
G75*
G02*
X16914800Y-11875000I-40000J0D01*
G01*
X16914800Y-11875000D02*
G75*
G02*
X16994800Y-11875000I40000J0D01*
G01*
X17915550Y-9208000D02*
G75*
G02*
X17835550Y-9208000I-40000J0D01*
G01*
X17835550Y-9208000D02*
G75*
G02*
X17915550Y-9208000I40000J0D01*
G01*
X17915550Y-9970000D02*
G75*
G02*
X17835550Y-9970000I-40000J0D01*
G01*
X17835550Y-9970000D02*
G75*
G02*
X17915550Y-9970000I40000J0D01*
G01*
X18899800Y-11113000D02*
G75*
G02*
X18819800Y-11113000I-40000J0D01*
G01*
X18819800Y-11113000D02*
G75*
G02*
X18899800Y-11113000I40000J0D01*
G01*
X18899800Y-11875000D02*
G75*
G02*
X18819800Y-11875000I-40000J0D01*
G01*
X18819800Y-11875000D02*
G75*
G02*
X18899800Y-11875000I40000J0D01*
G01*
X20804800Y-11113000D02*
G75*
G02*
X20724800Y-11113000I-40000J0D01*
G01*
X20724800Y-11113000D02*
G75*
G02*
X20804800Y-11113000I40000J0D01*
G01*
X20804800Y-11875000D02*
G75*
G02*
X20724800Y-11875000I-40000J0D01*
G01*
X20724800Y-11875000D02*
G75*
G02*
X20804800Y-11875000I40000J0D01*
G01*
X21757300Y-9208000D02*
G75*
G02*
X21677300Y-9208000I-40000J0D01*
G01*
X21677300Y-9208000D02*
G75*
G02*
X21757300Y-9208000I40000J0D01*
G01*
X21757300Y-9970000D02*
G75*
G02*
X21677300Y-9970000I-40000J0D01*
G01*
X21677300Y-9970000D02*
G75*
G02*
X21757300Y-9970000I40000J0D01*
G01*
X22709800Y-11113000D02*
G75*
G02*
X22629800Y-11113000I-40000J0D01*
G01*
X22629800Y-11113000D02*
G75*
G02*
X22709800Y-11113000I40000J0D01*
G01*
X22709800Y-11875000D02*
G75*
G02*
X22629800Y-11875000I-40000J0D01*
G01*
X22629800Y-11875000D02*
G75*
G02*
X22709800Y-11875000I40000J0D01*
G01*
X23662300Y-9208000D02*
G75*
G02*
X23582300Y-9208000I-40000J0D01*
G01*
X23582300Y-9208000D02*
G75*
G02*
X23662300Y-9208000I40000J0D01*
G01*
X23662300Y-9970000D02*
G75*
G02*
X23582300Y-9970000I-40000J0D01*
G01*
X23582300Y-9970000D02*
G75*
G02*
X23662300Y-9970000I40000J0D01*
G01*
X24614800Y-11113000D02*
G75*
G02*
X24534800Y-11113000I-40000J0D01*
G01*
X24534800Y-11113000D02*
G75*
G02*
X24614800Y-11113000I40000J0D01*
G01*
X24614800Y-11875000D02*
G75*
G02*
X24534800Y-11875000I-40000J0D01*
G01*
X24534800Y-11875000D02*
G75*
G02*
X24614800Y-11875000I40000J0D01*
G01*
X25567300Y-9208000D02*
G75*
G02*
X25487300Y-9208000I-40000J0D01*
G01*
X25487300Y-9208000D02*
G75*
G02*
X25567300Y-9208000I40000J0D01*
G01*
X25567300Y-9970000D02*
G75*
G02*
X25487300Y-9970000I-40000J0D01*
G01*
X25487300Y-9970000D02*
G75*
G02*
X25567300Y-9970000I40000J0D01*
G01*
X26519800Y-11113000D02*
G75*
G02*
X26439800Y-11113000I-40000J0D01*
G01*
X26439800Y-11113000D02*
G75*
G02*
X26519800Y-11113000I40000J0D01*
G01*
X26519800Y-11875000D02*
G75*
G02*
X26439800Y-11875000I-40000J0D01*
G01*
X26439800Y-11875000D02*
G75*
G02*
X26519800Y-11875000I40000J0D01*
G01*
X28424800Y-11113000D02*
G75*
G02*
X28344800Y-11113000I-40000J0D01*
G01*
X28344800Y-11113000D02*
G75*
G02*
X28424800Y-11113000I40000J0D01*
G01*
X28424800Y-11875000D02*
G75*
G02*
X28344800Y-11875000I-40000J0D01*
G01*
X28344800Y-11875000D02*
G75*
G02*
X28424800Y-11875000I40000J0D01*
G01*
X29377300Y-9208000D02*
G75*
G02*
X29297300Y-9208000I-40000J0D01*
G01*
X29297300Y-9208000D02*
G75*
G02*
X29377300Y-9208000I40000J0D01*
G01*
X29377300Y-9970000D02*
G75*
G02*
X29297300Y-9970000I-40000J0D01*
G01*
X29297300Y-9970000D02*
G75*
G02*
X29377300Y-9970000I40000J0D01*
G01*
X30329800Y-11113000D02*
G75*
G02*
X30249800Y-11113000I-40000J0D01*
G01*
X30249800Y-11113000D02*
G75*
G02*
X30329800Y-11113000I40000J0D01*
G01*
X30329800Y-11875000D02*
G75*
G02*
X30249800Y-11875000I-40000J0D01*
G01*
X30249800Y-11875000D02*
G75*
G02*
X30329800Y-11875000I40000J0D01*
G01*
X31282300Y-9208000D02*
G75*
G02*
X31202300Y-9208000I-40000J0D01*
G01*
X31202300Y-9208000D02*
G75*
G02*
X31282300Y-9208000I40000J0D01*
G01*
X31282300Y-9970000D02*
G75*
G02*
X31202300Y-9970000I-40000J0D01*
G01*
X31202300Y-9970000D02*
G75*
G02*
X31282300Y-9970000I40000J0D01*
G01*
X32234800Y-11113000D02*
G75*
G02*
X32154800Y-11113000I-40000J0D01*
G01*
X32154800Y-11113000D02*
G75*
G02*
X32234800Y-11113000I40000J0D01*
G01*
X32234800Y-11875000D02*
G75*
G02*
X32154800Y-11875000I-40000J0D01*
G01*
X32154800Y-11875000D02*
G75*
G02*
X32234800Y-11875000I40000J0D01*
G01*
X34139800Y-11113000D02*
G75*
G02*
X34059800Y-11113000I-40000J0D01*
G01*
X34059800Y-11113000D02*
G75*
G02*
X34139800Y-11113000I40000J0D01*
G01*
X34139800Y-11875000D02*
G75*
G02*
X34059800Y-11875000I-40000J0D01*
G01*
X34059800Y-11875000D02*
G75*
G02*
X34139800Y-11875000I40000J0D01*
G01*
X35092300Y-9208000D02*
G75*
G02*
X35012300Y-9208000I-40000J0D01*
G01*
X35012300Y-9208000D02*
G75*
G02*
X35092300Y-9208000I40000J0D01*
G01*
X35092300Y-9970000D02*
G75*
G02*
X35012300Y-9970000I-40000J0D01*
G01*
X35012300Y-9970000D02*
G75*
G02*
X35092300Y-9970000I40000J0D01*
G01*
X36044800Y-11113000D02*
G75*
G02*
X35964800Y-11113000I-40000J0D01*
G01*
X35964800Y-11113000D02*
G75*
G02*
X36044800Y-11113000I40000J0D01*
G01*
X36044800Y-11875000D02*
G75*
G02*
X35964800Y-11875000I-40000J0D01*
G01*
X35964800Y-11875000D02*
G75*
G02*
X36044800Y-11875000I40000J0D01*
G01*
X36997300Y-9208000D02*
G75*
G02*
X36917300Y-9208000I-40000J0D01*
G01*
X36917300Y-9208000D02*
G75*
G02*
X36997300Y-9208000I40000J0D01*
G01*
X36997300Y-9970000D02*
G75*
G02*
X36917300Y-9970000I-40000J0D01*
G01*
X36917300Y-9970000D02*
G75*
G02*
X36997300Y-9970000I40000J0D01*
G01*
X37949800Y-11113000D02*
G75*
G02*
X37869800Y-11113000I-40000J0D01*
G01*
X37869800Y-11113000D02*
G75*
G02*
X37949800Y-11113000I40000J0D01*
G01*
X37949800Y-11875000D02*
G75*
G02*
X37869800Y-11875000I-40000J0D01*
G01*
X37869800Y-11875000D02*
G75*
G02*
X37949800Y-11875000I40000J0D01*
G01*
X38902300Y-9208000D02*
G75*
G02*
X38822300Y-9208000I-40000J0D01*
G01*
X38822300Y-9208000D02*
G75*
G02*
X38902300Y-9208000I40000J0D01*
G01*
X38902300Y-9970000D02*
G75*
G02*
X38822300Y-9970000I-40000J0D01*
G01*
X38822300Y-9970000D02*
G75*
G02*
X38902300Y-9970000I40000J0D01*
G01*
X39854800Y-11113000D02*
G75*
G02*
X39774800Y-11113000I-40000J0D01*
G01*
X39774800Y-11113000D02*
G75*
G02*
X39854800Y-11113000I40000J0D01*
G01*
X39854800Y-11875000D02*
G75*
G02*
X39774800Y-11875000I-40000J0D01*
G01*
X39774800Y-11875000D02*
G75*
G02*
X39854800Y-11875000I40000J0D01*
G01*
X6842425Y-11528925D02*
X6842425Y-11617825D01*
X6797975Y-11573375D02*
X6886875Y-11573375D01*
X6842425Y-11782925D02*
X6842425Y-11871825D01*
X6797975Y-11827375D02*
X6886875Y-11827375D01*
X6842425Y-12036925D02*
X6842425Y-12125825D01*
X6797975Y-12081375D02*
X6886875Y-12081375D01*
X7604425Y-12798925D02*
X7604425Y-12887825D01*
X7559975Y-12843375D02*
X7648875Y-12843375D01*
X7858425Y-12798925D02*
X7858425Y-12887825D01*
X7813975Y-12843375D02*
X7902875Y-12843375D01*
X8112425Y-12798925D02*
X8112425Y-12887825D01*
X8067975Y-12843375D02*
X8156875Y-12843375D01*
X7572745Y-10589195D02*
X7572745Y-10525555D01*
X7509105Y-10525555D01*
X7509105Y-10589195D01*
X7572745Y-10589195D01*
X7572745Y-11097195D02*
X7572745Y-11033555D01*
X7509105Y-11033555D01*
X7509105Y-11097195D01*
X7572745Y-11097195D01*
X8207745Y-10589195D02*
X8207745Y-10525555D01*
X8144105Y-10525555D01*
X8144105Y-10589195D01*
X8207745Y-10589195D01*
X8207745Y-11097195D02*
X8207745Y-11033555D01*
X8144105Y-11033555D01*
X8144105Y-11097195D01*
X8207745Y-11097195D01*
D13*
X5381925Y-5687125D02*
X5432925Y-5636125D01*
X5381925Y-5585125D01*
X5330925Y-5636125D01*
X5381925Y-5687125D01*
X5381925Y-7465125D02*
X5432925Y-7414125D01*
X5381925Y-7363125D01*
X5330925Y-7414125D01*
X5381925Y-7465125D01*
X5635925Y-5687125D02*
X5686925Y-5636125D01*
X5635925Y-5585125D01*
X5584925Y-5636125D01*
X5635925Y-5687125D01*
X5635925Y-7465125D02*
X5686925Y-7414125D01*
X5635925Y-7363125D01*
X5584925Y-7414125D01*
X5635925Y-7465125D01*
X5889925Y-5687125D02*
X5940925Y-5636125D01*
X5889925Y-5585125D01*
X5838925Y-5636125D01*
X5889925Y-5687125D01*
X5889925Y-7465125D02*
X5940925Y-7414125D01*
X5889925Y-7363125D01*
X5838925Y-7414125D01*
X5889925Y-7465125D01*
X6143925Y-5687125D02*
X6194925Y-5636125D01*
X6143925Y-5585125D01*
X6092925Y-5636125D01*
X6143925Y-5687125D01*
X6143925Y-7465125D02*
X6194925Y-7414125D01*
X6143925Y-7363125D01*
X6092925Y-7414125D01*
X6143925Y-7465125D01*
X6397925Y-5687125D02*
X6448925Y-5636125D01*
X6397925Y-5585125D01*
X6346925Y-5636125D01*
X6397925Y-5687125D01*
X6397925Y-7465125D02*
X6448925Y-7414125D01*
X6397925Y-7363125D01*
X6346925Y-7414125D01*
X6397925Y-7465125D01*
X6651925Y-5687125D02*
X6702925Y-5636125D01*
X6651925Y-5585125D01*
X6600925Y-5636125D01*
X6651925Y-5687125D01*
X6651925Y-7465125D02*
X6702925Y-7414125D01*
X6651925Y-7363125D01*
X6600925Y-7414125D01*
X6651925Y-7465125D01*
X6905925Y-5687125D02*
X6956925Y-5636125D01*
X6905925Y-5585125D01*
X6854925Y-5636125D01*
X6905925Y-5687125D01*
X6905925Y-7465125D02*
X6956925Y-7414125D01*
X6905925Y-7363125D01*
X6854925Y-7414125D01*
X6905925Y-7465125D01*
X7159925Y-5687125D02*
X7210925Y-5636125D01*
X7159925Y-5585125D01*
X7108925Y-5636125D01*
X7159925Y-5687125D01*
X7159925Y-7465125D02*
X7210925Y-7414125D01*
X7159925Y-7363125D01*
X7108925Y-7414125D01*
X7159925Y-7465125D01*
X7413925Y-5687125D02*
X7464925Y-5636125D01*
X7413925Y-5585125D01*
X7362925Y-5636125D01*
X7413925Y-5687125D01*
X7413925Y-7465125D02*
X7464925Y-7414125D01*
X7413925Y-7363125D01*
X7362925Y-7414125D01*
X7413925Y-7465125D01*
X7667925Y-5687125D02*
X7718925Y-5636125D01*
X7667925Y-5585125D01*
X7616925Y-5636125D01*
X7667925Y-5687125D01*
X7667925Y-7465125D02*
X7718925Y-7414125D01*
X7667925Y-7363125D01*
X7616925Y-7414125D01*
X7667925Y-7465125D01*
X7921925Y-5687125D02*
X7972925Y-5636125D01*
X7921925Y-5585125D01*
X7870925Y-5636125D01*
X7921925Y-5687125D01*
X7921925Y-7465125D02*
X7972925Y-7414125D01*
X7921925Y-7363125D01*
X7870925Y-7414125D01*
X7921925Y-7465125D01*
X8175925Y-5687125D02*
X8226925Y-5636125D01*
X8175925Y-5585125D01*
X8124925Y-5636125D01*
X8175925Y-5687125D01*
X8175925Y-7465125D02*
X8226925Y-7414125D01*
X8175925Y-7363125D01*
X8124925Y-7414125D01*
X8175925Y-7465125D01*
X8429925Y-5687125D02*
X8480925Y-5636125D01*
X8429925Y-5585125D01*
X8378925Y-5636125D01*
X8429925Y-5687125D01*
X8429925Y-7465125D02*
X8480925Y-7414125D01*
X8429925Y-7363125D01*
X8378925Y-7414125D01*
X8429925Y-7465125D01*
X8683925Y-5687125D02*
X8734925Y-5636125D01*
X8683925Y-5585125D01*
X8632925Y-5636125D01*
X8683925Y-5687125D01*
X8683925Y-7465125D02*
X8734925Y-7414125D01*
X8683925Y-7363125D01*
X8632925Y-7414125D01*
X8683925Y-7465125D01*
X8937925Y-5687125D02*
X8988925Y-5636125D01*
X8937925Y-5585125D01*
X8886925Y-5636125D01*
X8937925Y-5687125D01*
X8937925Y-7465125D02*
X8988925Y-7414125D01*
X8937925Y-7363125D01*
X8886925Y-7414125D01*
X8937925Y-7465125D01*
X9191925Y-5687125D02*
X9242925Y-5636125D01*
X9191925Y-5585125D01*
X9140925Y-5636125D01*
X9191925Y-5687125D01*
X9191925Y-7465125D02*
X9242925Y-7414125D01*
X9191925Y-7363125D01*
X9140925Y-7414125D01*
X9191925Y-7465125D01*
X9445925Y-5687125D02*
X9496925Y-5636125D01*
X9445925Y-5585125D01*
X9394925Y-5636125D01*
X9445925Y-5687125D01*
X9445925Y-7465125D02*
X9496925Y-7414125D01*
X9445925Y-7363125D01*
X9394925Y-7414125D01*
X9445925Y-7465125D01*
X9699925Y-5687125D02*
X9750925Y-5636125D01*
X9699925Y-5585125D01*
X9648925Y-5636125D01*
X9699925Y-5687125D01*
X9699925Y-7465125D02*
X9750925Y-7414125D01*
X9699925Y-7363125D01*
X9648925Y-7414125D01*
X9699925Y-7465125D01*
X9953925Y-5687125D02*
X10004925Y-5636125D01*
X9953925Y-5585125D01*
X9902925Y-5636125D01*
X9953925Y-5687125D01*
X9953925Y-7465125D02*
X10004925Y-7414125D01*
X9953925Y-7363125D01*
X9902925Y-7414125D01*
X9953925Y-7465125D01*
X10184925Y-6322125D02*
X10235925Y-6271125D01*
X10184925Y-6220125D01*
X10133925Y-6271125D01*
X10184925Y-6322125D01*
X10184925Y-6576125D02*
X10235925Y-6525125D01*
X10184925Y-6474125D01*
X10133925Y-6525125D01*
X10184925Y-6576125D01*
X10184925Y-6830125D02*
X10235925Y-6779125D01*
X10184925Y-6728125D01*
X10133925Y-6779125D01*
X10184925Y-6830125D01*
X10207925Y-5687125D02*
X10258925Y-5636125D01*
X10207925Y-5585125D01*
X10156925Y-5636125D01*
X10207925Y-5687125D01*
X10207925Y-7465125D02*
X10258925Y-7414125D01*
X10207925Y-7363125D01*
X10156925Y-7414125D01*
X10207925Y-7465125D01*
D14*
X7026575Y-11090775D02*
X7166275Y-11230475D01*
X7166275Y-11090775D02*
X7026575Y-11230475D01*
X7166275Y-11160625D02*
G75*
G02*
X7026575Y-11160625I-69850J0D01*
G01*
X7026575Y-11160625D02*
G75*
G02*
X7166275Y-11160625I69850J0D01*
G01*
X7026575Y-12424275D02*
X7166275Y-12563975D01*
X7166275Y-12424275D02*
X7026575Y-12563975D01*
X7166275Y-12494125D02*
G75*
G02*
X7026575Y-12494125I-69850J0D01*
G01*
X7026575Y-12494125D02*
G75*
G02*
X7166275Y-12494125I69850J0D01*
G01*
X8550575Y-11090775D02*
X8690275Y-11230475D01*
X8690275Y-11090775D02*
X8550575Y-11230475D01*
X8690275Y-11160625D02*
G75*
G02*
X8550575Y-11160625I-69850J0D01*
G01*
X8550575Y-11160625D02*
G75*
G02*
X8690275Y-11160625I69850J0D01*
G01*
X8550575Y-12424275D02*
X8690275Y-12563975D01*
X8690275Y-12424275D02*
X8550575Y-12563975D01*
X8690275Y-12494125D02*
G75*
G02*
X8550575Y-12494125I-69850J0D01*
G01*
X8550575Y-12494125D02*
G75*
G02*
X8690275Y-12494125I69850J0D01*
G01*
D15*
X4592550Y-8640875D02*
X4742550Y-8790875D01*
X4742550Y-8640875D02*
X4592550Y-8790875D01*
X4667550Y-8640875D02*
X4667550Y-8790875D01*
X4592550Y-8715875D02*
X4742550Y-8715875D01*
X5227550Y-8386875D02*
X5377550Y-8536875D01*
X5377550Y-8386875D02*
X5227550Y-8536875D01*
X5302550Y-8386875D02*
X5302550Y-8536875D01*
X5227550Y-8461875D02*
X5377550Y-8461875D01*
X6497550Y-8640875D02*
X6647550Y-8790875D01*
X6647550Y-8640875D02*
X6497550Y-8790875D01*
X6572550Y-8640875D02*
X6572550Y-8790875D01*
X6497550Y-8715875D02*
X6647550Y-8715875D01*
X7132550Y-8386875D02*
X7282550Y-8536875D01*
X7282550Y-8386875D02*
X7132550Y-8536875D01*
X7207550Y-8386875D02*
X7207550Y-8536875D01*
X7132550Y-8461875D02*
X7282550Y-8461875D01*
X8402550Y-8640875D02*
X8552550Y-8790875D01*
X8552550Y-8640875D02*
X8402550Y-8790875D01*
X8477550Y-8640875D02*
X8477550Y-8790875D01*
X8402550Y-8715875D02*
X8552550Y-8715875D01*
X9037550Y-8386875D02*
X9187550Y-8536875D01*
X9187550Y-8386875D02*
X9037550Y-8536875D01*
X9112550Y-8386875D02*
X9112550Y-8536875D01*
X9037550Y-8461875D02*
X9187550Y-8461875D01*
X10307550Y-8640875D02*
X10457550Y-8790875D01*
X10457550Y-8640875D02*
X10307550Y-8790875D01*
X10382550Y-8640875D02*
X10382550Y-8790875D01*
X10307550Y-8715875D02*
X10457550Y-8715875D01*
X10942550Y-8386875D02*
X11092550Y-8536875D01*
X11092550Y-8386875D02*
X10942550Y-8536875D01*
X11017550Y-8386875D02*
X11017550Y-8536875D01*
X10942550Y-8461875D02*
X11092550Y-8461875D01*
X13641300Y-11260250D02*
X13791300Y-11410250D01*
X13791300Y-11260250D02*
X13641300Y-11410250D01*
X13716300Y-11260250D02*
X13716300Y-11410250D01*
X13641300Y-11335250D02*
X13791300Y-11335250D01*
X14276300Y-11006250D02*
X14426300Y-11156250D01*
X14426300Y-11006250D02*
X14276300Y-11156250D01*
X14351300Y-11006250D02*
X14351300Y-11156250D01*
X14276300Y-11081250D02*
X14426300Y-11081250D01*
X14562050Y-9355250D02*
X14712050Y-9505250D01*
X14712050Y-9355250D02*
X14562050Y-9505250D01*
X14637050Y-9355250D02*
X14637050Y-9505250D01*
X14562050Y-9430250D02*
X14712050Y-9430250D01*
X15197050Y-9101250D02*
X15347050Y-9251250D01*
X15347050Y-9101250D02*
X15197050Y-9251250D01*
X15272050Y-9101250D02*
X15272050Y-9251250D01*
X15197050Y-9176250D02*
X15347050Y-9176250D01*
X15546300Y-11260250D02*
X15696300Y-11410250D01*
X15696300Y-11260250D02*
X15546300Y-11410250D01*
X15621300Y-11260250D02*
X15621300Y-11410250D01*
X15546300Y-11335250D02*
X15696300Y-11335250D01*
X16181300Y-11006250D02*
X16331300Y-11156250D01*
X16331300Y-11006250D02*
X16181300Y-11156250D01*
X16256300Y-11006250D02*
X16256300Y-11156250D01*
X16181300Y-11081250D02*
X16331300Y-11081250D01*
X16467050Y-9355250D02*
X16617050Y-9505250D01*
X16617050Y-9355250D02*
X16467050Y-9505250D01*
X16542050Y-9355250D02*
X16542050Y-9505250D01*
X16467050Y-9430250D02*
X16617050Y-9430250D01*
X17102050Y-9101250D02*
X17252050Y-9251250D01*
X17252050Y-9101250D02*
X17102050Y-9251250D01*
X17177050Y-9101250D02*
X17177050Y-9251250D01*
X17102050Y-9176250D02*
X17252050Y-9176250D01*
X17451300Y-11260250D02*
X17601300Y-11410250D01*
X17601300Y-11260250D02*
X17451300Y-11410250D01*
X17526300Y-11260250D02*
X17526300Y-11410250D01*
X17451300Y-11335250D02*
X17601300Y-11335250D01*
X18086300Y-11006250D02*
X18236300Y-11156250D01*
X18236300Y-11006250D02*
X18086300Y-11156250D01*
X18161300Y-11006250D02*
X18161300Y-11156250D01*
X18086300Y-11081250D02*
X18236300Y-11081250D01*
X19356300Y-11260250D02*
X19506300Y-11410250D01*
X19506300Y-11260250D02*
X19356300Y-11410250D01*
X19431300Y-11260250D02*
X19431300Y-11410250D01*
X19356300Y-11335250D02*
X19506300Y-11335250D01*
X19991300Y-11006250D02*
X20141300Y-11156250D01*
X20141300Y-11006250D02*
X19991300Y-11156250D01*
X20066300Y-11006250D02*
X20066300Y-11156250D01*
X19991300Y-11081250D02*
X20141300Y-11081250D01*
X20308800Y-9355250D02*
X20458800Y-9505250D01*
X20458800Y-9355250D02*
X20308800Y-9505250D01*
X20383800Y-9355250D02*
X20383800Y-9505250D01*
X20308800Y-9430250D02*
X20458800Y-9430250D01*
X20943800Y-9101250D02*
X21093800Y-9251250D01*
X21093800Y-9101250D02*
X20943800Y-9251250D01*
X21018800Y-9101250D02*
X21018800Y-9251250D01*
X20943800Y-9176250D02*
X21093800Y-9176250D01*
X21261300Y-11260250D02*
X21411300Y-11410250D01*
X21411300Y-11260250D02*
X21261300Y-11410250D01*
X21336300Y-11260250D02*
X21336300Y-11410250D01*
X21261300Y-11335250D02*
X21411300Y-11335250D01*
X21896300Y-11006250D02*
X22046300Y-11156250D01*
X22046300Y-11006250D02*
X21896300Y-11156250D01*
X21971300Y-11006250D02*
X21971300Y-11156250D01*
X21896300Y-11081250D02*
X22046300Y-11081250D01*
X22213800Y-9355250D02*
X22363800Y-9505250D01*
X22363800Y-9355250D02*
X22213800Y-9505250D01*
X22288800Y-9355250D02*
X22288800Y-9505250D01*
X22213800Y-9430250D02*
X22363800Y-9430250D01*
X22848800Y-9101250D02*
X22998800Y-9251250D01*
X22998800Y-9101250D02*
X22848800Y-9251250D01*
X22923800Y-9101250D02*
X22923800Y-9251250D01*
X22848800Y-9176250D02*
X22998800Y-9176250D01*
X23166300Y-11260250D02*
X23316300Y-11410250D01*
X23316300Y-11260250D02*
X23166300Y-11410250D01*
X23241300Y-11260250D02*
X23241300Y-11410250D01*
X23166300Y-11335250D02*
X23316300Y-11335250D01*
X23801300Y-11006250D02*
X23951300Y-11156250D01*
X23951300Y-11006250D02*
X23801300Y-11156250D01*
X23876300Y-11006250D02*
X23876300Y-11156250D01*
X23801300Y-11081250D02*
X23951300Y-11081250D01*
X24118800Y-9355250D02*
X24268800Y-9505250D01*
X24268800Y-9355250D02*
X24118800Y-9505250D01*
X24193800Y-9355250D02*
X24193800Y-9505250D01*
X24118800Y-9430250D02*
X24268800Y-9430250D01*
X24753800Y-9101250D02*
X24903800Y-9251250D01*
X24903800Y-9101250D02*
X24753800Y-9251250D01*
X24828800Y-9101250D02*
X24828800Y-9251250D01*
X24753800Y-9176250D02*
X24903800Y-9176250D01*
X25071300Y-11260250D02*
X25221300Y-11410250D01*
X25221300Y-11260250D02*
X25071300Y-11410250D01*
X25146300Y-11260250D02*
X25146300Y-11410250D01*
X25071300Y-11335250D02*
X25221300Y-11335250D01*
X25706300Y-11006250D02*
X25856300Y-11156250D01*
X25856300Y-11006250D02*
X25706300Y-11156250D01*
X25781300Y-11006250D02*
X25781300Y-11156250D01*
X25706300Y-11081250D02*
X25856300Y-11081250D01*
X26976300Y-11260250D02*
X27126300Y-11410250D01*
X27126300Y-11260250D02*
X26976300Y-11410250D01*
X27051300Y-11260250D02*
X27051300Y-11410250D01*
X26976300Y-11335250D02*
X27126300Y-11335250D01*
X27611300Y-11006250D02*
X27761300Y-11156250D01*
X27761300Y-11006250D02*
X27611300Y-11156250D01*
X27686300Y-11006250D02*
X27686300Y-11156250D01*
X27611300Y-11081250D02*
X27761300Y-11081250D01*
X27928800Y-9355250D02*
X28078800Y-9505250D01*
X28078800Y-9355250D02*
X27928800Y-9505250D01*
X28003800Y-9355250D02*
X28003800Y-9505250D01*
X27928800Y-9430250D02*
X28078800Y-9430250D01*
X28563800Y-9101250D02*
X28713800Y-9251250D01*
X28713800Y-9101250D02*
X28563800Y-9251250D01*
X28638800Y-9101250D02*
X28638800Y-9251250D01*
X28563800Y-9176250D02*
X28713800Y-9176250D01*
X28881300Y-11260250D02*
X29031300Y-11410250D01*
X29031300Y-11260250D02*
X28881300Y-11410250D01*
X28956300Y-11260250D02*
X28956300Y-11410250D01*
X28881300Y-11335250D02*
X29031300Y-11335250D01*
X29516300Y-11006250D02*
X29666300Y-11156250D01*
X29666300Y-11006250D02*
X29516300Y-11156250D01*
X29591300Y-11006250D02*
X29591300Y-11156250D01*
X29516300Y-11081250D02*
X29666300Y-11081250D01*
X29833800Y-9355250D02*
X29983800Y-9505250D01*
X29983800Y-9355250D02*
X29833800Y-9505250D01*
X29908800Y-9355250D02*
X29908800Y-9505250D01*
X29833800Y-9430250D02*
X29983800Y-9430250D01*
X30468800Y-9101250D02*
X30618800Y-9251250D01*
X30618800Y-9101250D02*
X30468800Y-9251250D01*
X30543800Y-9101250D02*
X30543800Y-9251250D01*
X30468800Y-9176250D02*
X30618800Y-9176250D01*
X30786300Y-11260250D02*
X30936300Y-11410250D01*
X30936300Y-11260250D02*
X30786300Y-11410250D01*
X30861300Y-11260250D02*
X30861300Y-11410250D01*
X30786300Y-11335250D02*
X30936300Y-11335250D01*
X31421300Y-11006250D02*
X31571300Y-11156250D01*
X31571300Y-11006250D02*
X31421300Y-11156250D01*
X31496300Y-11006250D02*
X31496300Y-11156250D01*
X31421300Y-11081250D02*
X31571300Y-11081250D01*
X32691300Y-11260250D02*
X32841300Y-11410250D01*
X32841300Y-11260250D02*
X32691300Y-11410250D01*
X32766300Y-11260250D02*
X32766300Y-11410250D01*
X32691300Y-11335250D02*
X32841300Y-11335250D01*
X33326300Y-11006250D02*
X33476300Y-11156250D01*
X33476300Y-11006250D02*
X33326300Y-11156250D01*
X33401300Y-11006250D02*
X33401300Y-11156250D01*
X33326300Y-11081250D02*
X33476300Y-11081250D01*
X33643800Y-9355250D02*
X33793800Y-9505250D01*
X33793800Y-9355250D02*
X33643800Y-9505250D01*
X33718800Y-9355250D02*
X33718800Y-9505250D01*
X33643800Y-9430250D02*
X33793800Y-9430250D01*
X34278800Y-9101250D02*
X34428800Y-9251250D01*
X34428800Y-9101250D02*
X34278800Y-9251250D01*
X34353800Y-9101250D02*
X34353800Y-9251250D01*
X34278800Y-9176250D02*
X34428800Y-9176250D01*
X34596300Y-11260250D02*
X34746300Y-11410250D01*
X34746300Y-11260250D02*
X34596300Y-11410250D01*
X34671300Y-11260250D02*
X34671300Y-11410250D01*
X34596300Y-11335250D02*
X34746300Y-11335250D01*
X35231300Y-11006250D02*
X35381300Y-11156250D01*
X35381300Y-11006250D02*
X35231300Y-11156250D01*
X35306300Y-11006250D02*
X35306300Y-11156250D01*
X35231300Y-11081250D02*
X35381300Y-11081250D01*
X35548800Y-9355250D02*
X35698800Y-9505250D01*
X35698800Y-9355250D02*
X35548800Y-9505250D01*
X35623800Y-9355250D02*
X35623800Y-9505250D01*
X35548800Y-9430250D02*
X35698800Y-9430250D01*
X36183800Y-9101250D02*
X36333800Y-9251250D01*
X36333800Y-9101250D02*
X36183800Y-9251250D01*
X36258800Y-9101250D02*
X36258800Y-9251250D01*
X36183800Y-9176250D02*
X36333800Y-9176250D01*
X36501300Y-11260250D02*
X36651300Y-11410250D01*
X36651300Y-11260250D02*
X36501300Y-11410250D01*
X36576300Y-11260250D02*
X36576300Y-11410250D01*
X36501300Y-11335250D02*
X36651300Y-11335250D01*
X37136300Y-11006250D02*
X37286300Y-11156250D01*
X37286300Y-11006250D02*
X37136300Y-11156250D01*
X37211300Y-11006250D02*
X37211300Y-11156250D01*
X37136300Y-11081250D02*
X37286300Y-11081250D01*
X37453800Y-9355250D02*
X37603800Y-9505250D01*
X37603800Y-9355250D02*
X37453800Y-9505250D01*
X37528800Y-9355250D02*
X37528800Y-9505250D01*
X37453800Y-9430250D02*
X37603800Y-9430250D01*
X38088800Y-9101250D02*
X38238800Y-9251250D01*
X38238800Y-9101250D02*
X38088800Y-9251250D01*
X38163800Y-9101250D02*
X38163800Y-9251250D01*
X38088800Y-9176250D02*
X38238800Y-9176250D01*
X38406300Y-11260250D02*
X38556300Y-11410250D01*
X38556300Y-11260250D02*
X38406300Y-11410250D01*
X38481300Y-11260250D02*
X38481300Y-11410250D01*
X38406300Y-11335250D02*
X38556300Y-11335250D01*
X39041300Y-11006250D02*
X39191300Y-11156250D01*
X39191300Y-11006250D02*
X39041300Y-11156250D01*
X39116300Y-11006250D02*
X39116300Y-11156250D01*
X39041300Y-11081250D02*
X39191300Y-11081250D01*
D11*
X3875977Y-13808734D02*
X3875977Y-13608734D01*
X3875977Y-13608734D02*
X3923596Y-13608734D01*
X3923596Y-13608734D02*
X3952167Y-13618258D01*
X3952167Y-13618258D02*
X3971215Y-13637305D01*
X3971215Y-13637305D02*
X3980739Y-13656353D01*
X3980739Y-13656353D02*
X3990262Y-13694448D01*
X3990262Y-13694448D02*
X3990262Y-13723019D01*
X3990262Y-13723019D02*
X3980739Y-13761115D01*
X3980739Y-13761115D02*
X3971215Y-13780162D01*
X3971215Y-13780162D02*
X3952167Y-13799210D01*
X3952167Y-13799210D02*
X3923596Y-13808734D01*
X3923596Y-13808734D02*
X3875977Y-13808734D01*
X4075977Y-13808734D02*
X4075977Y-13675400D01*
X4075977Y-13713496D02*
X4085501Y-13694448D01*
X4085501Y-13694448D02*
X4095024Y-13684924D01*
X4095024Y-13684924D02*
X4114072Y-13675400D01*
X4114072Y-13675400D02*
X4133120Y-13675400D01*
X4199786Y-13808734D02*
X4199786Y-13675400D01*
X4199786Y-13608734D02*
X4190262Y-13618258D01*
X4190262Y-13618258D02*
X4199786Y-13627781D01*
X4199786Y-13627781D02*
X4209310Y-13618258D01*
X4209310Y-13618258D02*
X4199786Y-13608734D01*
X4199786Y-13608734D02*
X4199786Y-13627781D01*
X4323596Y-13808734D02*
X4304548Y-13799210D01*
X4304548Y-13799210D02*
X4295024Y-13780162D01*
X4295024Y-13780162D02*
X4295024Y-13608734D01*
X4428358Y-13808734D02*
X4409310Y-13799210D01*
X4409310Y-13799210D02*
X4399786Y-13780162D01*
X4399786Y-13780162D02*
X4399786Y-13608734D01*
X4656929Y-13808734D02*
X4656929Y-13608734D01*
X4656929Y-13608734D02*
X4723596Y-13751591D01*
X4723596Y-13751591D02*
X4790263Y-13608734D01*
X4790263Y-13608734D02*
X4790263Y-13808734D01*
X4971215Y-13808734D02*
X4971215Y-13703972D01*
X4971215Y-13703972D02*
X4961691Y-13684924D01*
X4961691Y-13684924D02*
X4942644Y-13675400D01*
X4942644Y-13675400D02*
X4904548Y-13675400D01*
X4904548Y-13675400D02*
X4885501Y-13684924D01*
X4971215Y-13799210D02*
X4952167Y-13808734D01*
X4952167Y-13808734D02*
X4904548Y-13808734D01*
X4904548Y-13808734D02*
X4885501Y-13799210D01*
X4885501Y-13799210D02*
X4875977Y-13780162D01*
X4875977Y-13780162D02*
X4875977Y-13761115D01*
X4875977Y-13761115D02*
X4885501Y-13742067D01*
X4885501Y-13742067D02*
X4904548Y-13732543D01*
X4904548Y-13732543D02*
X4952167Y-13732543D01*
X4952167Y-13732543D02*
X4971215Y-13723019D01*
X5066453Y-13675400D02*
X5066453Y-13875400D01*
X5066453Y-13684924D02*
X5085501Y-13675400D01*
X5085501Y-13675400D02*
X5123596Y-13675400D01*
X5123596Y-13675400D02*
X5142644Y-13684924D01*
X5142644Y-13684924D02*
X5152167Y-13694448D01*
X5152167Y-13694448D02*
X5161691Y-13713496D01*
X5161691Y-13713496D02*
X5161691Y-13770638D01*
X5161691Y-13770638D02*
X5152167Y-13789686D01*
X5152167Y-13789686D02*
X5142644Y-13799210D01*
X5142644Y-13799210D02*
X5123596Y-13808734D01*
X5123596Y-13808734D02*
X5085501Y-13808734D01*
X5085501Y-13808734D02*
X5066453Y-13799210D01*
X5247405Y-13789686D02*
X5256929Y-13799210D01*
X5256929Y-13799210D02*
X5247405Y-13808734D01*
X5247405Y-13808734D02*
X5237882Y-13799210D01*
X5237882Y-13799210D02*
X5247405Y-13789686D01*
X5247405Y-13789686D02*
X5247405Y-13808734D01*
X5247405Y-13684924D02*
X5256929Y-13694448D01*
X5256929Y-13694448D02*
X5247405Y-13703972D01*
X5247405Y-13703972D02*
X5237882Y-13694448D01*
X5237882Y-13694448D02*
X5247405Y-13684924D01*
X5247405Y-13684924D02*
X5247405Y-13703972D01*
D12*
X3585200Y-14122250D02*
X3615200Y-14152250D01*
X3615200Y-14122250D02*
X3585200Y-14152250D01*
D11*
X3914072Y-14028734D02*
X3933120Y-14028734D01*
X3933120Y-14028734D02*
X3952167Y-14038258D01*
X3952167Y-14038258D02*
X3961691Y-14047781D01*
X3961691Y-14047781D02*
X3971215Y-14066829D01*
X3971215Y-14066829D02*
X3980739Y-14104924D01*
X3980739Y-14104924D02*
X3980739Y-14152543D01*
X3980739Y-14152543D02*
X3971215Y-14190638D01*
X3971215Y-14190638D02*
X3961691Y-14209686D01*
X3961691Y-14209686D02*
X3952167Y-14219210D01*
X3952167Y-14219210D02*
X3933120Y-14228734D01*
X3933120Y-14228734D02*
X3914072Y-14228734D01*
X3914072Y-14228734D02*
X3895024Y-14219210D01*
X3895024Y-14219210D02*
X3885501Y-14209686D01*
X3885501Y-14209686D02*
X3875977Y-14190638D01*
X3875977Y-14190638D02*
X3866453Y-14152543D01*
X3866453Y-14152543D02*
X3866453Y-14104924D01*
X3866453Y-14104924D02*
X3875977Y-14066829D01*
X3875977Y-14066829D02*
X3885501Y-14047781D01*
X3885501Y-14047781D02*
X3895024Y-14038258D01*
X3895024Y-14038258D02*
X3914072Y-14028734D01*
X4066453Y-14209686D02*
X4075977Y-14219210D01*
X4075977Y-14219210D02*
X4066453Y-14228734D01*
X4066453Y-14228734D02*
X4056929Y-14219210D01*
X4056929Y-14219210D02*
X4066453Y-14209686D01*
X4066453Y-14209686D02*
X4066453Y-14228734D01*
X4142643Y-14028734D02*
X4266453Y-14028734D01*
X4266453Y-14028734D02*
X4199786Y-14104924D01*
X4199786Y-14104924D02*
X4228358Y-14104924D01*
X4228358Y-14104924D02*
X4247405Y-14114448D01*
X4247405Y-14114448D02*
X4256929Y-14123972D01*
X4256929Y-14123972D02*
X4266453Y-14143019D01*
X4266453Y-14143019D02*
X4266453Y-14190638D01*
X4266453Y-14190638D02*
X4256929Y-14209686D01*
X4256929Y-14209686D02*
X4247405Y-14219210D01*
X4247405Y-14219210D02*
X4228358Y-14228734D01*
X4228358Y-14228734D02*
X4171215Y-14228734D01*
X4171215Y-14228734D02*
X4152167Y-14219210D01*
X4152167Y-14219210D02*
X4142643Y-14209686D01*
X4390263Y-14028734D02*
X4409310Y-14028734D01*
X4409310Y-14028734D02*
X4428358Y-14038258D01*
X4428358Y-14038258D02*
X4437882Y-14047781D01*
X4437882Y-14047781D02*
X4447405Y-14066829D01*
X4447405Y-14066829D02*
X4456929Y-14104924D01*
X4456929Y-14104924D02*
X4456929Y-14152543D01*
X4456929Y-14152543D02*
X4447405Y-14190638D01*
X4447405Y-14190638D02*
X4437882Y-14209686D01*
X4437882Y-14209686D02*
X4428358Y-14219210D01*
X4428358Y-14219210D02*
X4409310Y-14228734D01*
X4409310Y-14228734D02*
X4390263Y-14228734D01*
X4390263Y-14228734D02*
X4371215Y-14219210D01*
X4371215Y-14219210D02*
X4361691Y-14209686D01*
X4361691Y-14209686D02*
X4352167Y-14190638D01*
X4352167Y-14190638D02*
X4342644Y-14152543D01*
X4342644Y-14152543D02*
X4342644Y-14104924D01*
X4342644Y-14104924D02*
X4352167Y-14066829D01*
X4352167Y-14066829D02*
X4361691Y-14047781D01*
X4361691Y-14047781D02*
X4371215Y-14038258D01*
X4371215Y-14038258D02*
X4390263Y-14028734D01*
X4580739Y-14028734D02*
X4599786Y-14028734D01*
X4599786Y-14028734D02*
X4618834Y-14038258D01*
X4618834Y-14038258D02*
X4628358Y-14047781D01*
X4628358Y-14047781D02*
X4637882Y-14066829D01*
X4637882Y-14066829D02*
X4647405Y-14104924D01*
X4647405Y-14104924D02*
X4647405Y-14152543D01*
X4647405Y-14152543D02*
X4637882Y-14190638D01*
X4637882Y-14190638D02*
X4628358Y-14209686D01*
X4628358Y-14209686D02*
X4618834Y-14219210D01*
X4618834Y-14219210D02*
X4599786Y-14228734D01*
X4599786Y-14228734D02*
X4580739Y-14228734D01*
X4580739Y-14228734D02*
X4561691Y-14219210D01*
X4561691Y-14219210D02*
X4552167Y-14209686D01*
X4552167Y-14209686D02*
X4542644Y-14190638D01*
X4542644Y-14190638D02*
X4533120Y-14152543D01*
X4533120Y-14152543D02*
X4533120Y-14104924D01*
X4533120Y-14104924D02*
X4542644Y-14066829D01*
X4542644Y-14066829D02*
X4552167Y-14047781D01*
X4552167Y-14047781D02*
X4561691Y-14038258D01*
X4561691Y-14038258D02*
X4580739Y-14028734D01*
X4733120Y-14228734D02*
X4733120Y-14095400D01*
X4733120Y-14114448D02*
X4742644Y-14104924D01*
X4742644Y-14104924D02*
X4761691Y-14095400D01*
X4761691Y-14095400D02*
X4790263Y-14095400D01*
X4790263Y-14095400D02*
X4809310Y-14104924D01*
X4809310Y-14104924D02*
X4818834Y-14123972D01*
X4818834Y-14123972D02*
X4818834Y-14228734D01*
X4818834Y-14123972D02*
X4828358Y-14104924D01*
X4828358Y-14104924D02*
X4847405Y-14095400D01*
X4847405Y-14095400D02*
X4875977Y-14095400D01*
X4875977Y-14095400D02*
X4895025Y-14104924D01*
X4895025Y-14104924D02*
X4904548Y-14123972D01*
X4904548Y-14123972D02*
X4904548Y-14228734D01*
X4999786Y-14228734D02*
X4999786Y-14095400D01*
X4999786Y-14114448D02*
X5009310Y-14104924D01*
X5009310Y-14104924D02*
X5028358Y-14095400D01*
X5028358Y-14095400D02*
X5056929Y-14095400D01*
X5056929Y-14095400D02*
X5075977Y-14104924D01*
X5075977Y-14104924D02*
X5085501Y-14123972D01*
X5085501Y-14123972D02*
X5085501Y-14228734D01*
X5085501Y-14123972D02*
X5095025Y-14104924D01*
X5095025Y-14104924D02*
X5114072Y-14095400D01*
X5114072Y-14095400D02*
X5142644Y-14095400D01*
X5142644Y-14095400D02*
X5161691Y-14104924D01*
X5161691Y-14104924D02*
X5171215Y-14123972D01*
X5171215Y-14123972D02*
X5171215Y-14228734D01*
X5561691Y-14019210D02*
X5390263Y-14276353D01*
X5818834Y-14028734D02*
X5837882Y-14028734D01*
X5837882Y-14028734D02*
X5856929Y-14038258D01*
X5856929Y-14038258D02*
X5866453Y-14047781D01*
X5866453Y-14047781D02*
X5875977Y-14066829D01*
X5875977Y-14066829D02*
X5885501Y-14104924D01*
X5885501Y-14104924D02*
X5885501Y-14152543D01*
X5885501Y-14152543D02*
X5875977Y-14190638D01*
X5875977Y-14190638D02*
X5866453Y-14209686D01*
X5866453Y-14209686D02*
X5856929Y-14219210D01*
X5856929Y-14219210D02*
X5837882Y-14228734D01*
X5837882Y-14228734D02*
X5818834Y-14228734D01*
X5818834Y-14228734D02*
X5799786Y-14219210D01*
X5799786Y-14219210D02*
X5790263Y-14209686D01*
X5790263Y-14209686D02*
X5780739Y-14190638D01*
X5780739Y-14190638D02*
X5771215Y-14152543D01*
X5771215Y-14152543D02*
X5771215Y-14104924D01*
X5771215Y-14104924D02*
X5780739Y-14066829D01*
X5780739Y-14066829D02*
X5790263Y-14047781D01*
X5790263Y-14047781D02*
X5799786Y-14038258D01*
X5799786Y-14038258D02*
X5818834Y-14028734D01*
X5971215Y-14209686D02*
X5980739Y-14219210D01*
X5980739Y-14219210D02*
X5971215Y-14228734D01*
X5971215Y-14228734D02*
X5961691Y-14219210D01*
X5961691Y-14219210D02*
X5971215Y-14209686D01*
X5971215Y-14209686D02*
X5971215Y-14228734D01*
X6104548Y-14028734D02*
X6123596Y-14028734D01*
X6123596Y-14028734D02*
X6142644Y-14038258D01*
X6142644Y-14038258D02*
X6152167Y-14047781D01*
X6152167Y-14047781D02*
X6161691Y-14066829D01*
X6161691Y-14066829D02*
X6171215Y-14104924D01*
X6171215Y-14104924D02*
X6171215Y-14152543D01*
X6171215Y-14152543D02*
X6161691Y-14190638D01*
X6161691Y-14190638D02*
X6152167Y-14209686D01*
X6152167Y-14209686D02*
X6142644Y-14219210D01*
X6142644Y-14219210D02*
X6123596Y-14228734D01*
X6123596Y-14228734D02*
X6104548Y-14228734D01*
X6104548Y-14228734D02*
X6085501Y-14219210D01*
X6085501Y-14219210D02*
X6075977Y-14209686D01*
X6075977Y-14209686D02*
X6066453Y-14190638D01*
X6066453Y-14190638D02*
X6056929Y-14152543D01*
X6056929Y-14152543D02*
X6056929Y-14104924D01*
X6056929Y-14104924D02*
X6066453Y-14066829D01*
X6066453Y-14066829D02*
X6075977Y-14047781D01*
X6075977Y-14047781D02*
X6085501Y-14038258D01*
X6085501Y-14038258D02*
X6104548Y-14028734D01*
X6361691Y-14228734D02*
X6247406Y-14228734D01*
X6304548Y-14228734D02*
X6304548Y-14028734D01*
X6304548Y-14028734D02*
X6285501Y-14057305D01*
X6285501Y-14057305D02*
X6266453Y-14076353D01*
X6266453Y-14076353D02*
X6247406Y-14085877D01*
X6552167Y-14228734D02*
X6437882Y-14228734D01*
X6495025Y-14228734D02*
X6495025Y-14028734D01*
X6495025Y-14028734D02*
X6475977Y-14057305D01*
X6475977Y-14057305D02*
X6456929Y-14076353D01*
X6456929Y-14076353D02*
X6437882Y-14085877D01*
X6666453Y-14114448D02*
X6647406Y-14104924D01*
X6647406Y-14104924D02*
X6637882Y-14095400D01*
X6637882Y-14095400D02*
X6628358Y-14076353D01*
X6628358Y-14076353D02*
X6628358Y-14066829D01*
X6628358Y-14066829D02*
X6637882Y-14047781D01*
X6637882Y-14047781D02*
X6647406Y-14038258D01*
X6647406Y-14038258D02*
X6666453Y-14028734D01*
X6666453Y-14028734D02*
X6704548Y-14028734D01*
X6704548Y-14028734D02*
X6723596Y-14038258D01*
X6723596Y-14038258D02*
X6733120Y-14047781D01*
X6733120Y-14047781D02*
X6742644Y-14066829D01*
X6742644Y-14066829D02*
X6742644Y-14076353D01*
X6742644Y-14076353D02*
X6733120Y-14095400D01*
X6733120Y-14095400D02*
X6723596Y-14104924D01*
X6723596Y-14104924D02*
X6704548Y-14114448D01*
X6704548Y-14114448D02*
X6666453Y-14114448D01*
X6666453Y-14114448D02*
X6647406Y-14123972D01*
X6647406Y-14123972D02*
X6637882Y-14133496D01*
X6637882Y-14133496D02*
X6628358Y-14152543D01*
X6628358Y-14152543D02*
X6628358Y-14190638D01*
X6628358Y-14190638D02*
X6637882Y-14209686D01*
X6637882Y-14209686D02*
X6647406Y-14219210D01*
X6647406Y-14219210D02*
X6666453Y-14228734D01*
X6666453Y-14228734D02*
X6704548Y-14228734D01*
X6704548Y-14228734D02*
X6723596Y-14219210D01*
X6723596Y-14219210D02*
X6733120Y-14209686D01*
X6733120Y-14209686D02*
X6742644Y-14190638D01*
X6742644Y-14190638D02*
X6742644Y-14152543D01*
X6742644Y-14152543D02*
X6733120Y-14133496D01*
X6733120Y-14133496D02*
X6723596Y-14123972D01*
X6723596Y-14123972D02*
X6704548Y-14114448D01*
X6818834Y-14028734D02*
X6818834Y-14066829D01*
X6895025Y-14028734D02*
X6895025Y-14066829D01*
X7190263Y-14304924D02*
X7180739Y-14295400D01*
X7180739Y-14295400D02*
X7161691Y-14266829D01*
X7161691Y-14266829D02*
X7152168Y-14247781D01*
X7152168Y-14247781D02*
X7142644Y-14219210D01*
X7142644Y-14219210D02*
X7133120Y-14171591D01*
X7133120Y-14171591D02*
X7133120Y-14133496D01*
X7133120Y-14133496D02*
X7142644Y-14085877D01*
X7142644Y-14085877D02*
X7152168Y-14057305D01*
X7152168Y-14057305D02*
X7161691Y-14038258D01*
X7161691Y-14038258D02*
X7180739Y-14009686D01*
X7180739Y-14009686D02*
X7190263Y-14000162D01*
X7247406Y-14028734D02*
X7380739Y-14028734D01*
X7380739Y-14028734D02*
X7295025Y-14228734D01*
X7609310Y-14228734D02*
X7609310Y-14028734D01*
X7695025Y-14228734D02*
X7695025Y-14123972D01*
X7695025Y-14123972D02*
X7685501Y-14104924D01*
X7685501Y-14104924D02*
X7666453Y-14095400D01*
X7666453Y-14095400D02*
X7637882Y-14095400D01*
X7637882Y-14095400D02*
X7618834Y-14104924D01*
X7618834Y-14104924D02*
X7609310Y-14114448D01*
X7818834Y-14228734D02*
X7799787Y-14219210D01*
X7799787Y-14219210D02*
X7790263Y-14209686D01*
X7790263Y-14209686D02*
X7780739Y-14190638D01*
X7780739Y-14190638D02*
X7780739Y-14133496D01*
X7780739Y-14133496D02*
X7790263Y-14114448D01*
X7790263Y-14114448D02*
X7799787Y-14104924D01*
X7799787Y-14104924D02*
X7818834Y-14095400D01*
X7818834Y-14095400D02*
X7847406Y-14095400D01*
X7847406Y-14095400D02*
X7866453Y-14104924D01*
X7866453Y-14104924D02*
X7875977Y-14114448D01*
X7875977Y-14114448D02*
X7885501Y-14133496D01*
X7885501Y-14133496D02*
X7885501Y-14190638D01*
X7885501Y-14190638D02*
X7875977Y-14209686D01*
X7875977Y-14209686D02*
X7866453Y-14219210D01*
X7866453Y-14219210D02*
X7847406Y-14228734D01*
X7847406Y-14228734D02*
X7818834Y-14228734D01*
X7999787Y-14228734D02*
X7980739Y-14219210D01*
X7980739Y-14219210D02*
X7971215Y-14200162D01*
X7971215Y-14200162D02*
X7971215Y-14028734D01*
X8152168Y-14219210D02*
X8133120Y-14228734D01*
X8133120Y-14228734D02*
X8095025Y-14228734D01*
X8095025Y-14228734D02*
X8075977Y-14219210D01*
X8075977Y-14219210D02*
X8066453Y-14200162D01*
X8066453Y-14200162D02*
X8066453Y-14123972D01*
X8066453Y-14123972D02*
X8075977Y-14104924D01*
X8075977Y-14104924D02*
X8095025Y-14095400D01*
X8095025Y-14095400D02*
X8133120Y-14095400D01*
X8133120Y-14095400D02*
X8152168Y-14104924D01*
X8152168Y-14104924D02*
X8161691Y-14123972D01*
X8161691Y-14123972D02*
X8161691Y-14143019D01*
X8161691Y-14143019D02*
X8066453Y-14162067D01*
X8237882Y-14219210D02*
X8256930Y-14228734D01*
X8256930Y-14228734D02*
X8295025Y-14228734D01*
X8295025Y-14228734D02*
X8314072Y-14219210D01*
X8314072Y-14219210D02*
X8323596Y-14200162D01*
X8323596Y-14200162D02*
X8323596Y-14190638D01*
X8323596Y-14190638D02*
X8314072Y-14171591D01*
X8314072Y-14171591D02*
X8295025Y-14162067D01*
X8295025Y-14162067D02*
X8266453Y-14162067D01*
X8266453Y-14162067D02*
X8247406Y-14152543D01*
X8247406Y-14152543D02*
X8237882Y-14133496D01*
X8237882Y-14133496D02*
X8237882Y-14123972D01*
X8237882Y-14123972D02*
X8247406Y-14104924D01*
X8247406Y-14104924D02*
X8266453Y-14095400D01*
X8266453Y-14095400D02*
X8295025Y-14095400D01*
X8295025Y-14095400D02*
X8314072Y-14104924D01*
X8390263Y-14304924D02*
X8399787Y-14295400D01*
X8399787Y-14295400D02*
X8418834Y-14266829D01*
X8418834Y-14266829D02*
X8428358Y-14247781D01*
X8428358Y-14247781D02*
X8437882Y-14219210D01*
X8437882Y-14219210D02*
X8447406Y-14171591D01*
X8447406Y-14171591D02*
X8447406Y-14133496D01*
X8447406Y-14133496D02*
X8437882Y-14085877D01*
X8437882Y-14085877D02*
X8428358Y-14057305D01*
X8428358Y-14057305D02*
X8418834Y-14038258D01*
X8418834Y-14038258D02*
X8399787Y-14009686D01*
X8399787Y-14009686D02*
X8390263Y-14000162D01*
D12*
X3615200Y-14401250D02*
G75*
G02*
X3535200Y-14401250I-40000J0D01*
G01*
X3535200Y-14401250D02*
G75*
G02*
X3615200Y-14401250I40000J0D01*
G01*
D11*
X3914072Y-14292734D02*
X3933120Y-14292734D01*
X3933120Y-14292734D02*
X3952167Y-14302258D01*
X3952167Y-14302258D02*
X3961691Y-14311781D01*
X3961691Y-14311781D02*
X3971215Y-14330829D01*
X3971215Y-14330829D02*
X3980739Y-14368924D01*
X3980739Y-14368924D02*
X3980739Y-14416543D01*
X3980739Y-14416543D02*
X3971215Y-14454638D01*
X3971215Y-14454638D02*
X3961691Y-14473686D01*
X3961691Y-14473686D02*
X3952167Y-14483210D01*
X3952167Y-14483210D02*
X3933120Y-14492734D01*
X3933120Y-14492734D02*
X3914072Y-14492734D01*
X3914072Y-14492734D02*
X3895024Y-14483210D01*
X3895024Y-14483210D02*
X3885501Y-14473686D01*
X3885501Y-14473686D02*
X3875977Y-14454638D01*
X3875977Y-14454638D02*
X3866453Y-14416543D01*
X3866453Y-14416543D02*
X3866453Y-14368924D01*
X3866453Y-14368924D02*
X3875977Y-14330829D01*
X3875977Y-14330829D02*
X3885501Y-14311781D01*
X3885501Y-14311781D02*
X3895024Y-14302258D01*
X3895024Y-14302258D02*
X3914072Y-14292734D01*
X4066453Y-14473686D02*
X4075977Y-14483210D01*
X4075977Y-14483210D02*
X4066453Y-14492734D01*
X4066453Y-14492734D02*
X4056929Y-14483210D01*
X4056929Y-14483210D02*
X4066453Y-14473686D01*
X4066453Y-14473686D02*
X4066453Y-14492734D01*
X4190262Y-14378448D02*
X4171215Y-14368924D01*
X4171215Y-14368924D02*
X4161691Y-14359400D01*
X4161691Y-14359400D02*
X4152167Y-14340353D01*
X4152167Y-14340353D02*
X4152167Y-14330829D01*
X4152167Y-14330829D02*
X4161691Y-14311781D01*
X4161691Y-14311781D02*
X4171215Y-14302258D01*
X4171215Y-14302258D02*
X4190262Y-14292734D01*
X4190262Y-14292734D02*
X4228358Y-14292734D01*
X4228358Y-14292734D02*
X4247405Y-14302258D01*
X4247405Y-14302258D02*
X4256929Y-14311781D01*
X4256929Y-14311781D02*
X4266453Y-14330829D01*
X4266453Y-14330829D02*
X4266453Y-14340353D01*
X4266453Y-14340353D02*
X4256929Y-14359400D01*
X4256929Y-14359400D02*
X4247405Y-14368924D01*
X4247405Y-14368924D02*
X4228358Y-14378448D01*
X4228358Y-14378448D02*
X4190262Y-14378448D01*
X4190262Y-14378448D02*
X4171215Y-14387972D01*
X4171215Y-14387972D02*
X4161691Y-14397496D01*
X4161691Y-14397496D02*
X4152167Y-14416543D01*
X4152167Y-14416543D02*
X4152167Y-14454638D01*
X4152167Y-14454638D02*
X4161691Y-14473686D01*
X4161691Y-14473686D02*
X4171215Y-14483210D01*
X4171215Y-14483210D02*
X4190262Y-14492734D01*
X4190262Y-14492734D02*
X4228358Y-14492734D01*
X4228358Y-14492734D02*
X4247405Y-14483210D01*
X4247405Y-14483210D02*
X4256929Y-14473686D01*
X4256929Y-14473686D02*
X4266453Y-14454638D01*
X4266453Y-14454638D02*
X4266453Y-14416543D01*
X4266453Y-14416543D02*
X4256929Y-14397496D01*
X4256929Y-14397496D02*
X4247405Y-14387972D01*
X4247405Y-14387972D02*
X4228358Y-14378448D01*
X4390263Y-14292734D02*
X4409310Y-14292734D01*
X4409310Y-14292734D02*
X4428358Y-14302258D01*
X4428358Y-14302258D02*
X4437882Y-14311781D01*
X4437882Y-14311781D02*
X4447405Y-14330829D01*
X4447405Y-14330829D02*
X4456929Y-14368924D01*
X4456929Y-14368924D02*
X4456929Y-14416543D01*
X4456929Y-14416543D02*
X4447405Y-14454638D01*
X4447405Y-14454638D02*
X4437882Y-14473686D01*
X4437882Y-14473686D02*
X4428358Y-14483210D01*
X4428358Y-14483210D02*
X4409310Y-14492734D01*
X4409310Y-14492734D02*
X4390263Y-14492734D01*
X4390263Y-14492734D02*
X4371215Y-14483210D01*
X4371215Y-14483210D02*
X4361691Y-14473686D01*
X4361691Y-14473686D02*
X4352167Y-14454638D01*
X4352167Y-14454638D02*
X4342644Y-14416543D01*
X4342644Y-14416543D02*
X4342644Y-14368924D01*
X4342644Y-14368924D02*
X4352167Y-14330829D01*
X4352167Y-14330829D02*
X4361691Y-14311781D01*
X4361691Y-14311781D02*
X4371215Y-14302258D01*
X4371215Y-14302258D02*
X4390263Y-14292734D01*
X4580739Y-14292734D02*
X4599786Y-14292734D01*
X4599786Y-14292734D02*
X4618834Y-14302258D01*
X4618834Y-14302258D02*
X4628358Y-14311781D01*
X4628358Y-14311781D02*
X4637882Y-14330829D01*
X4637882Y-14330829D02*
X4647405Y-14368924D01*
X4647405Y-14368924D02*
X4647405Y-14416543D01*
X4647405Y-14416543D02*
X4637882Y-14454638D01*
X4637882Y-14454638D02*
X4628358Y-14473686D01*
X4628358Y-14473686D02*
X4618834Y-14483210D01*
X4618834Y-14483210D02*
X4599786Y-14492734D01*
X4599786Y-14492734D02*
X4580739Y-14492734D01*
X4580739Y-14492734D02*
X4561691Y-14483210D01*
X4561691Y-14483210D02*
X4552167Y-14473686D01*
X4552167Y-14473686D02*
X4542644Y-14454638D01*
X4542644Y-14454638D02*
X4533120Y-14416543D01*
X4533120Y-14416543D02*
X4533120Y-14368924D01*
X4533120Y-14368924D02*
X4542644Y-14330829D01*
X4542644Y-14330829D02*
X4552167Y-14311781D01*
X4552167Y-14311781D02*
X4561691Y-14302258D01*
X4561691Y-14302258D02*
X4580739Y-14292734D01*
X4733120Y-14492734D02*
X4733120Y-14359400D01*
X4733120Y-14378448D02*
X4742644Y-14368924D01*
X4742644Y-14368924D02*
X4761691Y-14359400D01*
X4761691Y-14359400D02*
X4790263Y-14359400D01*
X4790263Y-14359400D02*
X4809310Y-14368924D01*
X4809310Y-14368924D02*
X4818834Y-14387972D01*
X4818834Y-14387972D02*
X4818834Y-14492734D01*
X4818834Y-14387972D02*
X4828358Y-14368924D01*
X4828358Y-14368924D02*
X4847405Y-14359400D01*
X4847405Y-14359400D02*
X4875977Y-14359400D01*
X4875977Y-14359400D02*
X4895025Y-14368924D01*
X4895025Y-14368924D02*
X4904548Y-14387972D01*
X4904548Y-14387972D02*
X4904548Y-14492734D01*
X4999786Y-14492734D02*
X4999786Y-14359400D01*
X4999786Y-14378448D02*
X5009310Y-14368924D01*
X5009310Y-14368924D02*
X5028358Y-14359400D01*
X5028358Y-14359400D02*
X5056929Y-14359400D01*
X5056929Y-14359400D02*
X5075977Y-14368924D01*
X5075977Y-14368924D02*
X5085501Y-14387972D01*
X5085501Y-14387972D02*
X5085501Y-14492734D01*
X5085501Y-14387972D02*
X5095025Y-14368924D01*
X5095025Y-14368924D02*
X5114072Y-14359400D01*
X5114072Y-14359400D02*
X5142644Y-14359400D01*
X5142644Y-14359400D02*
X5161691Y-14368924D01*
X5161691Y-14368924D02*
X5171215Y-14387972D01*
X5171215Y-14387972D02*
X5171215Y-14492734D01*
X5561691Y-14283210D02*
X5390263Y-14540353D01*
X5818834Y-14292734D02*
X5837882Y-14292734D01*
X5837882Y-14292734D02*
X5856929Y-14302258D01*
X5856929Y-14302258D02*
X5866453Y-14311781D01*
X5866453Y-14311781D02*
X5875977Y-14330829D01*
X5875977Y-14330829D02*
X5885501Y-14368924D01*
X5885501Y-14368924D02*
X5885501Y-14416543D01*
X5885501Y-14416543D02*
X5875977Y-14454638D01*
X5875977Y-14454638D02*
X5866453Y-14473686D01*
X5866453Y-14473686D02*
X5856929Y-14483210D01*
X5856929Y-14483210D02*
X5837882Y-14492734D01*
X5837882Y-14492734D02*
X5818834Y-14492734D01*
X5818834Y-14492734D02*
X5799786Y-14483210D01*
X5799786Y-14483210D02*
X5790263Y-14473686D01*
X5790263Y-14473686D02*
X5780739Y-14454638D01*
X5780739Y-14454638D02*
X5771215Y-14416543D01*
X5771215Y-14416543D02*
X5771215Y-14368924D01*
X5771215Y-14368924D02*
X5780739Y-14330829D01*
X5780739Y-14330829D02*
X5790263Y-14311781D01*
X5790263Y-14311781D02*
X5799786Y-14302258D01*
X5799786Y-14302258D02*
X5818834Y-14292734D01*
X5971215Y-14473686D02*
X5980739Y-14483210D01*
X5980739Y-14483210D02*
X5971215Y-14492734D01*
X5971215Y-14492734D02*
X5961691Y-14483210D01*
X5961691Y-14483210D02*
X5971215Y-14473686D01*
X5971215Y-14473686D02*
X5971215Y-14492734D01*
X6104548Y-14292734D02*
X6123596Y-14292734D01*
X6123596Y-14292734D02*
X6142644Y-14302258D01*
X6142644Y-14302258D02*
X6152167Y-14311781D01*
X6152167Y-14311781D02*
X6161691Y-14330829D01*
X6161691Y-14330829D02*
X6171215Y-14368924D01*
X6171215Y-14368924D02*
X6171215Y-14416543D01*
X6171215Y-14416543D02*
X6161691Y-14454638D01*
X6161691Y-14454638D02*
X6152167Y-14473686D01*
X6152167Y-14473686D02*
X6142644Y-14483210D01*
X6142644Y-14483210D02*
X6123596Y-14492734D01*
X6123596Y-14492734D02*
X6104548Y-14492734D01*
X6104548Y-14492734D02*
X6085501Y-14483210D01*
X6085501Y-14483210D02*
X6075977Y-14473686D01*
X6075977Y-14473686D02*
X6066453Y-14454638D01*
X6066453Y-14454638D02*
X6056929Y-14416543D01*
X6056929Y-14416543D02*
X6056929Y-14368924D01*
X6056929Y-14368924D02*
X6066453Y-14330829D01*
X6066453Y-14330829D02*
X6075977Y-14311781D01*
X6075977Y-14311781D02*
X6085501Y-14302258D01*
X6085501Y-14302258D02*
X6104548Y-14292734D01*
X6237882Y-14292734D02*
X6361691Y-14292734D01*
X6361691Y-14292734D02*
X6295025Y-14368924D01*
X6295025Y-14368924D02*
X6323596Y-14368924D01*
X6323596Y-14368924D02*
X6342644Y-14378448D01*
X6342644Y-14378448D02*
X6352167Y-14387972D01*
X6352167Y-14387972D02*
X6361691Y-14407019D01*
X6361691Y-14407019D02*
X6361691Y-14454638D01*
X6361691Y-14454638D02*
X6352167Y-14473686D01*
X6352167Y-14473686D02*
X6342644Y-14483210D01*
X6342644Y-14483210D02*
X6323596Y-14492734D01*
X6323596Y-14492734D02*
X6266453Y-14492734D01*
X6266453Y-14492734D02*
X6247406Y-14483210D01*
X6247406Y-14483210D02*
X6237882Y-14473686D01*
X6552167Y-14492734D02*
X6437882Y-14492734D01*
X6495025Y-14492734D02*
X6495025Y-14292734D01*
X6495025Y-14292734D02*
X6475977Y-14321305D01*
X6475977Y-14321305D02*
X6456929Y-14340353D01*
X6456929Y-14340353D02*
X6437882Y-14349877D01*
X6733120Y-14292734D02*
X6637882Y-14292734D01*
X6637882Y-14292734D02*
X6628358Y-14387972D01*
X6628358Y-14387972D02*
X6637882Y-14378448D01*
X6637882Y-14378448D02*
X6656929Y-14368924D01*
X6656929Y-14368924D02*
X6704548Y-14368924D01*
X6704548Y-14368924D02*
X6723596Y-14378448D01*
X6723596Y-14378448D02*
X6733120Y-14387972D01*
X6733120Y-14387972D02*
X6742644Y-14407019D01*
X6742644Y-14407019D02*
X6742644Y-14454638D01*
X6742644Y-14454638D02*
X6733120Y-14473686D01*
X6733120Y-14473686D02*
X6723596Y-14483210D01*
X6723596Y-14483210D02*
X6704548Y-14492734D01*
X6704548Y-14492734D02*
X6656929Y-14492734D01*
X6656929Y-14492734D02*
X6637882Y-14483210D01*
X6637882Y-14483210D02*
X6628358Y-14473686D01*
X6818834Y-14292734D02*
X6818834Y-14330829D01*
X6895025Y-14292734D02*
X6895025Y-14330829D01*
X7190263Y-14568924D02*
X7180739Y-14559400D01*
X7180739Y-14559400D02*
X7161691Y-14530829D01*
X7161691Y-14530829D02*
X7152168Y-14511781D01*
X7152168Y-14511781D02*
X7142644Y-14483210D01*
X7142644Y-14483210D02*
X7133120Y-14435591D01*
X7133120Y-14435591D02*
X7133120Y-14397496D01*
X7133120Y-14397496D02*
X7142644Y-14349877D01*
X7142644Y-14349877D02*
X7152168Y-14321305D01*
X7152168Y-14321305D02*
X7161691Y-14302258D01*
X7161691Y-14302258D02*
X7180739Y-14273686D01*
X7180739Y-14273686D02*
X7190263Y-14264162D01*
X7361691Y-14292734D02*
X7266453Y-14292734D01*
X7266453Y-14292734D02*
X7256929Y-14387972D01*
X7256929Y-14387972D02*
X7266453Y-14378448D01*
X7266453Y-14378448D02*
X7285501Y-14368924D01*
X7285501Y-14368924D02*
X7333120Y-14368924D01*
X7333120Y-14368924D02*
X7352168Y-14378448D01*
X7352168Y-14378448D02*
X7361691Y-14387972D01*
X7361691Y-14387972D02*
X7371215Y-14407019D01*
X7371215Y-14407019D02*
X7371215Y-14454638D01*
X7371215Y-14454638D02*
X7361691Y-14473686D01*
X7361691Y-14473686D02*
X7352168Y-14483210D01*
X7352168Y-14483210D02*
X7333120Y-14492734D01*
X7333120Y-14492734D02*
X7285501Y-14492734D01*
X7285501Y-14492734D02*
X7266453Y-14483210D01*
X7266453Y-14483210D02*
X7256929Y-14473686D01*
X7542644Y-14292734D02*
X7504548Y-14292734D01*
X7504548Y-14292734D02*
X7485501Y-14302258D01*
X7485501Y-14302258D02*
X7475977Y-14311781D01*
X7475977Y-14311781D02*
X7456929Y-14340353D01*
X7456929Y-14340353D02*
X7447406Y-14378448D01*
X7447406Y-14378448D02*
X7447406Y-14454638D01*
X7447406Y-14454638D02*
X7456929Y-14473686D01*
X7456929Y-14473686D02*
X7466453Y-14483210D01*
X7466453Y-14483210D02*
X7485501Y-14492734D01*
X7485501Y-14492734D02*
X7523596Y-14492734D01*
X7523596Y-14492734D02*
X7542644Y-14483210D01*
X7542644Y-14483210D02*
X7552168Y-14473686D01*
X7552168Y-14473686D02*
X7561691Y-14454638D01*
X7561691Y-14454638D02*
X7561691Y-14407019D01*
X7561691Y-14407019D02*
X7552168Y-14387972D01*
X7552168Y-14387972D02*
X7542644Y-14378448D01*
X7542644Y-14378448D02*
X7523596Y-14368924D01*
X7523596Y-14368924D02*
X7485501Y-14368924D01*
X7485501Y-14368924D02*
X7466453Y-14378448D01*
X7466453Y-14378448D02*
X7456929Y-14387972D01*
X7456929Y-14387972D02*
X7447406Y-14407019D01*
X7799787Y-14492734D02*
X7799787Y-14292734D01*
X7885501Y-14492734D02*
X7885501Y-14387972D01*
X7885501Y-14387972D02*
X7875977Y-14368924D01*
X7875977Y-14368924D02*
X7856930Y-14359400D01*
X7856930Y-14359400D02*
X7828358Y-14359400D01*
X7828358Y-14359400D02*
X7809310Y-14368924D01*
X7809310Y-14368924D02*
X7799787Y-14378448D01*
X8009310Y-14492734D02*
X7990263Y-14483210D01*
X7990263Y-14483210D02*
X7980739Y-14473686D01*
X7980739Y-14473686D02*
X7971215Y-14454638D01*
X7971215Y-14454638D02*
X7971215Y-14397496D01*
X7971215Y-14397496D02*
X7980739Y-14378448D01*
X7980739Y-14378448D02*
X7990263Y-14368924D01*
X7990263Y-14368924D02*
X8009310Y-14359400D01*
X8009310Y-14359400D02*
X8037882Y-14359400D01*
X8037882Y-14359400D02*
X8056930Y-14368924D01*
X8056930Y-14368924D02*
X8066453Y-14378448D01*
X8066453Y-14378448D02*
X8075977Y-14397496D01*
X8075977Y-14397496D02*
X8075977Y-14454638D01*
X8075977Y-14454638D02*
X8066453Y-14473686D01*
X8066453Y-14473686D02*
X8056930Y-14483210D01*
X8056930Y-14483210D02*
X8037882Y-14492734D01*
X8037882Y-14492734D02*
X8009310Y-14492734D01*
X8190263Y-14492734D02*
X8171215Y-14483210D01*
X8171215Y-14483210D02*
X8161691Y-14464162D01*
X8161691Y-14464162D02*
X8161691Y-14292734D01*
X8342644Y-14483210D02*
X8323596Y-14492734D01*
X8323596Y-14492734D02*
X8285501Y-14492734D01*
X8285501Y-14492734D02*
X8266453Y-14483210D01*
X8266453Y-14483210D02*
X8256930Y-14464162D01*
X8256930Y-14464162D02*
X8256930Y-14387972D01*
X8256930Y-14387972D02*
X8266453Y-14368924D01*
X8266453Y-14368924D02*
X8285501Y-14359400D01*
X8285501Y-14359400D02*
X8323596Y-14359400D01*
X8323596Y-14359400D02*
X8342644Y-14368924D01*
X8342644Y-14368924D02*
X8352168Y-14387972D01*
X8352168Y-14387972D02*
X8352168Y-14407019D01*
X8352168Y-14407019D02*
X8256930Y-14426067D01*
X8428358Y-14483210D02*
X8447406Y-14492734D01*
X8447406Y-14492734D02*
X8485501Y-14492734D01*
X8485501Y-14492734D02*
X8504549Y-14483210D01*
X8504549Y-14483210D02*
X8514073Y-14464162D01*
X8514073Y-14464162D02*
X8514073Y-14454638D01*
X8514073Y-14454638D02*
X8504549Y-14435591D01*
X8504549Y-14435591D02*
X8485501Y-14426067D01*
X8485501Y-14426067D02*
X8456930Y-14426067D01*
X8456930Y-14426067D02*
X8437882Y-14416543D01*
X8437882Y-14416543D02*
X8428358Y-14397496D01*
X8428358Y-14397496D02*
X8428358Y-14387972D01*
X8428358Y-14387972D02*
X8437882Y-14368924D01*
X8437882Y-14368924D02*
X8456930Y-14359400D01*
X8456930Y-14359400D02*
X8485501Y-14359400D01*
X8485501Y-14359400D02*
X8504549Y-14368924D01*
X8580739Y-14568924D02*
X8590263Y-14559400D01*
X8590263Y-14559400D02*
X8609311Y-14530829D01*
X8609311Y-14530829D02*
X8618834Y-14511781D01*
X8618834Y-14511781D02*
X8628358Y-14483210D01*
X8628358Y-14483210D02*
X8637882Y-14435591D01*
X8637882Y-14435591D02*
X8637882Y-14397496D01*
X8637882Y-14397496D02*
X8628358Y-14349877D01*
X8628358Y-14349877D02*
X8618834Y-14321305D01*
X8618834Y-14321305D02*
X8609311Y-14302258D01*
X8609311Y-14302258D02*
X8590263Y-14273686D01*
X8590263Y-14273686D02*
X8580739Y-14264162D01*
D12*
X3570750Y-14620800D02*
X3570750Y-14709700D01*
X3526300Y-14665250D02*
X3615200Y-14665250D01*
D11*
X3914072Y-14556734D02*
X3933120Y-14556734D01*
X3933120Y-14556734D02*
X3952167Y-14566258D01*
X3952167Y-14566258D02*
X3961691Y-14575781D01*
X3961691Y-14575781D02*
X3971215Y-14594829D01*
X3971215Y-14594829D02*
X3980739Y-14632924D01*
X3980739Y-14632924D02*
X3980739Y-14680543D01*
X3980739Y-14680543D02*
X3971215Y-14718638D01*
X3971215Y-14718638D02*
X3961691Y-14737686D01*
X3961691Y-14737686D02*
X3952167Y-14747210D01*
X3952167Y-14747210D02*
X3933120Y-14756734D01*
X3933120Y-14756734D02*
X3914072Y-14756734D01*
X3914072Y-14756734D02*
X3895024Y-14747210D01*
X3895024Y-14747210D02*
X3885501Y-14737686D01*
X3885501Y-14737686D02*
X3875977Y-14718638D01*
X3875977Y-14718638D02*
X3866453Y-14680543D01*
X3866453Y-14680543D02*
X3866453Y-14632924D01*
X3866453Y-14632924D02*
X3875977Y-14594829D01*
X3875977Y-14594829D02*
X3885501Y-14575781D01*
X3885501Y-14575781D02*
X3895024Y-14566258D01*
X3895024Y-14566258D02*
X3914072Y-14556734D01*
X4066453Y-14737686D02*
X4075977Y-14747210D01*
X4075977Y-14747210D02*
X4066453Y-14756734D01*
X4066453Y-14756734D02*
X4056929Y-14747210D01*
X4056929Y-14747210D02*
X4066453Y-14737686D01*
X4066453Y-14737686D02*
X4066453Y-14756734D01*
X4190262Y-14642448D02*
X4171215Y-14632924D01*
X4171215Y-14632924D02*
X4161691Y-14623400D01*
X4161691Y-14623400D02*
X4152167Y-14604353D01*
X4152167Y-14604353D02*
X4152167Y-14594829D01*
X4152167Y-14594829D02*
X4161691Y-14575781D01*
X4161691Y-14575781D02*
X4171215Y-14566258D01*
X4171215Y-14566258D02*
X4190262Y-14556734D01*
X4190262Y-14556734D02*
X4228358Y-14556734D01*
X4228358Y-14556734D02*
X4247405Y-14566258D01*
X4247405Y-14566258D02*
X4256929Y-14575781D01*
X4256929Y-14575781D02*
X4266453Y-14594829D01*
X4266453Y-14594829D02*
X4266453Y-14604353D01*
X4266453Y-14604353D02*
X4256929Y-14623400D01*
X4256929Y-14623400D02*
X4247405Y-14632924D01*
X4247405Y-14632924D02*
X4228358Y-14642448D01*
X4228358Y-14642448D02*
X4190262Y-14642448D01*
X4190262Y-14642448D02*
X4171215Y-14651972D01*
X4171215Y-14651972D02*
X4161691Y-14661496D01*
X4161691Y-14661496D02*
X4152167Y-14680543D01*
X4152167Y-14680543D02*
X4152167Y-14718638D01*
X4152167Y-14718638D02*
X4161691Y-14737686D01*
X4161691Y-14737686D02*
X4171215Y-14747210D01*
X4171215Y-14747210D02*
X4190262Y-14756734D01*
X4190262Y-14756734D02*
X4228358Y-14756734D01*
X4228358Y-14756734D02*
X4247405Y-14747210D01*
X4247405Y-14747210D02*
X4256929Y-14737686D01*
X4256929Y-14737686D02*
X4266453Y-14718638D01*
X4266453Y-14718638D02*
X4266453Y-14680543D01*
X4266453Y-14680543D02*
X4256929Y-14661496D01*
X4256929Y-14661496D02*
X4247405Y-14651972D01*
X4247405Y-14651972D02*
X4228358Y-14642448D01*
X4380739Y-14642448D02*
X4361691Y-14632924D01*
X4361691Y-14632924D02*
X4352167Y-14623400D01*
X4352167Y-14623400D02*
X4342644Y-14604353D01*
X4342644Y-14604353D02*
X4342644Y-14594829D01*
X4342644Y-14594829D02*
X4352167Y-14575781D01*
X4352167Y-14575781D02*
X4361691Y-14566258D01*
X4361691Y-14566258D02*
X4380739Y-14556734D01*
X4380739Y-14556734D02*
X4418834Y-14556734D01*
X4418834Y-14556734D02*
X4437882Y-14566258D01*
X4437882Y-14566258D02*
X4447405Y-14575781D01*
X4447405Y-14575781D02*
X4456929Y-14594829D01*
X4456929Y-14594829D02*
X4456929Y-14604353D01*
X4456929Y-14604353D02*
X4447405Y-14623400D01*
X4447405Y-14623400D02*
X4437882Y-14632924D01*
X4437882Y-14632924D02*
X4418834Y-14642448D01*
X4418834Y-14642448D02*
X4380739Y-14642448D01*
X4380739Y-14642448D02*
X4361691Y-14651972D01*
X4361691Y-14651972D02*
X4352167Y-14661496D01*
X4352167Y-14661496D02*
X4342644Y-14680543D01*
X4342644Y-14680543D02*
X4342644Y-14718638D01*
X4342644Y-14718638D02*
X4352167Y-14737686D01*
X4352167Y-14737686D02*
X4361691Y-14747210D01*
X4361691Y-14747210D02*
X4380739Y-14756734D01*
X4380739Y-14756734D02*
X4418834Y-14756734D01*
X4418834Y-14756734D02*
X4437882Y-14747210D01*
X4437882Y-14747210D02*
X4447405Y-14737686D01*
X4447405Y-14737686D02*
X4456929Y-14718638D01*
X4456929Y-14718638D02*
X4456929Y-14680543D01*
X4456929Y-14680543D02*
X4447405Y-14661496D01*
X4447405Y-14661496D02*
X4437882Y-14651972D01*
X4437882Y-14651972D02*
X4418834Y-14642448D01*
X4552167Y-14756734D02*
X4590263Y-14756734D01*
X4590263Y-14756734D02*
X4609310Y-14747210D01*
X4609310Y-14747210D02*
X4618834Y-14737686D01*
X4618834Y-14737686D02*
X4637882Y-14709115D01*
X4637882Y-14709115D02*
X4647405Y-14671019D01*
X4647405Y-14671019D02*
X4647405Y-14594829D01*
X4647405Y-14594829D02*
X4637882Y-14575781D01*
X4637882Y-14575781D02*
X4628358Y-14566258D01*
X4628358Y-14566258D02*
X4609310Y-14556734D01*
X4609310Y-14556734D02*
X4571215Y-14556734D01*
X4571215Y-14556734D02*
X4552167Y-14566258D01*
X4552167Y-14566258D02*
X4542644Y-14575781D01*
X4542644Y-14575781D02*
X4533120Y-14594829D01*
X4533120Y-14594829D02*
X4533120Y-14642448D01*
X4533120Y-14642448D02*
X4542644Y-14661496D01*
X4542644Y-14661496D02*
X4552167Y-14671019D01*
X4552167Y-14671019D02*
X4571215Y-14680543D01*
X4571215Y-14680543D02*
X4609310Y-14680543D01*
X4609310Y-14680543D02*
X4628358Y-14671019D01*
X4628358Y-14671019D02*
X4637882Y-14661496D01*
X4637882Y-14661496D02*
X4647405Y-14642448D01*
X4733120Y-14756734D02*
X4733120Y-14623400D01*
X4733120Y-14642448D02*
X4742644Y-14632924D01*
X4742644Y-14632924D02*
X4761691Y-14623400D01*
X4761691Y-14623400D02*
X4790263Y-14623400D01*
X4790263Y-14623400D02*
X4809310Y-14632924D01*
X4809310Y-14632924D02*
X4818834Y-14651972D01*
X4818834Y-14651972D02*
X4818834Y-14756734D01*
X4818834Y-14651972D02*
X4828358Y-14632924D01*
X4828358Y-14632924D02*
X4847405Y-14623400D01*
X4847405Y-14623400D02*
X4875977Y-14623400D01*
X4875977Y-14623400D02*
X4895025Y-14632924D01*
X4895025Y-14632924D02*
X4904548Y-14651972D01*
X4904548Y-14651972D02*
X4904548Y-14756734D01*
X4999786Y-14756734D02*
X4999786Y-14623400D01*
X4999786Y-14642448D02*
X5009310Y-14632924D01*
X5009310Y-14632924D02*
X5028358Y-14623400D01*
X5028358Y-14623400D02*
X5056929Y-14623400D01*
X5056929Y-14623400D02*
X5075977Y-14632924D01*
X5075977Y-14632924D02*
X5085501Y-14651972D01*
X5085501Y-14651972D02*
X5085501Y-14756734D01*
X5085501Y-14651972D02*
X5095025Y-14632924D01*
X5095025Y-14632924D02*
X5114072Y-14623400D01*
X5114072Y-14623400D02*
X5142644Y-14623400D01*
X5142644Y-14623400D02*
X5161691Y-14632924D01*
X5161691Y-14632924D02*
X5171215Y-14651972D01*
X5171215Y-14651972D02*
X5171215Y-14756734D01*
X5561691Y-14547210D02*
X5390263Y-14804353D01*
X5818834Y-14556734D02*
X5837882Y-14556734D01*
X5837882Y-14556734D02*
X5856929Y-14566258D01*
X5856929Y-14566258D02*
X5866453Y-14575781D01*
X5866453Y-14575781D02*
X5875977Y-14594829D01*
X5875977Y-14594829D02*
X5885501Y-14632924D01*
X5885501Y-14632924D02*
X5885501Y-14680543D01*
X5885501Y-14680543D02*
X5875977Y-14718638D01*
X5875977Y-14718638D02*
X5866453Y-14737686D01*
X5866453Y-14737686D02*
X5856929Y-14747210D01*
X5856929Y-14747210D02*
X5837882Y-14756734D01*
X5837882Y-14756734D02*
X5818834Y-14756734D01*
X5818834Y-14756734D02*
X5799786Y-14747210D01*
X5799786Y-14747210D02*
X5790263Y-14737686D01*
X5790263Y-14737686D02*
X5780739Y-14718638D01*
X5780739Y-14718638D02*
X5771215Y-14680543D01*
X5771215Y-14680543D02*
X5771215Y-14632924D01*
X5771215Y-14632924D02*
X5780739Y-14594829D01*
X5780739Y-14594829D02*
X5790263Y-14575781D01*
X5790263Y-14575781D02*
X5799786Y-14566258D01*
X5799786Y-14566258D02*
X5818834Y-14556734D01*
X5971215Y-14737686D02*
X5980739Y-14747210D01*
X5980739Y-14747210D02*
X5971215Y-14756734D01*
X5971215Y-14756734D02*
X5961691Y-14747210D01*
X5961691Y-14747210D02*
X5971215Y-14737686D01*
X5971215Y-14737686D02*
X5971215Y-14756734D01*
X6104548Y-14556734D02*
X6123596Y-14556734D01*
X6123596Y-14556734D02*
X6142644Y-14566258D01*
X6142644Y-14566258D02*
X6152167Y-14575781D01*
X6152167Y-14575781D02*
X6161691Y-14594829D01*
X6161691Y-14594829D02*
X6171215Y-14632924D01*
X6171215Y-14632924D02*
X6171215Y-14680543D01*
X6171215Y-14680543D02*
X6161691Y-14718638D01*
X6161691Y-14718638D02*
X6152167Y-14737686D01*
X6152167Y-14737686D02*
X6142644Y-14747210D01*
X6142644Y-14747210D02*
X6123596Y-14756734D01*
X6123596Y-14756734D02*
X6104548Y-14756734D01*
X6104548Y-14756734D02*
X6085501Y-14747210D01*
X6085501Y-14747210D02*
X6075977Y-14737686D01*
X6075977Y-14737686D02*
X6066453Y-14718638D01*
X6066453Y-14718638D02*
X6056929Y-14680543D01*
X6056929Y-14680543D02*
X6056929Y-14632924D01*
X6056929Y-14632924D02*
X6066453Y-14594829D01*
X6066453Y-14594829D02*
X6075977Y-14575781D01*
X6075977Y-14575781D02*
X6085501Y-14566258D01*
X6085501Y-14566258D02*
X6104548Y-14556734D01*
X6237882Y-14556734D02*
X6361691Y-14556734D01*
X6361691Y-14556734D02*
X6295025Y-14632924D01*
X6295025Y-14632924D02*
X6323596Y-14632924D01*
X6323596Y-14632924D02*
X6342644Y-14642448D01*
X6342644Y-14642448D02*
X6352167Y-14651972D01*
X6352167Y-14651972D02*
X6361691Y-14671019D01*
X6361691Y-14671019D02*
X6361691Y-14718638D01*
X6361691Y-14718638D02*
X6352167Y-14737686D01*
X6352167Y-14737686D02*
X6342644Y-14747210D01*
X6342644Y-14747210D02*
X6323596Y-14756734D01*
X6323596Y-14756734D02*
X6266453Y-14756734D01*
X6266453Y-14756734D02*
X6247406Y-14747210D01*
X6247406Y-14747210D02*
X6237882Y-14737686D01*
X6542644Y-14556734D02*
X6447406Y-14556734D01*
X6447406Y-14556734D02*
X6437882Y-14651972D01*
X6437882Y-14651972D02*
X6447406Y-14642448D01*
X6447406Y-14642448D02*
X6466453Y-14632924D01*
X6466453Y-14632924D02*
X6514072Y-14632924D01*
X6514072Y-14632924D02*
X6533120Y-14642448D01*
X6533120Y-14642448D02*
X6542644Y-14651972D01*
X6542644Y-14651972D02*
X6552167Y-14671019D01*
X6552167Y-14671019D02*
X6552167Y-14718638D01*
X6552167Y-14718638D02*
X6542644Y-14737686D01*
X6542644Y-14737686D02*
X6533120Y-14747210D01*
X6533120Y-14747210D02*
X6514072Y-14756734D01*
X6514072Y-14756734D02*
X6466453Y-14756734D01*
X6466453Y-14756734D02*
X6447406Y-14747210D01*
X6447406Y-14747210D02*
X6437882Y-14737686D01*
X6675977Y-14556734D02*
X6695025Y-14556734D01*
X6695025Y-14556734D02*
X6714072Y-14566258D01*
X6714072Y-14566258D02*
X6723596Y-14575781D01*
X6723596Y-14575781D02*
X6733120Y-14594829D01*
X6733120Y-14594829D02*
X6742644Y-14632924D01*
X6742644Y-14632924D02*
X6742644Y-14680543D01*
X6742644Y-14680543D02*
X6733120Y-14718638D01*
X6733120Y-14718638D02*
X6723596Y-14737686D01*
X6723596Y-14737686D02*
X6714072Y-14747210D01*
X6714072Y-14747210D02*
X6695025Y-14756734D01*
X6695025Y-14756734D02*
X6675977Y-14756734D01*
X6675977Y-14756734D02*
X6656929Y-14747210D01*
X6656929Y-14747210D02*
X6647406Y-14737686D01*
X6647406Y-14737686D02*
X6637882Y-14718638D01*
X6637882Y-14718638D02*
X6628358Y-14680543D01*
X6628358Y-14680543D02*
X6628358Y-14632924D01*
X6628358Y-14632924D02*
X6637882Y-14594829D01*
X6637882Y-14594829D02*
X6647406Y-14575781D01*
X6647406Y-14575781D02*
X6656929Y-14566258D01*
X6656929Y-14566258D02*
X6675977Y-14556734D01*
X6818834Y-14556734D02*
X6818834Y-14594829D01*
X6895025Y-14556734D02*
X6895025Y-14594829D01*
X7190263Y-14832924D02*
X7180739Y-14823400D01*
X7180739Y-14823400D02*
X7161691Y-14794829D01*
X7161691Y-14794829D02*
X7152168Y-14775781D01*
X7152168Y-14775781D02*
X7142644Y-14747210D01*
X7142644Y-14747210D02*
X7133120Y-14699591D01*
X7133120Y-14699591D02*
X7133120Y-14661496D01*
X7133120Y-14661496D02*
X7142644Y-14613877D01*
X7142644Y-14613877D02*
X7152168Y-14585305D01*
X7152168Y-14585305D02*
X7161691Y-14566258D01*
X7161691Y-14566258D02*
X7180739Y-14537686D01*
X7180739Y-14537686D02*
X7190263Y-14528162D01*
X7352168Y-14556734D02*
X7314072Y-14556734D01*
X7314072Y-14556734D02*
X7295025Y-14566258D01*
X7295025Y-14566258D02*
X7285501Y-14575781D01*
X7285501Y-14575781D02*
X7266453Y-14604353D01*
X7266453Y-14604353D02*
X7256929Y-14642448D01*
X7256929Y-14642448D02*
X7256929Y-14718638D01*
X7256929Y-14718638D02*
X7266453Y-14737686D01*
X7266453Y-14737686D02*
X7275977Y-14747210D01*
X7275977Y-14747210D02*
X7295025Y-14756734D01*
X7295025Y-14756734D02*
X7333120Y-14756734D01*
X7333120Y-14756734D02*
X7352168Y-14747210D01*
X7352168Y-14747210D02*
X7361691Y-14737686D01*
X7361691Y-14737686D02*
X7371215Y-14718638D01*
X7371215Y-14718638D02*
X7371215Y-14671019D01*
X7371215Y-14671019D02*
X7361691Y-14651972D01*
X7361691Y-14651972D02*
X7352168Y-14642448D01*
X7352168Y-14642448D02*
X7333120Y-14632924D01*
X7333120Y-14632924D02*
X7295025Y-14632924D01*
X7295025Y-14632924D02*
X7275977Y-14642448D01*
X7275977Y-14642448D02*
X7266453Y-14651972D01*
X7266453Y-14651972D02*
X7256929Y-14671019D01*
X7609310Y-14756734D02*
X7609310Y-14556734D01*
X7695025Y-14756734D02*
X7695025Y-14651972D01*
X7695025Y-14651972D02*
X7685501Y-14632924D01*
X7685501Y-14632924D02*
X7666453Y-14623400D01*
X7666453Y-14623400D02*
X7637882Y-14623400D01*
X7637882Y-14623400D02*
X7618834Y-14632924D01*
X7618834Y-14632924D02*
X7609310Y-14642448D01*
X7818834Y-14756734D02*
X7799787Y-14747210D01*
X7799787Y-14747210D02*
X7790263Y-14737686D01*
X7790263Y-14737686D02*
X7780739Y-14718638D01*
X7780739Y-14718638D02*
X7780739Y-14661496D01*
X7780739Y-14661496D02*
X7790263Y-14642448D01*
X7790263Y-14642448D02*
X7799787Y-14632924D01*
X7799787Y-14632924D02*
X7818834Y-14623400D01*
X7818834Y-14623400D02*
X7847406Y-14623400D01*
X7847406Y-14623400D02*
X7866453Y-14632924D01*
X7866453Y-14632924D02*
X7875977Y-14642448D01*
X7875977Y-14642448D02*
X7885501Y-14661496D01*
X7885501Y-14661496D02*
X7885501Y-14718638D01*
X7885501Y-14718638D02*
X7875977Y-14737686D01*
X7875977Y-14737686D02*
X7866453Y-14747210D01*
X7866453Y-14747210D02*
X7847406Y-14756734D01*
X7847406Y-14756734D02*
X7818834Y-14756734D01*
X7999787Y-14756734D02*
X7980739Y-14747210D01*
X7980739Y-14747210D02*
X7971215Y-14728162D01*
X7971215Y-14728162D02*
X7971215Y-14556734D01*
X8152168Y-14747210D02*
X8133120Y-14756734D01*
X8133120Y-14756734D02*
X8095025Y-14756734D01*
X8095025Y-14756734D02*
X8075977Y-14747210D01*
X8075977Y-14747210D02*
X8066453Y-14728162D01*
X8066453Y-14728162D02*
X8066453Y-14651972D01*
X8066453Y-14651972D02*
X8075977Y-14632924D01*
X8075977Y-14632924D02*
X8095025Y-14623400D01*
X8095025Y-14623400D02*
X8133120Y-14623400D01*
X8133120Y-14623400D02*
X8152168Y-14632924D01*
X8152168Y-14632924D02*
X8161691Y-14651972D01*
X8161691Y-14651972D02*
X8161691Y-14671019D01*
X8161691Y-14671019D02*
X8066453Y-14690067D01*
X8237882Y-14747210D02*
X8256930Y-14756734D01*
X8256930Y-14756734D02*
X8295025Y-14756734D01*
X8295025Y-14756734D02*
X8314072Y-14747210D01*
X8314072Y-14747210D02*
X8323596Y-14728162D01*
X8323596Y-14728162D02*
X8323596Y-14718638D01*
X8323596Y-14718638D02*
X8314072Y-14699591D01*
X8314072Y-14699591D02*
X8295025Y-14690067D01*
X8295025Y-14690067D02*
X8266453Y-14690067D01*
X8266453Y-14690067D02*
X8247406Y-14680543D01*
X8247406Y-14680543D02*
X8237882Y-14661496D01*
X8237882Y-14661496D02*
X8237882Y-14651972D01*
X8237882Y-14651972D02*
X8247406Y-14632924D01*
X8247406Y-14632924D02*
X8266453Y-14623400D01*
X8266453Y-14623400D02*
X8295025Y-14623400D01*
X8295025Y-14623400D02*
X8314072Y-14632924D01*
X8390263Y-14832924D02*
X8399787Y-14823400D01*
X8399787Y-14823400D02*
X8418834Y-14794829D01*
X8418834Y-14794829D02*
X8428358Y-14775781D01*
X8428358Y-14775781D02*
X8437882Y-14747210D01*
X8437882Y-14747210D02*
X8447406Y-14699591D01*
X8447406Y-14699591D02*
X8447406Y-14661496D01*
X8447406Y-14661496D02*
X8437882Y-14613877D01*
X8437882Y-14613877D02*
X8428358Y-14585305D01*
X8428358Y-14585305D02*
X8418834Y-14566258D01*
X8418834Y-14566258D02*
X8399787Y-14537686D01*
X8399787Y-14537686D02*
X8390263Y-14528162D01*
D12*
X3602020Y-14961070D02*
X3602020Y-14897430D01*
X3538380Y-14897430D01*
X3538380Y-14961070D01*
X3602020Y-14961070D01*
D11*
X3914072Y-14820734D02*
X3933120Y-14820734D01*
X3933120Y-14820734D02*
X3952167Y-14830258D01*
X3952167Y-14830258D02*
X3961691Y-14839781D01*
X3961691Y-14839781D02*
X3971215Y-14858829D01*
X3971215Y-14858829D02*
X3980739Y-14896924D01*
X3980739Y-14896924D02*
X3980739Y-14944543D01*
X3980739Y-14944543D02*
X3971215Y-14982638D01*
X3971215Y-14982638D02*
X3961691Y-15001686D01*
X3961691Y-15001686D02*
X3952167Y-15011210D01*
X3952167Y-15011210D02*
X3933120Y-15020734D01*
X3933120Y-15020734D02*
X3914072Y-15020734D01*
X3914072Y-15020734D02*
X3895024Y-15011210D01*
X3895024Y-15011210D02*
X3885501Y-15001686D01*
X3885501Y-15001686D02*
X3875977Y-14982638D01*
X3875977Y-14982638D02*
X3866453Y-14944543D01*
X3866453Y-14944543D02*
X3866453Y-14896924D01*
X3866453Y-14896924D02*
X3875977Y-14858829D01*
X3875977Y-14858829D02*
X3885501Y-14839781D01*
X3885501Y-14839781D02*
X3895024Y-14830258D01*
X3895024Y-14830258D02*
X3914072Y-14820734D01*
X4066453Y-15001686D02*
X4075977Y-15011210D01*
X4075977Y-15011210D02*
X4066453Y-15020734D01*
X4066453Y-15020734D02*
X4056929Y-15011210D01*
X4056929Y-15011210D02*
X4066453Y-15001686D01*
X4066453Y-15001686D02*
X4066453Y-15020734D01*
X4171215Y-15020734D02*
X4209310Y-15020734D01*
X4209310Y-15020734D02*
X4228358Y-15011210D01*
X4228358Y-15011210D02*
X4237882Y-15001686D01*
X4237882Y-15001686D02*
X4256929Y-14973115D01*
X4256929Y-14973115D02*
X4266453Y-14935019D01*
X4266453Y-14935019D02*
X4266453Y-14858829D01*
X4266453Y-14858829D02*
X4256929Y-14839781D01*
X4256929Y-14839781D02*
X4247405Y-14830258D01*
X4247405Y-14830258D02*
X4228358Y-14820734D01*
X4228358Y-14820734D02*
X4190262Y-14820734D01*
X4190262Y-14820734D02*
X4171215Y-14830258D01*
X4171215Y-14830258D02*
X4161691Y-14839781D01*
X4161691Y-14839781D02*
X4152167Y-14858829D01*
X4152167Y-14858829D02*
X4152167Y-14906448D01*
X4152167Y-14906448D02*
X4161691Y-14925496D01*
X4161691Y-14925496D02*
X4171215Y-14935019D01*
X4171215Y-14935019D02*
X4190262Y-14944543D01*
X4190262Y-14944543D02*
X4228358Y-14944543D01*
X4228358Y-14944543D02*
X4247405Y-14935019D01*
X4247405Y-14935019D02*
X4256929Y-14925496D01*
X4256929Y-14925496D02*
X4266453Y-14906448D01*
X4390263Y-14820734D02*
X4409310Y-14820734D01*
X4409310Y-14820734D02*
X4428358Y-14830258D01*
X4428358Y-14830258D02*
X4437882Y-14839781D01*
X4437882Y-14839781D02*
X4447405Y-14858829D01*
X4447405Y-14858829D02*
X4456929Y-14896924D01*
X4456929Y-14896924D02*
X4456929Y-14944543D01*
X4456929Y-14944543D02*
X4447405Y-14982638D01*
X4447405Y-14982638D02*
X4437882Y-15001686D01*
X4437882Y-15001686D02*
X4428358Y-15011210D01*
X4428358Y-15011210D02*
X4409310Y-15020734D01*
X4409310Y-15020734D02*
X4390263Y-15020734D01*
X4390263Y-15020734D02*
X4371215Y-15011210D01*
X4371215Y-15011210D02*
X4361691Y-15001686D01*
X4361691Y-15001686D02*
X4352167Y-14982638D01*
X4352167Y-14982638D02*
X4342644Y-14944543D01*
X4342644Y-14944543D02*
X4342644Y-14896924D01*
X4342644Y-14896924D02*
X4352167Y-14858829D01*
X4352167Y-14858829D02*
X4361691Y-14839781D01*
X4361691Y-14839781D02*
X4371215Y-14830258D01*
X4371215Y-14830258D02*
X4390263Y-14820734D01*
X4580739Y-14820734D02*
X4599786Y-14820734D01*
X4599786Y-14820734D02*
X4618834Y-14830258D01*
X4618834Y-14830258D02*
X4628358Y-14839781D01*
X4628358Y-14839781D02*
X4637882Y-14858829D01*
X4637882Y-14858829D02*
X4647405Y-14896924D01*
X4647405Y-14896924D02*
X4647405Y-14944543D01*
X4647405Y-14944543D02*
X4637882Y-14982638D01*
X4637882Y-14982638D02*
X4628358Y-15001686D01*
X4628358Y-15001686D02*
X4618834Y-15011210D01*
X4618834Y-15011210D02*
X4599786Y-15020734D01*
X4599786Y-15020734D02*
X4580739Y-15020734D01*
X4580739Y-15020734D02*
X4561691Y-15011210D01*
X4561691Y-15011210D02*
X4552167Y-15001686D01*
X4552167Y-15001686D02*
X4542644Y-14982638D01*
X4542644Y-14982638D02*
X4533120Y-14944543D01*
X4533120Y-14944543D02*
X4533120Y-14896924D01*
X4533120Y-14896924D02*
X4542644Y-14858829D01*
X4542644Y-14858829D02*
X4552167Y-14839781D01*
X4552167Y-14839781D02*
X4561691Y-14830258D01*
X4561691Y-14830258D02*
X4580739Y-14820734D01*
X4733120Y-15020734D02*
X4733120Y-14887400D01*
X4733120Y-14906448D02*
X4742644Y-14896924D01*
X4742644Y-14896924D02*
X4761691Y-14887400D01*
X4761691Y-14887400D02*
X4790263Y-14887400D01*
X4790263Y-14887400D02*
X4809310Y-14896924D01*
X4809310Y-14896924D02*
X4818834Y-14915972D01*
X4818834Y-14915972D02*
X4818834Y-15020734D01*
X4818834Y-14915972D02*
X4828358Y-14896924D01*
X4828358Y-14896924D02*
X4847405Y-14887400D01*
X4847405Y-14887400D02*
X4875977Y-14887400D01*
X4875977Y-14887400D02*
X4895025Y-14896924D01*
X4895025Y-14896924D02*
X4904548Y-14915972D01*
X4904548Y-14915972D02*
X4904548Y-15020734D01*
X4999786Y-15020734D02*
X4999786Y-14887400D01*
X4999786Y-14906448D02*
X5009310Y-14896924D01*
X5009310Y-14896924D02*
X5028358Y-14887400D01*
X5028358Y-14887400D02*
X5056929Y-14887400D01*
X5056929Y-14887400D02*
X5075977Y-14896924D01*
X5075977Y-14896924D02*
X5085501Y-14915972D01*
X5085501Y-14915972D02*
X5085501Y-15020734D01*
X5085501Y-14915972D02*
X5095025Y-14896924D01*
X5095025Y-14896924D02*
X5114072Y-14887400D01*
X5114072Y-14887400D02*
X5142644Y-14887400D01*
X5142644Y-14887400D02*
X5161691Y-14896924D01*
X5161691Y-14896924D02*
X5171215Y-14915972D01*
X5171215Y-14915972D02*
X5171215Y-15020734D01*
X5561691Y-14811210D02*
X5390263Y-15068353D01*
X5818834Y-14820734D02*
X5837882Y-14820734D01*
X5837882Y-14820734D02*
X5856929Y-14830258D01*
X5856929Y-14830258D02*
X5866453Y-14839781D01*
X5866453Y-14839781D02*
X5875977Y-14858829D01*
X5875977Y-14858829D02*
X5885501Y-14896924D01*
X5885501Y-14896924D02*
X5885501Y-14944543D01*
X5885501Y-14944543D02*
X5875977Y-14982638D01*
X5875977Y-14982638D02*
X5866453Y-15001686D01*
X5866453Y-15001686D02*
X5856929Y-15011210D01*
X5856929Y-15011210D02*
X5837882Y-15020734D01*
X5837882Y-15020734D02*
X5818834Y-15020734D01*
X5818834Y-15020734D02*
X5799786Y-15011210D01*
X5799786Y-15011210D02*
X5790263Y-15001686D01*
X5790263Y-15001686D02*
X5780739Y-14982638D01*
X5780739Y-14982638D02*
X5771215Y-14944543D01*
X5771215Y-14944543D02*
X5771215Y-14896924D01*
X5771215Y-14896924D02*
X5780739Y-14858829D01*
X5780739Y-14858829D02*
X5790263Y-14839781D01*
X5790263Y-14839781D02*
X5799786Y-14830258D01*
X5799786Y-14830258D02*
X5818834Y-14820734D01*
X5971215Y-15001686D02*
X5980739Y-15011210D01*
X5980739Y-15011210D02*
X5971215Y-15020734D01*
X5971215Y-15020734D02*
X5961691Y-15011210D01*
X5961691Y-15011210D02*
X5971215Y-15001686D01*
X5971215Y-15001686D02*
X5971215Y-15020734D01*
X6104548Y-14820734D02*
X6123596Y-14820734D01*
X6123596Y-14820734D02*
X6142644Y-14830258D01*
X6142644Y-14830258D02*
X6152167Y-14839781D01*
X6152167Y-14839781D02*
X6161691Y-14858829D01*
X6161691Y-14858829D02*
X6171215Y-14896924D01*
X6171215Y-14896924D02*
X6171215Y-14944543D01*
X6171215Y-14944543D02*
X6161691Y-14982638D01*
X6161691Y-14982638D02*
X6152167Y-15001686D01*
X6152167Y-15001686D02*
X6142644Y-15011210D01*
X6142644Y-15011210D02*
X6123596Y-15020734D01*
X6123596Y-15020734D02*
X6104548Y-15020734D01*
X6104548Y-15020734D02*
X6085501Y-15011210D01*
X6085501Y-15011210D02*
X6075977Y-15001686D01*
X6075977Y-15001686D02*
X6066453Y-14982638D01*
X6066453Y-14982638D02*
X6056929Y-14944543D01*
X6056929Y-14944543D02*
X6056929Y-14896924D01*
X6056929Y-14896924D02*
X6066453Y-14858829D01*
X6066453Y-14858829D02*
X6075977Y-14839781D01*
X6075977Y-14839781D02*
X6085501Y-14830258D01*
X6085501Y-14830258D02*
X6104548Y-14820734D01*
X6237882Y-14820734D02*
X6361691Y-14820734D01*
X6361691Y-14820734D02*
X6295025Y-14896924D01*
X6295025Y-14896924D02*
X6323596Y-14896924D01*
X6323596Y-14896924D02*
X6342644Y-14906448D01*
X6342644Y-14906448D02*
X6352167Y-14915972D01*
X6352167Y-14915972D02*
X6361691Y-14935019D01*
X6361691Y-14935019D02*
X6361691Y-14982638D01*
X6361691Y-14982638D02*
X6352167Y-15001686D01*
X6352167Y-15001686D02*
X6342644Y-15011210D01*
X6342644Y-15011210D02*
X6323596Y-15020734D01*
X6323596Y-15020734D02*
X6266453Y-15020734D01*
X6266453Y-15020734D02*
X6247406Y-15011210D01*
X6247406Y-15011210D02*
X6237882Y-15001686D01*
X6542644Y-14820734D02*
X6447406Y-14820734D01*
X6447406Y-14820734D02*
X6437882Y-14915972D01*
X6437882Y-14915972D02*
X6447406Y-14906448D01*
X6447406Y-14906448D02*
X6466453Y-14896924D01*
X6466453Y-14896924D02*
X6514072Y-14896924D01*
X6514072Y-14896924D02*
X6533120Y-14906448D01*
X6533120Y-14906448D02*
X6542644Y-14915972D01*
X6542644Y-14915972D02*
X6552167Y-14935019D01*
X6552167Y-14935019D02*
X6552167Y-14982638D01*
X6552167Y-14982638D02*
X6542644Y-15001686D01*
X6542644Y-15001686D02*
X6533120Y-15011210D01*
X6533120Y-15011210D02*
X6514072Y-15020734D01*
X6514072Y-15020734D02*
X6466453Y-15020734D01*
X6466453Y-15020734D02*
X6447406Y-15011210D01*
X6447406Y-15011210D02*
X6437882Y-15001686D01*
X6723596Y-14887400D02*
X6723596Y-15020734D01*
X6675977Y-14811210D02*
X6628358Y-14954067D01*
X6628358Y-14954067D02*
X6752167Y-14954067D01*
X6818834Y-14820734D02*
X6818834Y-14858829D01*
X6895025Y-14820734D02*
X6895025Y-14858829D01*
X7190263Y-15096924D02*
X7180739Y-15087400D01*
X7180739Y-15087400D02*
X7161691Y-15058829D01*
X7161691Y-15058829D02*
X7152168Y-15039781D01*
X7152168Y-15039781D02*
X7142644Y-15011210D01*
X7142644Y-15011210D02*
X7133120Y-14963591D01*
X7133120Y-14963591D02*
X7133120Y-14925496D01*
X7133120Y-14925496D02*
X7142644Y-14877877D01*
X7142644Y-14877877D02*
X7152168Y-14849305D01*
X7152168Y-14849305D02*
X7161691Y-14830258D01*
X7161691Y-14830258D02*
X7180739Y-14801686D01*
X7180739Y-14801686D02*
X7190263Y-14792162D01*
X7352168Y-14887400D02*
X7352168Y-15020734D01*
X7304548Y-14811210D02*
X7256929Y-14954067D01*
X7256929Y-14954067D02*
X7380739Y-14954067D01*
X7609310Y-15020734D02*
X7609310Y-14820734D01*
X7695025Y-15020734D02*
X7695025Y-14915972D01*
X7695025Y-14915972D02*
X7685501Y-14896924D01*
X7685501Y-14896924D02*
X7666453Y-14887400D01*
X7666453Y-14887400D02*
X7637882Y-14887400D01*
X7637882Y-14887400D02*
X7618834Y-14896924D01*
X7618834Y-14896924D02*
X7609310Y-14906448D01*
X7818834Y-15020734D02*
X7799787Y-15011210D01*
X7799787Y-15011210D02*
X7790263Y-15001686D01*
X7790263Y-15001686D02*
X7780739Y-14982638D01*
X7780739Y-14982638D02*
X7780739Y-14925496D01*
X7780739Y-14925496D02*
X7790263Y-14906448D01*
X7790263Y-14906448D02*
X7799787Y-14896924D01*
X7799787Y-14896924D02*
X7818834Y-14887400D01*
X7818834Y-14887400D02*
X7847406Y-14887400D01*
X7847406Y-14887400D02*
X7866453Y-14896924D01*
X7866453Y-14896924D02*
X7875977Y-14906448D01*
X7875977Y-14906448D02*
X7885501Y-14925496D01*
X7885501Y-14925496D02*
X7885501Y-14982638D01*
X7885501Y-14982638D02*
X7875977Y-15001686D01*
X7875977Y-15001686D02*
X7866453Y-15011210D01*
X7866453Y-15011210D02*
X7847406Y-15020734D01*
X7847406Y-15020734D02*
X7818834Y-15020734D01*
X7999787Y-15020734D02*
X7980739Y-15011210D01*
X7980739Y-15011210D02*
X7971215Y-14992162D01*
X7971215Y-14992162D02*
X7971215Y-14820734D01*
X8152168Y-15011210D02*
X8133120Y-15020734D01*
X8133120Y-15020734D02*
X8095025Y-15020734D01*
X8095025Y-15020734D02*
X8075977Y-15011210D01*
X8075977Y-15011210D02*
X8066453Y-14992162D01*
X8066453Y-14992162D02*
X8066453Y-14915972D01*
X8066453Y-14915972D02*
X8075977Y-14896924D01*
X8075977Y-14896924D02*
X8095025Y-14887400D01*
X8095025Y-14887400D02*
X8133120Y-14887400D01*
X8133120Y-14887400D02*
X8152168Y-14896924D01*
X8152168Y-14896924D02*
X8161691Y-14915972D01*
X8161691Y-14915972D02*
X8161691Y-14935019D01*
X8161691Y-14935019D02*
X8066453Y-14954067D01*
X8237882Y-15011210D02*
X8256930Y-15020734D01*
X8256930Y-15020734D02*
X8295025Y-15020734D01*
X8295025Y-15020734D02*
X8314072Y-15011210D01*
X8314072Y-15011210D02*
X8323596Y-14992162D01*
X8323596Y-14992162D02*
X8323596Y-14982638D01*
X8323596Y-14982638D02*
X8314072Y-14963591D01*
X8314072Y-14963591D02*
X8295025Y-14954067D01*
X8295025Y-14954067D02*
X8266453Y-14954067D01*
X8266453Y-14954067D02*
X8247406Y-14944543D01*
X8247406Y-14944543D02*
X8237882Y-14925496D01*
X8237882Y-14925496D02*
X8237882Y-14915972D01*
X8237882Y-14915972D02*
X8247406Y-14896924D01*
X8247406Y-14896924D02*
X8266453Y-14887400D01*
X8266453Y-14887400D02*
X8295025Y-14887400D01*
X8295025Y-14887400D02*
X8314072Y-14896924D01*
X8390263Y-15096924D02*
X8399787Y-15087400D01*
X8399787Y-15087400D02*
X8418834Y-15058829D01*
X8418834Y-15058829D02*
X8428358Y-15039781D01*
X8428358Y-15039781D02*
X8437882Y-15011210D01*
X8437882Y-15011210D02*
X8447406Y-14963591D01*
X8447406Y-14963591D02*
X8447406Y-14925496D01*
X8447406Y-14925496D02*
X8437882Y-14877877D01*
X8437882Y-14877877D02*
X8428358Y-14849305D01*
X8428358Y-14849305D02*
X8418834Y-14830258D01*
X8418834Y-14830258D02*
X8399787Y-14801686D01*
X8399787Y-14801686D02*
X8390263Y-14792162D01*
D13*
X3564200Y-15244250D02*
X3615200Y-15193250D01*
X3564200Y-15142250D01*
X3513200Y-15193250D01*
X3564200Y-15244250D01*
D11*
X3980739Y-15284734D02*
X3866453Y-15284734D01*
X3923596Y-15284734D02*
X3923596Y-15084734D01*
X3923596Y-15084734D02*
X3904548Y-15113305D01*
X3904548Y-15113305D02*
X3885501Y-15132353D01*
X3885501Y-15132353D02*
X3866453Y-15141877D01*
X4066453Y-15265686D02*
X4075977Y-15275210D01*
X4075977Y-15275210D02*
X4066453Y-15284734D01*
X4066453Y-15284734D02*
X4056929Y-15275210D01*
X4056929Y-15275210D02*
X4066453Y-15265686D01*
X4066453Y-15265686D02*
X4066453Y-15284734D01*
X4199786Y-15084734D02*
X4218834Y-15084734D01*
X4218834Y-15084734D02*
X4237882Y-15094258D01*
X4237882Y-15094258D02*
X4247405Y-15103781D01*
X4247405Y-15103781D02*
X4256929Y-15122829D01*
X4256929Y-15122829D02*
X4266453Y-15160924D01*
X4266453Y-15160924D02*
X4266453Y-15208543D01*
X4266453Y-15208543D02*
X4256929Y-15246638D01*
X4256929Y-15246638D02*
X4247405Y-15265686D01*
X4247405Y-15265686D02*
X4237882Y-15275210D01*
X4237882Y-15275210D02*
X4218834Y-15284734D01*
X4218834Y-15284734D02*
X4199786Y-15284734D01*
X4199786Y-15284734D02*
X4180739Y-15275210D01*
X4180739Y-15275210D02*
X4171215Y-15265686D01*
X4171215Y-15265686D02*
X4161691Y-15246638D01*
X4161691Y-15246638D02*
X4152167Y-15208543D01*
X4152167Y-15208543D02*
X4152167Y-15160924D01*
X4152167Y-15160924D02*
X4161691Y-15122829D01*
X4161691Y-15122829D02*
X4171215Y-15103781D01*
X4171215Y-15103781D02*
X4180739Y-15094258D01*
X4180739Y-15094258D02*
X4199786Y-15084734D01*
X4342644Y-15103781D02*
X4352167Y-15094258D01*
X4352167Y-15094258D02*
X4371215Y-15084734D01*
X4371215Y-15084734D02*
X4418834Y-15084734D01*
X4418834Y-15084734D02*
X4437882Y-15094258D01*
X4437882Y-15094258D02*
X4447405Y-15103781D01*
X4447405Y-15103781D02*
X4456929Y-15122829D01*
X4456929Y-15122829D02*
X4456929Y-15141877D01*
X4456929Y-15141877D02*
X4447405Y-15170448D01*
X4447405Y-15170448D02*
X4333120Y-15284734D01*
X4333120Y-15284734D02*
X4456929Y-15284734D01*
X4580739Y-15084734D02*
X4599786Y-15084734D01*
X4599786Y-15084734D02*
X4618834Y-15094258D01*
X4618834Y-15094258D02*
X4628358Y-15103781D01*
X4628358Y-15103781D02*
X4637882Y-15122829D01*
X4637882Y-15122829D02*
X4647405Y-15160924D01*
X4647405Y-15160924D02*
X4647405Y-15208543D01*
X4647405Y-15208543D02*
X4637882Y-15246638D01*
X4637882Y-15246638D02*
X4628358Y-15265686D01*
X4628358Y-15265686D02*
X4618834Y-15275210D01*
X4618834Y-15275210D02*
X4599786Y-15284734D01*
X4599786Y-15284734D02*
X4580739Y-15284734D01*
X4580739Y-15284734D02*
X4561691Y-15275210D01*
X4561691Y-15275210D02*
X4552167Y-15265686D01*
X4552167Y-15265686D02*
X4542644Y-15246638D01*
X4542644Y-15246638D02*
X4533120Y-15208543D01*
X4533120Y-15208543D02*
X4533120Y-15160924D01*
X4533120Y-15160924D02*
X4542644Y-15122829D01*
X4542644Y-15122829D02*
X4552167Y-15103781D01*
X4552167Y-15103781D02*
X4561691Y-15094258D01*
X4561691Y-15094258D02*
X4580739Y-15084734D01*
X4733120Y-15284734D02*
X4733120Y-15151400D01*
X4733120Y-15170448D02*
X4742644Y-15160924D01*
X4742644Y-15160924D02*
X4761691Y-15151400D01*
X4761691Y-15151400D02*
X4790263Y-15151400D01*
X4790263Y-15151400D02*
X4809310Y-15160924D01*
X4809310Y-15160924D02*
X4818834Y-15179972D01*
X4818834Y-15179972D02*
X4818834Y-15284734D01*
X4818834Y-15179972D02*
X4828358Y-15160924D01*
X4828358Y-15160924D02*
X4847405Y-15151400D01*
X4847405Y-15151400D02*
X4875977Y-15151400D01*
X4875977Y-15151400D02*
X4895025Y-15160924D01*
X4895025Y-15160924D02*
X4904548Y-15179972D01*
X4904548Y-15179972D02*
X4904548Y-15284734D01*
X4999786Y-15284734D02*
X4999786Y-15151400D01*
X4999786Y-15170448D02*
X5009310Y-15160924D01*
X5009310Y-15160924D02*
X5028358Y-15151400D01*
X5028358Y-15151400D02*
X5056929Y-15151400D01*
X5056929Y-15151400D02*
X5075977Y-15160924D01*
X5075977Y-15160924D02*
X5085501Y-15179972D01*
X5085501Y-15179972D02*
X5085501Y-15284734D01*
X5085501Y-15179972D02*
X5095025Y-15160924D01*
X5095025Y-15160924D02*
X5114072Y-15151400D01*
X5114072Y-15151400D02*
X5142644Y-15151400D01*
X5142644Y-15151400D02*
X5161691Y-15160924D01*
X5161691Y-15160924D02*
X5171215Y-15179972D01*
X5171215Y-15179972D02*
X5171215Y-15284734D01*
X5561691Y-15075210D02*
X5390263Y-15332353D01*
X5818834Y-15084734D02*
X5837882Y-15084734D01*
X5837882Y-15084734D02*
X5856929Y-15094258D01*
X5856929Y-15094258D02*
X5866453Y-15103781D01*
X5866453Y-15103781D02*
X5875977Y-15122829D01*
X5875977Y-15122829D02*
X5885501Y-15160924D01*
X5885501Y-15160924D02*
X5885501Y-15208543D01*
X5885501Y-15208543D02*
X5875977Y-15246638D01*
X5875977Y-15246638D02*
X5866453Y-15265686D01*
X5866453Y-15265686D02*
X5856929Y-15275210D01*
X5856929Y-15275210D02*
X5837882Y-15284734D01*
X5837882Y-15284734D02*
X5818834Y-15284734D01*
X5818834Y-15284734D02*
X5799786Y-15275210D01*
X5799786Y-15275210D02*
X5790263Y-15265686D01*
X5790263Y-15265686D02*
X5780739Y-15246638D01*
X5780739Y-15246638D02*
X5771215Y-15208543D01*
X5771215Y-15208543D02*
X5771215Y-15160924D01*
X5771215Y-15160924D02*
X5780739Y-15122829D01*
X5780739Y-15122829D02*
X5790263Y-15103781D01*
X5790263Y-15103781D02*
X5799786Y-15094258D01*
X5799786Y-15094258D02*
X5818834Y-15084734D01*
X5971215Y-15265686D02*
X5980739Y-15275210D01*
X5980739Y-15275210D02*
X5971215Y-15284734D01*
X5971215Y-15284734D02*
X5961691Y-15275210D01*
X5961691Y-15275210D02*
X5971215Y-15265686D01*
X5971215Y-15265686D02*
X5971215Y-15284734D01*
X6104548Y-15084734D02*
X6123596Y-15084734D01*
X6123596Y-15084734D02*
X6142644Y-15094258D01*
X6142644Y-15094258D02*
X6152167Y-15103781D01*
X6152167Y-15103781D02*
X6161691Y-15122829D01*
X6161691Y-15122829D02*
X6171215Y-15160924D01*
X6171215Y-15160924D02*
X6171215Y-15208543D01*
X6171215Y-15208543D02*
X6161691Y-15246638D01*
X6161691Y-15246638D02*
X6152167Y-15265686D01*
X6152167Y-15265686D02*
X6142644Y-15275210D01*
X6142644Y-15275210D02*
X6123596Y-15284734D01*
X6123596Y-15284734D02*
X6104548Y-15284734D01*
X6104548Y-15284734D02*
X6085501Y-15275210D01*
X6085501Y-15275210D02*
X6075977Y-15265686D01*
X6075977Y-15265686D02*
X6066453Y-15246638D01*
X6066453Y-15246638D02*
X6056929Y-15208543D01*
X6056929Y-15208543D02*
X6056929Y-15160924D01*
X6056929Y-15160924D02*
X6066453Y-15122829D01*
X6066453Y-15122829D02*
X6075977Y-15103781D01*
X6075977Y-15103781D02*
X6085501Y-15094258D01*
X6085501Y-15094258D02*
X6104548Y-15084734D01*
X6342644Y-15151400D02*
X6342644Y-15284734D01*
X6295025Y-15075210D02*
X6247406Y-15218067D01*
X6247406Y-15218067D02*
X6371215Y-15218067D01*
X6485501Y-15084734D02*
X6504548Y-15084734D01*
X6504548Y-15084734D02*
X6523596Y-15094258D01*
X6523596Y-15094258D02*
X6533120Y-15103781D01*
X6533120Y-15103781D02*
X6542644Y-15122829D01*
X6542644Y-15122829D02*
X6552167Y-15160924D01*
X6552167Y-15160924D02*
X6552167Y-15208543D01*
X6552167Y-15208543D02*
X6542644Y-15246638D01*
X6542644Y-15246638D02*
X6533120Y-15265686D01*
X6533120Y-15265686D02*
X6523596Y-15275210D01*
X6523596Y-15275210D02*
X6504548Y-15284734D01*
X6504548Y-15284734D02*
X6485501Y-15284734D01*
X6485501Y-15284734D02*
X6466453Y-15275210D01*
X6466453Y-15275210D02*
X6456929Y-15265686D01*
X6456929Y-15265686D02*
X6447406Y-15246638D01*
X6447406Y-15246638D02*
X6437882Y-15208543D01*
X6437882Y-15208543D02*
X6437882Y-15160924D01*
X6437882Y-15160924D02*
X6447406Y-15122829D01*
X6447406Y-15122829D02*
X6456929Y-15103781D01*
X6456929Y-15103781D02*
X6466453Y-15094258D01*
X6466453Y-15094258D02*
X6485501Y-15084734D01*
X6628358Y-15103781D02*
X6637882Y-15094258D01*
X6637882Y-15094258D02*
X6656929Y-15084734D01*
X6656929Y-15084734D02*
X6704548Y-15084734D01*
X6704548Y-15084734D02*
X6723596Y-15094258D01*
X6723596Y-15094258D02*
X6733120Y-15103781D01*
X6733120Y-15103781D02*
X6742644Y-15122829D01*
X6742644Y-15122829D02*
X6742644Y-15141877D01*
X6742644Y-15141877D02*
X6733120Y-15170448D01*
X6733120Y-15170448D02*
X6618834Y-15284734D01*
X6618834Y-15284734D02*
X6742644Y-15284734D01*
X6818834Y-15084734D02*
X6818834Y-15122829D01*
X6895025Y-15084734D02*
X6895025Y-15122829D01*
X7190263Y-15360924D02*
X7180739Y-15351400D01*
X7180739Y-15351400D02*
X7161691Y-15322829D01*
X7161691Y-15322829D02*
X7152168Y-15303781D01*
X7152168Y-15303781D02*
X7142644Y-15275210D01*
X7142644Y-15275210D02*
X7133120Y-15227591D01*
X7133120Y-15227591D02*
X7133120Y-15189496D01*
X7133120Y-15189496D02*
X7142644Y-15141877D01*
X7142644Y-15141877D02*
X7152168Y-15113305D01*
X7152168Y-15113305D02*
X7161691Y-15094258D01*
X7161691Y-15094258D02*
X7180739Y-15065686D01*
X7180739Y-15065686D02*
X7190263Y-15056162D01*
X7352168Y-15151400D02*
X7352168Y-15284734D01*
X7304548Y-15075210D02*
X7256929Y-15218067D01*
X7256929Y-15218067D02*
X7380739Y-15218067D01*
X7437882Y-15084734D02*
X7561691Y-15084734D01*
X7561691Y-15084734D02*
X7495025Y-15160924D01*
X7495025Y-15160924D02*
X7523596Y-15160924D01*
X7523596Y-15160924D02*
X7542644Y-15170448D01*
X7542644Y-15170448D02*
X7552168Y-15179972D01*
X7552168Y-15179972D02*
X7561691Y-15199019D01*
X7561691Y-15199019D02*
X7561691Y-15246638D01*
X7561691Y-15246638D02*
X7552168Y-15265686D01*
X7552168Y-15265686D02*
X7542644Y-15275210D01*
X7542644Y-15275210D02*
X7523596Y-15284734D01*
X7523596Y-15284734D02*
X7466453Y-15284734D01*
X7466453Y-15284734D02*
X7447406Y-15275210D01*
X7447406Y-15275210D02*
X7437882Y-15265686D01*
X7799787Y-15284734D02*
X7799787Y-15084734D01*
X7885501Y-15284734D02*
X7885501Y-15179972D01*
X7885501Y-15179972D02*
X7875977Y-15160924D01*
X7875977Y-15160924D02*
X7856930Y-15151400D01*
X7856930Y-15151400D02*
X7828358Y-15151400D01*
X7828358Y-15151400D02*
X7809310Y-15160924D01*
X7809310Y-15160924D02*
X7799787Y-15170448D01*
X8009310Y-15284734D02*
X7990263Y-15275210D01*
X7990263Y-15275210D02*
X7980739Y-15265686D01*
X7980739Y-15265686D02*
X7971215Y-15246638D01*
X7971215Y-15246638D02*
X7971215Y-15189496D01*
X7971215Y-15189496D02*
X7980739Y-15170448D01*
X7980739Y-15170448D02*
X7990263Y-15160924D01*
X7990263Y-15160924D02*
X8009310Y-15151400D01*
X8009310Y-15151400D02*
X8037882Y-15151400D01*
X8037882Y-15151400D02*
X8056930Y-15160924D01*
X8056930Y-15160924D02*
X8066453Y-15170448D01*
X8066453Y-15170448D02*
X8075977Y-15189496D01*
X8075977Y-15189496D02*
X8075977Y-15246638D01*
X8075977Y-15246638D02*
X8066453Y-15265686D01*
X8066453Y-15265686D02*
X8056930Y-15275210D01*
X8056930Y-15275210D02*
X8037882Y-15284734D01*
X8037882Y-15284734D02*
X8009310Y-15284734D01*
X8190263Y-15284734D02*
X8171215Y-15275210D01*
X8171215Y-15275210D02*
X8161691Y-15256162D01*
X8161691Y-15256162D02*
X8161691Y-15084734D01*
X8342644Y-15275210D02*
X8323596Y-15284734D01*
X8323596Y-15284734D02*
X8285501Y-15284734D01*
X8285501Y-15284734D02*
X8266453Y-15275210D01*
X8266453Y-15275210D02*
X8256930Y-15256162D01*
X8256930Y-15256162D02*
X8256930Y-15179972D01*
X8256930Y-15179972D02*
X8266453Y-15160924D01*
X8266453Y-15160924D02*
X8285501Y-15151400D01*
X8285501Y-15151400D02*
X8323596Y-15151400D01*
X8323596Y-15151400D02*
X8342644Y-15160924D01*
X8342644Y-15160924D02*
X8352168Y-15179972D01*
X8352168Y-15179972D02*
X8352168Y-15199019D01*
X8352168Y-15199019D02*
X8256930Y-15218067D01*
X8428358Y-15275210D02*
X8447406Y-15284734D01*
X8447406Y-15284734D02*
X8485501Y-15284734D01*
X8485501Y-15284734D02*
X8504549Y-15275210D01*
X8504549Y-15275210D02*
X8514073Y-15256162D01*
X8514073Y-15256162D02*
X8514073Y-15246638D01*
X8514073Y-15246638D02*
X8504549Y-15227591D01*
X8504549Y-15227591D02*
X8485501Y-15218067D01*
X8485501Y-15218067D02*
X8456930Y-15218067D01*
X8456930Y-15218067D02*
X8437882Y-15208543D01*
X8437882Y-15208543D02*
X8428358Y-15189496D01*
X8428358Y-15189496D02*
X8428358Y-15179972D01*
X8428358Y-15179972D02*
X8437882Y-15160924D01*
X8437882Y-15160924D02*
X8456930Y-15151400D01*
X8456930Y-15151400D02*
X8485501Y-15151400D01*
X8485501Y-15151400D02*
X8504549Y-15160924D01*
X8580739Y-15360924D02*
X8590263Y-15351400D01*
X8590263Y-15351400D02*
X8609311Y-15322829D01*
X8609311Y-15322829D02*
X8618834Y-15303781D01*
X8618834Y-15303781D02*
X8628358Y-15275210D01*
X8628358Y-15275210D02*
X8637882Y-15227591D01*
X8637882Y-15227591D02*
X8637882Y-15189496D01*
X8637882Y-15189496D02*
X8628358Y-15141877D01*
X8628358Y-15141877D02*
X8618834Y-15113305D01*
X8618834Y-15113305D02*
X8609311Y-15094258D01*
X8609311Y-15094258D02*
X8590263Y-15065686D01*
X8590263Y-15065686D02*
X8580739Y-15056162D01*
D14*
X3475500Y-15387400D02*
X3615200Y-15527100D01*
X3615200Y-15387400D02*
X3475500Y-15527100D01*
X3615200Y-15457250D02*
G75*
G02*
X3475500Y-15457250I-69850J0D01*
G01*
X3475500Y-15457250D02*
G75*
G02*
X3615200Y-15457250I69850J0D01*
G01*
D11*
X3980739Y-15548734D02*
X3866453Y-15548734D01*
X3923596Y-15548734D02*
X3923596Y-15348734D01*
X3923596Y-15348734D02*
X3904548Y-15377305D01*
X3904548Y-15377305D02*
X3885501Y-15396353D01*
X3885501Y-15396353D02*
X3866453Y-15405877D01*
X4066453Y-15529686D02*
X4075977Y-15539210D01*
X4075977Y-15539210D02*
X4066453Y-15548734D01*
X4066453Y-15548734D02*
X4056929Y-15539210D01*
X4056929Y-15539210D02*
X4066453Y-15529686D01*
X4066453Y-15529686D02*
X4066453Y-15548734D01*
X4142643Y-15348734D02*
X4266453Y-15348734D01*
X4266453Y-15348734D02*
X4199786Y-15424924D01*
X4199786Y-15424924D02*
X4228358Y-15424924D01*
X4228358Y-15424924D02*
X4247405Y-15434448D01*
X4247405Y-15434448D02*
X4256929Y-15443972D01*
X4256929Y-15443972D02*
X4266453Y-15463019D01*
X4266453Y-15463019D02*
X4266453Y-15510638D01*
X4266453Y-15510638D02*
X4256929Y-15529686D01*
X4256929Y-15529686D02*
X4247405Y-15539210D01*
X4247405Y-15539210D02*
X4228358Y-15548734D01*
X4228358Y-15548734D02*
X4171215Y-15548734D01*
X4171215Y-15548734D02*
X4152167Y-15539210D01*
X4152167Y-15539210D02*
X4142643Y-15529686D01*
X4361691Y-15548734D02*
X4399786Y-15548734D01*
X4399786Y-15548734D02*
X4418834Y-15539210D01*
X4418834Y-15539210D02*
X4428358Y-15529686D01*
X4428358Y-15529686D02*
X4447405Y-15501115D01*
X4447405Y-15501115D02*
X4456929Y-15463019D01*
X4456929Y-15463019D02*
X4456929Y-15386829D01*
X4456929Y-15386829D02*
X4447405Y-15367781D01*
X4447405Y-15367781D02*
X4437882Y-15358258D01*
X4437882Y-15358258D02*
X4418834Y-15348734D01*
X4418834Y-15348734D02*
X4380739Y-15348734D01*
X4380739Y-15348734D02*
X4361691Y-15358258D01*
X4361691Y-15358258D02*
X4352167Y-15367781D01*
X4352167Y-15367781D02*
X4342644Y-15386829D01*
X4342644Y-15386829D02*
X4342644Y-15434448D01*
X4342644Y-15434448D02*
X4352167Y-15453496D01*
X4352167Y-15453496D02*
X4361691Y-15463019D01*
X4361691Y-15463019D02*
X4380739Y-15472543D01*
X4380739Y-15472543D02*
X4418834Y-15472543D01*
X4418834Y-15472543D02*
X4437882Y-15463019D01*
X4437882Y-15463019D02*
X4447405Y-15453496D01*
X4447405Y-15453496D02*
X4456929Y-15434448D01*
X4523596Y-15348734D02*
X4656929Y-15348734D01*
X4656929Y-15348734D02*
X4571215Y-15548734D01*
X4733120Y-15548734D02*
X4733120Y-15415400D01*
X4733120Y-15434448D02*
X4742644Y-15424924D01*
X4742644Y-15424924D02*
X4761691Y-15415400D01*
X4761691Y-15415400D02*
X4790263Y-15415400D01*
X4790263Y-15415400D02*
X4809310Y-15424924D01*
X4809310Y-15424924D02*
X4818834Y-15443972D01*
X4818834Y-15443972D02*
X4818834Y-15548734D01*
X4818834Y-15443972D02*
X4828358Y-15424924D01*
X4828358Y-15424924D02*
X4847405Y-15415400D01*
X4847405Y-15415400D02*
X4875977Y-15415400D01*
X4875977Y-15415400D02*
X4895025Y-15424924D01*
X4895025Y-15424924D02*
X4904548Y-15443972D01*
X4904548Y-15443972D02*
X4904548Y-15548734D01*
X4999786Y-15548734D02*
X4999786Y-15415400D01*
X4999786Y-15434448D02*
X5009310Y-15424924D01*
X5009310Y-15424924D02*
X5028358Y-15415400D01*
X5028358Y-15415400D02*
X5056929Y-15415400D01*
X5056929Y-15415400D02*
X5075977Y-15424924D01*
X5075977Y-15424924D02*
X5085501Y-15443972D01*
X5085501Y-15443972D02*
X5085501Y-15548734D01*
X5085501Y-15443972D02*
X5095025Y-15424924D01*
X5095025Y-15424924D02*
X5114072Y-15415400D01*
X5114072Y-15415400D02*
X5142644Y-15415400D01*
X5142644Y-15415400D02*
X5161691Y-15424924D01*
X5161691Y-15424924D02*
X5171215Y-15443972D01*
X5171215Y-15443972D02*
X5171215Y-15548734D01*
X5561691Y-15339210D02*
X5390263Y-15596353D01*
X5818834Y-15348734D02*
X5837882Y-15348734D01*
X5837882Y-15348734D02*
X5856929Y-15358258D01*
X5856929Y-15358258D02*
X5866453Y-15367781D01*
X5866453Y-15367781D02*
X5875977Y-15386829D01*
X5875977Y-15386829D02*
X5885501Y-15424924D01*
X5885501Y-15424924D02*
X5885501Y-15472543D01*
X5885501Y-15472543D02*
X5875977Y-15510638D01*
X5875977Y-15510638D02*
X5866453Y-15529686D01*
X5866453Y-15529686D02*
X5856929Y-15539210D01*
X5856929Y-15539210D02*
X5837882Y-15548734D01*
X5837882Y-15548734D02*
X5818834Y-15548734D01*
X5818834Y-15548734D02*
X5799786Y-15539210D01*
X5799786Y-15539210D02*
X5790263Y-15529686D01*
X5790263Y-15529686D02*
X5780739Y-15510638D01*
X5780739Y-15510638D02*
X5771215Y-15472543D01*
X5771215Y-15472543D02*
X5771215Y-15424924D01*
X5771215Y-15424924D02*
X5780739Y-15386829D01*
X5780739Y-15386829D02*
X5790263Y-15367781D01*
X5790263Y-15367781D02*
X5799786Y-15358258D01*
X5799786Y-15358258D02*
X5818834Y-15348734D01*
X5971215Y-15529686D02*
X5980739Y-15539210D01*
X5980739Y-15539210D02*
X5971215Y-15548734D01*
X5971215Y-15548734D02*
X5961691Y-15539210D01*
X5961691Y-15539210D02*
X5971215Y-15529686D01*
X5971215Y-15529686D02*
X5971215Y-15548734D01*
X6104548Y-15348734D02*
X6123596Y-15348734D01*
X6123596Y-15348734D02*
X6142644Y-15358258D01*
X6142644Y-15358258D02*
X6152167Y-15367781D01*
X6152167Y-15367781D02*
X6161691Y-15386829D01*
X6161691Y-15386829D02*
X6171215Y-15424924D01*
X6171215Y-15424924D02*
X6171215Y-15472543D01*
X6171215Y-15472543D02*
X6161691Y-15510638D01*
X6161691Y-15510638D02*
X6152167Y-15529686D01*
X6152167Y-15529686D02*
X6142644Y-15539210D01*
X6142644Y-15539210D02*
X6123596Y-15548734D01*
X6123596Y-15548734D02*
X6104548Y-15548734D01*
X6104548Y-15548734D02*
X6085501Y-15539210D01*
X6085501Y-15539210D02*
X6075977Y-15529686D01*
X6075977Y-15529686D02*
X6066453Y-15510638D01*
X6066453Y-15510638D02*
X6056929Y-15472543D01*
X6056929Y-15472543D02*
X6056929Y-15424924D01*
X6056929Y-15424924D02*
X6066453Y-15386829D01*
X6066453Y-15386829D02*
X6075977Y-15367781D01*
X6075977Y-15367781D02*
X6085501Y-15358258D01*
X6085501Y-15358258D02*
X6104548Y-15348734D01*
X6352167Y-15348734D02*
X6256929Y-15348734D01*
X6256929Y-15348734D02*
X6247406Y-15443972D01*
X6247406Y-15443972D02*
X6256929Y-15434448D01*
X6256929Y-15434448D02*
X6275977Y-15424924D01*
X6275977Y-15424924D02*
X6323596Y-15424924D01*
X6323596Y-15424924D02*
X6342644Y-15434448D01*
X6342644Y-15434448D02*
X6352167Y-15443972D01*
X6352167Y-15443972D02*
X6361691Y-15463019D01*
X6361691Y-15463019D02*
X6361691Y-15510638D01*
X6361691Y-15510638D02*
X6352167Y-15529686D01*
X6352167Y-15529686D02*
X6342644Y-15539210D01*
X6342644Y-15539210D02*
X6323596Y-15548734D01*
X6323596Y-15548734D02*
X6275977Y-15548734D01*
X6275977Y-15548734D02*
X6256929Y-15539210D01*
X6256929Y-15539210D02*
X6247406Y-15529686D01*
X6542644Y-15348734D02*
X6447406Y-15348734D01*
X6447406Y-15348734D02*
X6437882Y-15443972D01*
X6437882Y-15443972D02*
X6447406Y-15434448D01*
X6447406Y-15434448D02*
X6466453Y-15424924D01*
X6466453Y-15424924D02*
X6514072Y-15424924D01*
X6514072Y-15424924D02*
X6533120Y-15434448D01*
X6533120Y-15434448D02*
X6542644Y-15443972D01*
X6542644Y-15443972D02*
X6552167Y-15463019D01*
X6552167Y-15463019D02*
X6552167Y-15510638D01*
X6552167Y-15510638D02*
X6542644Y-15529686D01*
X6542644Y-15529686D02*
X6533120Y-15539210D01*
X6533120Y-15539210D02*
X6514072Y-15548734D01*
X6514072Y-15548734D02*
X6466453Y-15548734D01*
X6466453Y-15548734D02*
X6447406Y-15539210D01*
X6447406Y-15539210D02*
X6437882Y-15529686D01*
X6675977Y-15348734D02*
X6695025Y-15348734D01*
X6695025Y-15348734D02*
X6714072Y-15358258D01*
X6714072Y-15358258D02*
X6723596Y-15367781D01*
X6723596Y-15367781D02*
X6733120Y-15386829D01*
X6733120Y-15386829D02*
X6742644Y-15424924D01*
X6742644Y-15424924D02*
X6742644Y-15472543D01*
X6742644Y-15472543D02*
X6733120Y-15510638D01*
X6733120Y-15510638D02*
X6723596Y-15529686D01*
X6723596Y-15529686D02*
X6714072Y-15539210D01*
X6714072Y-15539210D02*
X6695025Y-15548734D01*
X6695025Y-15548734D02*
X6675977Y-15548734D01*
X6675977Y-15548734D02*
X6656929Y-15539210D01*
X6656929Y-15539210D02*
X6647406Y-15529686D01*
X6647406Y-15529686D02*
X6637882Y-15510638D01*
X6637882Y-15510638D02*
X6628358Y-15472543D01*
X6628358Y-15472543D02*
X6628358Y-15424924D01*
X6628358Y-15424924D02*
X6637882Y-15386829D01*
X6637882Y-15386829D02*
X6647406Y-15367781D01*
X6647406Y-15367781D02*
X6656929Y-15358258D01*
X6656929Y-15358258D02*
X6675977Y-15348734D01*
X6818834Y-15348734D02*
X6818834Y-15386829D01*
X6895025Y-15348734D02*
X6895025Y-15386829D01*
X7190263Y-15624924D02*
X7180739Y-15615400D01*
X7180739Y-15615400D02*
X7161691Y-15586829D01*
X7161691Y-15586829D02*
X7152168Y-15567781D01*
X7152168Y-15567781D02*
X7142644Y-15539210D01*
X7142644Y-15539210D02*
X7133120Y-15491591D01*
X7133120Y-15491591D02*
X7133120Y-15453496D01*
X7133120Y-15453496D02*
X7142644Y-15405877D01*
X7142644Y-15405877D02*
X7152168Y-15377305D01*
X7152168Y-15377305D02*
X7161691Y-15358258D01*
X7161691Y-15358258D02*
X7180739Y-15329686D01*
X7180739Y-15329686D02*
X7190263Y-15320162D01*
X7352168Y-15415400D02*
X7352168Y-15548734D01*
X7304548Y-15339210D02*
X7256929Y-15482067D01*
X7256929Y-15482067D02*
X7380739Y-15482067D01*
X7609310Y-15548734D02*
X7609310Y-15348734D01*
X7695025Y-15548734D02*
X7695025Y-15443972D01*
X7695025Y-15443972D02*
X7685501Y-15424924D01*
X7685501Y-15424924D02*
X7666453Y-15415400D01*
X7666453Y-15415400D02*
X7637882Y-15415400D01*
X7637882Y-15415400D02*
X7618834Y-15424924D01*
X7618834Y-15424924D02*
X7609310Y-15434448D01*
X7818834Y-15548734D02*
X7799787Y-15539210D01*
X7799787Y-15539210D02*
X7790263Y-15529686D01*
X7790263Y-15529686D02*
X7780739Y-15510638D01*
X7780739Y-15510638D02*
X7780739Y-15453496D01*
X7780739Y-15453496D02*
X7790263Y-15434448D01*
X7790263Y-15434448D02*
X7799787Y-15424924D01*
X7799787Y-15424924D02*
X7818834Y-15415400D01*
X7818834Y-15415400D02*
X7847406Y-15415400D01*
X7847406Y-15415400D02*
X7866453Y-15424924D01*
X7866453Y-15424924D02*
X7875977Y-15434448D01*
X7875977Y-15434448D02*
X7885501Y-15453496D01*
X7885501Y-15453496D02*
X7885501Y-15510638D01*
X7885501Y-15510638D02*
X7875977Y-15529686D01*
X7875977Y-15529686D02*
X7866453Y-15539210D01*
X7866453Y-15539210D02*
X7847406Y-15548734D01*
X7847406Y-15548734D02*
X7818834Y-15548734D01*
X7999787Y-15548734D02*
X7980739Y-15539210D01*
X7980739Y-15539210D02*
X7971215Y-15520162D01*
X7971215Y-15520162D02*
X7971215Y-15348734D01*
X8152168Y-15539210D02*
X8133120Y-15548734D01*
X8133120Y-15548734D02*
X8095025Y-15548734D01*
X8095025Y-15548734D02*
X8075977Y-15539210D01*
X8075977Y-15539210D02*
X8066453Y-15520162D01*
X8066453Y-15520162D02*
X8066453Y-15443972D01*
X8066453Y-15443972D02*
X8075977Y-15424924D01*
X8075977Y-15424924D02*
X8095025Y-15415400D01*
X8095025Y-15415400D02*
X8133120Y-15415400D01*
X8133120Y-15415400D02*
X8152168Y-15424924D01*
X8152168Y-15424924D02*
X8161691Y-15443972D01*
X8161691Y-15443972D02*
X8161691Y-15463019D01*
X8161691Y-15463019D02*
X8066453Y-15482067D01*
X8237882Y-15539210D02*
X8256930Y-15548734D01*
X8256930Y-15548734D02*
X8295025Y-15548734D01*
X8295025Y-15548734D02*
X8314072Y-15539210D01*
X8314072Y-15539210D02*
X8323596Y-15520162D01*
X8323596Y-15520162D02*
X8323596Y-15510638D01*
X8323596Y-15510638D02*
X8314072Y-15491591D01*
X8314072Y-15491591D02*
X8295025Y-15482067D01*
X8295025Y-15482067D02*
X8266453Y-15482067D01*
X8266453Y-15482067D02*
X8247406Y-15472543D01*
X8247406Y-15472543D02*
X8237882Y-15453496D01*
X8237882Y-15453496D02*
X8237882Y-15443972D01*
X8237882Y-15443972D02*
X8247406Y-15424924D01*
X8247406Y-15424924D02*
X8266453Y-15415400D01*
X8266453Y-15415400D02*
X8295025Y-15415400D01*
X8295025Y-15415400D02*
X8314072Y-15424924D01*
X8390263Y-15624924D02*
X8399787Y-15615400D01*
X8399787Y-15615400D02*
X8418834Y-15586829D01*
X8418834Y-15586829D02*
X8428358Y-15567781D01*
X8428358Y-15567781D02*
X8437882Y-15539210D01*
X8437882Y-15539210D02*
X8447406Y-15491591D01*
X8447406Y-15491591D02*
X8447406Y-15453496D01*
X8447406Y-15453496D02*
X8437882Y-15405877D01*
X8437882Y-15405877D02*
X8428358Y-15377305D01*
X8428358Y-15377305D02*
X8418834Y-15358258D01*
X8418834Y-15358258D02*
X8399787Y-15329686D01*
X8399787Y-15329686D02*
X8390263Y-15320162D01*
D15*
X3465200Y-15646250D02*
X3615200Y-15796250D01*
X3615200Y-15646250D02*
X3465200Y-15796250D01*
X3540200Y-15646250D02*
X3540200Y-15796250D01*
X3465200Y-15721250D02*
X3615200Y-15721250D01*
D11*
X3980739Y-15812734D02*
X3866453Y-15812734D01*
X3923596Y-15812734D02*
X3923596Y-15612734D01*
X3923596Y-15612734D02*
X3904548Y-15641305D01*
X3904548Y-15641305D02*
X3885501Y-15660353D01*
X3885501Y-15660353D02*
X3866453Y-15669877D01*
X4066453Y-15793686D02*
X4075977Y-15803210D01*
X4075977Y-15803210D02*
X4066453Y-15812734D01*
X4066453Y-15812734D02*
X4056929Y-15803210D01*
X4056929Y-15803210D02*
X4066453Y-15793686D01*
X4066453Y-15793686D02*
X4066453Y-15812734D01*
X4256929Y-15612734D02*
X4161691Y-15612734D01*
X4161691Y-15612734D02*
X4152167Y-15707972D01*
X4152167Y-15707972D02*
X4161691Y-15698448D01*
X4161691Y-15698448D02*
X4180739Y-15688924D01*
X4180739Y-15688924D02*
X4228358Y-15688924D01*
X4228358Y-15688924D02*
X4247405Y-15698448D01*
X4247405Y-15698448D02*
X4256929Y-15707972D01*
X4256929Y-15707972D02*
X4266453Y-15727019D01*
X4266453Y-15727019D02*
X4266453Y-15774638D01*
X4266453Y-15774638D02*
X4256929Y-15793686D01*
X4256929Y-15793686D02*
X4247405Y-15803210D01*
X4247405Y-15803210D02*
X4228358Y-15812734D01*
X4228358Y-15812734D02*
X4180739Y-15812734D01*
X4180739Y-15812734D02*
X4161691Y-15803210D01*
X4161691Y-15803210D02*
X4152167Y-15793686D01*
X4390263Y-15612734D02*
X4409310Y-15612734D01*
X4409310Y-15612734D02*
X4428358Y-15622258D01*
X4428358Y-15622258D02*
X4437882Y-15631781D01*
X4437882Y-15631781D02*
X4447405Y-15650829D01*
X4447405Y-15650829D02*
X4456929Y-15688924D01*
X4456929Y-15688924D02*
X4456929Y-15736543D01*
X4456929Y-15736543D02*
X4447405Y-15774638D01*
X4447405Y-15774638D02*
X4437882Y-15793686D01*
X4437882Y-15793686D02*
X4428358Y-15803210D01*
X4428358Y-15803210D02*
X4409310Y-15812734D01*
X4409310Y-15812734D02*
X4390263Y-15812734D01*
X4390263Y-15812734D02*
X4371215Y-15803210D01*
X4371215Y-15803210D02*
X4361691Y-15793686D01*
X4361691Y-15793686D02*
X4352167Y-15774638D01*
X4352167Y-15774638D02*
X4342644Y-15736543D01*
X4342644Y-15736543D02*
X4342644Y-15688924D01*
X4342644Y-15688924D02*
X4352167Y-15650829D01*
X4352167Y-15650829D02*
X4361691Y-15631781D01*
X4361691Y-15631781D02*
X4371215Y-15622258D01*
X4371215Y-15622258D02*
X4390263Y-15612734D01*
X4580739Y-15612734D02*
X4599786Y-15612734D01*
X4599786Y-15612734D02*
X4618834Y-15622258D01*
X4618834Y-15622258D02*
X4628358Y-15631781D01*
X4628358Y-15631781D02*
X4637882Y-15650829D01*
X4637882Y-15650829D02*
X4647405Y-15688924D01*
X4647405Y-15688924D02*
X4647405Y-15736543D01*
X4647405Y-15736543D02*
X4637882Y-15774638D01*
X4637882Y-15774638D02*
X4628358Y-15793686D01*
X4628358Y-15793686D02*
X4618834Y-15803210D01*
X4618834Y-15803210D02*
X4599786Y-15812734D01*
X4599786Y-15812734D02*
X4580739Y-15812734D01*
X4580739Y-15812734D02*
X4561691Y-15803210D01*
X4561691Y-15803210D02*
X4552167Y-15793686D01*
X4552167Y-15793686D02*
X4542644Y-15774638D01*
X4542644Y-15774638D02*
X4533120Y-15736543D01*
X4533120Y-15736543D02*
X4533120Y-15688924D01*
X4533120Y-15688924D02*
X4542644Y-15650829D01*
X4542644Y-15650829D02*
X4552167Y-15631781D01*
X4552167Y-15631781D02*
X4561691Y-15622258D01*
X4561691Y-15622258D02*
X4580739Y-15612734D01*
X4733120Y-15812734D02*
X4733120Y-15679400D01*
X4733120Y-15698448D02*
X4742644Y-15688924D01*
X4742644Y-15688924D02*
X4761691Y-15679400D01*
X4761691Y-15679400D02*
X4790263Y-15679400D01*
X4790263Y-15679400D02*
X4809310Y-15688924D01*
X4809310Y-15688924D02*
X4818834Y-15707972D01*
X4818834Y-15707972D02*
X4818834Y-15812734D01*
X4818834Y-15707972D02*
X4828358Y-15688924D01*
X4828358Y-15688924D02*
X4847405Y-15679400D01*
X4847405Y-15679400D02*
X4875977Y-15679400D01*
X4875977Y-15679400D02*
X4895025Y-15688924D01*
X4895025Y-15688924D02*
X4904548Y-15707972D01*
X4904548Y-15707972D02*
X4904548Y-15812734D01*
X4999786Y-15812734D02*
X4999786Y-15679400D01*
X4999786Y-15698448D02*
X5009310Y-15688924D01*
X5009310Y-15688924D02*
X5028358Y-15679400D01*
X5028358Y-15679400D02*
X5056929Y-15679400D01*
X5056929Y-15679400D02*
X5075977Y-15688924D01*
X5075977Y-15688924D02*
X5085501Y-15707972D01*
X5085501Y-15707972D02*
X5085501Y-15812734D01*
X5085501Y-15707972D02*
X5095025Y-15688924D01*
X5095025Y-15688924D02*
X5114072Y-15679400D01*
X5114072Y-15679400D02*
X5142644Y-15679400D01*
X5142644Y-15679400D02*
X5161691Y-15688924D01*
X5161691Y-15688924D02*
X5171215Y-15707972D01*
X5171215Y-15707972D02*
X5171215Y-15812734D01*
X5561691Y-15603210D02*
X5390263Y-15860353D01*
X5818834Y-15612734D02*
X5837882Y-15612734D01*
X5837882Y-15612734D02*
X5856929Y-15622258D01*
X5856929Y-15622258D02*
X5866453Y-15631781D01*
X5866453Y-15631781D02*
X5875977Y-15650829D01*
X5875977Y-15650829D02*
X5885501Y-15688924D01*
X5885501Y-15688924D02*
X5885501Y-15736543D01*
X5885501Y-15736543D02*
X5875977Y-15774638D01*
X5875977Y-15774638D02*
X5866453Y-15793686D01*
X5866453Y-15793686D02*
X5856929Y-15803210D01*
X5856929Y-15803210D02*
X5837882Y-15812734D01*
X5837882Y-15812734D02*
X5818834Y-15812734D01*
X5818834Y-15812734D02*
X5799786Y-15803210D01*
X5799786Y-15803210D02*
X5790263Y-15793686D01*
X5790263Y-15793686D02*
X5780739Y-15774638D01*
X5780739Y-15774638D02*
X5771215Y-15736543D01*
X5771215Y-15736543D02*
X5771215Y-15688924D01*
X5771215Y-15688924D02*
X5780739Y-15650829D01*
X5780739Y-15650829D02*
X5790263Y-15631781D01*
X5790263Y-15631781D02*
X5799786Y-15622258D01*
X5799786Y-15622258D02*
X5818834Y-15612734D01*
X5971215Y-15793686D02*
X5980739Y-15803210D01*
X5980739Y-15803210D02*
X5971215Y-15812734D01*
X5971215Y-15812734D02*
X5961691Y-15803210D01*
X5961691Y-15803210D02*
X5971215Y-15793686D01*
X5971215Y-15793686D02*
X5971215Y-15812734D01*
X6104548Y-15612734D02*
X6123596Y-15612734D01*
X6123596Y-15612734D02*
X6142644Y-15622258D01*
X6142644Y-15622258D02*
X6152167Y-15631781D01*
X6152167Y-15631781D02*
X6161691Y-15650829D01*
X6161691Y-15650829D02*
X6171215Y-15688924D01*
X6171215Y-15688924D02*
X6171215Y-15736543D01*
X6171215Y-15736543D02*
X6161691Y-15774638D01*
X6161691Y-15774638D02*
X6152167Y-15793686D01*
X6152167Y-15793686D02*
X6142644Y-15803210D01*
X6142644Y-15803210D02*
X6123596Y-15812734D01*
X6123596Y-15812734D02*
X6104548Y-15812734D01*
X6104548Y-15812734D02*
X6085501Y-15803210D01*
X6085501Y-15803210D02*
X6075977Y-15793686D01*
X6075977Y-15793686D02*
X6066453Y-15774638D01*
X6066453Y-15774638D02*
X6056929Y-15736543D01*
X6056929Y-15736543D02*
X6056929Y-15688924D01*
X6056929Y-15688924D02*
X6066453Y-15650829D01*
X6066453Y-15650829D02*
X6075977Y-15631781D01*
X6075977Y-15631781D02*
X6085501Y-15622258D01*
X6085501Y-15622258D02*
X6104548Y-15612734D01*
X6352167Y-15612734D02*
X6256929Y-15612734D01*
X6256929Y-15612734D02*
X6247406Y-15707972D01*
X6247406Y-15707972D02*
X6256929Y-15698448D01*
X6256929Y-15698448D02*
X6275977Y-15688924D01*
X6275977Y-15688924D02*
X6323596Y-15688924D01*
X6323596Y-15688924D02*
X6342644Y-15698448D01*
X6342644Y-15698448D02*
X6352167Y-15707972D01*
X6352167Y-15707972D02*
X6361691Y-15727019D01*
X6361691Y-15727019D02*
X6361691Y-15774638D01*
X6361691Y-15774638D02*
X6352167Y-15793686D01*
X6352167Y-15793686D02*
X6342644Y-15803210D01*
X6342644Y-15803210D02*
X6323596Y-15812734D01*
X6323596Y-15812734D02*
X6275977Y-15812734D01*
X6275977Y-15812734D02*
X6256929Y-15803210D01*
X6256929Y-15803210D02*
X6247406Y-15793686D01*
X6456929Y-15812734D02*
X6495025Y-15812734D01*
X6495025Y-15812734D02*
X6514072Y-15803210D01*
X6514072Y-15803210D02*
X6523596Y-15793686D01*
X6523596Y-15793686D02*
X6542644Y-15765115D01*
X6542644Y-15765115D02*
X6552167Y-15727019D01*
X6552167Y-15727019D02*
X6552167Y-15650829D01*
X6552167Y-15650829D02*
X6542644Y-15631781D01*
X6542644Y-15631781D02*
X6533120Y-15622258D01*
X6533120Y-15622258D02*
X6514072Y-15612734D01*
X6514072Y-15612734D02*
X6475977Y-15612734D01*
X6475977Y-15612734D02*
X6456929Y-15622258D01*
X6456929Y-15622258D02*
X6447406Y-15631781D01*
X6447406Y-15631781D02*
X6437882Y-15650829D01*
X6437882Y-15650829D02*
X6437882Y-15698448D01*
X6437882Y-15698448D02*
X6447406Y-15717496D01*
X6447406Y-15717496D02*
X6456929Y-15727019D01*
X6456929Y-15727019D02*
X6475977Y-15736543D01*
X6475977Y-15736543D02*
X6514072Y-15736543D01*
X6514072Y-15736543D02*
X6533120Y-15727019D01*
X6533120Y-15727019D02*
X6542644Y-15717496D01*
X6542644Y-15717496D02*
X6552167Y-15698448D01*
X6742644Y-15812734D02*
X6628358Y-15812734D01*
X6685501Y-15812734D02*
X6685501Y-15612734D01*
X6685501Y-15612734D02*
X6666453Y-15641305D01*
X6666453Y-15641305D02*
X6647406Y-15660353D01*
X6647406Y-15660353D02*
X6628358Y-15669877D01*
X6818834Y-15612734D02*
X6818834Y-15650829D01*
X6895025Y-15612734D02*
X6895025Y-15650829D01*
X7190263Y-15888924D02*
X7180739Y-15879400D01*
X7180739Y-15879400D02*
X7161691Y-15850829D01*
X7161691Y-15850829D02*
X7152168Y-15831781D01*
X7152168Y-15831781D02*
X7142644Y-15803210D01*
X7142644Y-15803210D02*
X7133120Y-15755591D01*
X7133120Y-15755591D02*
X7133120Y-15717496D01*
X7133120Y-15717496D02*
X7142644Y-15669877D01*
X7142644Y-15669877D02*
X7152168Y-15641305D01*
X7152168Y-15641305D02*
X7161691Y-15622258D01*
X7161691Y-15622258D02*
X7180739Y-15593686D01*
X7180739Y-15593686D02*
X7190263Y-15584162D01*
X7361691Y-15612734D02*
X7266453Y-15612734D01*
X7266453Y-15612734D02*
X7256929Y-15707972D01*
X7256929Y-15707972D02*
X7266453Y-15698448D01*
X7266453Y-15698448D02*
X7285501Y-15688924D01*
X7285501Y-15688924D02*
X7333120Y-15688924D01*
X7333120Y-15688924D02*
X7352168Y-15698448D01*
X7352168Y-15698448D02*
X7361691Y-15707972D01*
X7361691Y-15707972D02*
X7371215Y-15727019D01*
X7371215Y-15727019D02*
X7371215Y-15774638D01*
X7371215Y-15774638D02*
X7361691Y-15793686D01*
X7361691Y-15793686D02*
X7352168Y-15803210D01*
X7352168Y-15803210D02*
X7333120Y-15812734D01*
X7333120Y-15812734D02*
X7285501Y-15812734D01*
X7285501Y-15812734D02*
X7266453Y-15803210D01*
X7266453Y-15803210D02*
X7256929Y-15793686D01*
X7542644Y-15612734D02*
X7504548Y-15612734D01*
X7504548Y-15612734D02*
X7485501Y-15622258D01*
X7485501Y-15622258D02*
X7475977Y-15631781D01*
X7475977Y-15631781D02*
X7456929Y-15660353D01*
X7456929Y-15660353D02*
X7447406Y-15698448D01*
X7447406Y-15698448D02*
X7447406Y-15774638D01*
X7447406Y-15774638D02*
X7456929Y-15793686D01*
X7456929Y-15793686D02*
X7466453Y-15803210D01*
X7466453Y-15803210D02*
X7485501Y-15812734D01*
X7485501Y-15812734D02*
X7523596Y-15812734D01*
X7523596Y-15812734D02*
X7542644Y-15803210D01*
X7542644Y-15803210D02*
X7552168Y-15793686D01*
X7552168Y-15793686D02*
X7561691Y-15774638D01*
X7561691Y-15774638D02*
X7561691Y-15727019D01*
X7561691Y-15727019D02*
X7552168Y-15707972D01*
X7552168Y-15707972D02*
X7542644Y-15698448D01*
X7542644Y-15698448D02*
X7523596Y-15688924D01*
X7523596Y-15688924D02*
X7485501Y-15688924D01*
X7485501Y-15688924D02*
X7466453Y-15698448D01*
X7466453Y-15698448D02*
X7456929Y-15707972D01*
X7456929Y-15707972D02*
X7447406Y-15727019D01*
X7799787Y-15812734D02*
X7799787Y-15612734D01*
X7885501Y-15812734D02*
X7885501Y-15707972D01*
X7885501Y-15707972D02*
X7875977Y-15688924D01*
X7875977Y-15688924D02*
X7856930Y-15679400D01*
X7856930Y-15679400D02*
X7828358Y-15679400D01*
X7828358Y-15679400D02*
X7809310Y-15688924D01*
X7809310Y-15688924D02*
X7799787Y-15698448D01*
X8009310Y-15812734D02*
X7990263Y-15803210D01*
X7990263Y-15803210D02*
X7980739Y-15793686D01*
X7980739Y-15793686D02*
X7971215Y-15774638D01*
X7971215Y-15774638D02*
X7971215Y-15717496D01*
X7971215Y-15717496D02*
X7980739Y-15698448D01*
X7980739Y-15698448D02*
X7990263Y-15688924D01*
X7990263Y-15688924D02*
X8009310Y-15679400D01*
X8009310Y-15679400D02*
X8037882Y-15679400D01*
X8037882Y-15679400D02*
X8056930Y-15688924D01*
X8056930Y-15688924D02*
X8066453Y-15698448D01*
X8066453Y-15698448D02*
X8075977Y-15717496D01*
X8075977Y-15717496D02*
X8075977Y-15774638D01*
X8075977Y-15774638D02*
X8066453Y-15793686D01*
X8066453Y-15793686D02*
X8056930Y-15803210D01*
X8056930Y-15803210D02*
X8037882Y-15812734D01*
X8037882Y-15812734D02*
X8009310Y-15812734D01*
X8190263Y-15812734D02*
X8171215Y-15803210D01*
X8171215Y-15803210D02*
X8161691Y-15784162D01*
X8161691Y-15784162D02*
X8161691Y-15612734D01*
X8342644Y-15803210D02*
X8323596Y-15812734D01*
X8323596Y-15812734D02*
X8285501Y-15812734D01*
X8285501Y-15812734D02*
X8266453Y-15803210D01*
X8266453Y-15803210D02*
X8256930Y-15784162D01*
X8256930Y-15784162D02*
X8256930Y-15707972D01*
X8256930Y-15707972D02*
X8266453Y-15688924D01*
X8266453Y-15688924D02*
X8285501Y-15679400D01*
X8285501Y-15679400D02*
X8323596Y-15679400D01*
X8323596Y-15679400D02*
X8342644Y-15688924D01*
X8342644Y-15688924D02*
X8352168Y-15707972D01*
X8352168Y-15707972D02*
X8352168Y-15727019D01*
X8352168Y-15727019D02*
X8256930Y-15746067D01*
X8428358Y-15803210D02*
X8447406Y-15812734D01*
X8447406Y-15812734D02*
X8485501Y-15812734D01*
X8485501Y-15812734D02*
X8504549Y-15803210D01*
X8504549Y-15803210D02*
X8514073Y-15784162D01*
X8514073Y-15784162D02*
X8514073Y-15774638D01*
X8514073Y-15774638D02*
X8504549Y-15755591D01*
X8504549Y-15755591D02*
X8485501Y-15746067D01*
X8485501Y-15746067D02*
X8456930Y-15746067D01*
X8456930Y-15746067D02*
X8437882Y-15736543D01*
X8437882Y-15736543D02*
X8428358Y-15717496D01*
X8428358Y-15717496D02*
X8428358Y-15707972D01*
X8428358Y-15707972D02*
X8437882Y-15688924D01*
X8437882Y-15688924D02*
X8456930Y-15679400D01*
X8456930Y-15679400D02*
X8485501Y-15679400D01*
X8485501Y-15679400D02*
X8504549Y-15688924D01*
X8580739Y-15888924D02*
X8590263Y-15879400D01*
X8590263Y-15879400D02*
X8609311Y-15850829D01*
X8609311Y-15850829D02*
X8618834Y-15831781D01*
X8618834Y-15831781D02*
X8628358Y-15803210D01*
X8628358Y-15803210D02*
X8637882Y-15755591D01*
X8637882Y-15755591D02*
X8637882Y-15717496D01*
X8637882Y-15717496D02*
X8628358Y-15669877D01*
X8628358Y-15669877D02*
X8618834Y-15641305D01*
X8618834Y-15641305D02*
X8609311Y-15622258D01*
X8609311Y-15622258D02*
X8590263Y-15593686D01*
X8590263Y-15593686D02*
X8580739Y-15584162D01*
M02*
