G04 #@! TF.GenerationSoftware,KiCad,Pcbnew,8.0.3*
G04 #@! TF.CreationDate,2024-06-27T13:33:53-07:00*
G04 #@! TF.ProjectId,new midi keyboard,6e657720-6d69-4646-9920-6b6579626f61,rev?*
G04 #@! TF.SameCoordinates,Original*
G04 #@! TF.FileFunction,AssemblyDrawing,Bot*
%FSLAX46Y46*%
G04 Gerber Fmt 4.6, Leading zero omitted, Abs format (unit mm)*
G04 Created by KiCad (PCBNEW 8.0.3) date 2024-06-27 13:33:53*
%MOMM*%
%LPD*%
G01*
G04 APERTURE LIST*
%ADD10C,0.150000*%
%ADD11C,0.120000*%
%ADD12C,0.100000*%
G04 APERTURE END LIST*
D10*
X282182819Y-112797142D02*
X282182819Y-112225714D01*
X282182819Y-112511428D02*
X281182819Y-112511428D01*
X281182819Y-112511428D02*
X281325676Y-112416190D01*
X281325676Y-112416190D02*
X281420914Y-112320952D01*
X281420914Y-112320952D02*
X281468533Y-112225714D01*
X282182819Y-113225714D02*
X281182819Y-113225714D01*
X281182819Y-113225714D02*
X282182819Y-113797142D01*
X282182819Y-113797142D02*
X281182819Y-113797142D01*
X281516152Y-114701904D02*
X282182819Y-114701904D01*
X281135200Y-114463809D02*
X281849485Y-114225714D01*
X281849485Y-114225714D02*
X281849485Y-114844761D01*
X282182819Y-115749523D02*
X282182819Y-115178095D01*
X282182819Y-115463809D02*
X281182819Y-115463809D01*
X281182819Y-115463809D02*
X281325676Y-115368571D01*
X281325676Y-115368571D02*
X281420914Y-115273333D01*
X281420914Y-115273333D02*
X281468533Y-115178095D01*
X281516152Y-116606666D02*
X282182819Y-116606666D01*
X281135200Y-116368571D02*
X281849485Y-116130476D01*
X281849485Y-116130476D02*
X281849485Y-116749523D01*
X281611390Y-117273333D02*
X281563771Y-117178095D01*
X281563771Y-117178095D02*
X281516152Y-117130476D01*
X281516152Y-117130476D02*
X281420914Y-117082857D01*
X281420914Y-117082857D02*
X281373295Y-117082857D01*
X281373295Y-117082857D02*
X281278057Y-117130476D01*
X281278057Y-117130476D02*
X281230438Y-117178095D01*
X281230438Y-117178095D02*
X281182819Y-117273333D01*
X281182819Y-117273333D02*
X281182819Y-117463809D01*
X281182819Y-117463809D02*
X281230438Y-117559047D01*
X281230438Y-117559047D02*
X281278057Y-117606666D01*
X281278057Y-117606666D02*
X281373295Y-117654285D01*
X281373295Y-117654285D02*
X281420914Y-117654285D01*
X281420914Y-117654285D02*
X281516152Y-117606666D01*
X281516152Y-117606666D02*
X281563771Y-117559047D01*
X281563771Y-117559047D02*
X281611390Y-117463809D01*
X281611390Y-117463809D02*
X281611390Y-117273333D01*
X281611390Y-117273333D02*
X281659009Y-117178095D01*
X281659009Y-117178095D02*
X281706628Y-117130476D01*
X281706628Y-117130476D02*
X281801866Y-117082857D01*
X281801866Y-117082857D02*
X281992342Y-117082857D01*
X281992342Y-117082857D02*
X282087580Y-117130476D01*
X282087580Y-117130476D02*
X282135200Y-117178095D01*
X282135200Y-117178095D02*
X282182819Y-117273333D01*
X282182819Y-117273333D02*
X282182819Y-117463809D01*
X282182819Y-117463809D02*
X282135200Y-117559047D01*
X282135200Y-117559047D02*
X282087580Y-117606666D01*
X282087580Y-117606666D02*
X281992342Y-117654285D01*
X281992342Y-117654285D02*
X281801866Y-117654285D01*
X281801866Y-117654285D02*
X281706628Y-117606666D01*
X281706628Y-117606666D02*
X281659009Y-117559047D01*
X281659009Y-117559047D02*
X281611390Y-117463809D01*
X286102819Y-118488095D02*
X285102819Y-118488095D01*
X286102819Y-119059523D02*
X285531390Y-118630952D01*
X285102819Y-119059523D02*
X285674247Y-118488095D01*
D11*
X284211855Y-113668571D02*
X283411855Y-113668571D01*
X283411855Y-113668571D02*
X283411855Y-113859047D01*
X283411855Y-113859047D02*
X283449950Y-113973333D01*
X283449950Y-113973333D02*
X283526140Y-114049523D01*
X283526140Y-114049523D02*
X283602331Y-114087618D01*
X283602331Y-114087618D02*
X283754712Y-114125714D01*
X283754712Y-114125714D02*
X283868998Y-114125714D01*
X283868998Y-114125714D02*
X284021379Y-114087618D01*
X284021379Y-114087618D02*
X284097569Y-114049523D01*
X284097569Y-114049523D02*
X284173760Y-113973333D01*
X284173760Y-113973333D02*
X284211855Y-113859047D01*
X284211855Y-113859047D02*
X284211855Y-113668571D01*
X284211855Y-114887618D02*
X284211855Y-114430475D01*
X284211855Y-114659047D02*
X283411855Y-114659047D01*
X283411855Y-114659047D02*
X283526140Y-114582856D01*
X283526140Y-114582856D02*
X283602331Y-114506666D01*
X283602331Y-114506666D02*
X283640426Y-114430475D01*
X283411855Y-115154285D02*
X283411855Y-115649523D01*
X283411855Y-115649523D02*
X283716617Y-115382857D01*
X283716617Y-115382857D02*
X283716617Y-115497142D01*
X283716617Y-115497142D02*
X283754712Y-115573333D01*
X283754712Y-115573333D02*
X283792807Y-115611428D01*
X283792807Y-115611428D02*
X283868998Y-115649523D01*
X283868998Y-115649523D02*
X284059474Y-115649523D01*
X284059474Y-115649523D02*
X284135664Y-115611428D01*
X284135664Y-115611428D02*
X284173760Y-115573333D01*
X284173760Y-115573333D02*
X284211855Y-115497142D01*
X284211855Y-115497142D02*
X284211855Y-115268571D01*
X284211855Y-115268571D02*
X284173760Y-115192380D01*
X284173760Y-115192380D02*
X284135664Y-115154285D01*
D10*
X167882819Y-112797142D02*
X167882819Y-112225714D01*
X167882819Y-112511428D02*
X166882819Y-112511428D01*
X166882819Y-112511428D02*
X167025676Y-112416190D01*
X167025676Y-112416190D02*
X167120914Y-112320952D01*
X167120914Y-112320952D02*
X167168533Y-112225714D01*
X167882819Y-113225714D02*
X166882819Y-113225714D01*
X166882819Y-113225714D02*
X167882819Y-113797142D01*
X167882819Y-113797142D02*
X166882819Y-113797142D01*
X167216152Y-114701904D02*
X167882819Y-114701904D01*
X166835200Y-114463809D02*
X167549485Y-114225714D01*
X167549485Y-114225714D02*
X167549485Y-114844761D01*
X167882819Y-115749523D02*
X167882819Y-115178095D01*
X167882819Y-115463809D02*
X166882819Y-115463809D01*
X166882819Y-115463809D02*
X167025676Y-115368571D01*
X167025676Y-115368571D02*
X167120914Y-115273333D01*
X167120914Y-115273333D02*
X167168533Y-115178095D01*
X167216152Y-116606666D02*
X167882819Y-116606666D01*
X166835200Y-116368571D02*
X167549485Y-116130476D01*
X167549485Y-116130476D02*
X167549485Y-116749523D01*
X167311390Y-117273333D02*
X167263771Y-117178095D01*
X167263771Y-117178095D02*
X167216152Y-117130476D01*
X167216152Y-117130476D02*
X167120914Y-117082857D01*
X167120914Y-117082857D02*
X167073295Y-117082857D01*
X167073295Y-117082857D02*
X166978057Y-117130476D01*
X166978057Y-117130476D02*
X166930438Y-117178095D01*
X166930438Y-117178095D02*
X166882819Y-117273333D01*
X166882819Y-117273333D02*
X166882819Y-117463809D01*
X166882819Y-117463809D02*
X166930438Y-117559047D01*
X166930438Y-117559047D02*
X166978057Y-117606666D01*
X166978057Y-117606666D02*
X167073295Y-117654285D01*
X167073295Y-117654285D02*
X167120914Y-117654285D01*
X167120914Y-117654285D02*
X167216152Y-117606666D01*
X167216152Y-117606666D02*
X167263771Y-117559047D01*
X167263771Y-117559047D02*
X167311390Y-117463809D01*
X167311390Y-117463809D02*
X167311390Y-117273333D01*
X167311390Y-117273333D02*
X167359009Y-117178095D01*
X167359009Y-117178095D02*
X167406628Y-117130476D01*
X167406628Y-117130476D02*
X167501866Y-117082857D01*
X167501866Y-117082857D02*
X167692342Y-117082857D01*
X167692342Y-117082857D02*
X167787580Y-117130476D01*
X167787580Y-117130476D02*
X167835200Y-117178095D01*
X167835200Y-117178095D02*
X167882819Y-117273333D01*
X167882819Y-117273333D02*
X167882819Y-117463809D01*
X167882819Y-117463809D02*
X167835200Y-117559047D01*
X167835200Y-117559047D02*
X167787580Y-117606666D01*
X167787580Y-117606666D02*
X167692342Y-117654285D01*
X167692342Y-117654285D02*
X167501866Y-117654285D01*
X167501866Y-117654285D02*
X167406628Y-117606666D01*
X167406628Y-117606666D02*
X167359009Y-117559047D01*
X167359009Y-117559047D02*
X167311390Y-117463809D01*
X171802819Y-118488095D02*
X170802819Y-118488095D01*
X171802819Y-119059523D02*
X171231390Y-118630952D01*
X170802819Y-119059523D02*
X171374247Y-118488095D01*
D11*
X169911855Y-114049524D02*
X169111855Y-114049524D01*
X169111855Y-114049524D02*
X169111855Y-114240000D01*
X169111855Y-114240000D02*
X169149950Y-114354286D01*
X169149950Y-114354286D02*
X169226140Y-114430476D01*
X169226140Y-114430476D02*
X169302331Y-114468571D01*
X169302331Y-114468571D02*
X169454712Y-114506667D01*
X169454712Y-114506667D02*
X169568998Y-114506667D01*
X169568998Y-114506667D02*
X169721379Y-114468571D01*
X169721379Y-114468571D02*
X169797569Y-114430476D01*
X169797569Y-114430476D02*
X169873760Y-114354286D01*
X169873760Y-114354286D02*
X169911855Y-114240000D01*
X169911855Y-114240000D02*
X169911855Y-114049524D01*
X169188045Y-114811428D02*
X169149950Y-114849524D01*
X169149950Y-114849524D02*
X169111855Y-114925714D01*
X169111855Y-114925714D02*
X169111855Y-115116190D01*
X169111855Y-115116190D02*
X169149950Y-115192381D01*
X169149950Y-115192381D02*
X169188045Y-115230476D01*
X169188045Y-115230476D02*
X169264236Y-115268571D01*
X169264236Y-115268571D02*
X169340426Y-115268571D01*
X169340426Y-115268571D02*
X169454712Y-115230476D01*
X169454712Y-115230476D02*
X169911855Y-114773333D01*
X169911855Y-114773333D02*
X169911855Y-115268571D01*
D10*
X310757819Y-93747142D02*
X310757819Y-93175714D01*
X310757819Y-93461428D02*
X309757819Y-93461428D01*
X309757819Y-93461428D02*
X309900676Y-93366190D01*
X309900676Y-93366190D02*
X309995914Y-93270952D01*
X309995914Y-93270952D02*
X310043533Y-93175714D01*
X310757819Y-94175714D02*
X309757819Y-94175714D01*
X309757819Y-94175714D02*
X310757819Y-94747142D01*
X310757819Y-94747142D02*
X309757819Y-94747142D01*
X310091152Y-95651904D02*
X310757819Y-95651904D01*
X309710200Y-95413809D02*
X310424485Y-95175714D01*
X310424485Y-95175714D02*
X310424485Y-95794761D01*
X310757819Y-96699523D02*
X310757819Y-96128095D01*
X310757819Y-96413809D02*
X309757819Y-96413809D01*
X309757819Y-96413809D02*
X309900676Y-96318571D01*
X309900676Y-96318571D02*
X309995914Y-96223333D01*
X309995914Y-96223333D02*
X310043533Y-96128095D01*
X310091152Y-97556666D02*
X310757819Y-97556666D01*
X309710200Y-97318571D02*
X310424485Y-97080476D01*
X310424485Y-97080476D02*
X310424485Y-97699523D01*
X310186390Y-98223333D02*
X310138771Y-98128095D01*
X310138771Y-98128095D02*
X310091152Y-98080476D01*
X310091152Y-98080476D02*
X309995914Y-98032857D01*
X309995914Y-98032857D02*
X309948295Y-98032857D01*
X309948295Y-98032857D02*
X309853057Y-98080476D01*
X309853057Y-98080476D02*
X309805438Y-98128095D01*
X309805438Y-98128095D02*
X309757819Y-98223333D01*
X309757819Y-98223333D02*
X309757819Y-98413809D01*
X309757819Y-98413809D02*
X309805438Y-98509047D01*
X309805438Y-98509047D02*
X309853057Y-98556666D01*
X309853057Y-98556666D02*
X309948295Y-98604285D01*
X309948295Y-98604285D02*
X309995914Y-98604285D01*
X309995914Y-98604285D02*
X310091152Y-98556666D01*
X310091152Y-98556666D02*
X310138771Y-98509047D01*
X310138771Y-98509047D02*
X310186390Y-98413809D01*
X310186390Y-98413809D02*
X310186390Y-98223333D01*
X310186390Y-98223333D02*
X310234009Y-98128095D01*
X310234009Y-98128095D02*
X310281628Y-98080476D01*
X310281628Y-98080476D02*
X310376866Y-98032857D01*
X310376866Y-98032857D02*
X310567342Y-98032857D01*
X310567342Y-98032857D02*
X310662580Y-98080476D01*
X310662580Y-98080476D02*
X310710200Y-98128095D01*
X310710200Y-98128095D02*
X310757819Y-98223333D01*
X310757819Y-98223333D02*
X310757819Y-98413809D01*
X310757819Y-98413809D02*
X310710200Y-98509047D01*
X310710200Y-98509047D02*
X310662580Y-98556666D01*
X310662580Y-98556666D02*
X310567342Y-98604285D01*
X310567342Y-98604285D02*
X310376866Y-98604285D01*
X310376866Y-98604285D02*
X310281628Y-98556666D01*
X310281628Y-98556666D02*
X310234009Y-98509047D01*
X310234009Y-98509047D02*
X310186390Y-98413809D01*
D11*
X312786855Y-94618571D02*
X311986855Y-94618571D01*
X311986855Y-94618571D02*
X311986855Y-94809047D01*
X311986855Y-94809047D02*
X312024950Y-94923333D01*
X312024950Y-94923333D02*
X312101140Y-94999523D01*
X312101140Y-94999523D02*
X312177331Y-95037618D01*
X312177331Y-95037618D02*
X312329712Y-95075714D01*
X312329712Y-95075714D02*
X312443998Y-95075714D01*
X312443998Y-95075714D02*
X312596379Y-95037618D01*
X312596379Y-95037618D02*
X312672569Y-94999523D01*
X312672569Y-94999523D02*
X312748760Y-94923333D01*
X312748760Y-94923333D02*
X312786855Y-94809047D01*
X312786855Y-94809047D02*
X312786855Y-94618571D01*
X312786855Y-95837618D02*
X312786855Y-95380475D01*
X312786855Y-95609047D02*
X311986855Y-95609047D01*
X311986855Y-95609047D02*
X312101140Y-95532856D01*
X312101140Y-95532856D02*
X312177331Y-95456666D01*
X312177331Y-95456666D02*
X312215426Y-95380475D01*
X311986855Y-96523333D02*
X311986855Y-96370952D01*
X311986855Y-96370952D02*
X312024950Y-96294761D01*
X312024950Y-96294761D02*
X312063045Y-96256666D01*
X312063045Y-96256666D02*
X312177331Y-96180476D01*
X312177331Y-96180476D02*
X312329712Y-96142380D01*
X312329712Y-96142380D02*
X312634474Y-96142380D01*
X312634474Y-96142380D02*
X312710664Y-96180476D01*
X312710664Y-96180476D02*
X312748760Y-96218571D01*
X312748760Y-96218571D02*
X312786855Y-96294761D01*
X312786855Y-96294761D02*
X312786855Y-96447142D01*
X312786855Y-96447142D02*
X312748760Y-96523333D01*
X312748760Y-96523333D02*
X312710664Y-96561428D01*
X312710664Y-96561428D02*
X312634474Y-96599523D01*
X312634474Y-96599523D02*
X312443998Y-96599523D01*
X312443998Y-96599523D02*
X312367807Y-96561428D01*
X312367807Y-96561428D02*
X312329712Y-96523333D01*
X312329712Y-96523333D02*
X312291617Y-96447142D01*
X312291617Y-96447142D02*
X312291617Y-96294761D01*
X312291617Y-96294761D02*
X312329712Y-96218571D01*
X312329712Y-96218571D02*
X312367807Y-96180476D01*
X312367807Y-96180476D02*
X312443998Y-96142380D01*
D10*
X314677819Y-99438095D02*
X313677819Y-99438095D01*
X314677819Y-100009523D02*
X314106390Y-99580952D01*
X313677819Y-100009523D02*
X314249247Y-99438095D01*
X158040319Y-93747142D02*
X158040319Y-93175714D01*
X158040319Y-93461428D02*
X157040319Y-93461428D01*
X157040319Y-93461428D02*
X157183176Y-93366190D01*
X157183176Y-93366190D02*
X157278414Y-93270952D01*
X157278414Y-93270952D02*
X157326033Y-93175714D01*
X158040319Y-94175714D02*
X157040319Y-94175714D01*
X157040319Y-94175714D02*
X158040319Y-94747142D01*
X158040319Y-94747142D02*
X157040319Y-94747142D01*
X157373652Y-95651904D02*
X158040319Y-95651904D01*
X156992700Y-95413809D02*
X157706985Y-95175714D01*
X157706985Y-95175714D02*
X157706985Y-95794761D01*
X158040319Y-96699523D02*
X158040319Y-96128095D01*
X158040319Y-96413809D02*
X157040319Y-96413809D01*
X157040319Y-96413809D02*
X157183176Y-96318571D01*
X157183176Y-96318571D02*
X157278414Y-96223333D01*
X157278414Y-96223333D02*
X157326033Y-96128095D01*
X157373652Y-97556666D02*
X158040319Y-97556666D01*
X156992700Y-97318571D02*
X157706985Y-97080476D01*
X157706985Y-97080476D02*
X157706985Y-97699523D01*
X157468890Y-98223333D02*
X157421271Y-98128095D01*
X157421271Y-98128095D02*
X157373652Y-98080476D01*
X157373652Y-98080476D02*
X157278414Y-98032857D01*
X157278414Y-98032857D02*
X157230795Y-98032857D01*
X157230795Y-98032857D02*
X157135557Y-98080476D01*
X157135557Y-98080476D02*
X157087938Y-98128095D01*
X157087938Y-98128095D02*
X157040319Y-98223333D01*
X157040319Y-98223333D02*
X157040319Y-98413809D01*
X157040319Y-98413809D02*
X157087938Y-98509047D01*
X157087938Y-98509047D02*
X157135557Y-98556666D01*
X157135557Y-98556666D02*
X157230795Y-98604285D01*
X157230795Y-98604285D02*
X157278414Y-98604285D01*
X157278414Y-98604285D02*
X157373652Y-98556666D01*
X157373652Y-98556666D02*
X157421271Y-98509047D01*
X157421271Y-98509047D02*
X157468890Y-98413809D01*
X157468890Y-98413809D02*
X157468890Y-98223333D01*
X157468890Y-98223333D02*
X157516509Y-98128095D01*
X157516509Y-98128095D02*
X157564128Y-98080476D01*
X157564128Y-98080476D02*
X157659366Y-98032857D01*
X157659366Y-98032857D02*
X157849842Y-98032857D01*
X157849842Y-98032857D02*
X157945080Y-98080476D01*
X157945080Y-98080476D02*
X157992700Y-98128095D01*
X157992700Y-98128095D02*
X158040319Y-98223333D01*
X158040319Y-98223333D02*
X158040319Y-98413809D01*
X158040319Y-98413809D02*
X157992700Y-98509047D01*
X157992700Y-98509047D02*
X157945080Y-98556666D01*
X157945080Y-98556666D02*
X157849842Y-98604285D01*
X157849842Y-98604285D02*
X157659366Y-98604285D01*
X157659366Y-98604285D02*
X157564128Y-98556666D01*
X157564128Y-98556666D02*
X157516509Y-98509047D01*
X157516509Y-98509047D02*
X157468890Y-98413809D01*
D11*
X160069355Y-94999524D02*
X159269355Y-94999524D01*
X159269355Y-94999524D02*
X159269355Y-95190000D01*
X159269355Y-95190000D02*
X159307450Y-95304286D01*
X159307450Y-95304286D02*
X159383640Y-95380476D01*
X159383640Y-95380476D02*
X159459831Y-95418571D01*
X159459831Y-95418571D02*
X159612212Y-95456667D01*
X159612212Y-95456667D02*
X159726498Y-95456667D01*
X159726498Y-95456667D02*
X159878879Y-95418571D01*
X159878879Y-95418571D02*
X159955069Y-95380476D01*
X159955069Y-95380476D02*
X160031260Y-95304286D01*
X160031260Y-95304286D02*
X160069355Y-95190000D01*
X160069355Y-95190000D02*
X160069355Y-94999524D01*
X159612212Y-95913809D02*
X159574117Y-95837619D01*
X159574117Y-95837619D02*
X159536021Y-95799524D01*
X159536021Y-95799524D02*
X159459831Y-95761428D01*
X159459831Y-95761428D02*
X159421736Y-95761428D01*
X159421736Y-95761428D02*
X159345545Y-95799524D01*
X159345545Y-95799524D02*
X159307450Y-95837619D01*
X159307450Y-95837619D02*
X159269355Y-95913809D01*
X159269355Y-95913809D02*
X159269355Y-96066190D01*
X159269355Y-96066190D02*
X159307450Y-96142381D01*
X159307450Y-96142381D02*
X159345545Y-96180476D01*
X159345545Y-96180476D02*
X159421736Y-96218571D01*
X159421736Y-96218571D02*
X159459831Y-96218571D01*
X159459831Y-96218571D02*
X159536021Y-96180476D01*
X159536021Y-96180476D02*
X159574117Y-96142381D01*
X159574117Y-96142381D02*
X159612212Y-96066190D01*
X159612212Y-96066190D02*
X159612212Y-95913809D01*
X159612212Y-95913809D02*
X159650307Y-95837619D01*
X159650307Y-95837619D02*
X159688402Y-95799524D01*
X159688402Y-95799524D02*
X159764593Y-95761428D01*
X159764593Y-95761428D02*
X159916974Y-95761428D01*
X159916974Y-95761428D02*
X159993164Y-95799524D01*
X159993164Y-95799524D02*
X160031260Y-95837619D01*
X160031260Y-95837619D02*
X160069355Y-95913809D01*
X160069355Y-95913809D02*
X160069355Y-96066190D01*
X160069355Y-96066190D02*
X160031260Y-96142381D01*
X160031260Y-96142381D02*
X159993164Y-96180476D01*
X159993164Y-96180476D02*
X159916974Y-96218571D01*
X159916974Y-96218571D02*
X159764593Y-96218571D01*
X159764593Y-96218571D02*
X159688402Y-96180476D01*
X159688402Y-96180476D02*
X159650307Y-96142381D01*
X159650307Y-96142381D02*
X159612212Y-96066190D01*
D10*
X161960319Y-99438095D02*
X160960319Y-99438095D01*
X161960319Y-100009523D02*
X161388890Y-99580952D01*
X160960319Y-100009523D02*
X161531747Y-99438095D01*
X301232819Y-112797142D02*
X301232819Y-112225714D01*
X301232819Y-112511428D02*
X300232819Y-112511428D01*
X300232819Y-112511428D02*
X300375676Y-112416190D01*
X300375676Y-112416190D02*
X300470914Y-112320952D01*
X300470914Y-112320952D02*
X300518533Y-112225714D01*
X301232819Y-113225714D02*
X300232819Y-113225714D01*
X300232819Y-113225714D02*
X301232819Y-113797142D01*
X301232819Y-113797142D02*
X300232819Y-113797142D01*
X300566152Y-114701904D02*
X301232819Y-114701904D01*
X300185200Y-114463809D02*
X300899485Y-114225714D01*
X300899485Y-114225714D02*
X300899485Y-114844761D01*
X301232819Y-115749523D02*
X301232819Y-115178095D01*
X301232819Y-115463809D02*
X300232819Y-115463809D01*
X300232819Y-115463809D02*
X300375676Y-115368571D01*
X300375676Y-115368571D02*
X300470914Y-115273333D01*
X300470914Y-115273333D02*
X300518533Y-115178095D01*
X300566152Y-116606666D02*
X301232819Y-116606666D01*
X300185200Y-116368571D02*
X300899485Y-116130476D01*
X300899485Y-116130476D02*
X300899485Y-116749523D01*
X300661390Y-117273333D02*
X300613771Y-117178095D01*
X300613771Y-117178095D02*
X300566152Y-117130476D01*
X300566152Y-117130476D02*
X300470914Y-117082857D01*
X300470914Y-117082857D02*
X300423295Y-117082857D01*
X300423295Y-117082857D02*
X300328057Y-117130476D01*
X300328057Y-117130476D02*
X300280438Y-117178095D01*
X300280438Y-117178095D02*
X300232819Y-117273333D01*
X300232819Y-117273333D02*
X300232819Y-117463809D01*
X300232819Y-117463809D02*
X300280438Y-117559047D01*
X300280438Y-117559047D02*
X300328057Y-117606666D01*
X300328057Y-117606666D02*
X300423295Y-117654285D01*
X300423295Y-117654285D02*
X300470914Y-117654285D01*
X300470914Y-117654285D02*
X300566152Y-117606666D01*
X300566152Y-117606666D02*
X300613771Y-117559047D01*
X300613771Y-117559047D02*
X300661390Y-117463809D01*
X300661390Y-117463809D02*
X300661390Y-117273333D01*
X300661390Y-117273333D02*
X300709009Y-117178095D01*
X300709009Y-117178095D02*
X300756628Y-117130476D01*
X300756628Y-117130476D02*
X300851866Y-117082857D01*
X300851866Y-117082857D02*
X301042342Y-117082857D01*
X301042342Y-117082857D02*
X301137580Y-117130476D01*
X301137580Y-117130476D02*
X301185200Y-117178095D01*
X301185200Y-117178095D02*
X301232819Y-117273333D01*
X301232819Y-117273333D02*
X301232819Y-117463809D01*
X301232819Y-117463809D02*
X301185200Y-117559047D01*
X301185200Y-117559047D02*
X301137580Y-117606666D01*
X301137580Y-117606666D02*
X301042342Y-117654285D01*
X301042342Y-117654285D02*
X300851866Y-117654285D01*
X300851866Y-117654285D02*
X300756628Y-117606666D01*
X300756628Y-117606666D02*
X300709009Y-117559047D01*
X300709009Y-117559047D02*
X300661390Y-117463809D01*
D11*
X303261855Y-113668571D02*
X302461855Y-113668571D01*
X302461855Y-113668571D02*
X302461855Y-113859047D01*
X302461855Y-113859047D02*
X302499950Y-113973333D01*
X302499950Y-113973333D02*
X302576140Y-114049523D01*
X302576140Y-114049523D02*
X302652331Y-114087618D01*
X302652331Y-114087618D02*
X302804712Y-114125714D01*
X302804712Y-114125714D02*
X302918998Y-114125714D01*
X302918998Y-114125714D02*
X303071379Y-114087618D01*
X303071379Y-114087618D02*
X303147569Y-114049523D01*
X303147569Y-114049523D02*
X303223760Y-113973333D01*
X303223760Y-113973333D02*
X303261855Y-113859047D01*
X303261855Y-113859047D02*
X303261855Y-113668571D01*
X303261855Y-114887618D02*
X303261855Y-114430475D01*
X303261855Y-114659047D02*
X302461855Y-114659047D01*
X302461855Y-114659047D02*
X302576140Y-114582856D01*
X302576140Y-114582856D02*
X302652331Y-114506666D01*
X302652331Y-114506666D02*
X302690426Y-114430475D01*
X302461855Y-115611428D02*
X302461855Y-115230476D01*
X302461855Y-115230476D02*
X302842807Y-115192380D01*
X302842807Y-115192380D02*
X302804712Y-115230476D01*
X302804712Y-115230476D02*
X302766617Y-115306666D01*
X302766617Y-115306666D02*
X302766617Y-115497142D01*
X302766617Y-115497142D02*
X302804712Y-115573333D01*
X302804712Y-115573333D02*
X302842807Y-115611428D01*
X302842807Y-115611428D02*
X302918998Y-115649523D01*
X302918998Y-115649523D02*
X303109474Y-115649523D01*
X303109474Y-115649523D02*
X303185664Y-115611428D01*
X303185664Y-115611428D02*
X303223760Y-115573333D01*
X303223760Y-115573333D02*
X303261855Y-115497142D01*
X303261855Y-115497142D02*
X303261855Y-115306666D01*
X303261855Y-115306666D02*
X303223760Y-115230476D01*
X303223760Y-115230476D02*
X303185664Y-115192380D01*
D10*
X305152819Y-118488095D02*
X304152819Y-118488095D01*
X305152819Y-119059523D02*
X304581390Y-118630952D01*
X304152819Y-119059523D02*
X304724247Y-118488095D01*
X186932819Y-112797142D02*
X186932819Y-112225714D01*
X186932819Y-112511428D02*
X185932819Y-112511428D01*
X185932819Y-112511428D02*
X186075676Y-112416190D01*
X186075676Y-112416190D02*
X186170914Y-112320952D01*
X186170914Y-112320952D02*
X186218533Y-112225714D01*
X186932819Y-113225714D02*
X185932819Y-113225714D01*
X185932819Y-113225714D02*
X186932819Y-113797142D01*
X186932819Y-113797142D02*
X185932819Y-113797142D01*
X186266152Y-114701904D02*
X186932819Y-114701904D01*
X185885200Y-114463809D02*
X186599485Y-114225714D01*
X186599485Y-114225714D02*
X186599485Y-114844761D01*
X186932819Y-115749523D02*
X186932819Y-115178095D01*
X186932819Y-115463809D02*
X185932819Y-115463809D01*
X185932819Y-115463809D02*
X186075676Y-115368571D01*
X186075676Y-115368571D02*
X186170914Y-115273333D01*
X186170914Y-115273333D02*
X186218533Y-115178095D01*
X186266152Y-116606666D02*
X186932819Y-116606666D01*
X185885200Y-116368571D02*
X186599485Y-116130476D01*
X186599485Y-116130476D02*
X186599485Y-116749523D01*
X186361390Y-117273333D02*
X186313771Y-117178095D01*
X186313771Y-117178095D02*
X186266152Y-117130476D01*
X186266152Y-117130476D02*
X186170914Y-117082857D01*
X186170914Y-117082857D02*
X186123295Y-117082857D01*
X186123295Y-117082857D02*
X186028057Y-117130476D01*
X186028057Y-117130476D02*
X185980438Y-117178095D01*
X185980438Y-117178095D02*
X185932819Y-117273333D01*
X185932819Y-117273333D02*
X185932819Y-117463809D01*
X185932819Y-117463809D02*
X185980438Y-117559047D01*
X185980438Y-117559047D02*
X186028057Y-117606666D01*
X186028057Y-117606666D02*
X186123295Y-117654285D01*
X186123295Y-117654285D02*
X186170914Y-117654285D01*
X186170914Y-117654285D02*
X186266152Y-117606666D01*
X186266152Y-117606666D02*
X186313771Y-117559047D01*
X186313771Y-117559047D02*
X186361390Y-117463809D01*
X186361390Y-117463809D02*
X186361390Y-117273333D01*
X186361390Y-117273333D02*
X186409009Y-117178095D01*
X186409009Y-117178095D02*
X186456628Y-117130476D01*
X186456628Y-117130476D02*
X186551866Y-117082857D01*
X186551866Y-117082857D02*
X186742342Y-117082857D01*
X186742342Y-117082857D02*
X186837580Y-117130476D01*
X186837580Y-117130476D02*
X186885200Y-117178095D01*
X186885200Y-117178095D02*
X186932819Y-117273333D01*
X186932819Y-117273333D02*
X186932819Y-117463809D01*
X186932819Y-117463809D02*
X186885200Y-117559047D01*
X186885200Y-117559047D02*
X186837580Y-117606666D01*
X186837580Y-117606666D02*
X186742342Y-117654285D01*
X186742342Y-117654285D02*
X186551866Y-117654285D01*
X186551866Y-117654285D02*
X186456628Y-117606666D01*
X186456628Y-117606666D02*
X186409009Y-117559047D01*
X186409009Y-117559047D02*
X186361390Y-117463809D01*
D11*
X188961855Y-114049524D02*
X188161855Y-114049524D01*
X188161855Y-114049524D02*
X188161855Y-114240000D01*
X188161855Y-114240000D02*
X188199950Y-114354286D01*
X188199950Y-114354286D02*
X188276140Y-114430476D01*
X188276140Y-114430476D02*
X188352331Y-114468571D01*
X188352331Y-114468571D02*
X188504712Y-114506667D01*
X188504712Y-114506667D02*
X188618998Y-114506667D01*
X188618998Y-114506667D02*
X188771379Y-114468571D01*
X188771379Y-114468571D02*
X188847569Y-114430476D01*
X188847569Y-114430476D02*
X188923760Y-114354286D01*
X188923760Y-114354286D02*
X188961855Y-114240000D01*
X188961855Y-114240000D02*
X188961855Y-114049524D01*
X188161855Y-114773333D02*
X188161855Y-115268571D01*
X188161855Y-115268571D02*
X188466617Y-115001905D01*
X188466617Y-115001905D02*
X188466617Y-115116190D01*
X188466617Y-115116190D02*
X188504712Y-115192381D01*
X188504712Y-115192381D02*
X188542807Y-115230476D01*
X188542807Y-115230476D02*
X188618998Y-115268571D01*
X188618998Y-115268571D02*
X188809474Y-115268571D01*
X188809474Y-115268571D02*
X188885664Y-115230476D01*
X188885664Y-115230476D02*
X188923760Y-115192381D01*
X188923760Y-115192381D02*
X188961855Y-115116190D01*
X188961855Y-115116190D02*
X188961855Y-114887619D01*
X188961855Y-114887619D02*
X188923760Y-114811428D01*
X188923760Y-114811428D02*
X188885664Y-114773333D01*
D10*
X190852819Y-118488095D02*
X189852819Y-118488095D01*
X190852819Y-119059523D02*
X190281390Y-118630952D01*
X189852819Y-119059523D02*
X190424247Y-118488095D01*
X115495319Y-86603392D02*
X115495319Y-86031964D01*
X115495319Y-86317678D02*
X114495319Y-86317678D01*
X114495319Y-86317678D02*
X114638176Y-86222440D01*
X114638176Y-86222440D02*
X114733414Y-86127202D01*
X114733414Y-86127202D02*
X114781033Y-86031964D01*
X115495319Y-87031964D02*
X114495319Y-87031964D01*
X114495319Y-87031964D02*
X115495319Y-87603392D01*
X115495319Y-87603392D02*
X114495319Y-87603392D01*
X114828652Y-88508154D02*
X115495319Y-88508154D01*
X114447700Y-88270059D02*
X115161985Y-88031964D01*
X115161985Y-88031964D02*
X115161985Y-88651011D01*
X115495319Y-89555773D02*
X115495319Y-88984345D01*
X115495319Y-89270059D02*
X114495319Y-89270059D01*
X114495319Y-89270059D02*
X114638176Y-89174821D01*
X114638176Y-89174821D02*
X114733414Y-89079583D01*
X114733414Y-89079583D02*
X114781033Y-88984345D01*
X114828652Y-90412916D02*
X115495319Y-90412916D01*
X114447700Y-90174821D02*
X115161985Y-89936726D01*
X115161985Y-89936726D02*
X115161985Y-90555773D01*
X114923890Y-91079583D02*
X114876271Y-90984345D01*
X114876271Y-90984345D02*
X114828652Y-90936726D01*
X114828652Y-90936726D02*
X114733414Y-90889107D01*
X114733414Y-90889107D02*
X114685795Y-90889107D01*
X114685795Y-90889107D02*
X114590557Y-90936726D01*
X114590557Y-90936726D02*
X114542938Y-90984345D01*
X114542938Y-90984345D02*
X114495319Y-91079583D01*
X114495319Y-91079583D02*
X114495319Y-91270059D01*
X114495319Y-91270059D02*
X114542938Y-91365297D01*
X114542938Y-91365297D02*
X114590557Y-91412916D01*
X114590557Y-91412916D02*
X114685795Y-91460535D01*
X114685795Y-91460535D02*
X114733414Y-91460535D01*
X114733414Y-91460535D02*
X114828652Y-91412916D01*
X114828652Y-91412916D02*
X114876271Y-91365297D01*
X114876271Y-91365297D02*
X114923890Y-91270059D01*
X114923890Y-91270059D02*
X114923890Y-91079583D01*
X114923890Y-91079583D02*
X114971509Y-90984345D01*
X114971509Y-90984345D02*
X115019128Y-90936726D01*
X115019128Y-90936726D02*
X115114366Y-90889107D01*
X115114366Y-90889107D02*
X115304842Y-90889107D01*
X115304842Y-90889107D02*
X115400080Y-90936726D01*
X115400080Y-90936726D02*
X115447700Y-90984345D01*
X115447700Y-90984345D02*
X115495319Y-91079583D01*
X115495319Y-91079583D02*
X115495319Y-91270059D01*
X115495319Y-91270059D02*
X115447700Y-91365297D01*
X115447700Y-91365297D02*
X115400080Y-91412916D01*
X115400080Y-91412916D02*
X115304842Y-91460535D01*
X115304842Y-91460535D02*
X115114366Y-91460535D01*
X115114366Y-91460535D02*
X115019128Y-91412916D01*
X115019128Y-91412916D02*
X114971509Y-91365297D01*
X114971509Y-91365297D02*
X114923890Y-91270059D01*
X119415319Y-92294345D02*
X118415319Y-92294345D01*
X119415319Y-92865773D02*
X118843890Y-92437202D01*
X118415319Y-92865773D02*
X118986747Y-92294345D01*
D11*
X117524355Y-87474821D02*
X116724355Y-87474821D01*
X116724355Y-87474821D02*
X116724355Y-87665297D01*
X116724355Y-87665297D02*
X116762450Y-87779583D01*
X116762450Y-87779583D02*
X116838640Y-87855773D01*
X116838640Y-87855773D02*
X116914831Y-87893868D01*
X116914831Y-87893868D02*
X117067212Y-87931964D01*
X117067212Y-87931964D02*
X117181498Y-87931964D01*
X117181498Y-87931964D02*
X117333879Y-87893868D01*
X117333879Y-87893868D02*
X117410069Y-87855773D01*
X117410069Y-87855773D02*
X117486260Y-87779583D01*
X117486260Y-87779583D02*
X117524355Y-87665297D01*
X117524355Y-87665297D02*
X117524355Y-87474821D01*
X116800545Y-88236725D02*
X116762450Y-88274821D01*
X116762450Y-88274821D02*
X116724355Y-88351011D01*
X116724355Y-88351011D02*
X116724355Y-88541487D01*
X116724355Y-88541487D02*
X116762450Y-88617678D01*
X116762450Y-88617678D02*
X116800545Y-88655773D01*
X116800545Y-88655773D02*
X116876736Y-88693868D01*
X116876736Y-88693868D02*
X116952926Y-88693868D01*
X116952926Y-88693868D02*
X117067212Y-88655773D01*
X117067212Y-88655773D02*
X117524355Y-88198630D01*
X117524355Y-88198630D02*
X117524355Y-88693868D01*
X117067212Y-89151011D02*
X117029117Y-89074821D01*
X117029117Y-89074821D02*
X116991021Y-89036726D01*
X116991021Y-89036726D02*
X116914831Y-88998630D01*
X116914831Y-88998630D02*
X116876736Y-88998630D01*
X116876736Y-88998630D02*
X116800545Y-89036726D01*
X116800545Y-89036726D02*
X116762450Y-89074821D01*
X116762450Y-89074821D02*
X116724355Y-89151011D01*
X116724355Y-89151011D02*
X116724355Y-89303392D01*
X116724355Y-89303392D02*
X116762450Y-89379583D01*
X116762450Y-89379583D02*
X116800545Y-89417678D01*
X116800545Y-89417678D02*
X116876736Y-89455773D01*
X116876736Y-89455773D02*
X116914831Y-89455773D01*
X116914831Y-89455773D02*
X116991021Y-89417678D01*
X116991021Y-89417678D02*
X117029117Y-89379583D01*
X117029117Y-89379583D02*
X117067212Y-89303392D01*
X117067212Y-89303392D02*
X117067212Y-89151011D01*
X117067212Y-89151011D02*
X117105307Y-89074821D01*
X117105307Y-89074821D02*
X117143402Y-89036726D01*
X117143402Y-89036726D02*
X117219593Y-88998630D01*
X117219593Y-88998630D02*
X117371974Y-88998630D01*
X117371974Y-88998630D02*
X117448164Y-89036726D01*
X117448164Y-89036726D02*
X117486260Y-89074821D01*
X117486260Y-89074821D02*
X117524355Y-89151011D01*
X117524355Y-89151011D02*
X117524355Y-89303392D01*
X117524355Y-89303392D02*
X117486260Y-89379583D01*
X117486260Y-89379583D02*
X117448164Y-89417678D01*
X117448164Y-89417678D02*
X117371974Y-89455773D01*
X117371974Y-89455773D02*
X117219593Y-89455773D01*
X117219593Y-89455773D02*
X117143402Y-89417678D01*
X117143402Y-89417678D02*
X117105307Y-89379583D01*
X117105307Y-89379583D02*
X117067212Y-89303392D01*
D10*
X377432819Y-112797142D02*
X377432819Y-112225714D01*
X377432819Y-112511428D02*
X376432819Y-112511428D01*
X376432819Y-112511428D02*
X376575676Y-112416190D01*
X376575676Y-112416190D02*
X376670914Y-112320952D01*
X376670914Y-112320952D02*
X376718533Y-112225714D01*
X377432819Y-113225714D02*
X376432819Y-113225714D01*
X376432819Y-113225714D02*
X377432819Y-113797142D01*
X377432819Y-113797142D02*
X376432819Y-113797142D01*
X376766152Y-114701904D02*
X377432819Y-114701904D01*
X376385200Y-114463809D02*
X377099485Y-114225714D01*
X377099485Y-114225714D02*
X377099485Y-114844761D01*
X377432819Y-115749523D02*
X377432819Y-115178095D01*
X377432819Y-115463809D02*
X376432819Y-115463809D01*
X376432819Y-115463809D02*
X376575676Y-115368571D01*
X376575676Y-115368571D02*
X376670914Y-115273333D01*
X376670914Y-115273333D02*
X376718533Y-115178095D01*
X376766152Y-116606666D02*
X377432819Y-116606666D01*
X376385200Y-116368571D02*
X377099485Y-116130476D01*
X377099485Y-116130476D02*
X377099485Y-116749523D01*
X376861390Y-117273333D02*
X376813771Y-117178095D01*
X376813771Y-117178095D02*
X376766152Y-117130476D01*
X376766152Y-117130476D02*
X376670914Y-117082857D01*
X376670914Y-117082857D02*
X376623295Y-117082857D01*
X376623295Y-117082857D02*
X376528057Y-117130476D01*
X376528057Y-117130476D02*
X376480438Y-117178095D01*
X376480438Y-117178095D02*
X376432819Y-117273333D01*
X376432819Y-117273333D02*
X376432819Y-117463809D01*
X376432819Y-117463809D02*
X376480438Y-117559047D01*
X376480438Y-117559047D02*
X376528057Y-117606666D01*
X376528057Y-117606666D02*
X376623295Y-117654285D01*
X376623295Y-117654285D02*
X376670914Y-117654285D01*
X376670914Y-117654285D02*
X376766152Y-117606666D01*
X376766152Y-117606666D02*
X376813771Y-117559047D01*
X376813771Y-117559047D02*
X376861390Y-117463809D01*
X376861390Y-117463809D02*
X376861390Y-117273333D01*
X376861390Y-117273333D02*
X376909009Y-117178095D01*
X376909009Y-117178095D02*
X376956628Y-117130476D01*
X376956628Y-117130476D02*
X377051866Y-117082857D01*
X377051866Y-117082857D02*
X377242342Y-117082857D01*
X377242342Y-117082857D02*
X377337580Y-117130476D01*
X377337580Y-117130476D02*
X377385200Y-117178095D01*
X377385200Y-117178095D02*
X377432819Y-117273333D01*
X377432819Y-117273333D02*
X377432819Y-117463809D01*
X377432819Y-117463809D02*
X377385200Y-117559047D01*
X377385200Y-117559047D02*
X377337580Y-117606666D01*
X377337580Y-117606666D02*
X377242342Y-117654285D01*
X377242342Y-117654285D02*
X377051866Y-117654285D01*
X377051866Y-117654285D02*
X376956628Y-117606666D01*
X376956628Y-117606666D02*
X376909009Y-117559047D01*
X376909009Y-117559047D02*
X376861390Y-117463809D01*
D11*
X379461855Y-113668571D02*
X378661855Y-113668571D01*
X378661855Y-113668571D02*
X378661855Y-113859047D01*
X378661855Y-113859047D02*
X378699950Y-113973333D01*
X378699950Y-113973333D02*
X378776140Y-114049523D01*
X378776140Y-114049523D02*
X378852331Y-114087618D01*
X378852331Y-114087618D02*
X379004712Y-114125714D01*
X379004712Y-114125714D02*
X379118998Y-114125714D01*
X379118998Y-114125714D02*
X379271379Y-114087618D01*
X379271379Y-114087618D02*
X379347569Y-114049523D01*
X379347569Y-114049523D02*
X379423760Y-113973333D01*
X379423760Y-113973333D02*
X379461855Y-113859047D01*
X379461855Y-113859047D02*
X379461855Y-113668571D01*
X378738045Y-114430475D02*
X378699950Y-114468571D01*
X378699950Y-114468571D02*
X378661855Y-114544761D01*
X378661855Y-114544761D02*
X378661855Y-114735237D01*
X378661855Y-114735237D02*
X378699950Y-114811428D01*
X378699950Y-114811428D02*
X378738045Y-114849523D01*
X378738045Y-114849523D02*
X378814236Y-114887618D01*
X378814236Y-114887618D02*
X378890426Y-114887618D01*
X378890426Y-114887618D02*
X379004712Y-114849523D01*
X379004712Y-114849523D02*
X379461855Y-114392380D01*
X379461855Y-114392380D02*
X379461855Y-114887618D01*
X378738045Y-115192380D02*
X378699950Y-115230476D01*
X378699950Y-115230476D02*
X378661855Y-115306666D01*
X378661855Y-115306666D02*
X378661855Y-115497142D01*
X378661855Y-115497142D02*
X378699950Y-115573333D01*
X378699950Y-115573333D02*
X378738045Y-115611428D01*
X378738045Y-115611428D02*
X378814236Y-115649523D01*
X378814236Y-115649523D02*
X378890426Y-115649523D01*
X378890426Y-115649523D02*
X379004712Y-115611428D01*
X379004712Y-115611428D02*
X379461855Y-115154285D01*
X379461855Y-115154285D02*
X379461855Y-115649523D01*
D10*
X381352819Y-118488095D02*
X380352819Y-118488095D01*
X381352819Y-119059523D02*
X380781390Y-118630952D01*
X380352819Y-119059523D02*
X380924247Y-118488095D01*
X358382819Y-112797142D02*
X358382819Y-112225714D01*
X358382819Y-112511428D02*
X357382819Y-112511428D01*
X357382819Y-112511428D02*
X357525676Y-112416190D01*
X357525676Y-112416190D02*
X357620914Y-112320952D01*
X357620914Y-112320952D02*
X357668533Y-112225714D01*
X358382819Y-113225714D02*
X357382819Y-113225714D01*
X357382819Y-113225714D02*
X358382819Y-113797142D01*
X358382819Y-113797142D02*
X357382819Y-113797142D01*
X357716152Y-114701904D02*
X358382819Y-114701904D01*
X357335200Y-114463809D02*
X358049485Y-114225714D01*
X358049485Y-114225714D02*
X358049485Y-114844761D01*
X358382819Y-115749523D02*
X358382819Y-115178095D01*
X358382819Y-115463809D02*
X357382819Y-115463809D01*
X357382819Y-115463809D02*
X357525676Y-115368571D01*
X357525676Y-115368571D02*
X357620914Y-115273333D01*
X357620914Y-115273333D02*
X357668533Y-115178095D01*
X357716152Y-116606666D02*
X358382819Y-116606666D01*
X357335200Y-116368571D02*
X358049485Y-116130476D01*
X358049485Y-116130476D02*
X358049485Y-116749523D01*
X357811390Y-117273333D02*
X357763771Y-117178095D01*
X357763771Y-117178095D02*
X357716152Y-117130476D01*
X357716152Y-117130476D02*
X357620914Y-117082857D01*
X357620914Y-117082857D02*
X357573295Y-117082857D01*
X357573295Y-117082857D02*
X357478057Y-117130476D01*
X357478057Y-117130476D02*
X357430438Y-117178095D01*
X357430438Y-117178095D02*
X357382819Y-117273333D01*
X357382819Y-117273333D02*
X357382819Y-117463809D01*
X357382819Y-117463809D02*
X357430438Y-117559047D01*
X357430438Y-117559047D02*
X357478057Y-117606666D01*
X357478057Y-117606666D02*
X357573295Y-117654285D01*
X357573295Y-117654285D02*
X357620914Y-117654285D01*
X357620914Y-117654285D02*
X357716152Y-117606666D01*
X357716152Y-117606666D02*
X357763771Y-117559047D01*
X357763771Y-117559047D02*
X357811390Y-117463809D01*
X357811390Y-117463809D02*
X357811390Y-117273333D01*
X357811390Y-117273333D02*
X357859009Y-117178095D01*
X357859009Y-117178095D02*
X357906628Y-117130476D01*
X357906628Y-117130476D02*
X358001866Y-117082857D01*
X358001866Y-117082857D02*
X358192342Y-117082857D01*
X358192342Y-117082857D02*
X358287580Y-117130476D01*
X358287580Y-117130476D02*
X358335200Y-117178095D01*
X358335200Y-117178095D02*
X358382819Y-117273333D01*
X358382819Y-117273333D02*
X358382819Y-117463809D01*
X358382819Y-117463809D02*
X358335200Y-117559047D01*
X358335200Y-117559047D02*
X358287580Y-117606666D01*
X358287580Y-117606666D02*
X358192342Y-117654285D01*
X358192342Y-117654285D02*
X358001866Y-117654285D01*
X358001866Y-117654285D02*
X357906628Y-117606666D01*
X357906628Y-117606666D02*
X357859009Y-117559047D01*
X357859009Y-117559047D02*
X357811390Y-117463809D01*
X362302819Y-118488095D02*
X361302819Y-118488095D01*
X362302819Y-119059523D02*
X361731390Y-118630952D01*
X361302819Y-119059523D02*
X361874247Y-118488095D01*
D11*
X360411855Y-113668571D02*
X359611855Y-113668571D01*
X359611855Y-113668571D02*
X359611855Y-113859047D01*
X359611855Y-113859047D02*
X359649950Y-113973333D01*
X359649950Y-113973333D02*
X359726140Y-114049523D01*
X359726140Y-114049523D02*
X359802331Y-114087618D01*
X359802331Y-114087618D02*
X359954712Y-114125714D01*
X359954712Y-114125714D02*
X360068998Y-114125714D01*
X360068998Y-114125714D02*
X360221379Y-114087618D01*
X360221379Y-114087618D02*
X360297569Y-114049523D01*
X360297569Y-114049523D02*
X360373760Y-113973333D01*
X360373760Y-113973333D02*
X360411855Y-113859047D01*
X360411855Y-113859047D02*
X360411855Y-113668571D01*
X359688045Y-114430475D02*
X359649950Y-114468571D01*
X359649950Y-114468571D02*
X359611855Y-114544761D01*
X359611855Y-114544761D02*
X359611855Y-114735237D01*
X359611855Y-114735237D02*
X359649950Y-114811428D01*
X359649950Y-114811428D02*
X359688045Y-114849523D01*
X359688045Y-114849523D02*
X359764236Y-114887618D01*
X359764236Y-114887618D02*
X359840426Y-114887618D01*
X359840426Y-114887618D02*
X359954712Y-114849523D01*
X359954712Y-114849523D02*
X360411855Y-114392380D01*
X360411855Y-114392380D02*
X360411855Y-114887618D01*
X359611855Y-115382857D02*
X359611855Y-115459047D01*
X359611855Y-115459047D02*
X359649950Y-115535238D01*
X359649950Y-115535238D02*
X359688045Y-115573333D01*
X359688045Y-115573333D02*
X359764236Y-115611428D01*
X359764236Y-115611428D02*
X359916617Y-115649523D01*
X359916617Y-115649523D02*
X360107093Y-115649523D01*
X360107093Y-115649523D02*
X360259474Y-115611428D01*
X360259474Y-115611428D02*
X360335664Y-115573333D01*
X360335664Y-115573333D02*
X360373760Y-115535238D01*
X360373760Y-115535238D02*
X360411855Y-115459047D01*
X360411855Y-115459047D02*
X360411855Y-115382857D01*
X360411855Y-115382857D02*
X360373760Y-115306666D01*
X360373760Y-115306666D02*
X360335664Y-115268571D01*
X360335664Y-115268571D02*
X360259474Y-115230476D01*
X360259474Y-115230476D02*
X360107093Y-115192380D01*
X360107093Y-115192380D02*
X359916617Y-115192380D01*
X359916617Y-115192380D02*
X359764236Y-115230476D01*
X359764236Y-115230476D02*
X359688045Y-115268571D01*
X359688045Y-115268571D02*
X359649950Y-115306666D01*
X359649950Y-115306666D02*
X359611855Y-115382857D01*
D10*
X367907819Y-93747142D02*
X367907819Y-93175714D01*
X367907819Y-93461428D02*
X366907819Y-93461428D01*
X366907819Y-93461428D02*
X367050676Y-93366190D01*
X367050676Y-93366190D02*
X367145914Y-93270952D01*
X367145914Y-93270952D02*
X367193533Y-93175714D01*
X367907819Y-94175714D02*
X366907819Y-94175714D01*
X366907819Y-94175714D02*
X367907819Y-94747142D01*
X367907819Y-94747142D02*
X366907819Y-94747142D01*
X367241152Y-95651904D02*
X367907819Y-95651904D01*
X366860200Y-95413809D02*
X367574485Y-95175714D01*
X367574485Y-95175714D02*
X367574485Y-95794761D01*
X367907819Y-96699523D02*
X367907819Y-96128095D01*
X367907819Y-96413809D02*
X366907819Y-96413809D01*
X366907819Y-96413809D02*
X367050676Y-96318571D01*
X367050676Y-96318571D02*
X367145914Y-96223333D01*
X367145914Y-96223333D02*
X367193533Y-96128095D01*
X367241152Y-97556666D02*
X367907819Y-97556666D01*
X366860200Y-97318571D02*
X367574485Y-97080476D01*
X367574485Y-97080476D02*
X367574485Y-97699523D01*
X367336390Y-98223333D02*
X367288771Y-98128095D01*
X367288771Y-98128095D02*
X367241152Y-98080476D01*
X367241152Y-98080476D02*
X367145914Y-98032857D01*
X367145914Y-98032857D02*
X367098295Y-98032857D01*
X367098295Y-98032857D02*
X367003057Y-98080476D01*
X367003057Y-98080476D02*
X366955438Y-98128095D01*
X366955438Y-98128095D02*
X366907819Y-98223333D01*
X366907819Y-98223333D02*
X366907819Y-98413809D01*
X366907819Y-98413809D02*
X366955438Y-98509047D01*
X366955438Y-98509047D02*
X367003057Y-98556666D01*
X367003057Y-98556666D02*
X367098295Y-98604285D01*
X367098295Y-98604285D02*
X367145914Y-98604285D01*
X367145914Y-98604285D02*
X367241152Y-98556666D01*
X367241152Y-98556666D02*
X367288771Y-98509047D01*
X367288771Y-98509047D02*
X367336390Y-98413809D01*
X367336390Y-98413809D02*
X367336390Y-98223333D01*
X367336390Y-98223333D02*
X367384009Y-98128095D01*
X367384009Y-98128095D02*
X367431628Y-98080476D01*
X367431628Y-98080476D02*
X367526866Y-98032857D01*
X367526866Y-98032857D02*
X367717342Y-98032857D01*
X367717342Y-98032857D02*
X367812580Y-98080476D01*
X367812580Y-98080476D02*
X367860200Y-98128095D01*
X367860200Y-98128095D02*
X367907819Y-98223333D01*
X367907819Y-98223333D02*
X367907819Y-98413809D01*
X367907819Y-98413809D02*
X367860200Y-98509047D01*
X367860200Y-98509047D02*
X367812580Y-98556666D01*
X367812580Y-98556666D02*
X367717342Y-98604285D01*
X367717342Y-98604285D02*
X367526866Y-98604285D01*
X367526866Y-98604285D02*
X367431628Y-98556666D01*
X367431628Y-98556666D02*
X367384009Y-98509047D01*
X367384009Y-98509047D02*
X367336390Y-98413809D01*
D11*
X369936855Y-94618571D02*
X369136855Y-94618571D01*
X369136855Y-94618571D02*
X369136855Y-94809047D01*
X369136855Y-94809047D02*
X369174950Y-94923333D01*
X369174950Y-94923333D02*
X369251140Y-94999523D01*
X369251140Y-94999523D02*
X369327331Y-95037618D01*
X369327331Y-95037618D02*
X369479712Y-95075714D01*
X369479712Y-95075714D02*
X369593998Y-95075714D01*
X369593998Y-95075714D02*
X369746379Y-95037618D01*
X369746379Y-95037618D02*
X369822569Y-94999523D01*
X369822569Y-94999523D02*
X369898760Y-94923333D01*
X369898760Y-94923333D02*
X369936855Y-94809047D01*
X369936855Y-94809047D02*
X369936855Y-94618571D01*
X369213045Y-95380475D02*
X369174950Y-95418571D01*
X369174950Y-95418571D02*
X369136855Y-95494761D01*
X369136855Y-95494761D02*
X369136855Y-95685237D01*
X369136855Y-95685237D02*
X369174950Y-95761428D01*
X369174950Y-95761428D02*
X369213045Y-95799523D01*
X369213045Y-95799523D02*
X369289236Y-95837618D01*
X369289236Y-95837618D02*
X369365426Y-95837618D01*
X369365426Y-95837618D02*
X369479712Y-95799523D01*
X369479712Y-95799523D02*
X369936855Y-95342380D01*
X369936855Y-95342380D02*
X369936855Y-95837618D01*
X369936855Y-96599523D02*
X369936855Y-96142380D01*
X369936855Y-96370952D02*
X369136855Y-96370952D01*
X369136855Y-96370952D02*
X369251140Y-96294761D01*
X369251140Y-96294761D02*
X369327331Y-96218571D01*
X369327331Y-96218571D02*
X369365426Y-96142380D01*
D10*
X371827819Y-99438095D02*
X370827819Y-99438095D01*
X371827819Y-100009523D02*
X371256390Y-99580952D01*
X370827819Y-100009523D02*
X371399247Y-99438095D01*
X244082819Y-112797142D02*
X244082819Y-112225714D01*
X244082819Y-112511428D02*
X243082819Y-112511428D01*
X243082819Y-112511428D02*
X243225676Y-112416190D01*
X243225676Y-112416190D02*
X243320914Y-112320952D01*
X243320914Y-112320952D02*
X243368533Y-112225714D01*
X244082819Y-113225714D02*
X243082819Y-113225714D01*
X243082819Y-113225714D02*
X244082819Y-113797142D01*
X244082819Y-113797142D02*
X243082819Y-113797142D01*
X243416152Y-114701904D02*
X244082819Y-114701904D01*
X243035200Y-114463809D02*
X243749485Y-114225714D01*
X243749485Y-114225714D02*
X243749485Y-114844761D01*
X244082819Y-115749523D02*
X244082819Y-115178095D01*
X244082819Y-115463809D02*
X243082819Y-115463809D01*
X243082819Y-115463809D02*
X243225676Y-115368571D01*
X243225676Y-115368571D02*
X243320914Y-115273333D01*
X243320914Y-115273333D02*
X243368533Y-115178095D01*
X243416152Y-116606666D02*
X244082819Y-116606666D01*
X243035200Y-116368571D02*
X243749485Y-116130476D01*
X243749485Y-116130476D02*
X243749485Y-116749523D01*
X243511390Y-117273333D02*
X243463771Y-117178095D01*
X243463771Y-117178095D02*
X243416152Y-117130476D01*
X243416152Y-117130476D02*
X243320914Y-117082857D01*
X243320914Y-117082857D02*
X243273295Y-117082857D01*
X243273295Y-117082857D02*
X243178057Y-117130476D01*
X243178057Y-117130476D02*
X243130438Y-117178095D01*
X243130438Y-117178095D02*
X243082819Y-117273333D01*
X243082819Y-117273333D02*
X243082819Y-117463809D01*
X243082819Y-117463809D02*
X243130438Y-117559047D01*
X243130438Y-117559047D02*
X243178057Y-117606666D01*
X243178057Y-117606666D02*
X243273295Y-117654285D01*
X243273295Y-117654285D02*
X243320914Y-117654285D01*
X243320914Y-117654285D02*
X243416152Y-117606666D01*
X243416152Y-117606666D02*
X243463771Y-117559047D01*
X243463771Y-117559047D02*
X243511390Y-117463809D01*
X243511390Y-117463809D02*
X243511390Y-117273333D01*
X243511390Y-117273333D02*
X243559009Y-117178095D01*
X243559009Y-117178095D02*
X243606628Y-117130476D01*
X243606628Y-117130476D02*
X243701866Y-117082857D01*
X243701866Y-117082857D02*
X243892342Y-117082857D01*
X243892342Y-117082857D02*
X243987580Y-117130476D01*
X243987580Y-117130476D02*
X244035200Y-117178095D01*
X244035200Y-117178095D02*
X244082819Y-117273333D01*
X244082819Y-117273333D02*
X244082819Y-117463809D01*
X244082819Y-117463809D02*
X244035200Y-117559047D01*
X244035200Y-117559047D02*
X243987580Y-117606666D01*
X243987580Y-117606666D02*
X243892342Y-117654285D01*
X243892342Y-117654285D02*
X243701866Y-117654285D01*
X243701866Y-117654285D02*
X243606628Y-117606666D01*
X243606628Y-117606666D02*
X243559009Y-117559047D01*
X243559009Y-117559047D02*
X243511390Y-117463809D01*
D11*
X246111855Y-114049524D02*
X245311855Y-114049524D01*
X245311855Y-114049524D02*
X245311855Y-114240000D01*
X245311855Y-114240000D02*
X245349950Y-114354286D01*
X245349950Y-114354286D02*
X245426140Y-114430476D01*
X245426140Y-114430476D02*
X245502331Y-114468571D01*
X245502331Y-114468571D02*
X245654712Y-114506667D01*
X245654712Y-114506667D02*
X245768998Y-114506667D01*
X245768998Y-114506667D02*
X245921379Y-114468571D01*
X245921379Y-114468571D02*
X245997569Y-114430476D01*
X245997569Y-114430476D02*
X246073760Y-114354286D01*
X246073760Y-114354286D02*
X246111855Y-114240000D01*
X246111855Y-114240000D02*
X246111855Y-114049524D01*
X245311855Y-115192381D02*
X245311855Y-115040000D01*
X245311855Y-115040000D02*
X245349950Y-114963809D01*
X245349950Y-114963809D02*
X245388045Y-114925714D01*
X245388045Y-114925714D02*
X245502331Y-114849524D01*
X245502331Y-114849524D02*
X245654712Y-114811428D01*
X245654712Y-114811428D02*
X245959474Y-114811428D01*
X245959474Y-114811428D02*
X246035664Y-114849524D01*
X246035664Y-114849524D02*
X246073760Y-114887619D01*
X246073760Y-114887619D02*
X246111855Y-114963809D01*
X246111855Y-114963809D02*
X246111855Y-115116190D01*
X246111855Y-115116190D02*
X246073760Y-115192381D01*
X246073760Y-115192381D02*
X246035664Y-115230476D01*
X246035664Y-115230476D02*
X245959474Y-115268571D01*
X245959474Y-115268571D02*
X245768998Y-115268571D01*
X245768998Y-115268571D02*
X245692807Y-115230476D01*
X245692807Y-115230476D02*
X245654712Y-115192381D01*
X245654712Y-115192381D02*
X245616617Y-115116190D01*
X245616617Y-115116190D02*
X245616617Y-114963809D01*
X245616617Y-114963809D02*
X245654712Y-114887619D01*
X245654712Y-114887619D02*
X245692807Y-114849524D01*
X245692807Y-114849524D02*
X245768998Y-114811428D01*
D10*
X248002819Y-118488095D02*
X247002819Y-118488095D01*
X248002819Y-119059523D02*
X247431390Y-118630952D01*
X247002819Y-119059523D02*
X247574247Y-118488095D01*
X215507819Y-93747142D02*
X215507819Y-93175714D01*
X215507819Y-93461428D02*
X214507819Y-93461428D01*
X214507819Y-93461428D02*
X214650676Y-93366190D01*
X214650676Y-93366190D02*
X214745914Y-93270952D01*
X214745914Y-93270952D02*
X214793533Y-93175714D01*
X215507819Y-94175714D02*
X214507819Y-94175714D01*
X214507819Y-94175714D02*
X215507819Y-94747142D01*
X215507819Y-94747142D02*
X214507819Y-94747142D01*
X214841152Y-95651904D02*
X215507819Y-95651904D01*
X214460200Y-95413809D02*
X215174485Y-95175714D01*
X215174485Y-95175714D02*
X215174485Y-95794761D01*
X215507819Y-96699523D02*
X215507819Y-96128095D01*
X215507819Y-96413809D02*
X214507819Y-96413809D01*
X214507819Y-96413809D02*
X214650676Y-96318571D01*
X214650676Y-96318571D02*
X214745914Y-96223333D01*
X214745914Y-96223333D02*
X214793533Y-96128095D01*
X214841152Y-97556666D02*
X215507819Y-97556666D01*
X214460200Y-97318571D02*
X215174485Y-97080476D01*
X215174485Y-97080476D02*
X215174485Y-97699523D01*
X214936390Y-98223333D02*
X214888771Y-98128095D01*
X214888771Y-98128095D02*
X214841152Y-98080476D01*
X214841152Y-98080476D02*
X214745914Y-98032857D01*
X214745914Y-98032857D02*
X214698295Y-98032857D01*
X214698295Y-98032857D02*
X214603057Y-98080476D01*
X214603057Y-98080476D02*
X214555438Y-98128095D01*
X214555438Y-98128095D02*
X214507819Y-98223333D01*
X214507819Y-98223333D02*
X214507819Y-98413809D01*
X214507819Y-98413809D02*
X214555438Y-98509047D01*
X214555438Y-98509047D02*
X214603057Y-98556666D01*
X214603057Y-98556666D02*
X214698295Y-98604285D01*
X214698295Y-98604285D02*
X214745914Y-98604285D01*
X214745914Y-98604285D02*
X214841152Y-98556666D01*
X214841152Y-98556666D02*
X214888771Y-98509047D01*
X214888771Y-98509047D02*
X214936390Y-98413809D01*
X214936390Y-98413809D02*
X214936390Y-98223333D01*
X214936390Y-98223333D02*
X214984009Y-98128095D01*
X214984009Y-98128095D02*
X215031628Y-98080476D01*
X215031628Y-98080476D02*
X215126866Y-98032857D01*
X215126866Y-98032857D02*
X215317342Y-98032857D01*
X215317342Y-98032857D02*
X215412580Y-98080476D01*
X215412580Y-98080476D02*
X215460200Y-98128095D01*
X215460200Y-98128095D02*
X215507819Y-98223333D01*
X215507819Y-98223333D02*
X215507819Y-98413809D01*
X215507819Y-98413809D02*
X215460200Y-98509047D01*
X215460200Y-98509047D02*
X215412580Y-98556666D01*
X215412580Y-98556666D02*
X215317342Y-98604285D01*
X215317342Y-98604285D02*
X215126866Y-98604285D01*
X215126866Y-98604285D02*
X215031628Y-98556666D01*
X215031628Y-98556666D02*
X214984009Y-98509047D01*
X214984009Y-98509047D02*
X214936390Y-98413809D01*
D11*
X217536855Y-94618571D02*
X216736855Y-94618571D01*
X216736855Y-94618571D02*
X216736855Y-94809047D01*
X216736855Y-94809047D02*
X216774950Y-94923333D01*
X216774950Y-94923333D02*
X216851140Y-94999523D01*
X216851140Y-94999523D02*
X216927331Y-95037618D01*
X216927331Y-95037618D02*
X217079712Y-95075714D01*
X217079712Y-95075714D02*
X217193998Y-95075714D01*
X217193998Y-95075714D02*
X217346379Y-95037618D01*
X217346379Y-95037618D02*
X217422569Y-94999523D01*
X217422569Y-94999523D02*
X217498760Y-94923333D01*
X217498760Y-94923333D02*
X217536855Y-94809047D01*
X217536855Y-94809047D02*
X217536855Y-94618571D01*
X217536855Y-95837618D02*
X217536855Y-95380475D01*
X217536855Y-95609047D02*
X216736855Y-95609047D01*
X216736855Y-95609047D02*
X216851140Y-95532856D01*
X216851140Y-95532856D02*
X216927331Y-95456666D01*
X216927331Y-95456666D02*
X216965426Y-95380475D01*
X216736855Y-96332857D02*
X216736855Y-96409047D01*
X216736855Y-96409047D02*
X216774950Y-96485238D01*
X216774950Y-96485238D02*
X216813045Y-96523333D01*
X216813045Y-96523333D02*
X216889236Y-96561428D01*
X216889236Y-96561428D02*
X217041617Y-96599523D01*
X217041617Y-96599523D02*
X217232093Y-96599523D01*
X217232093Y-96599523D02*
X217384474Y-96561428D01*
X217384474Y-96561428D02*
X217460664Y-96523333D01*
X217460664Y-96523333D02*
X217498760Y-96485238D01*
X217498760Y-96485238D02*
X217536855Y-96409047D01*
X217536855Y-96409047D02*
X217536855Y-96332857D01*
X217536855Y-96332857D02*
X217498760Y-96256666D01*
X217498760Y-96256666D02*
X217460664Y-96218571D01*
X217460664Y-96218571D02*
X217384474Y-96180476D01*
X217384474Y-96180476D02*
X217232093Y-96142380D01*
X217232093Y-96142380D02*
X217041617Y-96142380D01*
X217041617Y-96142380D02*
X216889236Y-96180476D01*
X216889236Y-96180476D02*
X216813045Y-96218571D01*
X216813045Y-96218571D02*
X216774950Y-96256666D01*
X216774950Y-96256666D02*
X216736855Y-96332857D01*
D10*
X219427819Y-99438095D02*
X218427819Y-99438095D01*
X219427819Y-100009523D02*
X218856390Y-99580952D01*
X218427819Y-100009523D02*
X218999247Y-99438095D01*
X58345319Y-86603392D02*
X58345319Y-86031964D01*
X58345319Y-86317678D02*
X57345319Y-86317678D01*
X57345319Y-86317678D02*
X57488176Y-86222440D01*
X57488176Y-86222440D02*
X57583414Y-86127202D01*
X57583414Y-86127202D02*
X57631033Y-86031964D01*
X58345319Y-87031964D02*
X57345319Y-87031964D01*
X57345319Y-87031964D02*
X58345319Y-87603392D01*
X58345319Y-87603392D02*
X57345319Y-87603392D01*
X57678652Y-88508154D02*
X58345319Y-88508154D01*
X57297700Y-88270059D02*
X58011985Y-88031964D01*
X58011985Y-88031964D02*
X58011985Y-88651011D01*
X58345319Y-89555773D02*
X58345319Y-88984345D01*
X58345319Y-89270059D02*
X57345319Y-89270059D01*
X57345319Y-89270059D02*
X57488176Y-89174821D01*
X57488176Y-89174821D02*
X57583414Y-89079583D01*
X57583414Y-89079583D02*
X57631033Y-88984345D01*
X57678652Y-90412916D02*
X58345319Y-90412916D01*
X57297700Y-90174821D02*
X58011985Y-89936726D01*
X58011985Y-89936726D02*
X58011985Y-90555773D01*
X57773890Y-91079583D02*
X57726271Y-90984345D01*
X57726271Y-90984345D02*
X57678652Y-90936726D01*
X57678652Y-90936726D02*
X57583414Y-90889107D01*
X57583414Y-90889107D02*
X57535795Y-90889107D01*
X57535795Y-90889107D02*
X57440557Y-90936726D01*
X57440557Y-90936726D02*
X57392938Y-90984345D01*
X57392938Y-90984345D02*
X57345319Y-91079583D01*
X57345319Y-91079583D02*
X57345319Y-91270059D01*
X57345319Y-91270059D02*
X57392938Y-91365297D01*
X57392938Y-91365297D02*
X57440557Y-91412916D01*
X57440557Y-91412916D02*
X57535795Y-91460535D01*
X57535795Y-91460535D02*
X57583414Y-91460535D01*
X57583414Y-91460535D02*
X57678652Y-91412916D01*
X57678652Y-91412916D02*
X57726271Y-91365297D01*
X57726271Y-91365297D02*
X57773890Y-91270059D01*
X57773890Y-91270059D02*
X57773890Y-91079583D01*
X57773890Y-91079583D02*
X57821509Y-90984345D01*
X57821509Y-90984345D02*
X57869128Y-90936726D01*
X57869128Y-90936726D02*
X57964366Y-90889107D01*
X57964366Y-90889107D02*
X58154842Y-90889107D01*
X58154842Y-90889107D02*
X58250080Y-90936726D01*
X58250080Y-90936726D02*
X58297700Y-90984345D01*
X58297700Y-90984345D02*
X58345319Y-91079583D01*
X58345319Y-91079583D02*
X58345319Y-91270059D01*
X58345319Y-91270059D02*
X58297700Y-91365297D01*
X58297700Y-91365297D02*
X58250080Y-91412916D01*
X58250080Y-91412916D02*
X58154842Y-91460535D01*
X58154842Y-91460535D02*
X57964366Y-91460535D01*
X57964366Y-91460535D02*
X57869128Y-91412916D01*
X57869128Y-91412916D02*
X57821509Y-91365297D01*
X57821509Y-91365297D02*
X57773890Y-91270059D01*
X62265319Y-92294345D02*
X61265319Y-92294345D01*
X62265319Y-92865773D02*
X61693890Y-92437202D01*
X61265319Y-92865773D02*
X61836747Y-92294345D01*
D11*
X60374355Y-87474821D02*
X59574355Y-87474821D01*
X59574355Y-87474821D02*
X59574355Y-87665297D01*
X59574355Y-87665297D02*
X59612450Y-87779583D01*
X59612450Y-87779583D02*
X59688640Y-87855773D01*
X59688640Y-87855773D02*
X59764831Y-87893868D01*
X59764831Y-87893868D02*
X59917212Y-87931964D01*
X59917212Y-87931964D02*
X60031498Y-87931964D01*
X60031498Y-87931964D02*
X60183879Y-87893868D01*
X60183879Y-87893868D02*
X60260069Y-87855773D01*
X60260069Y-87855773D02*
X60336260Y-87779583D01*
X60336260Y-87779583D02*
X60374355Y-87665297D01*
X60374355Y-87665297D02*
X60374355Y-87474821D01*
X59650545Y-88236725D02*
X59612450Y-88274821D01*
X59612450Y-88274821D02*
X59574355Y-88351011D01*
X59574355Y-88351011D02*
X59574355Y-88541487D01*
X59574355Y-88541487D02*
X59612450Y-88617678D01*
X59612450Y-88617678D02*
X59650545Y-88655773D01*
X59650545Y-88655773D02*
X59726736Y-88693868D01*
X59726736Y-88693868D02*
X59802926Y-88693868D01*
X59802926Y-88693868D02*
X59917212Y-88655773D01*
X59917212Y-88655773D02*
X60374355Y-88198630D01*
X60374355Y-88198630D02*
X60374355Y-88693868D01*
X59574355Y-89417678D02*
X59574355Y-89036726D01*
X59574355Y-89036726D02*
X59955307Y-88998630D01*
X59955307Y-88998630D02*
X59917212Y-89036726D01*
X59917212Y-89036726D02*
X59879117Y-89112916D01*
X59879117Y-89112916D02*
X59879117Y-89303392D01*
X59879117Y-89303392D02*
X59917212Y-89379583D01*
X59917212Y-89379583D02*
X59955307Y-89417678D01*
X59955307Y-89417678D02*
X60031498Y-89455773D01*
X60031498Y-89455773D02*
X60221974Y-89455773D01*
X60221974Y-89455773D02*
X60298164Y-89417678D01*
X60298164Y-89417678D02*
X60336260Y-89379583D01*
X60336260Y-89379583D02*
X60374355Y-89303392D01*
X60374355Y-89303392D02*
X60374355Y-89112916D01*
X60374355Y-89112916D02*
X60336260Y-89036726D01*
X60336260Y-89036726D02*
X60298164Y-88998630D01*
D10*
X396482819Y-112797142D02*
X396482819Y-112225714D01*
X396482819Y-112511428D02*
X395482819Y-112511428D01*
X395482819Y-112511428D02*
X395625676Y-112416190D01*
X395625676Y-112416190D02*
X395720914Y-112320952D01*
X395720914Y-112320952D02*
X395768533Y-112225714D01*
X396482819Y-113225714D02*
X395482819Y-113225714D01*
X395482819Y-113225714D02*
X396482819Y-113797142D01*
X396482819Y-113797142D02*
X395482819Y-113797142D01*
X395816152Y-114701904D02*
X396482819Y-114701904D01*
X395435200Y-114463809D02*
X396149485Y-114225714D01*
X396149485Y-114225714D02*
X396149485Y-114844761D01*
X396482819Y-115749523D02*
X396482819Y-115178095D01*
X396482819Y-115463809D02*
X395482819Y-115463809D01*
X395482819Y-115463809D02*
X395625676Y-115368571D01*
X395625676Y-115368571D02*
X395720914Y-115273333D01*
X395720914Y-115273333D02*
X395768533Y-115178095D01*
X395816152Y-116606666D02*
X396482819Y-116606666D01*
X395435200Y-116368571D02*
X396149485Y-116130476D01*
X396149485Y-116130476D02*
X396149485Y-116749523D01*
X395911390Y-117273333D02*
X395863771Y-117178095D01*
X395863771Y-117178095D02*
X395816152Y-117130476D01*
X395816152Y-117130476D02*
X395720914Y-117082857D01*
X395720914Y-117082857D02*
X395673295Y-117082857D01*
X395673295Y-117082857D02*
X395578057Y-117130476D01*
X395578057Y-117130476D02*
X395530438Y-117178095D01*
X395530438Y-117178095D02*
X395482819Y-117273333D01*
X395482819Y-117273333D02*
X395482819Y-117463809D01*
X395482819Y-117463809D02*
X395530438Y-117559047D01*
X395530438Y-117559047D02*
X395578057Y-117606666D01*
X395578057Y-117606666D02*
X395673295Y-117654285D01*
X395673295Y-117654285D02*
X395720914Y-117654285D01*
X395720914Y-117654285D02*
X395816152Y-117606666D01*
X395816152Y-117606666D02*
X395863771Y-117559047D01*
X395863771Y-117559047D02*
X395911390Y-117463809D01*
X395911390Y-117463809D02*
X395911390Y-117273333D01*
X395911390Y-117273333D02*
X395959009Y-117178095D01*
X395959009Y-117178095D02*
X396006628Y-117130476D01*
X396006628Y-117130476D02*
X396101866Y-117082857D01*
X396101866Y-117082857D02*
X396292342Y-117082857D01*
X396292342Y-117082857D02*
X396387580Y-117130476D01*
X396387580Y-117130476D02*
X396435200Y-117178095D01*
X396435200Y-117178095D02*
X396482819Y-117273333D01*
X396482819Y-117273333D02*
X396482819Y-117463809D01*
X396482819Y-117463809D02*
X396435200Y-117559047D01*
X396435200Y-117559047D02*
X396387580Y-117606666D01*
X396387580Y-117606666D02*
X396292342Y-117654285D01*
X396292342Y-117654285D02*
X396101866Y-117654285D01*
X396101866Y-117654285D02*
X396006628Y-117606666D01*
X396006628Y-117606666D02*
X395959009Y-117559047D01*
X395959009Y-117559047D02*
X395911390Y-117463809D01*
X400402819Y-118488095D02*
X399402819Y-118488095D01*
X400402819Y-119059523D02*
X399831390Y-118630952D01*
X399402819Y-119059523D02*
X399974247Y-118488095D01*
D11*
X398511855Y-113668571D02*
X397711855Y-113668571D01*
X397711855Y-113668571D02*
X397711855Y-113859047D01*
X397711855Y-113859047D02*
X397749950Y-113973333D01*
X397749950Y-113973333D02*
X397826140Y-114049523D01*
X397826140Y-114049523D02*
X397902331Y-114087618D01*
X397902331Y-114087618D02*
X398054712Y-114125714D01*
X398054712Y-114125714D02*
X398168998Y-114125714D01*
X398168998Y-114125714D02*
X398321379Y-114087618D01*
X398321379Y-114087618D02*
X398397569Y-114049523D01*
X398397569Y-114049523D02*
X398473760Y-113973333D01*
X398473760Y-113973333D02*
X398511855Y-113859047D01*
X398511855Y-113859047D02*
X398511855Y-113668571D01*
X397788045Y-114430475D02*
X397749950Y-114468571D01*
X397749950Y-114468571D02*
X397711855Y-114544761D01*
X397711855Y-114544761D02*
X397711855Y-114735237D01*
X397711855Y-114735237D02*
X397749950Y-114811428D01*
X397749950Y-114811428D02*
X397788045Y-114849523D01*
X397788045Y-114849523D02*
X397864236Y-114887618D01*
X397864236Y-114887618D02*
X397940426Y-114887618D01*
X397940426Y-114887618D02*
X398054712Y-114849523D01*
X398054712Y-114849523D02*
X398511855Y-114392380D01*
X398511855Y-114392380D02*
X398511855Y-114887618D01*
X397978521Y-115573333D02*
X398511855Y-115573333D01*
X397673760Y-115382857D02*
X398245188Y-115192380D01*
X398245188Y-115192380D02*
X398245188Y-115687619D01*
D10*
X386957819Y-93747142D02*
X386957819Y-93175714D01*
X386957819Y-93461428D02*
X385957819Y-93461428D01*
X385957819Y-93461428D02*
X386100676Y-93366190D01*
X386100676Y-93366190D02*
X386195914Y-93270952D01*
X386195914Y-93270952D02*
X386243533Y-93175714D01*
X386957819Y-94175714D02*
X385957819Y-94175714D01*
X385957819Y-94175714D02*
X386957819Y-94747142D01*
X386957819Y-94747142D02*
X385957819Y-94747142D01*
X386291152Y-95651904D02*
X386957819Y-95651904D01*
X385910200Y-95413809D02*
X386624485Y-95175714D01*
X386624485Y-95175714D02*
X386624485Y-95794761D01*
X386957819Y-96699523D02*
X386957819Y-96128095D01*
X386957819Y-96413809D02*
X385957819Y-96413809D01*
X385957819Y-96413809D02*
X386100676Y-96318571D01*
X386100676Y-96318571D02*
X386195914Y-96223333D01*
X386195914Y-96223333D02*
X386243533Y-96128095D01*
X386291152Y-97556666D02*
X386957819Y-97556666D01*
X385910200Y-97318571D02*
X386624485Y-97080476D01*
X386624485Y-97080476D02*
X386624485Y-97699523D01*
X386386390Y-98223333D02*
X386338771Y-98128095D01*
X386338771Y-98128095D02*
X386291152Y-98080476D01*
X386291152Y-98080476D02*
X386195914Y-98032857D01*
X386195914Y-98032857D02*
X386148295Y-98032857D01*
X386148295Y-98032857D02*
X386053057Y-98080476D01*
X386053057Y-98080476D02*
X386005438Y-98128095D01*
X386005438Y-98128095D02*
X385957819Y-98223333D01*
X385957819Y-98223333D02*
X385957819Y-98413809D01*
X385957819Y-98413809D02*
X386005438Y-98509047D01*
X386005438Y-98509047D02*
X386053057Y-98556666D01*
X386053057Y-98556666D02*
X386148295Y-98604285D01*
X386148295Y-98604285D02*
X386195914Y-98604285D01*
X386195914Y-98604285D02*
X386291152Y-98556666D01*
X386291152Y-98556666D02*
X386338771Y-98509047D01*
X386338771Y-98509047D02*
X386386390Y-98413809D01*
X386386390Y-98413809D02*
X386386390Y-98223333D01*
X386386390Y-98223333D02*
X386434009Y-98128095D01*
X386434009Y-98128095D02*
X386481628Y-98080476D01*
X386481628Y-98080476D02*
X386576866Y-98032857D01*
X386576866Y-98032857D02*
X386767342Y-98032857D01*
X386767342Y-98032857D02*
X386862580Y-98080476D01*
X386862580Y-98080476D02*
X386910200Y-98128095D01*
X386910200Y-98128095D02*
X386957819Y-98223333D01*
X386957819Y-98223333D02*
X386957819Y-98413809D01*
X386957819Y-98413809D02*
X386910200Y-98509047D01*
X386910200Y-98509047D02*
X386862580Y-98556666D01*
X386862580Y-98556666D02*
X386767342Y-98604285D01*
X386767342Y-98604285D02*
X386576866Y-98604285D01*
X386576866Y-98604285D02*
X386481628Y-98556666D01*
X386481628Y-98556666D02*
X386434009Y-98509047D01*
X386434009Y-98509047D02*
X386386390Y-98413809D01*
X390877819Y-99438095D02*
X389877819Y-99438095D01*
X390877819Y-100009523D02*
X390306390Y-99580952D01*
X389877819Y-100009523D02*
X390449247Y-99438095D01*
D11*
X388986855Y-94618571D02*
X388186855Y-94618571D01*
X388186855Y-94618571D02*
X388186855Y-94809047D01*
X388186855Y-94809047D02*
X388224950Y-94923333D01*
X388224950Y-94923333D02*
X388301140Y-94999523D01*
X388301140Y-94999523D02*
X388377331Y-95037618D01*
X388377331Y-95037618D02*
X388529712Y-95075714D01*
X388529712Y-95075714D02*
X388643998Y-95075714D01*
X388643998Y-95075714D02*
X388796379Y-95037618D01*
X388796379Y-95037618D02*
X388872569Y-94999523D01*
X388872569Y-94999523D02*
X388948760Y-94923333D01*
X388948760Y-94923333D02*
X388986855Y-94809047D01*
X388986855Y-94809047D02*
X388986855Y-94618571D01*
X388263045Y-95380475D02*
X388224950Y-95418571D01*
X388224950Y-95418571D02*
X388186855Y-95494761D01*
X388186855Y-95494761D02*
X388186855Y-95685237D01*
X388186855Y-95685237D02*
X388224950Y-95761428D01*
X388224950Y-95761428D02*
X388263045Y-95799523D01*
X388263045Y-95799523D02*
X388339236Y-95837618D01*
X388339236Y-95837618D02*
X388415426Y-95837618D01*
X388415426Y-95837618D02*
X388529712Y-95799523D01*
X388529712Y-95799523D02*
X388986855Y-95342380D01*
X388986855Y-95342380D02*
X388986855Y-95837618D01*
X388186855Y-96104285D02*
X388186855Y-96599523D01*
X388186855Y-96599523D02*
X388491617Y-96332857D01*
X388491617Y-96332857D02*
X388491617Y-96447142D01*
X388491617Y-96447142D02*
X388529712Y-96523333D01*
X388529712Y-96523333D02*
X388567807Y-96561428D01*
X388567807Y-96561428D02*
X388643998Y-96599523D01*
X388643998Y-96599523D02*
X388834474Y-96599523D01*
X388834474Y-96599523D02*
X388910664Y-96561428D01*
X388910664Y-96561428D02*
X388948760Y-96523333D01*
X388948760Y-96523333D02*
X388986855Y-96447142D01*
X388986855Y-96447142D02*
X388986855Y-96218571D01*
X388986855Y-96218571D02*
X388948760Y-96142380D01*
X388948760Y-96142380D02*
X388910664Y-96104285D01*
D10*
X205982819Y-112797142D02*
X205982819Y-112225714D01*
X205982819Y-112511428D02*
X204982819Y-112511428D01*
X204982819Y-112511428D02*
X205125676Y-112416190D01*
X205125676Y-112416190D02*
X205220914Y-112320952D01*
X205220914Y-112320952D02*
X205268533Y-112225714D01*
X205982819Y-113225714D02*
X204982819Y-113225714D01*
X204982819Y-113225714D02*
X205982819Y-113797142D01*
X205982819Y-113797142D02*
X204982819Y-113797142D01*
X205316152Y-114701904D02*
X205982819Y-114701904D01*
X204935200Y-114463809D02*
X205649485Y-114225714D01*
X205649485Y-114225714D02*
X205649485Y-114844761D01*
X205982819Y-115749523D02*
X205982819Y-115178095D01*
X205982819Y-115463809D02*
X204982819Y-115463809D01*
X204982819Y-115463809D02*
X205125676Y-115368571D01*
X205125676Y-115368571D02*
X205220914Y-115273333D01*
X205220914Y-115273333D02*
X205268533Y-115178095D01*
X205316152Y-116606666D02*
X205982819Y-116606666D01*
X204935200Y-116368571D02*
X205649485Y-116130476D01*
X205649485Y-116130476D02*
X205649485Y-116749523D01*
X205411390Y-117273333D02*
X205363771Y-117178095D01*
X205363771Y-117178095D02*
X205316152Y-117130476D01*
X205316152Y-117130476D02*
X205220914Y-117082857D01*
X205220914Y-117082857D02*
X205173295Y-117082857D01*
X205173295Y-117082857D02*
X205078057Y-117130476D01*
X205078057Y-117130476D02*
X205030438Y-117178095D01*
X205030438Y-117178095D02*
X204982819Y-117273333D01*
X204982819Y-117273333D02*
X204982819Y-117463809D01*
X204982819Y-117463809D02*
X205030438Y-117559047D01*
X205030438Y-117559047D02*
X205078057Y-117606666D01*
X205078057Y-117606666D02*
X205173295Y-117654285D01*
X205173295Y-117654285D02*
X205220914Y-117654285D01*
X205220914Y-117654285D02*
X205316152Y-117606666D01*
X205316152Y-117606666D02*
X205363771Y-117559047D01*
X205363771Y-117559047D02*
X205411390Y-117463809D01*
X205411390Y-117463809D02*
X205411390Y-117273333D01*
X205411390Y-117273333D02*
X205459009Y-117178095D01*
X205459009Y-117178095D02*
X205506628Y-117130476D01*
X205506628Y-117130476D02*
X205601866Y-117082857D01*
X205601866Y-117082857D02*
X205792342Y-117082857D01*
X205792342Y-117082857D02*
X205887580Y-117130476D01*
X205887580Y-117130476D02*
X205935200Y-117178095D01*
X205935200Y-117178095D02*
X205982819Y-117273333D01*
X205982819Y-117273333D02*
X205982819Y-117463809D01*
X205982819Y-117463809D02*
X205935200Y-117559047D01*
X205935200Y-117559047D02*
X205887580Y-117606666D01*
X205887580Y-117606666D02*
X205792342Y-117654285D01*
X205792342Y-117654285D02*
X205601866Y-117654285D01*
X205601866Y-117654285D02*
X205506628Y-117606666D01*
X205506628Y-117606666D02*
X205459009Y-117559047D01*
X205459009Y-117559047D02*
X205411390Y-117463809D01*
X209902819Y-118488095D02*
X208902819Y-118488095D01*
X209902819Y-119059523D02*
X209331390Y-118630952D01*
X208902819Y-119059523D02*
X209474247Y-118488095D01*
D11*
X208011855Y-114049524D02*
X207211855Y-114049524D01*
X207211855Y-114049524D02*
X207211855Y-114240000D01*
X207211855Y-114240000D02*
X207249950Y-114354286D01*
X207249950Y-114354286D02*
X207326140Y-114430476D01*
X207326140Y-114430476D02*
X207402331Y-114468571D01*
X207402331Y-114468571D02*
X207554712Y-114506667D01*
X207554712Y-114506667D02*
X207668998Y-114506667D01*
X207668998Y-114506667D02*
X207821379Y-114468571D01*
X207821379Y-114468571D02*
X207897569Y-114430476D01*
X207897569Y-114430476D02*
X207973760Y-114354286D01*
X207973760Y-114354286D02*
X208011855Y-114240000D01*
X208011855Y-114240000D02*
X208011855Y-114049524D01*
X207478521Y-115192381D02*
X208011855Y-115192381D01*
X207173760Y-115001905D02*
X207745188Y-114811428D01*
X207745188Y-114811428D02*
X207745188Y-115306667D01*
D10*
X348857819Y-93747142D02*
X348857819Y-93175714D01*
X348857819Y-93461428D02*
X347857819Y-93461428D01*
X347857819Y-93461428D02*
X348000676Y-93366190D01*
X348000676Y-93366190D02*
X348095914Y-93270952D01*
X348095914Y-93270952D02*
X348143533Y-93175714D01*
X348857819Y-94175714D02*
X347857819Y-94175714D01*
X347857819Y-94175714D02*
X348857819Y-94747142D01*
X348857819Y-94747142D02*
X347857819Y-94747142D01*
X348191152Y-95651904D02*
X348857819Y-95651904D01*
X347810200Y-95413809D02*
X348524485Y-95175714D01*
X348524485Y-95175714D02*
X348524485Y-95794761D01*
X348857819Y-96699523D02*
X348857819Y-96128095D01*
X348857819Y-96413809D02*
X347857819Y-96413809D01*
X347857819Y-96413809D02*
X348000676Y-96318571D01*
X348000676Y-96318571D02*
X348095914Y-96223333D01*
X348095914Y-96223333D02*
X348143533Y-96128095D01*
X348191152Y-97556666D02*
X348857819Y-97556666D01*
X347810200Y-97318571D02*
X348524485Y-97080476D01*
X348524485Y-97080476D02*
X348524485Y-97699523D01*
X348286390Y-98223333D02*
X348238771Y-98128095D01*
X348238771Y-98128095D02*
X348191152Y-98080476D01*
X348191152Y-98080476D02*
X348095914Y-98032857D01*
X348095914Y-98032857D02*
X348048295Y-98032857D01*
X348048295Y-98032857D02*
X347953057Y-98080476D01*
X347953057Y-98080476D02*
X347905438Y-98128095D01*
X347905438Y-98128095D02*
X347857819Y-98223333D01*
X347857819Y-98223333D02*
X347857819Y-98413809D01*
X347857819Y-98413809D02*
X347905438Y-98509047D01*
X347905438Y-98509047D02*
X347953057Y-98556666D01*
X347953057Y-98556666D02*
X348048295Y-98604285D01*
X348048295Y-98604285D02*
X348095914Y-98604285D01*
X348095914Y-98604285D02*
X348191152Y-98556666D01*
X348191152Y-98556666D02*
X348238771Y-98509047D01*
X348238771Y-98509047D02*
X348286390Y-98413809D01*
X348286390Y-98413809D02*
X348286390Y-98223333D01*
X348286390Y-98223333D02*
X348334009Y-98128095D01*
X348334009Y-98128095D02*
X348381628Y-98080476D01*
X348381628Y-98080476D02*
X348476866Y-98032857D01*
X348476866Y-98032857D02*
X348667342Y-98032857D01*
X348667342Y-98032857D02*
X348762580Y-98080476D01*
X348762580Y-98080476D02*
X348810200Y-98128095D01*
X348810200Y-98128095D02*
X348857819Y-98223333D01*
X348857819Y-98223333D02*
X348857819Y-98413809D01*
X348857819Y-98413809D02*
X348810200Y-98509047D01*
X348810200Y-98509047D02*
X348762580Y-98556666D01*
X348762580Y-98556666D02*
X348667342Y-98604285D01*
X348667342Y-98604285D02*
X348476866Y-98604285D01*
X348476866Y-98604285D02*
X348381628Y-98556666D01*
X348381628Y-98556666D02*
X348334009Y-98509047D01*
X348334009Y-98509047D02*
X348286390Y-98413809D01*
X352777819Y-99438095D02*
X351777819Y-99438095D01*
X352777819Y-100009523D02*
X352206390Y-99580952D01*
X351777819Y-100009523D02*
X352349247Y-99438095D01*
D11*
X350886855Y-94618571D02*
X350086855Y-94618571D01*
X350086855Y-94618571D02*
X350086855Y-94809047D01*
X350086855Y-94809047D02*
X350124950Y-94923333D01*
X350124950Y-94923333D02*
X350201140Y-94999523D01*
X350201140Y-94999523D02*
X350277331Y-95037618D01*
X350277331Y-95037618D02*
X350429712Y-95075714D01*
X350429712Y-95075714D02*
X350543998Y-95075714D01*
X350543998Y-95075714D02*
X350696379Y-95037618D01*
X350696379Y-95037618D02*
X350772569Y-94999523D01*
X350772569Y-94999523D02*
X350848760Y-94923333D01*
X350848760Y-94923333D02*
X350886855Y-94809047D01*
X350886855Y-94809047D02*
X350886855Y-94618571D01*
X350886855Y-95837618D02*
X350886855Y-95380475D01*
X350886855Y-95609047D02*
X350086855Y-95609047D01*
X350086855Y-95609047D02*
X350201140Y-95532856D01*
X350201140Y-95532856D02*
X350277331Y-95456666D01*
X350277331Y-95456666D02*
X350315426Y-95380475D01*
X350886855Y-96218571D02*
X350886855Y-96370952D01*
X350886855Y-96370952D02*
X350848760Y-96447142D01*
X350848760Y-96447142D02*
X350810664Y-96485238D01*
X350810664Y-96485238D02*
X350696379Y-96561428D01*
X350696379Y-96561428D02*
X350543998Y-96599523D01*
X350543998Y-96599523D02*
X350239236Y-96599523D01*
X350239236Y-96599523D02*
X350163045Y-96561428D01*
X350163045Y-96561428D02*
X350124950Y-96523333D01*
X350124950Y-96523333D02*
X350086855Y-96447142D01*
X350086855Y-96447142D02*
X350086855Y-96294761D01*
X350086855Y-96294761D02*
X350124950Y-96218571D01*
X350124950Y-96218571D02*
X350163045Y-96180476D01*
X350163045Y-96180476D02*
X350239236Y-96142380D01*
X350239236Y-96142380D02*
X350429712Y-96142380D01*
X350429712Y-96142380D02*
X350505902Y-96180476D01*
X350505902Y-96180476D02*
X350543998Y-96218571D01*
X350543998Y-96218571D02*
X350582093Y-96294761D01*
X350582093Y-96294761D02*
X350582093Y-96447142D01*
X350582093Y-96447142D02*
X350543998Y-96523333D01*
X350543998Y-96523333D02*
X350505902Y-96561428D01*
X350505902Y-96561428D02*
X350429712Y-96599523D01*
D10*
X177090319Y-93747142D02*
X177090319Y-93175714D01*
X177090319Y-93461428D02*
X176090319Y-93461428D01*
X176090319Y-93461428D02*
X176233176Y-93366190D01*
X176233176Y-93366190D02*
X176328414Y-93270952D01*
X176328414Y-93270952D02*
X176376033Y-93175714D01*
X177090319Y-94175714D02*
X176090319Y-94175714D01*
X176090319Y-94175714D02*
X177090319Y-94747142D01*
X177090319Y-94747142D02*
X176090319Y-94747142D01*
X176423652Y-95651904D02*
X177090319Y-95651904D01*
X176042700Y-95413809D02*
X176756985Y-95175714D01*
X176756985Y-95175714D02*
X176756985Y-95794761D01*
X177090319Y-96699523D02*
X177090319Y-96128095D01*
X177090319Y-96413809D02*
X176090319Y-96413809D01*
X176090319Y-96413809D02*
X176233176Y-96318571D01*
X176233176Y-96318571D02*
X176328414Y-96223333D01*
X176328414Y-96223333D02*
X176376033Y-96128095D01*
X176423652Y-97556666D02*
X177090319Y-97556666D01*
X176042700Y-97318571D02*
X176756985Y-97080476D01*
X176756985Y-97080476D02*
X176756985Y-97699523D01*
X176518890Y-98223333D02*
X176471271Y-98128095D01*
X176471271Y-98128095D02*
X176423652Y-98080476D01*
X176423652Y-98080476D02*
X176328414Y-98032857D01*
X176328414Y-98032857D02*
X176280795Y-98032857D01*
X176280795Y-98032857D02*
X176185557Y-98080476D01*
X176185557Y-98080476D02*
X176137938Y-98128095D01*
X176137938Y-98128095D02*
X176090319Y-98223333D01*
X176090319Y-98223333D02*
X176090319Y-98413809D01*
X176090319Y-98413809D02*
X176137938Y-98509047D01*
X176137938Y-98509047D02*
X176185557Y-98556666D01*
X176185557Y-98556666D02*
X176280795Y-98604285D01*
X176280795Y-98604285D02*
X176328414Y-98604285D01*
X176328414Y-98604285D02*
X176423652Y-98556666D01*
X176423652Y-98556666D02*
X176471271Y-98509047D01*
X176471271Y-98509047D02*
X176518890Y-98413809D01*
X176518890Y-98413809D02*
X176518890Y-98223333D01*
X176518890Y-98223333D02*
X176566509Y-98128095D01*
X176566509Y-98128095D02*
X176614128Y-98080476D01*
X176614128Y-98080476D02*
X176709366Y-98032857D01*
X176709366Y-98032857D02*
X176899842Y-98032857D01*
X176899842Y-98032857D02*
X176995080Y-98080476D01*
X176995080Y-98080476D02*
X177042700Y-98128095D01*
X177042700Y-98128095D02*
X177090319Y-98223333D01*
X177090319Y-98223333D02*
X177090319Y-98413809D01*
X177090319Y-98413809D02*
X177042700Y-98509047D01*
X177042700Y-98509047D02*
X176995080Y-98556666D01*
X176995080Y-98556666D02*
X176899842Y-98604285D01*
X176899842Y-98604285D02*
X176709366Y-98604285D01*
X176709366Y-98604285D02*
X176614128Y-98556666D01*
X176614128Y-98556666D02*
X176566509Y-98509047D01*
X176566509Y-98509047D02*
X176518890Y-98413809D01*
D11*
X179119355Y-94999524D02*
X178319355Y-94999524D01*
X178319355Y-94999524D02*
X178319355Y-95190000D01*
X178319355Y-95190000D02*
X178357450Y-95304286D01*
X178357450Y-95304286D02*
X178433640Y-95380476D01*
X178433640Y-95380476D02*
X178509831Y-95418571D01*
X178509831Y-95418571D02*
X178662212Y-95456667D01*
X178662212Y-95456667D02*
X178776498Y-95456667D01*
X178776498Y-95456667D02*
X178928879Y-95418571D01*
X178928879Y-95418571D02*
X179005069Y-95380476D01*
X179005069Y-95380476D02*
X179081260Y-95304286D01*
X179081260Y-95304286D02*
X179119355Y-95190000D01*
X179119355Y-95190000D02*
X179119355Y-94999524D01*
X179119355Y-95837619D02*
X179119355Y-95990000D01*
X179119355Y-95990000D02*
X179081260Y-96066190D01*
X179081260Y-96066190D02*
X179043164Y-96104286D01*
X179043164Y-96104286D02*
X178928879Y-96180476D01*
X178928879Y-96180476D02*
X178776498Y-96218571D01*
X178776498Y-96218571D02*
X178471736Y-96218571D01*
X178471736Y-96218571D02*
X178395545Y-96180476D01*
X178395545Y-96180476D02*
X178357450Y-96142381D01*
X178357450Y-96142381D02*
X178319355Y-96066190D01*
X178319355Y-96066190D02*
X178319355Y-95913809D01*
X178319355Y-95913809D02*
X178357450Y-95837619D01*
X178357450Y-95837619D02*
X178395545Y-95799524D01*
X178395545Y-95799524D02*
X178471736Y-95761428D01*
X178471736Y-95761428D02*
X178662212Y-95761428D01*
X178662212Y-95761428D02*
X178738402Y-95799524D01*
X178738402Y-95799524D02*
X178776498Y-95837619D01*
X178776498Y-95837619D02*
X178814593Y-95913809D01*
X178814593Y-95913809D02*
X178814593Y-96066190D01*
X178814593Y-96066190D02*
X178776498Y-96142381D01*
X178776498Y-96142381D02*
X178738402Y-96180476D01*
X178738402Y-96180476D02*
X178662212Y-96218571D01*
D10*
X181010319Y-99438095D02*
X180010319Y-99438095D01*
X181010319Y-100009523D02*
X180438890Y-99580952D01*
X180010319Y-100009523D02*
X180581747Y-99438095D01*
X253607819Y-93747142D02*
X253607819Y-93175714D01*
X253607819Y-93461428D02*
X252607819Y-93461428D01*
X252607819Y-93461428D02*
X252750676Y-93366190D01*
X252750676Y-93366190D02*
X252845914Y-93270952D01*
X252845914Y-93270952D02*
X252893533Y-93175714D01*
X253607819Y-94175714D02*
X252607819Y-94175714D01*
X252607819Y-94175714D02*
X253607819Y-94747142D01*
X253607819Y-94747142D02*
X252607819Y-94747142D01*
X252941152Y-95651904D02*
X253607819Y-95651904D01*
X252560200Y-95413809D02*
X253274485Y-95175714D01*
X253274485Y-95175714D02*
X253274485Y-95794761D01*
X253607819Y-96699523D02*
X253607819Y-96128095D01*
X253607819Y-96413809D02*
X252607819Y-96413809D01*
X252607819Y-96413809D02*
X252750676Y-96318571D01*
X252750676Y-96318571D02*
X252845914Y-96223333D01*
X252845914Y-96223333D02*
X252893533Y-96128095D01*
X252941152Y-97556666D02*
X253607819Y-97556666D01*
X252560200Y-97318571D02*
X253274485Y-97080476D01*
X253274485Y-97080476D02*
X253274485Y-97699523D01*
X253036390Y-98223333D02*
X252988771Y-98128095D01*
X252988771Y-98128095D02*
X252941152Y-98080476D01*
X252941152Y-98080476D02*
X252845914Y-98032857D01*
X252845914Y-98032857D02*
X252798295Y-98032857D01*
X252798295Y-98032857D02*
X252703057Y-98080476D01*
X252703057Y-98080476D02*
X252655438Y-98128095D01*
X252655438Y-98128095D02*
X252607819Y-98223333D01*
X252607819Y-98223333D02*
X252607819Y-98413809D01*
X252607819Y-98413809D02*
X252655438Y-98509047D01*
X252655438Y-98509047D02*
X252703057Y-98556666D01*
X252703057Y-98556666D02*
X252798295Y-98604285D01*
X252798295Y-98604285D02*
X252845914Y-98604285D01*
X252845914Y-98604285D02*
X252941152Y-98556666D01*
X252941152Y-98556666D02*
X252988771Y-98509047D01*
X252988771Y-98509047D02*
X253036390Y-98413809D01*
X253036390Y-98413809D02*
X253036390Y-98223333D01*
X253036390Y-98223333D02*
X253084009Y-98128095D01*
X253084009Y-98128095D02*
X253131628Y-98080476D01*
X253131628Y-98080476D02*
X253226866Y-98032857D01*
X253226866Y-98032857D02*
X253417342Y-98032857D01*
X253417342Y-98032857D02*
X253512580Y-98080476D01*
X253512580Y-98080476D02*
X253560200Y-98128095D01*
X253560200Y-98128095D02*
X253607819Y-98223333D01*
X253607819Y-98223333D02*
X253607819Y-98413809D01*
X253607819Y-98413809D02*
X253560200Y-98509047D01*
X253560200Y-98509047D02*
X253512580Y-98556666D01*
X253512580Y-98556666D02*
X253417342Y-98604285D01*
X253417342Y-98604285D02*
X253226866Y-98604285D01*
X253226866Y-98604285D02*
X253131628Y-98556666D01*
X253131628Y-98556666D02*
X253084009Y-98509047D01*
X253084009Y-98509047D02*
X253036390Y-98413809D01*
D11*
X255636855Y-94618571D02*
X254836855Y-94618571D01*
X254836855Y-94618571D02*
X254836855Y-94809047D01*
X254836855Y-94809047D02*
X254874950Y-94923333D01*
X254874950Y-94923333D02*
X254951140Y-94999523D01*
X254951140Y-94999523D02*
X255027331Y-95037618D01*
X255027331Y-95037618D02*
X255179712Y-95075714D01*
X255179712Y-95075714D02*
X255293998Y-95075714D01*
X255293998Y-95075714D02*
X255446379Y-95037618D01*
X255446379Y-95037618D02*
X255522569Y-94999523D01*
X255522569Y-94999523D02*
X255598760Y-94923333D01*
X255598760Y-94923333D02*
X255636855Y-94809047D01*
X255636855Y-94809047D02*
X255636855Y-94618571D01*
X255636855Y-95837618D02*
X255636855Y-95380475D01*
X255636855Y-95609047D02*
X254836855Y-95609047D01*
X254836855Y-95609047D02*
X254951140Y-95532856D01*
X254951140Y-95532856D02*
X255027331Y-95456666D01*
X255027331Y-95456666D02*
X255065426Y-95380475D01*
X254913045Y-96142380D02*
X254874950Y-96180476D01*
X254874950Y-96180476D02*
X254836855Y-96256666D01*
X254836855Y-96256666D02*
X254836855Y-96447142D01*
X254836855Y-96447142D02*
X254874950Y-96523333D01*
X254874950Y-96523333D02*
X254913045Y-96561428D01*
X254913045Y-96561428D02*
X254989236Y-96599523D01*
X254989236Y-96599523D02*
X255065426Y-96599523D01*
X255065426Y-96599523D02*
X255179712Y-96561428D01*
X255179712Y-96561428D02*
X255636855Y-96104285D01*
X255636855Y-96104285D02*
X255636855Y-96599523D01*
D10*
X257527819Y-99438095D02*
X256527819Y-99438095D01*
X257527819Y-100009523D02*
X256956390Y-99580952D01*
X256527819Y-100009523D02*
X257099247Y-99438095D01*
X291707819Y-93747142D02*
X291707819Y-93175714D01*
X291707819Y-93461428D02*
X290707819Y-93461428D01*
X290707819Y-93461428D02*
X290850676Y-93366190D01*
X290850676Y-93366190D02*
X290945914Y-93270952D01*
X290945914Y-93270952D02*
X290993533Y-93175714D01*
X291707819Y-94175714D02*
X290707819Y-94175714D01*
X290707819Y-94175714D02*
X291707819Y-94747142D01*
X291707819Y-94747142D02*
X290707819Y-94747142D01*
X291041152Y-95651904D02*
X291707819Y-95651904D01*
X290660200Y-95413809D02*
X291374485Y-95175714D01*
X291374485Y-95175714D02*
X291374485Y-95794761D01*
X291707819Y-96699523D02*
X291707819Y-96128095D01*
X291707819Y-96413809D02*
X290707819Y-96413809D01*
X290707819Y-96413809D02*
X290850676Y-96318571D01*
X290850676Y-96318571D02*
X290945914Y-96223333D01*
X290945914Y-96223333D02*
X290993533Y-96128095D01*
X291041152Y-97556666D02*
X291707819Y-97556666D01*
X290660200Y-97318571D02*
X291374485Y-97080476D01*
X291374485Y-97080476D02*
X291374485Y-97699523D01*
X291136390Y-98223333D02*
X291088771Y-98128095D01*
X291088771Y-98128095D02*
X291041152Y-98080476D01*
X291041152Y-98080476D02*
X290945914Y-98032857D01*
X290945914Y-98032857D02*
X290898295Y-98032857D01*
X290898295Y-98032857D02*
X290803057Y-98080476D01*
X290803057Y-98080476D02*
X290755438Y-98128095D01*
X290755438Y-98128095D02*
X290707819Y-98223333D01*
X290707819Y-98223333D02*
X290707819Y-98413809D01*
X290707819Y-98413809D02*
X290755438Y-98509047D01*
X290755438Y-98509047D02*
X290803057Y-98556666D01*
X290803057Y-98556666D02*
X290898295Y-98604285D01*
X290898295Y-98604285D02*
X290945914Y-98604285D01*
X290945914Y-98604285D02*
X291041152Y-98556666D01*
X291041152Y-98556666D02*
X291088771Y-98509047D01*
X291088771Y-98509047D02*
X291136390Y-98413809D01*
X291136390Y-98413809D02*
X291136390Y-98223333D01*
X291136390Y-98223333D02*
X291184009Y-98128095D01*
X291184009Y-98128095D02*
X291231628Y-98080476D01*
X291231628Y-98080476D02*
X291326866Y-98032857D01*
X291326866Y-98032857D02*
X291517342Y-98032857D01*
X291517342Y-98032857D02*
X291612580Y-98080476D01*
X291612580Y-98080476D02*
X291660200Y-98128095D01*
X291660200Y-98128095D02*
X291707819Y-98223333D01*
X291707819Y-98223333D02*
X291707819Y-98413809D01*
X291707819Y-98413809D02*
X291660200Y-98509047D01*
X291660200Y-98509047D02*
X291612580Y-98556666D01*
X291612580Y-98556666D02*
X291517342Y-98604285D01*
X291517342Y-98604285D02*
X291326866Y-98604285D01*
X291326866Y-98604285D02*
X291231628Y-98556666D01*
X291231628Y-98556666D02*
X291184009Y-98509047D01*
X291184009Y-98509047D02*
X291136390Y-98413809D01*
D11*
X293736855Y-94618571D02*
X292936855Y-94618571D01*
X292936855Y-94618571D02*
X292936855Y-94809047D01*
X292936855Y-94809047D02*
X292974950Y-94923333D01*
X292974950Y-94923333D02*
X293051140Y-94999523D01*
X293051140Y-94999523D02*
X293127331Y-95037618D01*
X293127331Y-95037618D02*
X293279712Y-95075714D01*
X293279712Y-95075714D02*
X293393998Y-95075714D01*
X293393998Y-95075714D02*
X293546379Y-95037618D01*
X293546379Y-95037618D02*
X293622569Y-94999523D01*
X293622569Y-94999523D02*
X293698760Y-94923333D01*
X293698760Y-94923333D02*
X293736855Y-94809047D01*
X293736855Y-94809047D02*
X293736855Y-94618571D01*
X293736855Y-95837618D02*
X293736855Y-95380475D01*
X293736855Y-95609047D02*
X292936855Y-95609047D01*
X292936855Y-95609047D02*
X293051140Y-95532856D01*
X293051140Y-95532856D02*
X293127331Y-95456666D01*
X293127331Y-95456666D02*
X293165426Y-95380475D01*
X293203521Y-96523333D02*
X293736855Y-96523333D01*
X292898760Y-96332857D02*
X293470188Y-96142380D01*
X293470188Y-96142380D02*
X293470188Y-96637619D01*
D10*
X295627819Y-99438095D02*
X294627819Y-99438095D01*
X295627819Y-100009523D02*
X295056390Y-99580952D01*
X294627819Y-100009523D02*
X295199247Y-99438095D01*
X225032819Y-112797142D02*
X225032819Y-112225714D01*
X225032819Y-112511428D02*
X224032819Y-112511428D01*
X224032819Y-112511428D02*
X224175676Y-112416190D01*
X224175676Y-112416190D02*
X224270914Y-112320952D01*
X224270914Y-112320952D02*
X224318533Y-112225714D01*
X225032819Y-113225714D02*
X224032819Y-113225714D01*
X224032819Y-113225714D02*
X225032819Y-113797142D01*
X225032819Y-113797142D02*
X224032819Y-113797142D01*
X224366152Y-114701904D02*
X225032819Y-114701904D01*
X223985200Y-114463809D02*
X224699485Y-114225714D01*
X224699485Y-114225714D02*
X224699485Y-114844761D01*
X225032819Y-115749523D02*
X225032819Y-115178095D01*
X225032819Y-115463809D02*
X224032819Y-115463809D01*
X224032819Y-115463809D02*
X224175676Y-115368571D01*
X224175676Y-115368571D02*
X224270914Y-115273333D01*
X224270914Y-115273333D02*
X224318533Y-115178095D01*
X224366152Y-116606666D02*
X225032819Y-116606666D01*
X223985200Y-116368571D02*
X224699485Y-116130476D01*
X224699485Y-116130476D02*
X224699485Y-116749523D01*
X224461390Y-117273333D02*
X224413771Y-117178095D01*
X224413771Y-117178095D02*
X224366152Y-117130476D01*
X224366152Y-117130476D02*
X224270914Y-117082857D01*
X224270914Y-117082857D02*
X224223295Y-117082857D01*
X224223295Y-117082857D02*
X224128057Y-117130476D01*
X224128057Y-117130476D02*
X224080438Y-117178095D01*
X224080438Y-117178095D02*
X224032819Y-117273333D01*
X224032819Y-117273333D02*
X224032819Y-117463809D01*
X224032819Y-117463809D02*
X224080438Y-117559047D01*
X224080438Y-117559047D02*
X224128057Y-117606666D01*
X224128057Y-117606666D02*
X224223295Y-117654285D01*
X224223295Y-117654285D02*
X224270914Y-117654285D01*
X224270914Y-117654285D02*
X224366152Y-117606666D01*
X224366152Y-117606666D02*
X224413771Y-117559047D01*
X224413771Y-117559047D02*
X224461390Y-117463809D01*
X224461390Y-117463809D02*
X224461390Y-117273333D01*
X224461390Y-117273333D02*
X224509009Y-117178095D01*
X224509009Y-117178095D02*
X224556628Y-117130476D01*
X224556628Y-117130476D02*
X224651866Y-117082857D01*
X224651866Y-117082857D02*
X224842342Y-117082857D01*
X224842342Y-117082857D02*
X224937580Y-117130476D01*
X224937580Y-117130476D02*
X224985200Y-117178095D01*
X224985200Y-117178095D02*
X225032819Y-117273333D01*
X225032819Y-117273333D02*
X225032819Y-117463809D01*
X225032819Y-117463809D02*
X224985200Y-117559047D01*
X224985200Y-117559047D02*
X224937580Y-117606666D01*
X224937580Y-117606666D02*
X224842342Y-117654285D01*
X224842342Y-117654285D02*
X224651866Y-117654285D01*
X224651866Y-117654285D02*
X224556628Y-117606666D01*
X224556628Y-117606666D02*
X224509009Y-117559047D01*
X224509009Y-117559047D02*
X224461390Y-117463809D01*
X228952819Y-118488095D02*
X227952819Y-118488095D01*
X228952819Y-119059523D02*
X228381390Y-118630952D01*
X227952819Y-119059523D02*
X228524247Y-118488095D01*
D11*
X227061855Y-114049524D02*
X226261855Y-114049524D01*
X226261855Y-114049524D02*
X226261855Y-114240000D01*
X226261855Y-114240000D02*
X226299950Y-114354286D01*
X226299950Y-114354286D02*
X226376140Y-114430476D01*
X226376140Y-114430476D02*
X226452331Y-114468571D01*
X226452331Y-114468571D02*
X226604712Y-114506667D01*
X226604712Y-114506667D02*
X226718998Y-114506667D01*
X226718998Y-114506667D02*
X226871379Y-114468571D01*
X226871379Y-114468571D02*
X226947569Y-114430476D01*
X226947569Y-114430476D02*
X227023760Y-114354286D01*
X227023760Y-114354286D02*
X227061855Y-114240000D01*
X227061855Y-114240000D02*
X227061855Y-114049524D01*
X226261855Y-115230476D02*
X226261855Y-114849524D01*
X226261855Y-114849524D02*
X226642807Y-114811428D01*
X226642807Y-114811428D02*
X226604712Y-114849524D01*
X226604712Y-114849524D02*
X226566617Y-114925714D01*
X226566617Y-114925714D02*
X226566617Y-115116190D01*
X226566617Y-115116190D02*
X226604712Y-115192381D01*
X226604712Y-115192381D02*
X226642807Y-115230476D01*
X226642807Y-115230476D02*
X226718998Y-115268571D01*
X226718998Y-115268571D02*
X226909474Y-115268571D01*
X226909474Y-115268571D02*
X226985664Y-115230476D01*
X226985664Y-115230476D02*
X227023760Y-115192381D01*
X227023760Y-115192381D02*
X227061855Y-115116190D01*
X227061855Y-115116190D02*
X227061855Y-114925714D01*
X227061855Y-114925714D02*
X227023760Y-114849524D01*
X227023760Y-114849524D02*
X226985664Y-114811428D01*
D10*
X77395319Y-86603392D02*
X77395319Y-86031964D01*
X77395319Y-86317678D02*
X76395319Y-86317678D01*
X76395319Y-86317678D02*
X76538176Y-86222440D01*
X76538176Y-86222440D02*
X76633414Y-86127202D01*
X76633414Y-86127202D02*
X76681033Y-86031964D01*
X77395319Y-87031964D02*
X76395319Y-87031964D01*
X76395319Y-87031964D02*
X77395319Y-87603392D01*
X77395319Y-87603392D02*
X76395319Y-87603392D01*
X76728652Y-88508154D02*
X77395319Y-88508154D01*
X76347700Y-88270059D02*
X77061985Y-88031964D01*
X77061985Y-88031964D02*
X77061985Y-88651011D01*
X77395319Y-89555773D02*
X77395319Y-88984345D01*
X77395319Y-89270059D02*
X76395319Y-89270059D01*
X76395319Y-89270059D02*
X76538176Y-89174821D01*
X76538176Y-89174821D02*
X76633414Y-89079583D01*
X76633414Y-89079583D02*
X76681033Y-88984345D01*
X76728652Y-90412916D02*
X77395319Y-90412916D01*
X76347700Y-90174821D02*
X77061985Y-89936726D01*
X77061985Y-89936726D02*
X77061985Y-90555773D01*
X76823890Y-91079583D02*
X76776271Y-90984345D01*
X76776271Y-90984345D02*
X76728652Y-90936726D01*
X76728652Y-90936726D02*
X76633414Y-90889107D01*
X76633414Y-90889107D02*
X76585795Y-90889107D01*
X76585795Y-90889107D02*
X76490557Y-90936726D01*
X76490557Y-90936726D02*
X76442938Y-90984345D01*
X76442938Y-90984345D02*
X76395319Y-91079583D01*
X76395319Y-91079583D02*
X76395319Y-91270059D01*
X76395319Y-91270059D02*
X76442938Y-91365297D01*
X76442938Y-91365297D02*
X76490557Y-91412916D01*
X76490557Y-91412916D02*
X76585795Y-91460535D01*
X76585795Y-91460535D02*
X76633414Y-91460535D01*
X76633414Y-91460535D02*
X76728652Y-91412916D01*
X76728652Y-91412916D02*
X76776271Y-91365297D01*
X76776271Y-91365297D02*
X76823890Y-91270059D01*
X76823890Y-91270059D02*
X76823890Y-91079583D01*
X76823890Y-91079583D02*
X76871509Y-90984345D01*
X76871509Y-90984345D02*
X76919128Y-90936726D01*
X76919128Y-90936726D02*
X77014366Y-90889107D01*
X77014366Y-90889107D02*
X77204842Y-90889107D01*
X77204842Y-90889107D02*
X77300080Y-90936726D01*
X77300080Y-90936726D02*
X77347700Y-90984345D01*
X77347700Y-90984345D02*
X77395319Y-91079583D01*
X77395319Y-91079583D02*
X77395319Y-91270059D01*
X77395319Y-91270059D02*
X77347700Y-91365297D01*
X77347700Y-91365297D02*
X77300080Y-91412916D01*
X77300080Y-91412916D02*
X77204842Y-91460535D01*
X77204842Y-91460535D02*
X77014366Y-91460535D01*
X77014366Y-91460535D02*
X76919128Y-91412916D01*
X76919128Y-91412916D02*
X76871509Y-91365297D01*
X76871509Y-91365297D02*
X76823890Y-91270059D01*
D11*
X79424355Y-87474821D02*
X78624355Y-87474821D01*
X78624355Y-87474821D02*
X78624355Y-87665297D01*
X78624355Y-87665297D02*
X78662450Y-87779583D01*
X78662450Y-87779583D02*
X78738640Y-87855773D01*
X78738640Y-87855773D02*
X78814831Y-87893868D01*
X78814831Y-87893868D02*
X78967212Y-87931964D01*
X78967212Y-87931964D02*
X79081498Y-87931964D01*
X79081498Y-87931964D02*
X79233879Y-87893868D01*
X79233879Y-87893868D02*
X79310069Y-87855773D01*
X79310069Y-87855773D02*
X79386260Y-87779583D01*
X79386260Y-87779583D02*
X79424355Y-87665297D01*
X79424355Y-87665297D02*
X79424355Y-87474821D01*
X78700545Y-88236725D02*
X78662450Y-88274821D01*
X78662450Y-88274821D02*
X78624355Y-88351011D01*
X78624355Y-88351011D02*
X78624355Y-88541487D01*
X78624355Y-88541487D02*
X78662450Y-88617678D01*
X78662450Y-88617678D02*
X78700545Y-88655773D01*
X78700545Y-88655773D02*
X78776736Y-88693868D01*
X78776736Y-88693868D02*
X78852926Y-88693868D01*
X78852926Y-88693868D02*
X78967212Y-88655773D01*
X78967212Y-88655773D02*
X79424355Y-88198630D01*
X79424355Y-88198630D02*
X79424355Y-88693868D01*
X78624355Y-89379583D02*
X78624355Y-89227202D01*
X78624355Y-89227202D02*
X78662450Y-89151011D01*
X78662450Y-89151011D02*
X78700545Y-89112916D01*
X78700545Y-89112916D02*
X78814831Y-89036726D01*
X78814831Y-89036726D02*
X78967212Y-88998630D01*
X78967212Y-88998630D02*
X79271974Y-88998630D01*
X79271974Y-88998630D02*
X79348164Y-89036726D01*
X79348164Y-89036726D02*
X79386260Y-89074821D01*
X79386260Y-89074821D02*
X79424355Y-89151011D01*
X79424355Y-89151011D02*
X79424355Y-89303392D01*
X79424355Y-89303392D02*
X79386260Y-89379583D01*
X79386260Y-89379583D02*
X79348164Y-89417678D01*
X79348164Y-89417678D02*
X79271974Y-89455773D01*
X79271974Y-89455773D02*
X79081498Y-89455773D01*
X79081498Y-89455773D02*
X79005307Y-89417678D01*
X79005307Y-89417678D02*
X78967212Y-89379583D01*
X78967212Y-89379583D02*
X78929117Y-89303392D01*
X78929117Y-89303392D02*
X78929117Y-89151011D01*
X78929117Y-89151011D02*
X78967212Y-89074821D01*
X78967212Y-89074821D02*
X79005307Y-89036726D01*
X79005307Y-89036726D02*
X79081498Y-88998630D01*
D10*
X81315319Y-92294345D02*
X80315319Y-92294345D01*
X81315319Y-92865773D02*
X80743890Y-92437202D01*
X80315319Y-92865773D02*
X80886747Y-92294345D01*
X234557819Y-93747142D02*
X234557819Y-93175714D01*
X234557819Y-93461428D02*
X233557819Y-93461428D01*
X233557819Y-93461428D02*
X233700676Y-93366190D01*
X233700676Y-93366190D02*
X233795914Y-93270952D01*
X233795914Y-93270952D02*
X233843533Y-93175714D01*
X234557819Y-94175714D02*
X233557819Y-94175714D01*
X233557819Y-94175714D02*
X234557819Y-94747142D01*
X234557819Y-94747142D02*
X233557819Y-94747142D01*
X233891152Y-95651904D02*
X234557819Y-95651904D01*
X233510200Y-95413809D02*
X234224485Y-95175714D01*
X234224485Y-95175714D02*
X234224485Y-95794761D01*
X234557819Y-96699523D02*
X234557819Y-96128095D01*
X234557819Y-96413809D02*
X233557819Y-96413809D01*
X233557819Y-96413809D02*
X233700676Y-96318571D01*
X233700676Y-96318571D02*
X233795914Y-96223333D01*
X233795914Y-96223333D02*
X233843533Y-96128095D01*
X233891152Y-97556666D02*
X234557819Y-97556666D01*
X233510200Y-97318571D02*
X234224485Y-97080476D01*
X234224485Y-97080476D02*
X234224485Y-97699523D01*
X233986390Y-98223333D02*
X233938771Y-98128095D01*
X233938771Y-98128095D02*
X233891152Y-98080476D01*
X233891152Y-98080476D02*
X233795914Y-98032857D01*
X233795914Y-98032857D02*
X233748295Y-98032857D01*
X233748295Y-98032857D02*
X233653057Y-98080476D01*
X233653057Y-98080476D02*
X233605438Y-98128095D01*
X233605438Y-98128095D02*
X233557819Y-98223333D01*
X233557819Y-98223333D02*
X233557819Y-98413809D01*
X233557819Y-98413809D02*
X233605438Y-98509047D01*
X233605438Y-98509047D02*
X233653057Y-98556666D01*
X233653057Y-98556666D02*
X233748295Y-98604285D01*
X233748295Y-98604285D02*
X233795914Y-98604285D01*
X233795914Y-98604285D02*
X233891152Y-98556666D01*
X233891152Y-98556666D02*
X233938771Y-98509047D01*
X233938771Y-98509047D02*
X233986390Y-98413809D01*
X233986390Y-98413809D02*
X233986390Y-98223333D01*
X233986390Y-98223333D02*
X234034009Y-98128095D01*
X234034009Y-98128095D02*
X234081628Y-98080476D01*
X234081628Y-98080476D02*
X234176866Y-98032857D01*
X234176866Y-98032857D02*
X234367342Y-98032857D01*
X234367342Y-98032857D02*
X234462580Y-98080476D01*
X234462580Y-98080476D02*
X234510200Y-98128095D01*
X234510200Y-98128095D02*
X234557819Y-98223333D01*
X234557819Y-98223333D02*
X234557819Y-98413809D01*
X234557819Y-98413809D02*
X234510200Y-98509047D01*
X234510200Y-98509047D02*
X234462580Y-98556666D01*
X234462580Y-98556666D02*
X234367342Y-98604285D01*
X234367342Y-98604285D02*
X234176866Y-98604285D01*
X234176866Y-98604285D02*
X234081628Y-98556666D01*
X234081628Y-98556666D02*
X234034009Y-98509047D01*
X234034009Y-98509047D02*
X233986390Y-98413809D01*
X238477819Y-99438095D02*
X237477819Y-99438095D01*
X238477819Y-100009523D02*
X237906390Y-99580952D01*
X237477819Y-100009523D02*
X238049247Y-99438095D01*
D11*
X236586855Y-94618571D02*
X235786855Y-94618571D01*
X235786855Y-94618571D02*
X235786855Y-94809047D01*
X235786855Y-94809047D02*
X235824950Y-94923333D01*
X235824950Y-94923333D02*
X235901140Y-94999523D01*
X235901140Y-94999523D02*
X235977331Y-95037618D01*
X235977331Y-95037618D02*
X236129712Y-95075714D01*
X236129712Y-95075714D02*
X236243998Y-95075714D01*
X236243998Y-95075714D02*
X236396379Y-95037618D01*
X236396379Y-95037618D02*
X236472569Y-94999523D01*
X236472569Y-94999523D02*
X236548760Y-94923333D01*
X236548760Y-94923333D02*
X236586855Y-94809047D01*
X236586855Y-94809047D02*
X236586855Y-94618571D01*
X236586855Y-95837618D02*
X236586855Y-95380475D01*
X236586855Y-95609047D02*
X235786855Y-95609047D01*
X235786855Y-95609047D02*
X235901140Y-95532856D01*
X235901140Y-95532856D02*
X235977331Y-95456666D01*
X235977331Y-95456666D02*
X236015426Y-95380475D01*
X236586855Y-96599523D02*
X236586855Y-96142380D01*
X236586855Y-96370952D02*
X235786855Y-96370952D01*
X235786855Y-96370952D02*
X235901140Y-96294761D01*
X235901140Y-96294761D02*
X235977331Y-96218571D01*
X235977331Y-96218571D02*
X236015426Y-96142380D01*
D10*
X148832819Y-112797142D02*
X148832819Y-112225714D01*
X148832819Y-112511428D02*
X147832819Y-112511428D01*
X147832819Y-112511428D02*
X147975676Y-112416190D01*
X147975676Y-112416190D02*
X148070914Y-112320952D01*
X148070914Y-112320952D02*
X148118533Y-112225714D01*
X148832819Y-113225714D02*
X147832819Y-113225714D01*
X147832819Y-113225714D02*
X148832819Y-113797142D01*
X148832819Y-113797142D02*
X147832819Y-113797142D01*
X148166152Y-114701904D02*
X148832819Y-114701904D01*
X147785200Y-114463809D02*
X148499485Y-114225714D01*
X148499485Y-114225714D02*
X148499485Y-114844761D01*
X148832819Y-115749523D02*
X148832819Y-115178095D01*
X148832819Y-115463809D02*
X147832819Y-115463809D01*
X147832819Y-115463809D02*
X147975676Y-115368571D01*
X147975676Y-115368571D02*
X148070914Y-115273333D01*
X148070914Y-115273333D02*
X148118533Y-115178095D01*
X148166152Y-116606666D02*
X148832819Y-116606666D01*
X147785200Y-116368571D02*
X148499485Y-116130476D01*
X148499485Y-116130476D02*
X148499485Y-116749523D01*
X148261390Y-117273333D02*
X148213771Y-117178095D01*
X148213771Y-117178095D02*
X148166152Y-117130476D01*
X148166152Y-117130476D02*
X148070914Y-117082857D01*
X148070914Y-117082857D02*
X148023295Y-117082857D01*
X148023295Y-117082857D02*
X147928057Y-117130476D01*
X147928057Y-117130476D02*
X147880438Y-117178095D01*
X147880438Y-117178095D02*
X147832819Y-117273333D01*
X147832819Y-117273333D02*
X147832819Y-117463809D01*
X147832819Y-117463809D02*
X147880438Y-117559047D01*
X147880438Y-117559047D02*
X147928057Y-117606666D01*
X147928057Y-117606666D02*
X148023295Y-117654285D01*
X148023295Y-117654285D02*
X148070914Y-117654285D01*
X148070914Y-117654285D02*
X148166152Y-117606666D01*
X148166152Y-117606666D02*
X148213771Y-117559047D01*
X148213771Y-117559047D02*
X148261390Y-117463809D01*
X148261390Y-117463809D02*
X148261390Y-117273333D01*
X148261390Y-117273333D02*
X148309009Y-117178095D01*
X148309009Y-117178095D02*
X148356628Y-117130476D01*
X148356628Y-117130476D02*
X148451866Y-117082857D01*
X148451866Y-117082857D02*
X148642342Y-117082857D01*
X148642342Y-117082857D02*
X148737580Y-117130476D01*
X148737580Y-117130476D02*
X148785200Y-117178095D01*
X148785200Y-117178095D02*
X148832819Y-117273333D01*
X148832819Y-117273333D02*
X148832819Y-117463809D01*
X148832819Y-117463809D02*
X148785200Y-117559047D01*
X148785200Y-117559047D02*
X148737580Y-117606666D01*
X148737580Y-117606666D02*
X148642342Y-117654285D01*
X148642342Y-117654285D02*
X148451866Y-117654285D01*
X148451866Y-117654285D02*
X148356628Y-117606666D01*
X148356628Y-117606666D02*
X148309009Y-117559047D01*
X148309009Y-117559047D02*
X148261390Y-117463809D01*
D11*
X150861855Y-114349524D02*
X150061855Y-114349524D01*
X150061855Y-114349524D02*
X150061855Y-114540000D01*
X150061855Y-114540000D02*
X150099950Y-114654286D01*
X150099950Y-114654286D02*
X150176140Y-114730476D01*
X150176140Y-114730476D02*
X150252331Y-114768571D01*
X150252331Y-114768571D02*
X150404712Y-114806667D01*
X150404712Y-114806667D02*
X150518998Y-114806667D01*
X150518998Y-114806667D02*
X150671379Y-114768571D01*
X150671379Y-114768571D02*
X150747569Y-114730476D01*
X150747569Y-114730476D02*
X150823760Y-114654286D01*
X150823760Y-114654286D02*
X150861855Y-114540000D01*
X150861855Y-114540000D02*
X150861855Y-114349524D01*
X150861855Y-115568571D02*
X150861855Y-115111428D01*
X150861855Y-115340000D02*
X150061855Y-115340000D01*
X150061855Y-115340000D02*
X150176140Y-115263809D01*
X150176140Y-115263809D02*
X150252331Y-115187619D01*
X150252331Y-115187619D02*
X150290426Y-115111428D01*
D10*
X152752819Y-118488095D02*
X151752819Y-118488095D01*
X152752819Y-119059523D02*
X152181390Y-118630952D01*
X151752819Y-119059523D02*
X152324247Y-118488095D01*
X96445319Y-86603392D02*
X96445319Y-86031964D01*
X96445319Y-86317678D02*
X95445319Y-86317678D01*
X95445319Y-86317678D02*
X95588176Y-86222440D01*
X95588176Y-86222440D02*
X95683414Y-86127202D01*
X95683414Y-86127202D02*
X95731033Y-86031964D01*
X96445319Y-87031964D02*
X95445319Y-87031964D01*
X95445319Y-87031964D02*
X96445319Y-87603392D01*
X96445319Y-87603392D02*
X95445319Y-87603392D01*
X95778652Y-88508154D02*
X96445319Y-88508154D01*
X95397700Y-88270059D02*
X96111985Y-88031964D01*
X96111985Y-88031964D02*
X96111985Y-88651011D01*
X96445319Y-89555773D02*
X96445319Y-88984345D01*
X96445319Y-89270059D02*
X95445319Y-89270059D01*
X95445319Y-89270059D02*
X95588176Y-89174821D01*
X95588176Y-89174821D02*
X95683414Y-89079583D01*
X95683414Y-89079583D02*
X95731033Y-88984345D01*
X95778652Y-90412916D02*
X96445319Y-90412916D01*
X95397700Y-90174821D02*
X96111985Y-89936726D01*
X96111985Y-89936726D02*
X96111985Y-90555773D01*
X95873890Y-91079583D02*
X95826271Y-90984345D01*
X95826271Y-90984345D02*
X95778652Y-90936726D01*
X95778652Y-90936726D02*
X95683414Y-90889107D01*
X95683414Y-90889107D02*
X95635795Y-90889107D01*
X95635795Y-90889107D02*
X95540557Y-90936726D01*
X95540557Y-90936726D02*
X95492938Y-90984345D01*
X95492938Y-90984345D02*
X95445319Y-91079583D01*
X95445319Y-91079583D02*
X95445319Y-91270059D01*
X95445319Y-91270059D02*
X95492938Y-91365297D01*
X95492938Y-91365297D02*
X95540557Y-91412916D01*
X95540557Y-91412916D02*
X95635795Y-91460535D01*
X95635795Y-91460535D02*
X95683414Y-91460535D01*
X95683414Y-91460535D02*
X95778652Y-91412916D01*
X95778652Y-91412916D02*
X95826271Y-91365297D01*
X95826271Y-91365297D02*
X95873890Y-91270059D01*
X95873890Y-91270059D02*
X95873890Y-91079583D01*
X95873890Y-91079583D02*
X95921509Y-90984345D01*
X95921509Y-90984345D02*
X95969128Y-90936726D01*
X95969128Y-90936726D02*
X96064366Y-90889107D01*
X96064366Y-90889107D02*
X96254842Y-90889107D01*
X96254842Y-90889107D02*
X96350080Y-90936726D01*
X96350080Y-90936726D02*
X96397700Y-90984345D01*
X96397700Y-90984345D02*
X96445319Y-91079583D01*
X96445319Y-91079583D02*
X96445319Y-91270059D01*
X96445319Y-91270059D02*
X96397700Y-91365297D01*
X96397700Y-91365297D02*
X96350080Y-91412916D01*
X96350080Y-91412916D02*
X96254842Y-91460535D01*
X96254842Y-91460535D02*
X96064366Y-91460535D01*
X96064366Y-91460535D02*
X95969128Y-91412916D01*
X95969128Y-91412916D02*
X95921509Y-91365297D01*
X95921509Y-91365297D02*
X95873890Y-91270059D01*
X100365319Y-92294345D02*
X99365319Y-92294345D01*
X100365319Y-92865773D02*
X99793890Y-92437202D01*
X99365319Y-92865773D02*
X99936747Y-92294345D01*
D11*
X98474355Y-87474821D02*
X97674355Y-87474821D01*
X97674355Y-87474821D02*
X97674355Y-87665297D01*
X97674355Y-87665297D02*
X97712450Y-87779583D01*
X97712450Y-87779583D02*
X97788640Y-87855773D01*
X97788640Y-87855773D02*
X97864831Y-87893868D01*
X97864831Y-87893868D02*
X98017212Y-87931964D01*
X98017212Y-87931964D02*
X98131498Y-87931964D01*
X98131498Y-87931964D02*
X98283879Y-87893868D01*
X98283879Y-87893868D02*
X98360069Y-87855773D01*
X98360069Y-87855773D02*
X98436260Y-87779583D01*
X98436260Y-87779583D02*
X98474355Y-87665297D01*
X98474355Y-87665297D02*
X98474355Y-87474821D01*
X97750545Y-88236725D02*
X97712450Y-88274821D01*
X97712450Y-88274821D02*
X97674355Y-88351011D01*
X97674355Y-88351011D02*
X97674355Y-88541487D01*
X97674355Y-88541487D02*
X97712450Y-88617678D01*
X97712450Y-88617678D02*
X97750545Y-88655773D01*
X97750545Y-88655773D02*
X97826736Y-88693868D01*
X97826736Y-88693868D02*
X97902926Y-88693868D01*
X97902926Y-88693868D02*
X98017212Y-88655773D01*
X98017212Y-88655773D02*
X98474355Y-88198630D01*
X98474355Y-88198630D02*
X98474355Y-88693868D01*
X97674355Y-88960535D02*
X97674355Y-89493869D01*
X97674355Y-89493869D02*
X98474355Y-89151011D01*
D10*
X263132819Y-112797142D02*
X263132819Y-112225714D01*
X263132819Y-112511428D02*
X262132819Y-112511428D01*
X262132819Y-112511428D02*
X262275676Y-112416190D01*
X262275676Y-112416190D02*
X262370914Y-112320952D01*
X262370914Y-112320952D02*
X262418533Y-112225714D01*
X263132819Y-113225714D02*
X262132819Y-113225714D01*
X262132819Y-113225714D02*
X263132819Y-113797142D01*
X263132819Y-113797142D02*
X262132819Y-113797142D01*
X262466152Y-114701904D02*
X263132819Y-114701904D01*
X262085200Y-114463809D02*
X262799485Y-114225714D01*
X262799485Y-114225714D02*
X262799485Y-114844761D01*
X263132819Y-115749523D02*
X263132819Y-115178095D01*
X263132819Y-115463809D02*
X262132819Y-115463809D01*
X262132819Y-115463809D02*
X262275676Y-115368571D01*
X262275676Y-115368571D02*
X262370914Y-115273333D01*
X262370914Y-115273333D02*
X262418533Y-115178095D01*
X262466152Y-116606666D02*
X263132819Y-116606666D01*
X262085200Y-116368571D02*
X262799485Y-116130476D01*
X262799485Y-116130476D02*
X262799485Y-116749523D01*
X262561390Y-117273333D02*
X262513771Y-117178095D01*
X262513771Y-117178095D02*
X262466152Y-117130476D01*
X262466152Y-117130476D02*
X262370914Y-117082857D01*
X262370914Y-117082857D02*
X262323295Y-117082857D01*
X262323295Y-117082857D02*
X262228057Y-117130476D01*
X262228057Y-117130476D02*
X262180438Y-117178095D01*
X262180438Y-117178095D02*
X262132819Y-117273333D01*
X262132819Y-117273333D02*
X262132819Y-117463809D01*
X262132819Y-117463809D02*
X262180438Y-117559047D01*
X262180438Y-117559047D02*
X262228057Y-117606666D01*
X262228057Y-117606666D02*
X262323295Y-117654285D01*
X262323295Y-117654285D02*
X262370914Y-117654285D01*
X262370914Y-117654285D02*
X262466152Y-117606666D01*
X262466152Y-117606666D02*
X262513771Y-117559047D01*
X262513771Y-117559047D02*
X262561390Y-117463809D01*
X262561390Y-117463809D02*
X262561390Y-117273333D01*
X262561390Y-117273333D02*
X262609009Y-117178095D01*
X262609009Y-117178095D02*
X262656628Y-117130476D01*
X262656628Y-117130476D02*
X262751866Y-117082857D01*
X262751866Y-117082857D02*
X262942342Y-117082857D01*
X262942342Y-117082857D02*
X263037580Y-117130476D01*
X263037580Y-117130476D02*
X263085200Y-117178095D01*
X263085200Y-117178095D02*
X263132819Y-117273333D01*
X263132819Y-117273333D02*
X263132819Y-117463809D01*
X263132819Y-117463809D02*
X263085200Y-117559047D01*
X263085200Y-117559047D02*
X263037580Y-117606666D01*
X263037580Y-117606666D02*
X262942342Y-117654285D01*
X262942342Y-117654285D02*
X262751866Y-117654285D01*
X262751866Y-117654285D02*
X262656628Y-117606666D01*
X262656628Y-117606666D02*
X262609009Y-117559047D01*
X262609009Y-117559047D02*
X262561390Y-117463809D01*
X267052819Y-118488095D02*
X266052819Y-118488095D01*
X267052819Y-119059523D02*
X266481390Y-118630952D01*
X266052819Y-119059523D02*
X266624247Y-118488095D01*
D11*
X265161855Y-114049524D02*
X264361855Y-114049524D01*
X264361855Y-114049524D02*
X264361855Y-114240000D01*
X264361855Y-114240000D02*
X264399950Y-114354286D01*
X264399950Y-114354286D02*
X264476140Y-114430476D01*
X264476140Y-114430476D02*
X264552331Y-114468571D01*
X264552331Y-114468571D02*
X264704712Y-114506667D01*
X264704712Y-114506667D02*
X264818998Y-114506667D01*
X264818998Y-114506667D02*
X264971379Y-114468571D01*
X264971379Y-114468571D02*
X265047569Y-114430476D01*
X265047569Y-114430476D02*
X265123760Y-114354286D01*
X265123760Y-114354286D02*
X265161855Y-114240000D01*
X265161855Y-114240000D02*
X265161855Y-114049524D01*
X264361855Y-114773333D02*
X264361855Y-115306667D01*
X264361855Y-115306667D02*
X265161855Y-114963809D01*
D10*
X339332819Y-112797142D02*
X339332819Y-112225714D01*
X339332819Y-112511428D02*
X338332819Y-112511428D01*
X338332819Y-112511428D02*
X338475676Y-112416190D01*
X338475676Y-112416190D02*
X338570914Y-112320952D01*
X338570914Y-112320952D02*
X338618533Y-112225714D01*
X339332819Y-113225714D02*
X338332819Y-113225714D01*
X338332819Y-113225714D02*
X339332819Y-113797142D01*
X339332819Y-113797142D02*
X338332819Y-113797142D01*
X338666152Y-114701904D02*
X339332819Y-114701904D01*
X338285200Y-114463809D02*
X338999485Y-114225714D01*
X338999485Y-114225714D02*
X338999485Y-114844761D01*
X339332819Y-115749523D02*
X339332819Y-115178095D01*
X339332819Y-115463809D02*
X338332819Y-115463809D01*
X338332819Y-115463809D02*
X338475676Y-115368571D01*
X338475676Y-115368571D02*
X338570914Y-115273333D01*
X338570914Y-115273333D02*
X338618533Y-115178095D01*
X338666152Y-116606666D02*
X339332819Y-116606666D01*
X338285200Y-116368571D02*
X338999485Y-116130476D01*
X338999485Y-116130476D02*
X338999485Y-116749523D01*
X338761390Y-117273333D02*
X338713771Y-117178095D01*
X338713771Y-117178095D02*
X338666152Y-117130476D01*
X338666152Y-117130476D02*
X338570914Y-117082857D01*
X338570914Y-117082857D02*
X338523295Y-117082857D01*
X338523295Y-117082857D02*
X338428057Y-117130476D01*
X338428057Y-117130476D02*
X338380438Y-117178095D01*
X338380438Y-117178095D02*
X338332819Y-117273333D01*
X338332819Y-117273333D02*
X338332819Y-117463809D01*
X338332819Y-117463809D02*
X338380438Y-117559047D01*
X338380438Y-117559047D02*
X338428057Y-117606666D01*
X338428057Y-117606666D02*
X338523295Y-117654285D01*
X338523295Y-117654285D02*
X338570914Y-117654285D01*
X338570914Y-117654285D02*
X338666152Y-117606666D01*
X338666152Y-117606666D02*
X338713771Y-117559047D01*
X338713771Y-117559047D02*
X338761390Y-117463809D01*
X338761390Y-117463809D02*
X338761390Y-117273333D01*
X338761390Y-117273333D02*
X338809009Y-117178095D01*
X338809009Y-117178095D02*
X338856628Y-117130476D01*
X338856628Y-117130476D02*
X338951866Y-117082857D01*
X338951866Y-117082857D02*
X339142342Y-117082857D01*
X339142342Y-117082857D02*
X339237580Y-117130476D01*
X339237580Y-117130476D02*
X339285200Y-117178095D01*
X339285200Y-117178095D02*
X339332819Y-117273333D01*
X339332819Y-117273333D02*
X339332819Y-117463809D01*
X339332819Y-117463809D02*
X339285200Y-117559047D01*
X339285200Y-117559047D02*
X339237580Y-117606666D01*
X339237580Y-117606666D02*
X339142342Y-117654285D01*
X339142342Y-117654285D02*
X338951866Y-117654285D01*
X338951866Y-117654285D02*
X338856628Y-117606666D01*
X338856628Y-117606666D02*
X338809009Y-117559047D01*
X338809009Y-117559047D02*
X338761390Y-117463809D01*
X343252819Y-118488095D02*
X342252819Y-118488095D01*
X343252819Y-119059523D02*
X342681390Y-118630952D01*
X342252819Y-119059523D02*
X342824247Y-118488095D01*
D11*
X341361855Y-113668571D02*
X340561855Y-113668571D01*
X340561855Y-113668571D02*
X340561855Y-113859047D01*
X340561855Y-113859047D02*
X340599950Y-113973333D01*
X340599950Y-113973333D02*
X340676140Y-114049523D01*
X340676140Y-114049523D02*
X340752331Y-114087618D01*
X340752331Y-114087618D02*
X340904712Y-114125714D01*
X340904712Y-114125714D02*
X341018998Y-114125714D01*
X341018998Y-114125714D02*
X341171379Y-114087618D01*
X341171379Y-114087618D02*
X341247569Y-114049523D01*
X341247569Y-114049523D02*
X341323760Y-113973333D01*
X341323760Y-113973333D02*
X341361855Y-113859047D01*
X341361855Y-113859047D02*
X341361855Y-113668571D01*
X341361855Y-114887618D02*
X341361855Y-114430475D01*
X341361855Y-114659047D02*
X340561855Y-114659047D01*
X340561855Y-114659047D02*
X340676140Y-114582856D01*
X340676140Y-114582856D02*
X340752331Y-114506666D01*
X340752331Y-114506666D02*
X340790426Y-114430475D01*
X340904712Y-115344761D02*
X340866617Y-115268571D01*
X340866617Y-115268571D02*
X340828521Y-115230476D01*
X340828521Y-115230476D02*
X340752331Y-115192380D01*
X340752331Y-115192380D02*
X340714236Y-115192380D01*
X340714236Y-115192380D02*
X340638045Y-115230476D01*
X340638045Y-115230476D02*
X340599950Y-115268571D01*
X340599950Y-115268571D02*
X340561855Y-115344761D01*
X340561855Y-115344761D02*
X340561855Y-115497142D01*
X340561855Y-115497142D02*
X340599950Y-115573333D01*
X340599950Y-115573333D02*
X340638045Y-115611428D01*
X340638045Y-115611428D02*
X340714236Y-115649523D01*
X340714236Y-115649523D02*
X340752331Y-115649523D01*
X340752331Y-115649523D02*
X340828521Y-115611428D01*
X340828521Y-115611428D02*
X340866617Y-115573333D01*
X340866617Y-115573333D02*
X340904712Y-115497142D01*
X340904712Y-115497142D02*
X340904712Y-115344761D01*
X340904712Y-115344761D02*
X340942807Y-115268571D01*
X340942807Y-115268571D02*
X340980902Y-115230476D01*
X340980902Y-115230476D02*
X341057093Y-115192380D01*
X341057093Y-115192380D02*
X341209474Y-115192380D01*
X341209474Y-115192380D02*
X341285664Y-115230476D01*
X341285664Y-115230476D02*
X341323760Y-115268571D01*
X341323760Y-115268571D02*
X341361855Y-115344761D01*
X341361855Y-115344761D02*
X341361855Y-115497142D01*
X341361855Y-115497142D02*
X341323760Y-115573333D01*
X341323760Y-115573333D02*
X341285664Y-115611428D01*
X341285664Y-115611428D02*
X341209474Y-115649523D01*
X341209474Y-115649523D02*
X341057093Y-115649523D01*
X341057093Y-115649523D02*
X340980902Y-115611428D01*
X340980902Y-115611428D02*
X340942807Y-115573333D01*
X340942807Y-115573333D02*
X340904712Y-115497142D01*
D10*
X320282819Y-112797142D02*
X320282819Y-112225714D01*
X320282819Y-112511428D02*
X319282819Y-112511428D01*
X319282819Y-112511428D02*
X319425676Y-112416190D01*
X319425676Y-112416190D02*
X319520914Y-112320952D01*
X319520914Y-112320952D02*
X319568533Y-112225714D01*
X320282819Y-113225714D02*
X319282819Y-113225714D01*
X319282819Y-113225714D02*
X320282819Y-113797142D01*
X320282819Y-113797142D02*
X319282819Y-113797142D01*
X319616152Y-114701904D02*
X320282819Y-114701904D01*
X319235200Y-114463809D02*
X319949485Y-114225714D01*
X319949485Y-114225714D02*
X319949485Y-114844761D01*
X320282819Y-115749523D02*
X320282819Y-115178095D01*
X320282819Y-115463809D02*
X319282819Y-115463809D01*
X319282819Y-115463809D02*
X319425676Y-115368571D01*
X319425676Y-115368571D02*
X319520914Y-115273333D01*
X319520914Y-115273333D02*
X319568533Y-115178095D01*
X319616152Y-116606666D02*
X320282819Y-116606666D01*
X319235200Y-116368571D02*
X319949485Y-116130476D01*
X319949485Y-116130476D02*
X319949485Y-116749523D01*
X319711390Y-117273333D02*
X319663771Y-117178095D01*
X319663771Y-117178095D02*
X319616152Y-117130476D01*
X319616152Y-117130476D02*
X319520914Y-117082857D01*
X319520914Y-117082857D02*
X319473295Y-117082857D01*
X319473295Y-117082857D02*
X319378057Y-117130476D01*
X319378057Y-117130476D02*
X319330438Y-117178095D01*
X319330438Y-117178095D02*
X319282819Y-117273333D01*
X319282819Y-117273333D02*
X319282819Y-117463809D01*
X319282819Y-117463809D02*
X319330438Y-117559047D01*
X319330438Y-117559047D02*
X319378057Y-117606666D01*
X319378057Y-117606666D02*
X319473295Y-117654285D01*
X319473295Y-117654285D02*
X319520914Y-117654285D01*
X319520914Y-117654285D02*
X319616152Y-117606666D01*
X319616152Y-117606666D02*
X319663771Y-117559047D01*
X319663771Y-117559047D02*
X319711390Y-117463809D01*
X319711390Y-117463809D02*
X319711390Y-117273333D01*
X319711390Y-117273333D02*
X319759009Y-117178095D01*
X319759009Y-117178095D02*
X319806628Y-117130476D01*
X319806628Y-117130476D02*
X319901866Y-117082857D01*
X319901866Y-117082857D02*
X320092342Y-117082857D01*
X320092342Y-117082857D02*
X320187580Y-117130476D01*
X320187580Y-117130476D02*
X320235200Y-117178095D01*
X320235200Y-117178095D02*
X320282819Y-117273333D01*
X320282819Y-117273333D02*
X320282819Y-117463809D01*
X320282819Y-117463809D02*
X320235200Y-117559047D01*
X320235200Y-117559047D02*
X320187580Y-117606666D01*
X320187580Y-117606666D02*
X320092342Y-117654285D01*
X320092342Y-117654285D02*
X319901866Y-117654285D01*
X319901866Y-117654285D02*
X319806628Y-117606666D01*
X319806628Y-117606666D02*
X319759009Y-117559047D01*
X319759009Y-117559047D02*
X319711390Y-117463809D01*
X324202819Y-118488095D02*
X323202819Y-118488095D01*
X324202819Y-119059523D02*
X323631390Y-118630952D01*
X323202819Y-119059523D02*
X323774247Y-118488095D01*
D11*
X322311855Y-113668571D02*
X321511855Y-113668571D01*
X321511855Y-113668571D02*
X321511855Y-113859047D01*
X321511855Y-113859047D02*
X321549950Y-113973333D01*
X321549950Y-113973333D02*
X321626140Y-114049523D01*
X321626140Y-114049523D02*
X321702331Y-114087618D01*
X321702331Y-114087618D02*
X321854712Y-114125714D01*
X321854712Y-114125714D02*
X321968998Y-114125714D01*
X321968998Y-114125714D02*
X322121379Y-114087618D01*
X322121379Y-114087618D02*
X322197569Y-114049523D01*
X322197569Y-114049523D02*
X322273760Y-113973333D01*
X322273760Y-113973333D02*
X322311855Y-113859047D01*
X322311855Y-113859047D02*
X322311855Y-113668571D01*
X322311855Y-114887618D02*
X322311855Y-114430475D01*
X322311855Y-114659047D02*
X321511855Y-114659047D01*
X321511855Y-114659047D02*
X321626140Y-114582856D01*
X321626140Y-114582856D02*
X321702331Y-114506666D01*
X321702331Y-114506666D02*
X321740426Y-114430475D01*
X321511855Y-115154285D02*
X321511855Y-115687619D01*
X321511855Y-115687619D02*
X322311855Y-115344761D01*
D12*
G04 #@! TO.C,D13*
X282848000Y-112940000D02*
X282848000Y-116940000D01*
X282848000Y-116240000D02*
X284848000Y-116240000D01*
X282848000Y-116340000D02*
X284848000Y-116340000D01*
X282848000Y-116440000D02*
X284848000Y-116440000D01*
X282848000Y-116940000D02*
X284848000Y-116940000D01*
X283848000Y-112940000D02*
X283848000Y-111130000D01*
X283848000Y-116940000D02*
X283848000Y-118750000D01*
X284848000Y-112940000D02*
X282848000Y-112940000D01*
X284848000Y-116940000D02*
X284848000Y-112940000D01*
G04 #@! TO.C,D2*
X168548000Y-112940000D02*
X168548000Y-116940000D01*
X168548000Y-116240000D02*
X170548000Y-116240000D01*
X168548000Y-116340000D02*
X170548000Y-116340000D01*
X168548000Y-116440000D02*
X170548000Y-116440000D01*
X168548000Y-116940000D02*
X170548000Y-116940000D01*
X169548000Y-112940000D02*
X169548000Y-111130000D01*
X169548000Y-116940000D02*
X169548000Y-118750000D01*
X170548000Y-112940000D02*
X168548000Y-112940000D01*
X170548000Y-116940000D02*
X170548000Y-112940000D01*
G04 #@! TO.C,D16*
X311423000Y-93890000D02*
X311423000Y-97890000D01*
X311423000Y-97190000D02*
X313423000Y-97190000D01*
X311423000Y-97290000D02*
X313423000Y-97290000D01*
X311423000Y-97390000D02*
X313423000Y-97390000D01*
X311423000Y-97890000D02*
X313423000Y-97890000D01*
X312423000Y-93890000D02*
X312423000Y-92080000D01*
X312423000Y-97890000D02*
X312423000Y-99700000D01*
X313423000Y-93890000D02*
X311423000Y-93890000D01*
X313423000Y-97890000D02*
X313423000Y-93890000D01*
G04 #@! TO.C,D8*
X158705500Y-93890000D02*
X158705500Y-97890000D01*
X158705500Y-97190000D02*
X160705500Y-97190000D01*
X158705500Y-97290000D02*
X160705500Y-97290000D01*
X158705500Y-97390000D02*
X160705500Y-97390000D01*
X158705500Y-97890000D02*
X160705500Y-97890000D01*
X159705500Y-93890000D02*
X159705500Y-92080000D01*
X159705500Y-97890000D02*
X159705500Y-99700000D01*
X160705500Y-93890000D02*
X158705500Y-93890000D01*
X160705500Y-97890000D02*
X160705500Y-93890000D01*
G04 #@! TO.C,D15*
X301898000Y-112940000D02*
X301898000Y-116940000D01*
X301898000Y-116240000D02*
X303898000Y-116240000D01*
X301898000Y-116340000D02*
X303898000Y-116340000D01*
X301898000Y-116440000D02*
X303898000Y-116440000D01*
X301898000Y-116940000D02*
X303898000Y-116940000D01*
X302898000Y-112940000D02*
X302898000Y-111130000D01*
X302898000Y-116940000D02*
X302898000Y-118750000D01*
X303898000Y-112940000D02*
X301898000Y-112940000D01*
X303898000Y-116940000D02*
X303898000Y-112940000D01*
G04 #@! TO.C,D3*
X187598000Y-112940000D02*
X187598000Y-116940000D01*
X187598000Y-116240000D02*
X189598000Y-116240000D01*
X187598000Y-116340000D02*
X189598000Y-116340000D01*
X187598000Y-116440000D02*
X189598000Y-116440000D01*
X187598000Y-116940000D02*
X189598000Y-116940000D01*
X188598000Y-112940000D02*
X188598000Y-111130000D01*
X188598000Y-116940000D02*
X188598000Y-118750000D01*
X189598000Y-112940000D02*
X187598000Y-112940000D01*
X189598000Y-116940000D02*
X189598000Y-112940000D01*
G04 #@! TO.C,D28*
X116160500Y-86746250D02*
X116160500Y-90746250D01*
X116160500Y-90046250D02*
X118160500Y-90046250D01*
X116160500Y-90146250D02*
X118160500Y-90146250D01*
X116160500Y-90246250D02*
X118160500Y-90246250D01*
X116160500Y-90746250D02*
X118160500Y-90746250D01*
X117160500Y-86746250D02*
X117160500Y-84936250D01*
X117160500Y-90746250D02*
X117160500Y-92556250D01*
X118160500Y-86746250D02*
X116160500Y-86746250D01*
X118160500Y-90746250D02*
X118160500Y-86746250D01*
G04 #@! TO.C,D22*
X378098000Y-112940000D02*
X378098000Y-116940000D01*
X378098000Y-116240000D02*
X380098000Y-116240000D01*
X378098000Y-116340000D02*
X380098000Y-116340000D01*
X378098000Y-116440000D02*
X380098000Y-116440000D01*
X378098000Y-116940000D02*
X380098000Y-116940000D01*
X379098000Y-112940000D02*
X379098000Y-111130000D01*
X379098000Y-116940000D02*
X379098000Y-118750000D01*
X380098000Y-112940000D02*
X378098000Y-112940000D01*
X380098000Y-116940000D02*
X380098000Y-112940000D01*
G04 #@! TO.C,D20*
X359048000Y-112940000D02*
X359048000Y-116940000D01*
X359048000Y-116240000D02*
X361048000Y-116240000D01*
X359048000Y-116340000D02*
X361048000Y-116340000D01*
X359048000Y-116440000D02*
X361048000Y-116440000D01*
X359048000Y-116940000D02*
X361048000Y-116940000D01*
X360048000Y-112940000D02*
X360048000Y-111130000D01*
X360048000Y-116940000D02*
X360048000Y-118750000D01*
X361048000Y-112940000D02*
X359048000Y-112940000D01*
X361048000Y-116940000D02*
X361048000Y-112940000D01*
G04 #@! TO.C,D21*
X368573000Y-93890000D02*
X368573000Y-97890000D01*
X368573000Y-97190000D02*
X370573000Y-97190000D01*
X368573000Y-97290000D02*
X370573000Y-97290000D01*
X368573000Y-97390000D02*
X370573000Y-97390000D01*
X368573000Y-97890000D02*
X370573000Y-97890000D01*
X369573000Y-93890000D02*
X369573000Y-92080000D01*
X369573000Y-97890000D02*
X369573000Y-99700000D01*
X370573000Y-93890000D02*
X368573000Y-93890000D01*
X370573000Y-97890000D02*
X370573000Y-93890000D01*
G04 #@! TO.C,D6*
X244748000Y-112940000D02*
X244748000Y-116940000D01*
X244748000Y-116240000D02*
X246748000Y-116240000D01*
X244748000Y-116340000D02*
X246748000Y-116340000D01*
X244748000Y-116440000D02*
X246748000Y-116440000D01*
X244748000Y-116940000D02*
X246748000Y-116940000D01*
X245748000Y-112940000D02*
X245748000Y-111130000D01*
X245748000Y-116940000D02*
X245748000Y-118750000D01*
X246748000Y-112940000D02*
X244748000Y-112940000D01*
X246748000Y-116940000D02*
X246748000Y-112940000D01*
G04 #@! TO.C,D10*
X216173000Y-93890000D02*
X216173000Y-97890000D01*
X216173000Y-97190000D02*
X218173000Y-97190000D01*
X216173000Y-97290000D02*
X218173000Y-97290000D01*
X216173000Y-97390000D02*
X218173000Y-97390000D01*
X216173000Y-97890000D02*
X218173000Y-97890000D01*
X217173000Y-93890000D02*
X217173000Y-92080000D01*
X217173000Y-97890000D02*
X217173000Y-99700000D01*
X218173000Y-93890000D02*
X216173000Y-93890000D01*
X218173000Y-97890000D02*
X218173000Y-93890000D01*
G04 #@! TO.C,D25*
X59010500Y-86746250D02*
X59010500Y-90746250D01*
X59010500Y-90046250D02*
X61010500Y-90046250D01*
X59010500Y-90146250D02*
X61010500Y-90146250D01*
X59010500Y-90246250D02*
X61010500Y-90246250D01*
X59010500Y-90746250D02*
X61010500Y-90746250D01*
X60010500Y-86746250D02*
X60010500Y-84936250D01*
X60010500Y-90746250D02*
X60010500Y-92556250D01*
X61010500Y-86746250D02*
X59010500Y-86746250D01*
X61010500Y-90746250D02*
X61010500Y-86746250D01*
G04 #@! TO.C,D24*
X397148000Y-112940000D02*
X397148000Y-116940000D01*
X397148000Y-116240000D02*
X399148000Y-116240000D01*
X397148000Y-116340000D02*
X399148000Y-116340000D01*
X397148000Y-116440000D02*
X399148000Y-116440000D01*
X397148000Y-116940000D02*
X399148000Y-116940000D01*
X398148000Y-112940000D02*
X398148000Y-111130000D01*
X398148000Y-116940000D02*
X398148000Y-118750000D01*
X399148000Y-112940000D02*
X397148000Y-112940000D01*
X399148000Y-116940000D02*
X399148000Y-112940000D01*
G04 #@! TO.C,D23*
X387623000Y-93890000D02*
X387623000Y-97890000D01*
X387623000Y-97190000D02*
X389623000Y-97190000D01*
X387623000Y-97290000D02*
X389623000Y-97290000D01*
X387623000Y-97390000D02*
X389623000Y-97390000D01*
X387623000Y-97890000D02*
X389623000Y-97890000D01*
X388623000Y-93890000D02*
X388623000Y-92080000D01*
X388623000Y-97890000D02*
X388623000Y-99700000D01*
X389623000Y-93890000D02*
X387623000Y-93890000D01*
X389623000Y-97890000D02*
X389623000Y-93890000D01*
G04 #@! TO.C,D4*
X206648000Y-112940000D02*
X206648000Y-116940000D01*
X206648000Y-116240000D02*
X208648000Y-116240000D01*
X206648000Y-116340000D02*
X208648000Y-116340000D01*
X206648000Y-116440000D02*
X208648000Y-116440000D01*
X206648000Y-116940000D02*
X208648000Y-116940000D01*
X207648000Y-112940000D02*
X207648000Y-111130000D01*
X207648000Y-116940000D02*
X207648000Y-118750000D01*
X208648000Y-112940000D02*
X206648000Y-112940000D01*
X208648000Y-116940000D02*
X208648000Y-112940000D01*
G04 #@! TO.C,D19*
X349523000Y-93890000D02*
X349523000Y-97890000D01*
X349523000Y-97190000D02*
X351523000Y-97190000D01*
X349523000Y-97290000D02*
X351523000Y-97290000D01*
X349523000Y-97390000D02*
X351523000Y-97390000D01*
X349523000Y-97890000D02*
X351523000Y-97890000D01*
X350523000Y-93890000D02*
X350523000Y-92080000D01*
X350523000Y-97890000D02*
X350523000Y-99700000D01*
X351523000Y-93890000D02*
X349523000Y-93890000D01*
X351523000Y-97890000D02*
X351523000Y-93890000D01*
G04 #@! TO.C,D9*
X177755500Y-93890000D02*
X177755500Y-97890000D01*
X177755500Y-97190000D02*
X179755500Y-97190000D01*
X177755500Y-97290000D02*
X179755500Y-97290000D01*
X177755500Y-97390000D02*
X179755500Y-97390000D01*
X177755500Y-97890000D02*
X179755500Y-97890000D01*
X178755500Y-93890000D02*
X178755500Y-92080000D01*
X178755500Y-97890000D02*
X178755500Y-99700000D01*
X179755500Y-93890000D02*
X177755500Y-93890000D01*
X179755500Y-97890000D02*
X179755500Y-93890000D01*
G04 #@! TO.C,D12*
X254273000Y-93890000D02*
X254273000Y-97890000D01*
X254273000Y-97190000D02*
X256273000Y-97190000D01*
X254273000Y-97290000D02*
X256273000Y-97290000D01*
X254273000Y-97390000D02*
X256273000Y-97390000D01*
X254273000Y-97890000D02*
X256273000Y-97890000D01*
X255273000Y-93890000D02*
X255273000Y-92080000D01*
X255273000Y-97890000D02*
X255273000Y-99700000D01*
X256273000Y-93890000D02*
X254273000Y-93890000D01*
X256273000Y-97890000D02*
X256273000Y-93890000D01*
G04 #@! TO.C,D14*
X292373000Y-93890000D02*
X292373000Y-97890000D01*
X292373000Y-97190000D02*
X294373000Y-97190000D01*
X292373000Y-97290000D02*
X294373000Y-97290000D01*
X292373000Y-97390000D02*
X294373000Y-97390000D01*
X292373000Y-97890000D02*
X294373000Y-97890000D01*
X293373000Y-93890000D02*
X293373000Y-92080000D01*
X293373000Y-97890000D02*
X293373000Y-99700000D01*
X294373000Y-93890000D02*
X292373000Y-93890000D01*
X294373000Y-97890000D02*
X294373000Y-93890000D01*
G04 #@! TO.C,D5*
X225698000Y-112940000D02*
X225698000Y-116940000D01*
X225698000Y-116240000D02*
X227698000Y-116240000D01*
X225698000Y-116340000D02*
X227698000Y-116340000D01*
X225698000Y-116440000D02*
X227698000Y-116440000D01*
X225698000Y-116940000D02*
X227698000Y-116940000D01*
X226698000Y-112940000D02*
X226698000Y-111130000D01*
X226698000Y-116940000D02*
X226698000Y-118750000D01*
X227698000Y-112940000D02*
X225698000Y-112940000D01*
X227698000Y-116940000D02*
X227698000Y-112940000D01*
G04 #@! TO.C,D26*
X78060500Y-86746250D02*
X78060500Y-90746250D01*
X78060500Y-90046250D02*
X80060500Y-90046250D01*
X78060500Y-90146250D02*
X80060500Y-90146250D01*
X78060500Y-90246250D02*
X80060500Y-90246250D01*
X78060500Y-90746250D02*
X80060500Y-90746250D01*
X79060500Y-86746250D02*
X79060500Y-84936250D01*
X79060500Y-90746250D02*
X79060500Y-92556250D01*
X80060500Y-86746250D02*
X78060500Y-86746250D01*
X80060500Y-90746250D02*
X80060500Y-86746250D01*
G04 #@! TO.C,D11*
X235223000Y-93890000D02*
X235223000Y-97890000D01*
X235223000Y-97190000D02*
X237223000Y-97190000D01*
X235223000Y-97290000D02*
X237223000Y-97290000D01*
X235223000Y-97390000D02*
X237223000Y-97390000D01*
X235223000Y-97890000D02*
X237223000Y-97890000D01*
X236223000Y-93890000D02*
X236223000Y-92080000D01*
X236223000Y-97890000D02*
X236223000Y-99700000D01*
X237223000Y-93890000D02*
X235223000Y-93890000D01*
X237223000Y-97890000D02*
X237223000Y-93890000D01*
G04 #@! TO.C,D1*
X149498000Y-112940000D02*
X149498000Y-116940000D01*
X149498000Y-116240000D02*
X151498000Y-116240000D01*
X149498000Y-116340000D02*
X151498000Y-116340000D01*
X149498000Y-116440000D02*
X151498000Y-116440000D01*
X149498000Y-116940000D02*
X151498000Y-116940000D01*
X150498000Y-112940000D02*
X150498000Y-111130000D01*
X150498000Y-116940000D02*
X150498000Y-118750000D01*
X151498000Y-112940000D02*
X149498000Y-112940000D01*
X151498000Y-116940000D02*
X151498000Y-112940000D01*
G04 #@! TO.C,D27*
X97110500Y-86746250D02*
X97110500Y-90746250D01*
X97110500Y-90046250D02*
X99110500Y-90046250D01*
X97110500Y-90146250D02*
X99110500Y-90146250D01*
X97110500Y-90246250D02*
X99110500Y-90246250D01*
X97110500Y-90746250D02*
X99110500Y-90746250D01*
X98110500Y-86746250D02*
X98110500Y-84936250D01*
X98110500Y-90746250D02*
X98110500Y-92556250D01*
X99110500Y-86746250D02*
X97110500Y-86746250D01*
X99110500Y-90746250D02*
X99110500Y-86746250D01*
G04 #@! TO.C,D7*
X263798000Y-112940000D02*
X263798000Y-116940000D01*
X263798000Y-116240000D02*
X265798000Y-116240000D01*
X263798000Y-116340000D02*
X265798000Y-116340000D01*
X263798000Y-116440000D02*
X265798000Y-116440000D01*
X263798000Y-116940000D02*
X265798000Y-116940000D01*
X264798000Y-112940000D02*
X264798000Y-111130000D01*
X264798000Y-116940000D02*
X264798000Y-118750000D01*
X265798000Y-112940000D02*
X263798000Y-112940000D01*
X265798000Y-116940000D02*
X265798000Y-112940000D01*
G04 #@! TO.C,D18*
X339998000Y-112940000D02*
X339998000Y-116940000D01*
X339998000Y-116240000D02*
X341998000Y-116240000D01*
X339998000Y-116340000D02*
X341998000Y-116340000D01*
X339998000Y-116440000D02*
X341998000Y-116440000D01*
X339998000Y-116940000D02*
X341998000Y-116940000D01*
X340998000Y-112940000D02*
X340998000Y-111130000D01*
X340998000Y-116940000D02*
X340998000Y-118750000D01*
X341998000Y-112940000D02*
X339998000Y-112940000D01*
X341998000Y-116940000D02*
X341998000Y-112940000D01*
G04 #@! TO.C,D17*
X320948000Y-112940000D02*
X320948000Y-116940000D01*
X320948000Y-116240000D02*
X322948000Y-116240000D01*
X320948000Y-116340000D02*
X322948000Y-116340000D01*
X320948000Y-116440000D02*
X322948000Y-116440000D01*
X320948000Y-116940000D02*
X322948000Y-116940000D01*
X321948000Y-112940000D02*
X321948000Y-111130000D01*
X321948000Y-116940000D02*
X321948000Y-118750000D01*
X322948000Y-112940000D02*
X320948000Y-112940000D01*
X322948000Y-116940000D02*
X322948000Y-112940000D01*
G04 #@! TD*
M02*
