M48
; DRILL file {KiCad 8.0.3} date 2024-06-27T13:33:53-0700
; FORMAT={-:-/ absolute / metric / decimal}
; #@! TF.CreationDate,2024-06-27T13:33:53-07:00
; #@! TF.GenerationSoftware,Kicad,Pcbnew,8.0.3
; #@! TF.FileFunction,Plated,1,2,PTH
FMAT,2
METRIC
; #@! TA.AperFunction,Plated,PTH,ViaDrill
T1C0.300
; #@! TA.AperFunction,Plated,PTH,ComponentDrill
T2C0.800
; #@! TA.AperFunction,Plated,PTH,ComponentDrill
T3C0.889
; #@! TA.AperFunction,Plated,PTH,ComponentDrill
T4C0.900
; #@! TA.AperFunction,Plated,PTH,ComponentDrill
T5C1.020
; #@! TA.AperFunction,Plated,PTH,ComponentDrill
T6C1.397
; #@! TA.AperFunction,Plated,PTH,ComponentDrill
T7C1.500
%
G90
G05
T1
X74.298Y-82.869
X111.235Y-64.668
X115.169Y-83.669
X124.292Y-75.41
X124.304Y-87.759
X145.736Y-82.469
X155.26Y-87.317
T2
X60.011Y-84.936
X60.011Y-92.556
X79.06Y-84.936
X79.06Y-92.556
X98.111Y-84.936
X98.111Y-92.556
X117.16Y-84.936
X117.16Y-92.556
X150.498Y-111.13
X150.498Y-118.75
X159.706Y-92.08
X159.706Y-99.7
X169.548Y-111.13
X169.548Y-118.75
X178.755Y-92.08
X178.755Y-99.7
X188.598Y-111.13
X188.598Y-118.75
X207.648Y-111.13
X207.648Y-118.75
X217.173Y-92.08
X217.173Y-99.7
X226.698Y-111.13
X226.698Y-118.75
X236.223Y-92.08
X236.223Y-99.7
X245.748Y-111.13
X245.748Y-118.75
X255.273Y-92.08
X255.273Y-99.7
X264.798Y-111.13
X264.798Y-118.75
X283.848Y-111.13
X283.848Y-118.75
X293.373Y-92.08
X293.373Y-99.7
X302.898Y-111.13
X302.898Y-118.75
X312.423Y-92.08
X312.423Y-99.7
X321.948Y-111.13
X321.948Y-118.75
X340.998Y-111.13
X340.998Y-118.75
X350.523Y-92.08
X350.523Y-99.7
X360.048Y-111.13
X360.048Y-118.75
X369.573Y-92.08
X369.573Y-99.7
X379.098Y-111.13
X379.098Y-118.75
X388.623Y-92.08
X388.623Y-99.7
X398.148Y-111.13
X398.148Y-118.75
T3
X68.424Y-115.734
X68.424Y-118.274
X68.424Y-120.814
X76.044Y-128.434
X78.584Y-128.434
X81.124Y-128.434
T4
X75.409Y-105.574
X75.409Y-110.654
X81.759Y-105.574
X81.759Y-110.654
T5
X53.819Y-56.361
X53.819Y-74.141
X56.359Y-56.361
X56.359Y-74.141
X58.899Y-56.361
X58.899Y-74.141
X61.439Y-56.361
X61.439Y-74.141
X63.979Y-56.361
X63.979Y-74.141
X66.519Y-56.361
X66.519Y-74.141
X69.059Y-56.361
X69.059Y-74.141
X71.599Y-56.361
X71.599Y-74.141
X74.139Y-56.361
X74.139Y-74.141
X76.679Y-56.361
X76.679Y-74.141
X79.219Y-56.361
X79.219Y-74.141
X81.759Y-56.361
X81.759Y-74.141
X84.299Y-56.361
X84.299Y-74.141
X86.839Y-56.361
X86.839Y-74.141
X89.379Y-56.361
X89.379Y-74.141
X91.919Y-56.361
X91.919Y-74.141
X94.459Y-56.361
X94.459Y-74.141
X96.999Y-56.361
X96.999Y-74.141
X99.539Y-56.361
X99.539Y-74.141
X101.849Y-62.711
X101.849Y-65.251
X101.849Y-67.791
X102.079Y-56.361
X102.079Y-74.141
T6
X70.964Y-111.606
X70.964Y-124.941
X86.204Y-111.606
X86.204Y-124.941
T7
X46.675Y-87.159
X53.026Y-84.619
X65.725Y-87.159
X72.075Y-84.619
X84.775Y-87.159
X91.126Y-84.619
X103.825Y-87.159
X110.175Y-84.619
X137.163Y-113.352
X143.513Y-110.812
X146.37Y-94.302
X152.72Y-91.763
X156.213Y-113.352
X162.563Y-110.812
X165.421Y-94.302
X171.77Y-91.763
X175.263Y-113.352
X181.613Y-110.812
X194.313Y-113.352
X200.663Y-110.812
X203.838Y-94.302
X210.188Y-91.763
X213.363Y-113.352
X219.713Y-110.812
X222.888Y-94.302
X229.238Y-91.763
X232.413Y-113.352
X238.763Y-110.812
X241.938Y-94.302
X248.288Y-91.763
X251.463Y-113.352
X257.813Y-110.812
X270.513Y-113.352
X276.863Y-110.812
X280.038Y-94.302
X286.388Y-91.763
X289.563Y-113.352
X295.913Y-110.812
X299.088Y-94.302
X305.438Y-91.763
X308.613Y-113.352
X314.963Y-110.812
X327.663Y-113.352
X334.013Y-110.812
X337.188Y-94.302
X343.538Y-91.763
X346.713Y-113.352
X353.063Y-110.812
X356.238Y-94.302
X362.588Y-91.763
X365.763Y-113.352
X372.113Y-110.812
X375.288Y-94.302
X381.638Y-91.763
X384.813Y-113.352
X391.163Y-110.812
M30
