G04 #@! TF.GenerationSoftware,KiCad,Pcbnew,8.0.3*
G04 #@! TF.CreationDate,2024-06-27T13:33:53-07:00*
G04 #@! TF.ProjectId,new midi keyboard,6e657720-6d69-4646-9920-6b6579626f61,rev?*
G04 #@! TF.SameCoordinates,Original*
G04 #@! TF.FileFunction,OtherDrawing,Comment*
%FSLAX46Y46*%
G04 Gerber Fmt 4.6, Leading zero omitted, Abs format (unit mm)*
G04 Created by KiCad (PCBNEW 8.0.3) date 2024-06-27 13:33:53*
%MOMM*%
%LPD*%
G01*
G04 APERTURE LIST*
%ADD10C,0.100000*%
G04 APERTURE END LIST*
D10*
G04 #@! TO.C,SW20*
X340998000Y-106367500D02*
X340998000Y-125417500D01*
X340998000Y-125417500D02*
X360048000Y-125417500D01*
X360048000Y-106367500D02*
X340998000Y-106367500D01*
X360048000Y-125417500D02*
X360048000Y-106367500D01*
G04 #@! TO.C,SW13*
X264798000Y-106367500D02*
X264798000Y-125417500D01*
X264798000Y-125417500D02*
X283848000Y-125417500D01*
X283848000Y-106367500D02*
X264798000Y-106367500D01*
X283848000Y-125417500D02*
X283848000Y-106367500D01*
G04 #@! TO.C,U1*
X57749250Y-68951250D02*
X53049250Y-68951250D01*
X53049250Y-61551250D01*
X57749250Y-61551250D01*
X57749250Y-68951250D01*
G36*
X57749250Y-68951250D02*
G01*
X53049250Y-68951250D01*
X53049250Y-61551250D01*
X57749250Y-61551250D01*
X57749250Y-68951250D01*
G37*
X61449250Y-68751250D02*
X59449250Y-68751250D01*
X59449250Y-66751250D01*
X61449250Y-66751250D01*
X61449250Y-68751250D01*
G36*
X61449250Y-68751250D02*
G01*
X59449250Y-68751250D01*
X59449250Y-66751250D01*
X61449250Y-66751250D01*
X61449250Y-68751250D01*
G37*
X63949250Y-68751250D02*
X61949250Y-68751250D01*
X61949250Y-66751250D01*
X63949250Y-66751250D01*
X63949250Y-68751250D01*
G36*
X63949250Y-68751250D02*
G01*
X61949250Y-68751250D01*
X61949250Y-66751250D01*
X63949250Y-66751250D01*
X63949250Y-68751250D01*
G37*
X66449250Y-68751250D02*
X64449250Y-68751250D01*
X64449250Y-66751250D01*
X66449250Y-66751250D01*
X66449250Y-68751250D01*
G36*
X66449250Y-68751250D02*
G01*
X64449250Y-68751250D01*
X64449250Y-66751250D01*
X66449250Y-66751250D01*
X66449250Y-68751250D01*
G37*
G04 #@! TO.C,SW15*
X283848000Y-106367500D02*
X283848000Y-125417500D01*
X283848000Y-125417500D02*
X302898000Y-125417500D01*
X302898000Y-106367500D02*
X283848000Y-106367500D01*
X302898000Y-125417500D02*
X302898000Y-106367500D01*
G04 #@! TO.C,SW24*
X379098000Y-106367500D02*
X379098000Y-125417500D01*
X379098000Y-125417500D02*
X398148000Y-125417500D01*
X398148000Y-106367500D02*
X379098000Y-106367500D01*
X398148000Y-125417500D02*
X398148000Y-106367500D01*
G04 #@! TO.C,SW1*
X131448000Y-106367500D02*
X131448000Y-125417500D01*
X131448000Y-125417500D02*
X150498000Y-125417500D01*
X150498000Y-106367500D02*
X131448000Y-106367500D01*
X150498000Y-125417500D02*
X150498000Y-106367500D01*
G04 #@! TO.C,SW11*
X217173000Y-87317500D02*
X217173000Y-106367500D01*
X217173000Y-106367500D02*
X236223000Y-106367500D01*
X236223000Y-87317500D02*
X217173000Y-87317500D01*
X236223000Y-106367500D02*
X236223000Y-87317500D01*
G04 #@! TO.C,SW3*
X169548000Y-106367500D02*
X169548000Y-125417500D01*
X169548000Y-125417500D02*
X188598000Y-125417500D01*
X188598000Y-106367500D02*
X169548000Y-106367500D01*
X188598000Y-125417500D02*
X188598000Y-106367500D01*
G04 #@! TO.C,SW18*
X321948000Y-106367500D02*
X321948000Y-125417500D01*
X321948000Y-125417500D02*
X340998000Y-125417500D01*
X340998000Y-106367500D02*
X321948000Y-106367500D01*
X340998000Y-125417500D02*
X340998000Y-106367500D01*
G04 #@! TO.C,SW12*
X236223000Y-87317500D02*
X236223000Y-106367500D01*
X236223000Y-106367500D02*
X255273000Y-106367500D01*
X255273000Y-87317500D02*
X236223000Y-87317500D01*
X255273000Y-106367500D02*
X255273000Y-87317500D01*
G04 #@! TO.C,SW4*
X188598000Y-106367500D02*
X188598000Y-125417500D01*
X188598000Y-125417500D02*
X207648000Y-125417500D01*
X207648000Y-106367500D02*
X188598000Y-106367500D01*
X207648000Y-125417500D02*
X207648000Y-106367500D01*
G04 #@! TO.C,SW19*
X331473000Y-87317500D02*
X331473000Y-106367500D01*
X331473000Y-106367500D02*
X350523000Y-106367500D01*
X350523000Y-87317500D02*
X331473000Y-87317500D01*
X350523000Y-106367500D02*
X350523000Y-87317500D01*
G04 #@! TO.C,SW25*
X40960500Y-80173750D02*
X40960500Y-99223750D01*
X40960500Y-99223750D02*
X60010500Y-99223750D01*
X60010500Y-80173750D02*
X40960500Y-80173750D01*
X60010500Y-99223750D02*
X60010500Y-80173750D01*
G04 #@! TO.C,SW21*
X350523000Y-87317500D02*
X350523000Y-106367500D01*
X350523000Y-106367500D02*
X369573000Y-106367500D01*
X369573000Y-87317500D02*
X350523000Y-87317500D01*
X369573000Y-106367500D02*
X369573000Y-87317500D01*
G04 #@! TO.C,SW7*
X245748000Y-106367500D02*
X245748000Y-125417500D01*
X245748000Y-125417500D02*
X264798000Y-125417500D01*
X264798000Y-106367500D02*
X245748000Y-106367500D01*
X264798000Y-125417500D02*
X264798000Y-106367500D01*
G04 #@! TO.C,SW14*
X274323000Y-87317500D02*
X274323000Y-106367500D01*
X274323000Y-106367500D02*
X293373000Y-106367500D01*
X293373000Y-87317500D02*
X274323000Y-87317500D01*
X293373000Y-106367500D02*
X293373000Y-87317500D01*
G04 #@! TO.C,SW16*
X293373000Y-87317500D02*
X293373000Y-106367500D01*
X293373000Y-106367500D02*
X312423000Y-106367500D01*
X312423000Y-87317500D02*
X293373000Y-87317500D01*
X312423000Y-106367500D02*
X312423000Y-87317500D01*
G04 #@! TO.C,SW5*
X207648000Y-106367500D02*
X207648000Y-125417500D01*
X207648000Y-125417500D02*
X226698000Y-125417500D01*
X226698000Y-106367500D02*
X207648000Y-106367500D01*
X226698000Y-125417500D02*
X226698000Y-106367500D01*
G04 #@! TO.C,SW26*
X60010500Y-80173750D02*
X60010500Y-99223750D01*
X60010500Y-99223750D02*
X79060500Y-99223750D01*
X79060500Y-80173750D02*
X60010500Y-80173750D01*
X79060500Y-99223750D02*
X79060500Y-80173750D01*
G04 #@! TO.C,SW10*
X198123000Y-87317500D02*
X198123000Y-106367500D01*
X198123000Y-106367500D02*
X217173000Y-106367500D01*
X217173000Y-87317500D02*
X198123000Y-87317500D01*
X217173000Y-106367500D02*
X217173000Y-87317500D01*
G04 #@! TO.C,SW22*
X360048000Y-106367500D02*
X360048000Y-125417500D01*
X360048000Y-125417500D02*
X379098000Y-125417500D01*
X379098000Y-106367500D02*
X360048000Y-106367500D01*
X379098000Y-125417500D02*
X379098000Y-106367500D01*
G04 #@! TO.C,SW9*
X159705500Y-87317500D02*
X159705500Y-106367500D01*
X159705500Y-106367500D02*
X178755500Y-106367500D01*
X178755500Y-87317500D02*
X159705500Y-87317500D01*
X178755500Y-106367500D02*
X178755500Y-87317500D01*
G04 #@! TO.C,SW2*
X150498000Y-106367500D02*
X150498000Y-125417500D01*
X150498000Y-125417500D02*
X169548000Y-125417500D01*
X169548000Y-106367500D02*
X150498000Y-106367500D01*
X169548000Y-125417500D02*
X169548000Y-106367500D01*
G04 #@! TO.C,SW28*
X98110500Y-80173750D02*
X98110500Y-99223750D01*
X98110500Y-99223750D02*
X117160500Y-99223750D01*
X117160500Y-80173750D02*
X98110500Y-80173750D01*
X117160500Y-99223750D02*
X117160500Y-80173750D01*
G04 #@! TO.C,SW27*
X79060500Y-80173750D02*
X79060500Y-99223750D01*
X79060500Y-99223750D02*
X98110500Y-99223750D01*
X98110500Y-80173750D02*
X79060500Y-80173750D01*
X98110500Y-99223750D02*
X98110500Y-80173750D01*
G04 #@! TO.C,SW8*
X140655500Y-87317500D02*
X140655500Y-106367500D01*
X140655500Y-106367500D02*
X159705500Y-106367500D01*
X159705500Y-87317500D02*
X140655500Y-87317500D01*
X159705500Y-106367500D02*
X159705500Y-87317500D01*
G04 #@! TO.C,SW23*
X369573000Y-87317500D02*
X369573000Y-106367500D01*
X369573000Y-106367500D02*
X388623000Y-106367500D01*
X388623000Y-87317500D02*
X369573000Y-87317500D01*
X388623000Y-106367500D02*
X388623000Y-87317500D01*
G04 #@! TO.C,SW17*
X302898000Y-106367500D02*
X302898000Y-125417500D01*
X302898000Y-125417500D02*
X321948000Y-125417500D01*
X321948000Y-106367500D02*
X302898000Y-106367500D01*
X321948000Y-125417500D02*
X321948000Y-106367500D01*
G04 #@! TO.C,SW6*
X226698000Y-106367500D02*
X226698000Y-125417500D01*
X226698000Y-125417500D02*
X245748000Y-125417500D01*
X245748000Y-106367500D02*
X226698000Y-106367500D01*
X245748000Y-125417500D02*
X245748000Y-106367500D01*
G04 #@! TD*
M02*
