G04 #@! TF.GenerationSoftware,KiCad,Pcbnew,8.0.3*
G04 #@! TF.CreationDate,2024-06-27T13:33:53-07:00*
G04 #@! TF.ProjectId,new midi keyboard,6e657720-6d69-4646-9920-6b6579626f61,rev?*
G04 #@! TF.SameCoordinates,Original*
G04 #@! TF.FileFunction,Legend,Bot*
G04 #@! TF.FilePolarity,Positive*
%FSLAX46Y46*%
G04 Gerber Fmt 4.6, Leading zero omitted, Abs format (unit mm)*
G04 Created by KiCad (PCBNEW 8.0.3) date 2024-06-27 13:33:53*
%MOMM*%
%LPD*%
G01*
G04 APERTURE LIST*
%ADD10C,0.150000*%
%ADD11C,0.120000*%
%ADD12C,1.982000*%
%ADD13C,2.490000*%
%ADD14C,1.750000*%
%ADD15C,4.000000*%
%ADD16C,2.500000*%
%ADD17O,1.700000X1.700000*%
%ADD18R,1.700000X1.700000*%
%ADD19R,1.600000X1.600000*%
%ADD20O,1.600000X1.600000*%
G04 APERTURE END LIST*
D10*
X73749640Y-58758868D02*
X73711545Y-58682678D01*
X73711545Y-58682678D02*
X73711545Y-58568392D01*
X73711545Y-58568392D02*
X73749640Y-58454106D01*
X73749640Y-58454106D02*
X73825830Y-58377916D01*
X73825830Y-58377916D02*
X73902021Y-58339821D01*
X73902021Y-58339821D02*
X74054402Y-58301725D01*
X74054402Y-58301725D02*
X74168688Y-58301725D01*
X74168688Y-58301725D02*
X74321069Y-58339821D01*
X74321069Y-58339821D02*
X74397259Y-58377916D01*
X74397259Y-58377916D02*
X74473450Y-58454106D01*
X74473450Y-58454106D02*
X74511545Y-58568392D01*
X74511545Y-58568392D02*
X74511545Y-58644583D01*
X74511545Y-58644583D02*
X74473450Y-58758868D01*
X74473450Y-58758868D02*
X74435354Y-58796964D01*
X74435354Y-58796964D02*
X74168688Y-58796964D01*
X74168688Y-58796964D02*
X74168688Y-58644583D01*
X74511545Y-59139821D02*
X73711545Y-59139821D01*
X73711545Y-59139821D02*
X73711545Y-59444583D01*
X73711545Y-59444583D02*
X73749640Y-59520773D01*
X73749640Y-59520773D02*
X73787735Y-59558868D01*
X73787735Y-59558868D02*
X73863926Y-59596964D01*
X73863926Y-59596964D02*
X73978211Y-59596964D01*
X73978211Y-59596964D02*
X74054402Y-59558868D01*
X74054402Y-59558868D02*
X74092497Y-59520773D01*
X74092497Y-59520773D02*
X74130592Y-59444583D01*
X74130592Y-59444583D02*
X74130592Y-59139821D01*
X73787735Y-59901725D02*
X73749640Y-59939821D01*
X73749640Y-59939821D02*
X73711545Y-60016011D01*
X73711545Y-60016011D02*
X73711545Y-60206487D01*
X73711545Y-60206487D02*
X73749640Y-60282678D01*
X73749640Y-60282678D02*
X73787735Y-60320773D01*
X73787735Y-60320773D02*
X73863926Y-60358868D01*
X73863926Y-60358868D02*
X73940116Y-60358868D01*
X73940116Y-60358868D02*
X74054402Y-60320773D01*
X74054402Y-60320773D02*
X74511545Y-59863630D01*
X74511545Y-59863630D02*
X74511545Y-60358868D01*
X73711545Y-60625535D02*
X73711545Y-61158869D01*
X73711545Y-61158869D02*
X74511545Y-60816011D01*
X99139640Y-58758868D02*
X99101545Y-58682678D01*
X99101545Y-58682678D02*
X99101545Y-58568392D01*
X99101545Y-58568392D02*
X99139640Y-58454106D01*
X99139640Y-58454106D02*
X99215830Y-58377916D01*
X99215830Y-58377916D02*
X99292021Y-58339821D01*
X99292021Y-58339821D02*
X99444402Y-58301725D01*
X99444402Y-58301725D02*
X99558688Y-58301725D01*
X99558688Y-58301725D02*
X99711069Y-58339821D01*
X99711069Y-58339821D02*
X99787259Y-58377916D01*
X99787259Y-58377916D02*
X99863450Y-58454106D01*
X99863450Y-58454106D02*
X99901545Y-58568392D01*
X99901545Y-58568392D02*
X99901545Y-58644583D01*
X99901545Y-58644583D02*
X99863450Y-58758868D01*
X99863450Y-58758868D02*
X99825354Y-58796964D01*
X99825354Y-58796964D02*
X99558688Y-58796964D01*
X99558688Y-58796964D02*
X99558688Y-58644583D01*
X99901545Y-59139821D02*
X99101545Y-59139821D01*
X99101545Y-59139821D02*
X99101545Y-59444583D01*
X99101545Y-59444583D02*
X99139640Y-59520773D01*
X99139640Y-59520773D02*
X99177735Y-59558868D01*
X99177735Y-59558868D02*
X99253926Y-59596964D01*
X99253926Y-59596964D02*
X99368211Y-59596964D01*
X99368211Y-59596964D02*
X99444402Y-59558868D01*
X99444402Y-59558868D02*
X99482497Y-59520773D01*
X99482497Y-59520773D02*
X99520592Y-59444583D01*
X99520592Y-59444583D02*
X99520592Y-59139821D01*
X99901545Y-60358868D02*
X99901545Y-59901725D01*
X99901545Y-60130297D02*
X99101545Y-60130297D01*
X99101545Y-60130297D02*
X99215830Y-60054106D01*
X99215830Y-60054106D02*
X99292021Y-59977916D01*
X99292021Y-59977916D02*
X99330116Y-59901725D01*
X99101545Y-60625535D02*
X99101545Y-61158869D01*
X99101545Y-61158869D02*
X99901545Y-60816011D01*
X91519640Y-69988868D02*
X91481545Y-69912678D01*
X91481545Y-69912678D02*
X91481545Y-69798392D01*
X91481545Y-69798392D02*
X91519640Y-69684106D01*
X91519640Y-69684106D02*
X91595830Y-69607916D01*
X91595830Y-69607916D02*
X91672021Y-69569821D01*
X91672021Y-69569821D02*
X91824402Y-69531725D01*
X91824402Y-69531725D02*
X91938688Y-69531725D01*
X91938688Y-69531725D02*
X92091069Y-69569821D01*
X92091069Y-69569821D02*
X92167259Y-69607916D01*
X92167259Y-69607916D02*
X92243450Y-69684106D01*
X92243450Y-69684106D02*
X92281545Y-69798392D01*
X92281545Y-69798392D02*
X92281545Y-69874583D01*
X92281545Y-69874583D02*
X92243450Y-69988868D01*
X92243450Y-69988868D02*
X92205354Y-70026964D01*
X92205354Y-70026964D02*
X91938688Y-70026964D01*
X91938688Y-70026964D02*
X91938688Y-69874583D01*
X92281545Y-70369821D02*
X91481545Y-70369821D01*
X91481545Y-70369821D02*
X91481545Y-70674583D01*
X91481545Y-70674583D02*
X91519640Y-70750773D01*
X91519640Y-70750773D02*
X91557735Y-70788868D01*
X91557735Y-70788868D02*
X91633926Y-70826964D01*
X91633926Y-70826964D02*
X91748211Y-70826964D01*
X91748211Y-70826964D02*
X91824402Y-70788868D01*
X91824402Y-70788868D02*
X91862497Y-70750773D01*
X91862497Y-70750773D02*
X91900592Y-70674583D01*
X91900592Y-70674583D02*
X91900592Y-70369821D01*
X92281545Y-71588868D02*
X92281545Y-71131725D01*
X92281545Y-71360297D02*
X91481545Y-71360297D01*
X91481545Y-71360297D02*
X91595830Y-71284106D01*
X91595830Y-71284106D02*
X91672021Y-71207916D01*
X91672021Y-71207916D02*
X91710116Y-71131725D01*
X91557735Y-71893630D02*
X91519640Y-71931726D01*
X91519640Y-71931726D02*
X91481545Y-72007916D01*
X91481545Y-72007916D02*
X91481545Y-72198392D01*
X91481545Y-72198392D02*
X91519640Y-72274583D01*
X91519640Y-72274583D02*
X91557735Y-72312678D01*
X91557735Y-72312678D02*
X91633926Y-72350773D01*
X91633926Y-72350773D02*
X91710116Y-72350773D01*
X91710116Y-72350773D02*
X91824402Y-72312678D01*
X91824402Y-72312678D02*
X92281545Y-71855535D01*
X92281545Y-71855535D02*
X92281545Y-72350773D01*
X101679640Y-69988868D02*
X101641545Y-69912678D01*
X101641545Y-69912678D02*
X101641545Y-69798392D01*
X101641545Y-69798392D02*
X101679640Y-69684106D01*
X101679640Y-69684106D02*
X101755830Y-69607916D01*
X101755830Y-69607916D02*
X101832021Y-69569821D01*
X101832021Y-69569821D02*
X101984402Y-69531725D01*
X101984402Y-69531725D02*
X102098688Y-69531725D01*
X102098688Y-69531725D02*
X102251069Y-69569821D01*
X102251069Y-69569821D02*
X102327259Y-69607916D01*
X102327259Y-69607916D02*
X102403450Y-69684106D01*
X102403450Y-69684106D02*
X102441545Y-69798392D01*
X102441545Y-69798392D02*
X102441545Y-69874583D01*
X102441545Y-69874583D02*
X102403450Y-69988868D01*
X102403450Y-69988868D02*
X102365354Y-70026964D01*
X102365354Y-70026964D02*
X102098688Y-70026964D01*
X102098688Y-70026964D02*
X102098688Y-69874583D01*
X102441545Y-70369821D02*
X101641545Y-70369821D01*
X101641545Y-70369821D02*
X101641545Y-70674583D01*
X101641545Y-70674583D02*
X101679640Y-70750773D01*
X101679640Y-70750773D02*
X101717735Y-70788868D01*
X101717735Y-70788868D02*
X101793926Y-70826964D01*
X101793926Y-70826964D02*
X101908211Y-70826964D01*
X101908211Y-70826964D02*
X101984402Y-70788868D01*
X101984402Y-70788868D02*
X102022497Y-70750773D01*
X102022497Y-70750773D02*
X102060592Y-70674583D01*
X102060592Y-70674583D02*
X102060592Y-70369821D01*
X102441545Y-71588868D02*
X102441545Y-71131725D01*
X102441545Y-71360297D02*
X101641545Y-71360297D01*
X101641545Y-71360297D02*
X101755830Y-71284106D01*
X101755830Y-71284106D02*
X101832021Y-71207916D01*
X101832021Y-71207916D02*
X101870116Y-71131725D01*
X101641545Y-72312678D02*
X101641545Y-71931726D01*
X101641545Y-71931726D02*
X102022497Y-71893630D01*
X102022497Y-71893630D02*
X101984402Y-71931726D01*
X101984402Y-71931726D02*
X101946307Y-72007916D01*
X101946307Y-72007916D02*
X101946307Y-72198392D01*
X101946307Y-72198392D02*
X101984402Y-72274583D01*
X101984402Y-72274583D02*
X102022497Y-72312678D01*
X102022497Y-72312678D02*
X102098688Y-72350773D01*
X102098688Y-72350773D02*
X102289164Y-72350773D01*
X102289164Y-72350773D02*
X102365354Y-72312678D01*
X102365354Y-72312678D02*
X102403450Y-72274583D01*
X102403450Y-72274583D02*
X102441545Y-72198392D01*
X102441545Y-72198392D02*
X102441545Y-72007916D01*
X102441545Y-72007916D02*
X102403450Y-71931726D01*
X102403450Y-71931726D02*
X102365354Y-71893630D01*
X71199640Y-70681726D02*
X71161545Y-70605536D01*
X71161545Y-70605536D02*
X71161545Y-70491250D01*
X71161545Y-70491250D02*
X71199640Y-70376964D01*
X71199640Y-70376964D02*
X71275830Y-70300774D01*
X71275830Y-70300774D02*
X71352021Y-70262679D01*
X71352021Y-70262679D02*
X71504402Y-70224583D01*
X71504402Y-70224583D02*
X71618688Y-70224583D01*
X71618688Y-70224583D02*
X71771069Y-70262679D01*
X71771069Y-70262679D02*
X71847259Y-70300774D01*
X71847259Y-70300774D02*
X71923450Y-70376964D01*
X71923450Y-70376964D02*
X71961545Y-70491250D01*
X71961545Y-70491250D02*
X71961545Y-70567441D01*
X71961545Y-70567441D02*
X71923450Y-70681726D01*
X71923450Y-70681726D02*
X71885354Y-70719822D01*
X71885354Y-70719822D02*
X71618688Y-70719822D01*
X71618688Y-70719822D02*
X71618688Y-70567441D01*
X71961545Y-71062679D02*
X71161545Y-71062679D01*
X71161545Y-71062679D02*
X71961545Y-71519822D01*
X71961545Y-71519822D02*
X71161545Y-71519822D01*
X71961545Y-71900774D02*
X71161545Y-71900774D01*
X71161545Y-71900774D02*
X71161545Y-72091250D01*
X71161545Y-72091250D02*
X71199640Y-72205536D01*
X71199640Y-72205536D02*
X71275830Y-72281726D01*
X71275830Y-72281726D02*
X71352021Y-72319821D01*
X71352021Y-72319821D02*
X71504402Y-72357917D01*
X71504402Y-72357917D02*
X71618688Y-72357917D01*
X71618688Y-72357917D02*
X71771069Y-72319821D01*
X71771069Y-72319821D02*
X71847259Y-72281726D01*
X71847259Y-72281726D02*
X71923450Y-72205536D01*
X71923450Y-72205536D02*
X71961545Y-72091250D01*
X71961545Y-72091250D02*
X71961545Y-71900774D01*
X86439640Y-69988868D02*
X86401545Y-69912678D01*
X86401545Y-69912678D02*
X86401545Y-69798392D01*
X86401545Y-69798392D02*
X86439640Y-69684106D01*
X86439640Y-69684106D02*
X86515830Y-69607916D01*
X86515830Y-69607916D02*
X86592021Y-69569821D01*
X86592021Y-69569821D02*
X86744402Y-69531725D01*
X86744402Y-69531725D02*
X86858688Y-69531725D01*
X86858688Y-69531725D02*
X87011069Y-69569821D01*
X87011069Y-69569821D02*
X87087259Y-69607916D01*
X87087259Y-69607916D02*
X87163450Y-69684106D01*
X87163450Y-69684106D02*
X87201545Y-69798392D01*
X87201545Y-69798392D02*
X87201545Y-69874583D01*
X87201545Y-69874583D02*
X87163450Y-69988868D01*
X87163450Y-69988868D02*
X87125354Y-70026964D01*
X87125354Y-70026964D02*
X86858688Y-70026964D01*
X86858688Y-70026964D02*
X86858688Y-69874583D01*
X87201545Y-70369821D02*
X86401545Y-70369821D01*
X86401545Y-70369821D02*
X86401545Y-70674583D01*
X86401545Y-70674583D02*
X86439640Y-70750773D01*
X86439640Y-70750773D02*
X86477735Y-70788868D01*
X86477735Y-70788868D02*
X86553926Y-70826964D01*
X86553926Y-70826964D02*
X86668211Y-70826964D01*
X86668211Y-70826964D02*
X86744402Y-70788868D01*
X86744402Y-70788868D02*
X86782497Y-70750773D01*
X86782497Y-70750773D02*
X86820592Y-70674583D01*
X86820592Y-70674583D02*
X86820592Y-70369821D01*
X87201545Y-71588868D02*
X87201545Y-71131725D01*
X87201545Y-71360297D02*
X86401545Y-71360297D01*
X86401545Y-71360297D02*
X86515830Y-71284106D01*
X86515830Y-71284106D02*
X86592021Y-71207916D01*
X86592021Y-71207916D02*
X86630116Y-71131725D01*
X86401545Y-72084107D02*
X86401545Y-72160297D01*
X86401545Y-72160297D02*
X86439640Y-72236488D01*
X86439640Y-72236488D02*
X86477735Y-72274583D01*
X86477735Y-72274583D02*
X86553926Y-72312678D01*
X86553926Y-72312678D02*
X86706307Y-72350773D01*
X86706307Y-72350773D02*
X86896783Y-72350773D01*
X86896783Y-72350773D02*
X87049164Y-72312678D01*
X87049164Y-72312678D02*
X87125354Y-72274583D01*
X87125354Y-72274583D02*
X87163450Y-72236488D01*
X87163450Y-72236488D02*
X87201545Y-72160297D01*
X87201545Y-72160297D02*
X87201545Y-72084107D01*
X87201545Y-72084107D02*
X87163450Y-72007916D01*
X87163450Y-72007916D02*
X87125354Y-71969821D01*
X87125354Y-71969821D02*
X87049164Y-71931726D01*
X87049164Y-71931726D02*
X86896783Y-71893630D01*
X86896783Y-71893630D02*
X86706307Y-71893630D01*
X86706307Y-71893630D02*
X86553926Y-71931726D01*
X86553926Y-71931726D02*
X86477735Y-71969821D01*
X86477735Y-71969821D02*
X86439640Y-72007916D01*
X86439640Y-72007916D02*
X86401545Y-72084107D01*
X81359640Y-58758868D02*
X81321545Y-58682678D01*
X81321545Y-58682678D02*
X81321545Y-58568392D01*
X81321545Y-58568392D02*
X81359640Y-58454106D01*
X81359640Y-58454106D02*
X81435830Y-58377916D01*
X81435830Y-58377916D02*
X81512021Y-58339821D01*
X81512021Y-58339821D02*
X81664402Y-58301725D01*
X81664402Y-58301725D02*
X81778688Y-58301725D01*
X81778688Y-58301725D02*
X81931069Y-58339821D01*
X81931069Y-58339821D02*
X82007259Y-58377916D01*
X82007259Y-58377916D02*
X82083450Y-58454106D01*
X82083450Y-58454106D02*
X82121545Y-58568392D01*
X82121545Y-58568392D02*
X82121545Y-58644583D01*
X82121545Y-58644583D02*
X82083450Y-58758868D01*
X82083450Y-58758868D02*
X82045354Y-58796964D01*
X82045354Y-58796964D02*
X81778688Y-58796964D01*
X81778688Y-58796964D02*
X81778688Y-58644583D01*
X82121545Y-59139821D02*
X81321545Y-59139821D01*
X81321545Y-59139821D02*
X81321545Y-59444583D01*
X81321545Y-59444583D02*
X81359640Y-59520773D01*
X81359640Y-59520773D02*
X81397735Y-59558868D01*
X81397735Y-59558868D02*
X81473926Y-59596964D01*
X81473926Y-59596964D02*
X81588211Y-59596964D01*
X81588211Y-59596964D02*
X81664402Y-59558868D01*
X81664402Y-59558868D02*
X81702497Y-59520773D01*
X81702497Y-59520773D02*
X81740592Y-59444583D01*
X81740592Y-59444583D02*
X81740592Y-59139821D01*
X81397735Y-59901725D02*
X81359640Y-59939821D01*
X81359640Y-59939821D02*
X81321545Y-60016011D01*
X81321545Y-60016011D02*
X81321545Y-60206487D01*
X81321545Y-60206487D02*
X81359640Y-60282678D01*
X81359640Y-60282678D02*
X81397735Y-60320773D01*
X81397735Y-60320773D02*
X81473926Y-60358868D01*
X81473926Y-60358868D02*
X81550116Y-60358868D01*
X81550116Y-60358868D02*
X81664402Y-60320773D01*
X81664402Y-60320773D02*
X82121545Y-59863630D01*
X82121545Y-59863630D02*
X82121545Y-60358868D01*
X81397735Y-60663630D02*
X81359640Y-60701726D01*
X81359640Y-60701726D02*
X81321545Y-60777916D01*
X81321545Y-60777916D02*
X81321545Y-60968392D01*
X81321545Y-60968392D02*
X81359640Y-61044583D01*
X81359640Y-61044583D02*
X81397735Y-61082678D01*
X81397735Y-61082678D02*
X81473926Y-61120773D01*
X81473926Y-61120773D02*
X81550116Y-61120773D01*
X81550116Y-61120773D02*
X81664402Y-61082678D01*
X81664402Y-61082678D02*
X82121545Y-60625535D01*
X82121545Y-60625535D02*
X82121545Y-61120773D01*
X58499640Y-70681726D02*
X58461545Y-70605536D01*
X58461545Y-70605536D02*
X58461545Y-70491250D01*
X58461545Y-70491250D02*
X58499640Y-70376964D01*
X58499640Y-70376964D02*
X58575830Y-70300774D01*
X58575830Y-70300774D02*
X58652021Y-70262679D01*
X58652021Y-70262679D02*
X58804402Y-70224583D01*
X58804402Y-70224583D02*
X58918688Y-70224583D01*
X58918688Y-70224583D02*
X59071069Y-70262679D01*
X59071069Y-70262679D02*
X59147259Y-70300774D01*
X59147259Y-70300774D02*
X59223450Y-70376964D01*
X59223450Y-70376964D02*
X59261545Y-70491250D01*
X59261545Y-70491250D02*
X59261545Y-70567441D01*
X59261545Y-70567441D02*
X59223450Y-70681726D01*
X59223450Y-70681726D02*
X59185354Y-70719822D01*
X59185354Y-70719822D02*
X58918688Y-70719822D01*
X58918688Y-70719822D02*
X58918688Y-70567441D01*
X59261545Y-71062679D02*
X58461545Y-71062679D01*
X58461545Y-71062679D02*
X59261545Y-71519822D01*
X59261545Y-71519822D02*
X58461545Y-71519822D01*
X59261545Y-71900774D02*
X58461545Y-71900774D01*
X58461545Y-71900774D02*
X58461545Y-72091250D01*
X58461545Y-72091250D02*
X58499640Y-72205536D01*
X58499640Y-72205536D02*
X58575830Y-72281726D01*
X58575830Y-72281726D02*
X58652021Y-72319821D01*
X58652021Y-72319821D02*
X58804402Y-72357917D01*
X58804402Y-72357917D02*
X58918688Y-72357917D01*
X58918688Y-72357917D02*
X59071069Y-72319821D01*
X59071069Y-72319821D02*
X59147259Y-72281726D01*
X59147259Y-72281726D02*
X59223450Y-72205536D01*
X59223450Y-72205536D02*
X59261545Y-72091250D01*
X59261545Y-72091250D02*
X59261545Y-71900774D01*
X83899640Y-70681726D02*
X83861545Y-70605536D01*
X83861545Y-70605536D02*
X83861545Y-70491250D01*
X83861545Y-70491250D02*
X83899640Y-70376964D01*
X83899640Y-70376964D02*
X83975830Y-70300774D01*
X83975830Y-70300774D02*
X84052021Y-70262679D01*
X84052021Y-70262679D02*
X84204402Y-70224583D01*
X84204402Y-70224583D02*
X84318688Y-70224583D01*
X84318688Y-70224583D02*
X84471069Y-70262679D01*
X84471069Y-70262679D02*
X84547259Y-70300774D01*
X84547259Y-70300774D02*
X84623450Y-70376964D01*
X84623450Y-70376964D02*
X84661545Y-70491250D01*
X84661545Y-70491250D02*
X84661545Y-70567441D01*
X84661545Y-70567441D02*
X84623450Y-70681726D01*
X84623450Y-70681726D02*
X84585354Y-70719822D01*
X84585354Y-70719822D02*
X84318688Y-70719822D01*
X84318688Y-70719822D02*
X84318688Y-70567441D01*
X84661545Y-71062679D02*
X83861545Y-71062679D01*
X83861545Y-71062679D02*
X84661545Y-71519822D01*
X84661545Y-71519822D02*
X83861545Y-71519822D01*
X84661545Y-71900774D02*
X83861545Y-71900774D01*
X83861545Y-71900774D02*
X83861545Y-72091250D01*
X83861545Y-72091250D02*
X83899640Y-72205536D01*
X83899640Y-72205536D02*
X83975830Y-72281726D01*
X83975830Y-72281726D02*
X84052021Y-72319821D01*
X84052021Y-72319821D02*
X84204402Y-72357917D01*
X84204402Y-72357917D02*
X84318688Y-72357917D01*
X84318688Y-72357917D02*
X84471069Y-72319821D01*
X84471069Y-72319821D02*
X84547259Y-72281726D01*
X84547259Y-72281726D02*
X84623450Y-72205536D01*
X84623450Y-72205536D02*
X84661545Y-72091250D01*
X84661545Y-72091250D02*
X84661545Y-71900774D01*
X66119640Y-70719821D02*
X66081545Y-70643631D01*
X66081545Y-70643631D02*
X66081545Y-70529345D01*
X66081545Y-70529345D02*
X66119640Y-70415059D01*
X66119640Y-70415059D02*
X66195830Y-70338869D01*
X66195830Y-70338869D02*
X66272021Y-70300774D01*
X66272021Y-70300774D02*
X66424402Y-70262678D01*
X66424402Y-70262678D02*
X66538688Y-70262678D01*
X66538688Y-70262678D02*
X66691069Y-70300774D01*
X66691069Y-70300774D02*
X66767259Y-70338869D01*
X66767259Y-70338869D02*
X66843450Y-70415059D01*
X66843450Y-70415059D02*
X66881545Y-70529345D01*
X66881545Y-70529345D02*
X66881545Y-70605536D01*
X66881545Y-70605536D02*
X66843450Y-70719821D01*
X66843450Y-70719821D02*
X66805354Y-70757917D01*
X66805354Y-70757917D02*
X66538688Y-70757917D01*
X66538688Y-70757917D02*
X66538688Y-70605536D01*
X66881545Y-71100774D02*
X66081545Y-71100774D01*
X66081545Y-71100774D02*
X66081545Y-71405536D01*
X66081545Y-71405536D02*
X66119640Y-71481726D01*
X66119640Y-71481726D02*
X66157735Y-71519821D01*
X66157735Y-71519821D02*
X66233926Y-71557917D01*
X66233926Y-71557917D02*
X66348211Y-71557917D01*
X66348211Y-71557917D02*
X66424402Y-71519821D01*
X66424402Y-71519821D02*
X66462497Y-71481726D01*
X66462497Y-71481726D02*
X66500592Y-71405536D01*
X66500592Y-71405536D02*
X66500592Y-71100774D01*
X66348211Y-72243631D02*
X66881545Y-72243631D01*
X66043450Y-72053155D02*
X66614878Y-71862678D01*
X66614878Y-71862678D02*
X66614878Y-72357917D01*
X55949640Y-70719821D02*
X55911545Y-70643631D01*
X55911545Y-70643631D02*
X55911545Y-70529345D01*
X55911545Y-70529345D02*
X55949640Y-70415059D01*
X55949640Y-70415059D02*
X56025830Y-70338869D01*
X56025830Y-70338869D02*
X56102021Y-70300774D01*
X56102021Y-70300774D02*
X56254402Y-70262678D01*
X56254402Y-70262678D02*
X56368688Y-70262678D01*
X56368688Y-70262678D02*
X56521069Y-70300774D01*
X56521069Y-70300774D02*
X56597259Y-70338869D01*
X56597259Y-70338869D02*
X56673450Y-70415059D01*
X56673450Y-70415059D02*
X56711545Y-70529345D01*
X56711545Y-70529345D02*
X56711545Y-70605536D01*
X56711545Y-70605536D02*
X56673450Y-70719821D01*
X56673450Y-70719821D02*
X56635354Y-70757917D01*
X56635354Y-70757917D02*
X56368688Y-70757917D01*
X56368688Y-70757917D02*
X56368688Y-70605536D01*
X56711545Y-71100774D02*
X55911545Y-71100774D01*
X55911545Y-71100774D02*
X55911545Y-71405536D01*
X55911545Y-71405536D02*
X55949640Y-71481726D01*
X55949640Y-71481726D02*
X55987735Y-71519821D01*
X55987735Y-71519821D02*
X56063926Y-71557917D01*
X56063926Y-71557917D02*
X56178211Y-71557917D01*
X56178211Y-71557917D02*
X56254402Y-71519821D01*
X56254402Y-71519821D02*
X56292497Y-71481726D01*
X56292497Y-71481726D02*
X56330592Y-71405536D01*
X56330592Y-71405536D02*
X56330592Y-71100774D01*
X56711545Y-72319821D02*
X56711545Y-71862678D01*
X56711545Y-72091250D02*
X55911545Y-72091250D01*
X55911545Y-72091250D02*
X56025830Y-72015059D01*
X56025830Y-72015059D02*
X56102021Y-71938869D01*
X56102021Y-71938869D02*
X56140116Y-71862678D01*
X53419640Y-70719821D02*
X53381545Y-70643631D01*
X53381545Y-70643631D02*
X53381545Y-70529345D01*
X53381545Y-70529345D02*
X53419640Y-70415059D01*
X53419640Y-70415059D02*
X53495830Y-70338869D01*
X53495830Y-70338869D02*
X53572021Y-70300774D01*
X53572021Y-70300774D02*
X53724402Y-70262678D01*
X53724402Y-70262678D02*
X53838688Y-70262678D01*
X53838688Y-70262678D02*
X53991069Y-70300774D01*
X53991069Y-70300774D02*
X54067259Y-70338869D01*
X54067259Y-70338869D02*
X54143450Y-70415059D01*
X54143450Y-70415059D02*
X54181545Y-70529345D01*
X54181545Y-70529345D02*
X54181545Y-70605536D01*
X54181545Y-70605536D02*
X54143450Y-70719821D01*
X54143450Y-70719821D02*
X54105354Y-70757917D01*
X54105354Y-70757917D02*
X53838688Y-70757917D01*
X53838688Y-70757917D02*
X53838688Y-70605536D01*
X54181545Y-71100774D02*
X53381545Y-71100774D01*
X53381545Y-71100774D02*
X53381545Y-71405536D01*
X53381545Y-71405536D02*
X53419640Y-71481726D01*
X53419640Y-71481726D02*
X53457735Y-71519821D01*
X53457735Y-71519821D02*
X53533926Y-71557917D01*
X53533926Y-71557917D02*
X53648211Y-71557917D01*
X53648211Y-71557917D02*
X53724402Y-71519821D01*
X53724402Y-71519821D02*
X53762497Y-71481726D01*
X53762497Y-71481726D02*
X53800592Y-71405536D01*
X53800592Y-71405536D02*
X53800592Y-71100774D01*
X53381545Y-72053155D02*
X53381545Y-72129345D01*
X53381545Y-72129345D02*
X53419640Y-72205536D01*
X53419640Y-72205536D02*
X53457735Y-72243631D01*
X53457735Y-72243631D02*
X53533926Y-72281726D01*
X53533926Y-72281726D02*
X53686307Y-72319821D01*
X53686307Y-72319821D02*
X53876783Y-72319821D01*
X53876783Y-72319821D02*
X54029164Y-72281726D01*
X54029164Y-72281726D02*
X54105354Y-72243631D01*
X54105354Y-72243631D02*
X54143450Y-72205536D01*
X54143450Y-72205536D02*
X54181545Y-72129345D01*
X54181545Y-72129345D02*
X54181545Y-72053155D01*
X54181545Y-72053155D02*
X54143450Y-71976964D01*
X54143450Y-71976964D02*
X54105354Y-71938869D01*
X54105354Y-71938869D02*
X54029164Y-71900774D01*
X54029164Y-71900774D02*
X53876783Y-71862678D01*
X53876783Y-71862678D02*
X53686307Y-71862678D01*
X53686307Y-71862678D02*
X53533926Y-71900774D01*
X53533926Y-71900774D02*
X53457735Y-71938869D01*
X53457735Y-71938869D02*
X53419640Y-71976964D01*
X53419640Y-71976964D02*
X53381545Y-72053155D01*
X79581545Y-58770774D02*
X79200592Y-58504107D01*
X79581545Y-58313631D02*
X78781545Y-58313631D01*
X78781545Y-58313631D02*
X78781545Y-58618393D01*
X78781545Y-58618393D02*
X78819640Y-58694583D01*
X78819640Y-58694583D02*
X78857735Y-58732678D01*
X78857735Y-58732678D02*
X78933926Y-58770774D01*
X78933926Y-58770774D02*
X79048211Y-58770774D01*
X79048211Y-58770774D02*
X79124402Y-58732678D01*
X79124402Y-58732678D02*
X79162497Y-58694583D01*
X79162497Y-58694583D02*
X79200592Y-58618393D01*
X79200592Y-58618393D02*
X79200592Y-58313631D01*
X78781545Y-59113631D02*
X79429164Y-59113631D01*
X79429164Y-59113631D02*
X79505354Y-59151726D01*
X79505354Y-59151726D02*
X79543450Y-59189821D01*
X79543450Y-59189821D02*
X79581545Y-59266012D01*
X79581545Y-59266012D02*
X79581545Y-59418393D01*
X79581545Y-59418393D02*
X79543450Y-59494583D01*
X79543450Y-59494583D02*
X79505354Y-59532678D01*
X79505354Y-59532678D02*
X79429164Y-59570774D01*
X79429164Y-59570774D02*
X78781545Y-59570774D01*
X79581545Y-59951726D02*
X78781545Y-59951726D01*
X78781545Y-59951726D02*
X79581545Y-60408869D01*
X79581545Y-60408869D02*
X78781545Y-60408869D01*
X99139640Y-69988868D02*
X99101545Y-69912678D01*
X99101545Y-69912678D02*
X99101545Y-69798392D01*
X99101545Y-69798392D02*
X99139640Y-69684106D01*
X99139640Y-69684106D02*
X99215830Y-69607916D01*
X99215830Y-69607916D02*
X99292021Y-69569821D01*
X99292021Y-69569821D02*
X99444402Y-69531725D01*
X99444402Y-69531725D02*
X99558688Y-69531725D01*
X99558688Y-69531725D02*
X99711069Y-69569821D01*
X99711069Y-69569821D02*
X99787259Y-69607916D01*
X99787259Y-69607916D02*
X99863450Y-69684106D01*
X99863450Y-69684106D02*
X99901545Y-69798392D01*
X99901545Y-69798392D02*
X99901545Y-69874583D01*
X99901545Y-69874583D02*
X99863450Y-69988868D01*
X99863450Y-69988868D02*
X99825354Y-70026964D01*
X99825354Y-70026964D02*
X99558688Y-70026964D01*
X99558688Y-70026964D02*
X99558688Y-69874583D01*
X99901545Y-70369821D02*
X99101545Y-70369821D01*
X99101545Y-70369821D02*
X99101545Y-70674583D01*
X99101545Y-70674583D02*
X99139640Y-70750773D01*
X99139640Y-70750773D02*
X99177735Y-70788868D01*
X99177735Y-70788868D02*
X99253926Y-70826964D01*
X99253926Y-70826964D02*
X99368211Y-70826964D01*
X99368211Y-70826964D02*
X99444402Y-70788868D01*
X99444402Y-70788868D02*
X99482497Y-70750773D01*
X99482497Y-70750773D02*
X99520592Y-70674583D01*
X99520592Y-70674583D02*
X99520592Y-70369821D01*
X99901545Y-71588868D02*
X99901545Y-71131725D01*
X99901545Y-71360297D02*
X99101545Y-71360297D01*
X99101545Y-71360297D02*
X99215830Y-71284106D01*
X99215830Y-71284106D02*
X99292021Y-71207916D01*
X99292021Y-71207916D02*
X99330116Y-71131725D01*
X99368211Y-72274583D02*
X99901545Y-72274583D01*
X99063450Y-72084107D02*
X99634878Y-71893630D01*
X99634878Y-71893630D02*
X99634878Y-72388869D01*
X94059640Y-69988868D02*
X94021545Y-69912678D01*
X94021545Y-69912678D02*
X94021545Y-69798392D01*
X94021545Y-69798392D02*
X94059640Y-69684106D01*
X94059640Y-69684106D02*
X94135830Y-69607916D01*
X94135830Y-69607916D02*
X94212021Y-69569821D01*
X94212021Y-69569821D02*
X94364402Y-69531725D01*
X94364402Y-69531725D02*
X94478688Y-69531725D01*
X94478688Y-69531725D02*
X94631069Y-69569821D01*
X94631069Y-69569821D02*
X94707259Y-69607916D01*
X94707259Y-69607916D02*
X94783450Y-69684106D01*
X94783450Y-69684106D02*
X94821545Y-69798392D01*
X94821545Y-69798392D02*
X94821545Y-69874583D01*
X94821545Y-69874583D02*
X94783450Y-69988868D01*
X94783450Y-69988868D02*
X94745354Y-70026964D01*
X94745354Y-70026964D02*
X94478688Y-70026964D01*
X94478688Y-70026964D02*
X94478688Y-69874583D01*
X94821545Y-70369821D02*
X94021545Y-70369821D01*
X94021545Y-70369821D02*
X94021545Y-70674583D01*
X94021545Y-70674583D02*
X94059640Y-70750773D01*
X94059640Y-70750773D02*
X94097735Y-70788868D01*
X94097735Y-70788868D02*
X94173926Y-70826964D01*
X94173926Y-70826964D02*
X94288211Y-70826964D01*
X94288211Y-70826964D02*
X94364402Y-70788868D01*
X94364402Y-70788868D02*
X94402497Y-70750773D01*
X94402497Y-70750773D02*
X94440592Y-70674583D01*
X94440592Y-70674583D02*
X94440592Y-70369821D01*
X94821545Y-71588868D02*
X94821545Y-71131725D01*
X94821545Y-71360297D02*
X94021545Y-71360297D01*
X94021545Y-71360297D02*
X94135830Y-71284106D01*
X94135830Y-71284106D02*
X94212021Y-71207916D01*
X94212021Y-71207916D02*
X94250116Y-71131725D01*
X94021545Y-71855535D02*
X94021545Y-72350773D01*
X94021545Y-72350773D02*
X94326307Y-72084107D01*
X94326307Y-72084107D02*
X94326307Y-72198392D01*
X94326307Y-72198392D02*
X94364402Y-72274583D01*
X94364402Y-72274583D02*
X94402497Y-72312678D01*
X94402497Y-72312678D02*
X94478688Y-72350773D01*
X94478688Y-72350773D02*
X94669164Y-72350773D01*
X94669164Y-72350773D02*
X94745354Y-72312678D01*
X94745354Y-72312678D02*
X94783450Y-72274583D01*
X94783450Y-72274583D02*
X94821545Y-72198392D01*
X94821545Y-72198392D02*
X94821545Y-71969821D01*
X94821545Y-71969821D02*
X94783450Y-71893630D01*
X94783450Y-71893630D02*
X94745354Y-71855535D01*
X58499640Y-58601726D02*
X58461545Y-58525536D01*
X58461545Y-58525536D02*
X58461545Y-58411250D01*
X58461545Y-58411250D02*
X58499640Y-58296964D01*
X58499640Y-58296964D02*
X58575830Y-58220774D01*
X58575830Y-58220774D02*
X58652021Y-58182679D01*
X58652021Y-58182679D02*
X58804402Y-58144583D01*
X58804402Y-58144583D02*
X58918688Y-58144583D01*
X58918688Y-58144583D02*
X59071069Y-58182679D01*
X59071069Y-58182679D02*
X59147259Y-58220774D01*
X59147259Y-58220774D02*
X59223450Y-58296964D01*
X59223450Y-58296964D02*
X59261545Y-58411250D01*
X59261545Y-58411250D02*
X59261545Y-58487441D01*
X59261545Y-58487441D02*
X59223450Y-58601726D01*
X59223450Y-58601726D02*
X59185354Y-58639822D01*
X59185354Y-58639822D02*
X58918688Y-58639822D01*
X58918688Y-58639822D02*
X58918688Y-58487441D01*
X59261545Y-58982679D02*
X58461545Y-58982679D01*
X58461545Y-58982679D02*
X59261545Y-59439822D01*
X59261545Y-59439822D02*
X58461545Y-59439822D01*
X59261545Y-59820774D02*
X58461545Y-59820774D01*
X58461545Y-59820774D02*
X58461545Y-60011250D01*
X58461545Y-60011250D02*
X58499640Y-60125536D01*
X58499640Y-60125536D02*
X58575830Y-60201726D01*
X58575830Y-60201726D02*
X58652021Y-60239821D01*
X58652021Y-60239821D02*
X58804402Y-60277917D01*
X58804402Y-60277917D02*
X58918688Y-60277917D01*
X58918688Y-60277917D02*
X59071069Y-60239821D01*
X59071069Y-60239821D02*
X59147259Y-60201726D01*
X59147259Y-60201726D02*
X59223450Y-60125536D01*
X59223450Y-60125536D02*
X59261545Y-60011250D01*
X59261545Y-60011250D02*
X59261545Y-59820774D01*
X61001545Y-58135059D02*
X61001545Y-58630297D01*
X61001545Y-58630297D02*
X61306307Y-58363631D01*
X61306307Y-58363631D02*
X61306307Y-58477916D01*
X61306307Y-58477916D02*
X61344402Y-58554107D01*
X61344402Y-58554107D02*
X61382497Y-58592202D01*
X61382497Y-58592202D02*
X61458688Y-58630297D01*
X61458688Y-58630297D02*
X61649164Y-58630297D01*
X61649164Y-58630297D02*
X61725354Y-58592202D01*
X61725354Y-58592202D02*
X61763450Y-58554107D01*
X61763450Y-58554107D02*
X61801545Y-58477916D01*
X61801545Y-58477916D02*
X61801545Y-58249345D01*
X61801545Y-58249345D02*
X61763450Y-58173154D01*
X61763450Y-58173154D02*
X61725354Y-58135059D01*
X61001545Y-58858869D02*
X61801545Y-59125536D01*
X61801545Y-59125536D02*
X61001545Y-59392202D01*
X61001545Y-59582678D02*
X61001545Y-60077916D01*
X61001545Y-60077916D02*
X61306307Y-59811250D01*
X61306307Y-59811250D02*
X61306307Y-59925535D01*
X61306307Y-59925535D02*
X61344402Y-60001726D01*
X61344402Y-60001726D02*
X61382497Y-60039821D01*
X61382497Y-60039821D02*
X61458688Y-60077916D01*
X61458688Y-60077916D02*
X61649164Y-60077916D01*
X61649164Y-60077916D02*
X61725354Y-60039821D01*
X61725354Y-60039821D02*
X61763450Y-60001726D01*
X61763450Y-60001726D02*
X61801545Y-59925535D01*
X61801545Y-59925535D02*
X61801545Y-59696964D01*
X61801545Y-59696964D02*
X61763450Y-59620773D01*
X61763450Y-59620773D02*
X61725354Y-59582678D01*
X61877735Y-60230298D02*
X61877735Y-60839821D01*
X61382497Y-61030298D02*
X61382497Y-61296964D01*
X61801545Y-61411250D02*
X61801545Y-61030298D01*
X61801545Y-61030298D02*
X61001545Y-61030298D01*
X61001545Y-61030298D02*
X61001545Y-61411250D01*
X61801545Y-61754108D02*
X61001545Y-61754108D01*
X61001545Y-61754108D02*
X61801545Y-62211251D01*
X61801545Y-62211251D02*
X61001545Y-62211251D01*
X68659640Y-58758868D02*
X68621545Y-58682678D01*
X68621545Y-58682678D02*
X68621545Y-58568392D01*
X68621545Y-58568392D02*
X68659640Y-58454106D01*
X68659640Y-58454106D02*
X68735830Y-58377916D01*
X68735830Y-58377916D02*
X68812021Y-58339821D01*
X68812021Y-58339821D02*
X68964402Y-58301725D01*
X68964402Y-58301725D02*
X69078688Y-58301725D01*
X69078688Y-58301725D02*
X69231069Y-58339821D01*
X69231069Y-58339821D02*
X69307259Y-58377916D01*
X69307259Y-58377916D02*
X69383450Y-58454106D01*
X69383450Y-58454106D02*
X69421545Y-58568392D01*
X69421545Y-58568392D02*
X69421545Y-58644583D01*
X69421545Y-58644583D02*
X69383450Y-58758868D01*
X69383450Y-58758868D02*
X69345354Y-58796964D01*
X69345354Y-58796964D02*
X69078688Y-58796964D01*
X69078688Y-58796964D02*
X69078688Y-58644583D01*
X69421545Y-59139821D02*
X68621545Y-59139821D01*
X68621545Y-59139821D02*
X68621545Y-59444583D01*
X68621545Y-59444583D02*
X68659640Y-59520773D01*
X68659640Y-59520773D02*
X68697735Y-59558868D01*
X68697735Y-59558868D02*
X68773926Y-59596964D01*
X68773926Y-59596964D02*
X68888211Y-59596964D01*
X68888211Y-59596964D02*
X68964402Y-59558868D01*
X68964402Y-59558868D02*
X69002497Y-59520773D01*
X69002497Y-59520773D02*
X69040592Y-59444583D01*
X69040592Y-59444583D02*
X69040592Y-59139821D01*
X68697735Y-59901725D02*
X68659640Y-59939821D01*
X68659640Y-59939821D02*
X68621545Y-60016011D01*
X68621545Y-60016011D02*
X68621545Y-60206487D01*
X68621545Y-60206487D02*
X68659640Y-60282678D01*
X68659640Y-60282678D02*
X68697735Y-60320773D01*
X68697735Y-60320773D02*
X68773926Y-60358868D01*
X68773926Y-60358868D02*
X68850116Y-60358868D01*
X68850116Y-60358868D02*
X68964402Y-60320773D01*
X68964402Y-60320773D02*
X69421545Y-59863630D01*
X69421545Y-59863630D02*
X69421545Y-60358868D01*
X68964402Y-60816011D02*
X68926307Y-60739821D01*
X68926307Y-60739821D02*
X68888211Y-60701726D01*
X68888211Y-60701726D02*
X68812021Y-60663630D01*
X68812021Y-60663630D02*
X68773926Y-60663630D01*
X68773926Y-60663630D02*
X68697735Y-60701726D01*
X68697735Y-60701726D02*
X68659640Y-60739821D01*
X68659640Y-60739821D02*
X68621545Y-60816011D01*
X68621545Y-60816011D02*
X68621545Y-60968392D01*
X68621545Y-60968392D02*
X68659640Y-61044583D01*
X68659640Y-61044583D02*
X68697735Y-61082678D01*
X68697735Y-61082678D02*
X68773926Y-61120773D01*
X68773926Y-61120773D02*
X68812021Y-61120773D01*
X68812021Y-61120773D02*
X68888211Y-61082678D01*
X68888211Y-61082678D02*
X68926307Y-61044583D01*
X68926307Y-61044583D02*
X68964402Y-60968392D01*
X68964402Y-60968392D02*
X68964402Y-60816011D01*
X68964402Y-60816011D02*
X69002497Y-60739821D01*
X69002497Y-60739821D02*
X69040592Y-60701726D01*
X69040592Y-60701726D02*
X69116783Y-60663630D01*
X69116783Y-60663630D02*
X69269164Y-60663630D01*
X69269164Y-60663630D02*
X69345354Y-60701726D01*
X69345354Y-60701726D02*
X69383450Y-60739821D01*
X69383450Y-60739821D02*
X69421545Y-60816011D01*
X69421545Y-60816011D02*
X69421545Y-60968392D01*
X69421545Y-60968392D02*
X69383450Y-61044583D01*
X69383450Y-61044583D02*
X69345354Y-61082678D01*
X69345354Y-61082678D02*
X69269164Y-61120773D01*
X69269164Y-61120773D02*
X69116783Y-61120773D01*
X69116783Y-61120773D02*
X69040592Y-61082678D01*
X69040592Y-61082678D02*
X69002497Y-61044583D01*
X69002497Y-61044583D02*
X68964402Y-60968392D01*
X66652973Y-58218392D02*
X66652973Y-58599345D01*
X66881545Y-58142202D02*
X66081545Y-58408869D01*
X66081545Y-58408869D02*
X66881545Y-58675535D01*
X66881545Y-58942202D02*
X66081545Y-58942202D01*
X66081545Y-58942202D02*
X66081545Y-59132678D01*
X66081545Y-59132678D02*
X66119640Y-59246964D01*
X66119640Y-59246964D02*
X66195830Y-59323154D01*
X66195830Y-59323154D02*
X66272021Y-59361249D01*
X66272021Y-59361249D02*
X66424402Y-59399345D01*
X66424402Y-59399345D02*
X66538688Y-59399345D01*
X66538688Y-59399345D02*
X66691069Y-59361249D01*
X66691069Y-59361249D02*
X66767259Y-59323154D01*
X66767259Y-59323154D02*
X66843450Y-59246964D01*
X66843450Y-59246964D02*
X66881545Y-59132678D01*
X66881545Y-59132678D02*
X66881545Y-58942202D01*
X66805354Y-60199345D02*
X66843450Y-60161249D01*
X66843450Y-60161249D02*
X66881545Y-60046964D01*
X66881545Y-60046964D02*
X66881545Y-59970773D01*
X66881545Y-59970773D02*
X66843450Y-59856487D01*
X66843450Y-59856487D02*
X66767259Y-59780297D01*
X66767259Y-59780297D02*
X66691069Y-59742202D01*
X66691069Y-59742202D02*
X66538688Y-59704106D01*
X66538688Y-59704106D02*
X66424402Y-59704106D01*
X66424402Y-59704106D02*
X66272021Y-59742202D01*
X66272021Y-59742202D02*
X66195830Y-59780297D01*
X66195830Y-59780297D02*
X66119640Y-59856487D01*
X66119640Y-59856487D02*
X66081545Y-59970773D01*
X66081545Y-59970773D02*
X66081545Y-60046964D01*
X66081545Y-60046964D02*
X66119640Y-60161249D01*
X66119640Y-60161249D02*
X66157735Y-60199345D01*
X66957735Y-60351726D02*
X66957735Y-60961249D01*
X66081545Y-61037440D02*
X66881545Y-61304107D01*
X66881545Y-61304107D02*
X66081545Y-61570773D01*
X66881545Y-62294583D02*
X66500592Y-62027916D01*
X66881545Y-61837440D02*
X66081545Y-61837440D01*
X66081545Y-61837440D02*
X66081545Y-62142202D01*
X66081545Y-62142202D02*
X66119640Y-62218392D01*
X66119640Y-62218392D02*
X66157735Y-62256487D01*
X66157735Y-62256487D02*
X66233926Y-62294583D01*
X66233926Y-62294583D02*
X66348211Y-62294583D01*
X66348211Y-62294583D02*
X66424402Y-62256487D01*
X66424402Y-62256487D02*
X66462497Y-62218392D01*
X66462497Y-62218392D02*
X66500592Y-62142202D01*
X66500592Y-62142202D02*
X66500592Y-61837440D01*
X66462497Y-62637440D02*
X66462497Y-62904106D01*
X66881545Y-63018392D02*
X66881545Y-62637440D01*
X66881545Y-62637440D02*
X66081545Y-62637440D01*
X66081545Y-62637440D02*
X66081545Y-63018392D01*
X66462497Y-63627916D02*
X66462497Y-63361250D01*
X66881545Y-63361250D02*
X66081545Y-63361250D01*
X66081545Y-63361250D02*
X66081545Y-63742202D01*
X91519640Y-58758868D02*
X91481545Y-58682678D01*
X91481545Y-58682678D02*
X91481545Y-58568392D01*
X91481545Y-58568392D02*
X91519640Y-58454106D01*
X91519640Y-58454106D02*
X91595830Y-58377916D01*
X91595830Y-58377916D02*
X91672021Y-58339821D01*
X91672021Y-58339821D02*
X91824402Y-58301725D01*
X91824402Y-58301725D02*
X91938688Y-58301725D01*
X91938688Y-58301725D02*
X92091069Y-58339821D01*
X92091069Y-58339821D02*
X92167259Y-58377916D01*
X92167259Y-58377916D02*
X92243450Y-58454106D01*
X92243450Y-58454106D02*
X92281545Y-58568392D01*
X92281545Y-58568392D02*
X92281545Y-58644583D01*
X92281545Y-58644583D02*
X92243450Y-58758868D01*
X92243450Y-58758868D02*
X92205354Y-58796964D01*
X92205354Y-58796964D02*
X91938688Y-58796964D01*
X91938688Y-58796964D02*
X91938688Y-58644583D01*
X92281545Y-59139821D02*
X91481545Y-59139821D01*
X91481545Y-59139821D02*
X91481545Y-59444583D01*
X91481545Y-59444583D02*
X91519640Y-59520773D01*
X91519640Y-59520773D02*
X91557735Y-59558868D01*
X91557735Y-59558868D02*
X91633926Y-59596964D01*
X91633926Y-59596964D02*
X91748211Y-59596964D01*
X91748211Y-59596964D02*
X91824402Y-59558868D01*
X91824402Y-59558868D02*
X91862497Y-59520773D01*
X91862497Y-59520773D02*
X91900592Y-59444583D01*
X91900592Y-59444583D02*
X91900592Y-59139821D01*
X92281545Y-60358868D02*
X92281545Y-59901725D01*
X92281545Y-60130297D02*
X91481545Y-60130297D01*
X91481545Y-60130297D02*
X91595830Y-60054106D01*
X91595830Y-60054106D02*
X91672021Y-59977916D01*
X91672021Y-59977916D02*
X91710116Y-59901725D01*
X92281545Y-60739821D02*
X92281545Y-60892202D01*
X92281545Y-60892202D02*
X92243450Y-60968392D01*
X92243450Y-60968392D02*
X92205354Y-61006488D01*
X92205354Y-61006488D02*
X92091069Y-61082678D01*
X92091069Y-61082678D02*
X91938688Y-61120773D01*
X91938688Y-61120773D02*
X91633926Y-61120773D01*
X91633926Y-61120773D02*
X91557735Y-61082678D01*
X91557735Y-61082678D02*
X91519640Y-61044583D01*
X91519640Y-61044583D02*
X91481545Y-60968392D01*
X91481545Y-60968392D02*
X91481545Y-60816011D01*
X91481545Y-60816011D02*
X91519640Y-60739821D01*
X91519640Y-60739821D02*
X91557735Y-60701726D01*
X91557735Y-60701726D02*
X91633926Y-60663630D01*
X91633926Y-60663630D02*
X91824402Y-60663630D01*
X91824402Y-60663630D02*
X91900592Y-60701726D01*
X91900592Y-60701726D02*
X91938688Y-60739821D01*
X91938688Y-60739821D02*
X91976783Y-60816011D01*
X91976783Y-60816011D02*
X91976783Y-60968392D01*
X91976783Y-60968392D02*
X91938688Y-61044583D01*
X91938688Y-61044583D02*
X91900592Y-61082678D01*
X91900592Y-61082678D02*
X91824402Y-61120773D01*
X73739640Y-70719821D02*
X73701545Y-70643631D01*
X73701545Y-70643631D02*
X73701545Y-70529345D01*
X73701545Y-70529345D02*
X73739640Y-70415059D01*
X73739640Y-70415059D02*
X73815830Y-70338869D01*
X73815830Y-70338869D02*
X73892021Y-70300774D01*
X73892021Y-70300774D02*
X74044402Y-70262678D01*
X74044402Y-70262678D02*
X74158688Y-70262678D01*
X74158688Y-70262678D02*
X74311069Y-70300774D01*
X74311069Y-70300774D02*
X74387259Y-70338869D01*
X74387259Y-70338869D02*
X74463450Y-70415059D01*
X74463450Y-70415059D02*
X74501545Y-70529345D01*
X74501545Y-70529345D02*
X74501545Y-70605536D01*
X74501545Y-70605536D02*
X74463450Y-70719821D01*
X74463450Y-70719821D02*
X74425354Y-70757917D01*
X74425354Y-70757917D02*
X74158688Y-70757917D01*
X74158688Y-70757917D02*
X74158688Y-70605536D01*
X74501545Y-71100774D02*
X73701545Y-71100774D01*
X73701545Y-71100774D02*
X73701545Y-71405536D01*
X73701545Y-71405536D02*
X73739640Y-71481726D01*
X73739640Y-71481726D02*
X73777735Y-71519821D01*
X73777735Y-71519821D02*
X73853926Y-71557917D01*
X73853926Y-71557917D02*
X73968211Y-71557917D01*
X73968211Y-71557917D02*
X74044402Y-71519821D01*
X74044402Y-71519821D02*
X74082497Y-71481726D01*
X74082497Y-71481726D02*
X74120592Y-71405536D01*
X74120592Y-71405536D02*
X74120592Y-71100774D01*
X73701545Y-72243631D02*
X73701545Y-72091250D01*
X73701545Y-72091250D02*
X73739640Y-72015059D01*
X73739640Y-72015059D02*
X73777735Y-71976964D01*
X73777735Y-71976964D02*
X73892021Y-71900774D01*
X73892021Y-71900774D02*
X74044402Y-71862678D01*
X74044402Y-71862678D02*
X74349164Y-71862678D01*
X74349164Y-71862678D02*
X74425354Y-71900774D01*
X74425354Y-71900774D02*
X74463450Y-71938869D01*
X74463450Y-71938869D02*
X74501545Y-72015059D01*
X74501545Y-72015059D02*
X74501545Y-72167440D01*
X74501545Y-72167440D02*
X74463450Y-72243631D01*
X74463450Y-72243631D02*
X74425354Y-72281726D01*
X74425354Y-72281726D02*
X74349164Y-72319821D01*
X74349164Y-72319821D02*
X74158688Y-72319821D01*
X74158688Y-72319821D02*
X74082497Y-72281726D01*
X74082497Y-72281726D02*
X74044402Y-72243631D01*
X74044402Y-72243631D02*
X74006307Y-72167440D01*
X74006307Y-72167440D02*
X74006307Y-72015059D01*
X74006307Y-72015059D02*
X74044402Y-71938869D01*
X74044402Y-71938869D02*
X74082497Y-71900774D01*
X74082497Y-71900774D02*
X74158688Y-71862678D01*
X76249640Y-70719821D02*
X76211545Y-70643631D01*
X76211545Y-70643631D02*
X76211545Y-70529345D01*
X76211545Y-70529345D02*
X76249640Y-70415059D01*
X76249640Y-70415059D02*
X76325830Y-70338869D01*
X76325830Y-70338869D02*
X76402021Y-70300774D01*
X76402021Y-70300774D02*
X76554402Y-70262678D01*
X76554402Y-70262678D02*
X76668688Y-70262678D01*
X76668688Y-70262678D02*
X76821069Y-70300774D01*
X76821069Y-70300774D02*
X76897259Y-70338869D01*
X76897259Y-70338869D02*
X76973450Y-70415059D01*
X76973450Y-70415059D02*
X77011545Y-70529345D01*
X77011545Y-70529345D02*
X77011545Y-70605536D01*
X77011545Y-70605536D02*
X76973450Y-70719821D01*
X76973450Y-70719821D02*
X76935354Y-70757917D01*
X76935354Y-70757917D02*
X76668688Y-70757917D01*
X76668688Y-70757917D02*
X76668688Y-70605536D01*
X77011545Y-71100774D02*
X76211545Y-71100774D01*
X76211545Y-71100774D02*
X76211545Y-71405536D01*
X76211545Y-71405536D02*
X76249640Y-71481726D01*
X76249640Y-71481726D02*
X76287735Y-71519821D01*
X76287735Y-71519821D02*
X76363926Y-71557917D01*
X76363926Y-71557917D02*
X76478211Y-71557917D01*
X76478211Y-71557917D02*
X76554402Y-71519821D01*
X76554402Y-71519821D02*
X76592497Y-71481726D01*
X76592497Y-71481726D02*
X76630592Y-71405536D01*
X76630592Y-71405536D02*
X76630592Y-71100774D01*
X76211545Y-71824583D02*
X76211545Y-72357917D01*
X76211545Y-72357917D02*
X77011545Y-72015059D01*
X76279640Y-58758868D02*
X76241545Y-58682678D01*
X76241545Y-58682678D02*
X76241545Y-58568392D01*
X76241545Y-58568392D02*
X76279640Y-58454106D01*
X76279640Y-58454106D02*
X76355830Y-58377916D01*
X76355830Y-58377916D02*
X76432021Y-58339821D01*
X76432021Y-58339821D02*
X76584402Y-58301725D01*
X76584402Y-58301725D02*
X76698688Y-58301725D01*
X76698688Y-58301725D02*
X76851069Y-58339821D01*
X76851069Y-58339821D02*
X76927259Y-58377916D01*
X76927259Y-58377916D02*
X77003450Y-58454106D01*
X77003450Y-58454106D02*
X77041545Y-58568392D01*
X77041545Y-58568392D02*
X77041545Y-58644583D01*
X77041545Y-58644583D02*
X77003450Y-58758868D01*
X77003450Y-58758868D02*
X76965354Y-58796964D01*
X76965354Y-58796964D02*
X76698688Y-58796964D01*
X76698688Y-58796964D02*
X76698688Y-58644583D01*
X77041545Y-59139821D02*
X76241545Y-59139821D01*
X76241545Y-59139821D02*
X76241545Y-59444583D01*
X76241545Y-59444583D02*
X76279640Y-59520773D01*
X76279640Y-59520773D02*
X76317735Y-59558868D01*
X76317735Y-59558868D02*
X76393926Y-59596964D01*
X76393926Y-59596964D02*
X76508211Y-59596964D01*
X76508211Y-59596964D02*
X76584402Y-59558868D01*
X76584402Y-59558868D02*
X76622497Y-59520773D01*
X76622497Y-59520773D02*
X76660592Y-59444583D01*
X76660592Y-59444583D02*
X76660592Y-59139821D01*
X76317735Y-59901725D02*
X76279640Y-59939821D01*
X76279640Y-59939821D02*
X76241545Y-60016011D01*
X76241545Y-60016011D02*
X76241545Y-60206487D01*
X76241545Y-60206487D02*
X76279640Y-60282678D01*
X76279640Y-60282678D02*
X76317735Y-60320773D01*
X76317735Y-60320773D02*
X76393926Y-60358868D01*
X76393926Y-60358868D02*
X76470116Y-60358868D01*
X76470116Y-60358868D02*
X76584402Y-60320773D01*
X76584402Y-60320773D02*
X77041545Y-59863630D01*
X77041545Y-59863630D02*
X77041545Y-60358868D01*
X76241545Y-61044583D02*
X76241545Y-60892202D01*
X76241545Y-60892202D02*
X76279640Y-60816011D01*
X76279640Y-60816011D02*
X76317735Y-60777916D01*
X76317735Y-60777916D02*
X76432021Y-60701726D01*
X76432021Y-60701726D02*
X76584402Y-60663630D01*
X76584402Y-60663630D02*
X76889164Y-60663630D01*
X76889164Y-60663630D02*
X76965354Y-60701726D01*
X76965354Y-60701726D02*
X77003450Y-60739821D01*
X77003450Y-60739821D02*
X77041545Y-60816011D01*
X77041545Y-60816011D02*
X77041545Y-60968392D01*
X77041545Y-60968392D02*
X77003450Y-61044583D01*
X77003450Y-61044583D02*
X76965354Y-61082678D01*
X76965354Y-61082678D02*
X76889164Y-61120773D01*
X76889164Y-61120773D02*
X76698688Y-61120773D01*
X76698688Y-61120773D02*
X76622497Y-61082678D01*
X76622497Y-61082678D02*
X76584402Y-61044583D01*
X76584402Y-61044583D02*
X76546307Y-60968392D01*
X76546307Y-60968392D02*
X76546307Y-60816011D01*
X76546307Y-60816011D02*
X76584402Y-60739821D01*
X76584402Y-60739821D02*
X76622497Y-60701726D01*
X76622497Y-60701726D02*
X76698688Y-60663630D01*
X99558773Y-64851640D02*
X99634963Y-64813545D01*
X99634963Y-64813545D02*
X99749249Y-64813545D01*
X99749249Y-64813545D02*
X99863535Y-64851640D01*
X99863535Y-64851640D02*
X99939725Y-64927830D01*
X99939725Y-64927830D02*
X99977820Y-65004021D01*
X99977820Y-65004021D02*
X100015916Y-65156402D01*
X100015916Y-65156402D02*
X100015916Y-65270688D01*
X100015916Y-65270688D02*
X99977820Y-65423069D01*
X99977820Y-65423069D02*
X99939725Y-65499259D01*
X99939725Y-65499259D02*
X99863535Y-65575450D01*
X99863535Y-65575450D02*
X99749249Y-65613545D01*
X99749249Y-65613545D02*
X99673058Y-65613545D01*
X99673058Y-65613545D02*
X99558773Y-65575450D01*
X99558773Y-65575450D02*
X99520677Y-65537354D01*
X99520677Y-65537354D02*
X99520677Y-65270688D01*
X99520677Y-65270688D02*
X99673058Y-65270688D01*
X99177820Y-65613545D02*
X99177820Y-64813545D01*
X99177820Y-64813545D02*
X98720677Y-65613545D01*
X98720677Y-65613545D02*
X98720677Y-64813545D01*
X98339725Y-65613545D02*
X98339725Y-64813545D01*
X98339725Y-64813545D02*
X98149249Y-64813545D01*
X98149249Y-64813545D02*
X98034963Y-64851640D01*
X98034963Y-64851640D02*
X97958773Y-64927830D01*
X97958773Y-64927830D02*
X97920678Y-65004021D01*
X97920678Y-65004021D02*
X97882582Y-65156402D01*
X97882582Y-65156402D02*
X97882582Y-65270688D01*
X97882582Y-65270688D02*
X97920678Y-65423069D01*
X97920678Y-65423069D02*
X97958773Y-65499259D01*
X97958773Y-65499259D02*
X98034963Y-65575450D01*
X98034963Y-65575450D02*
X98149249Y-65613545D01*
X98149249Y-65613545D02*
X98339725Y-65613545D01*
X53381545Y-57994583D02*
X54181545Y-58261250D01*
X54181545Y-58261250D02*
X53381545Y-58527916D01*
X53762497Y-59061249D02*
X53800592Y-59175535D01*
X53800592Y-59175535D02*
X53838688Y-59213630D01*
X53838688Y-59213630D02*
X53914878Y-59251726D01*
X53914878Y-59251726D02*
X54029164Y-59251726D01*
X54029164Y-59251726D02*
X54105354Y-59213630D01*
X54105354Y-59213630D02*
X54143450Y-59175535D01*
X54143450Y-59175535D02*
X54181545Y-59099345D01*
X54181545Y-59099345D02*
X54181545Y-58794583D01*
X54181545Y-58794583D02*
X53381545Y-58794583D01*
X53381545Y-58794583D02*
X53381545Y-59061249D01*
X53381545Y-59061249D02*
X53419640Y-59137440D01*
X53419640Y-59137440D02*
X53457735Y-59175535D01*
X53457735Y-59175535D02*
X53533926Y-59213630D01*
X53533926Y-59213630D02*
X53610116Y-59213630D01*
X53610116Y-59213630D02*
X53686307Y-59175535D01*
X53686307Y-59175535D02*
X53724402Y-59137440D01*
X53724402Y-59137440D02*
X53762497Y-59061249D01*
X53762497Y-59061249D02*
X53762497Y-58794583D01*
X53381545Y-59594583D02*
X54029164Y-59594583D01*
X54029164Y-59594583D02*
X54105354Y-59632678D01*
X54105354Y-59632678D02*
X54143450Y-59670773D01*
X54143450Y-59670773D02*
X54181545Y-59746964D01*
X54181545Y-59746964D02*
X54181545Y-59899345D01*
X54181545Y-59899345D02*
X54143450Y-59975535D01*
X54143450Y-59975535D02*
X54105354Y-60013630D01*
X54105354Y-60013630D02*
X54029164Y-60051726D01*
X54029164Y-60051726D02*
X53381545Y-60051726D01*
X54143450Y-60394582D02*
X54181545Y-60508868D01*
X54181545Y-60508868D02*
X54181545Y-60699344D01*
X54181545Y-60699344D02*
X54143450Y-60775535D01*
X54143450Y-60775535D02*
X54105354Y-60813630D01*
X54105354Y-60813630D02*
X54029164Y-60851725D01*
X54029164Y-60851725D02*
X53952973Y-60851725D01*
X53952973Y-60851725D02*
X53876783Y-60813630D01*
X53876783Y-60813630D02*
X53838688Y-60775535D01*
X53838688Y-60775535D02*
X53800592Y-60699344D01*
X53800592Y-60699344D02*
X53762497Y-60546963D01*
X53762497Y-60546963D02*
X53724402Y-60470773D01*
X53724402Y-60470773D02*
X53686307Y-60432678D01*
X53686307Y-60432678D02*
X53610116Y-60394582D01*
X53610116Y-60394582D02*
X53533926Y-60394582D01*
X53533926Y-60394582D02*
X53457735Y-60432678D01*
X53457735Y-60432678D02*
X53419640Y-60470773D01*
X53419640Y-60470773D02*
X53381545Y-60546963D01*
X53381545Y-60546963D02*
X53381545Y-60737440D01*
X53381545Y-60737440D02*
X53419640Y-60851725D01*
X88979640Y-58758868D02*
X88941545Y-58682678D01*
X88941545Y-58682678D02*
X88941545Y-58568392D01*
X88941545Y-58568392D02*
X88979640Y-58454106D01*
X88979640Y-58454106D02*
X89055830Y-58377916D01*
X89055830Y-58377916D02*
X89132021Y-58339821D01*
X89132021Y-58339821D02*
X89284402Y-58301725D01*
X89284402Y-58301725D02*
X89398688Y-58301725D01*
X89398688Y-58301725D02*
X89551069Y-58339821D01*
X89551069Y-58339821D02*
X89627259Y-58377916D01*
X89627259Y-58377916D02*
X89703450Y-58454106D01*
X89703450Y-58454106D02*
X89741545Y-58568392D01*
X89741545Y-58568392D02*
X89741545Y-58644583D01*
X89741545Y-58644583D02*
X89703450Y-58758868D01*
X89703450Y-58758868D02*
X89665354Y-58796964D01*
X89665354Y-58796964D02*
X89398688Y-58796964D01*
X89398688Y-58796964D02*
X89398688Y-58644583D01*
X89741545Y-59139821D02*
X88941545Y-59139821D01*
X88941545Y-59139821D02*
X88941545Y-59444583D01*
X88941545Y-59444583D02*
X88979640Y-59520773D01*
X88979640Y-59520773D02*
X89017735Y-59558868D01*
X89017735Y-59558868D02*
X89093926Y-59596964D01*
X89093926Y-59596964D02*
X89208211Y-59596964D01*
X89208211Y-59596964D02*
X89284402Y-59558868D01*
X89284402Y-59558868D02*
X89322497Y-59520773D01*
X89322497Y-59520773D02*
X89360592Y-59444583D01*
X89360592Y-59444583D02*
X89360592Y-59139821D01*
X89017735Y-59901725D02*
X88979640Y-59939821D01*
X88979640Y-59939821D02*
X88941545Y-60016011D01*
X88941545Y-60016011D02*
X88941545Y-60206487D01*
X88941545Y-60206487D02*
X88979640Y-60282678D01*
X88979640Y-60282678D02*
X89017735Y-60320773D01*
X89017735Y-60320773D02*
X89093926Y-60358868D01*
X89093926Y-60358868D02*
X89170116Y-60358868D01*
X89170116Y-60358868D02*
X89284402Y-60320773D01*
X89284402Y-60320773D02*
X89741545Y-59863630D01*
X89741545Y-59863630D02*
X89741545Y-60358868D01*
X88941545Y-60854107D02*
X88941545Y-60930297D01*
X88941545Y-60930297D02*
X88979640Y-61006488D01*
X88979640Y-61006488D02*
X89017735Y-61044583D01*
X89017735Y-61044583D02*
X89093926Y-61082678D01*
X89093926Y-61082678D02*
X89246307Y-61120773D01*
X89246307Y-61120773D02*
X89436783Y-61120773D01*
X89436783Y-61120773D02*
X89589164Y-61082678D01*
X89589164Y-61082678D02*
X89665354Y-61044583D01*
X89665354Y-61044583D02*
X89703450Y-61006488D01*
X89703450Y-61006488D02*
X89741545Y-60930297D01*
X89741545Y-60930297D02*
X89741545Y-60854107D01*
X89741545Y-60854107D02*
X89703450Y-60777916D01*
X89703450Y-60777916D02*
X89665354Y-60739821D01*
X89665354Y-60739821D02*
X89589164Y-60701726D01*
X89589164Y-60701726D02*
X89436783Y-60663630D01*
X89436783Y-60663630D02*
X89246307Y-60663630D01*
X89246307Y-60663630D02*
X89093926Y-60701726D01*
X89093926Y-60701726D02*
X89017735Y-60739821D01*
X89017735Y-60739821D02*
X88979640Y-60777916D01*
X88979640Y-60777916D02*
X88941545Y-60854107D01*
X55921545Y-58089821D02*
X56721545Y-58356488D01*
X56721545Y-58356488D02*
X55921545Y-58623154D01*
X56683450Y-58851725D02*
X56721545Y-58966011D01*
X56721545Y-58966011D02*
X56721545Y-59156487D01*
X56721545Y-59156487D02*
X56683450Y-59232678D01*
X56683450Y-59232678D02*
X56645354Y-59270773D01*
X56645354Y-59270773D02*
X56569164Y-59308868D01*
X56569164Y-59308868D02*
X56492973Y-59308868D01*
X56492973Y-59308868D02*
X56416783Y-59270773D01*
X56416783Y-59270773D02*
X56378688Y-59232678D01*
X56378688Y-59232678D02*
X56340592Y-59156487D01*
X56340592Y-59156487D02*
X56302497Y-59004106D01*
X56302497Y-59004106D02*
X56264402Y-58927916D01*
X56264402Y-58927916D02*
X56226307Y-58889821D01*
X56226307Y-58889821D02*
X56150116Y-58851725D01*
X56150116Y-58851725D02*
X56073926Y-58851725D01*
X56073926Y-58851725D02*
X55997735Y-58889821D01*
X55997735Y-58889821D02*
X55959640Y-58927916D01*
X55959640Y-58927916D02*
X55921545Y-59004106D01*
X55921545Y-59004106D02*
X55921545Y-59194583D01*
X55921545Y-59194583D02*
X55959640Y-59308868D01*
X56340592Y-59804107D02*
X56721545Y-59804107D01*
X55921545Y-59537440D02*
X56340592Y-59804107D01*
X56340592Y-59804107D02*
X55921545Y-60070773D01*
X56683450Y-60299344D02*
X56721545Y-60413630D01*
X56721545Y-60413630D02*
X56721545Y-60604106D01*
X56721545Y-60604106D02*
X56683450Y-60680297D01*
X56683450Y-60680297D02*
X56645354Y-60718392D01*
X56645354Y-60718392D02*
X56569164Y-60756487D01*
X56569164Y-60756487D02*
X56492973Y-60756487D01*
X56492973Y-60756487D02*
X56416783Y-60718392D01*
X56416783Y-60718392D02*
X56378688Y-60680297D01*
X56378688Y-60680297D02*
X56340592Y-60604106D01*
X56340592Y-60604106D02*
X56302497Y-60451725D01*
X56302497Y-60451725D02*
X56264402Y-60375535D01*
X56264402Y-60375535D02*
X56226307Y-60337440D01*
X56226307Y-60337440D02*
X56150116Y-60299344D01*
X56150116Y-60299344D02*
X56073926Y-60299344D01*
X56073926Y-60299344D02*
X55997735Y-60337440D01*
X55997735Y-60337440D02*
X55959640Y-60375535D01*
X55959640Y-60375535D02*
X55921545Y-60451725D01*
X55921545Y-60451725D02*
X55921545Y-60642202D01*
X55921545Y-60642202D02*
X55959640Y-60756487D01*
X83899640Y-58751726D02*
X83861545Y-58675536D01*
X83861545Y-58675536D02*
X83861545Y-58561250D01*
X83861545Y-58561250D02*
X83899640Y-58446964D01*
X83899640Y-58446964D02*
X83975830Y-58370774D01*
X83975830Y-58370774D02*
X84052021Y-58332679D01*
X84052021Y-58332679D02*
X84204402Y-58294583D01*
X84204402Y-58294583D02*
X84318688Y-58294583D01*
X84318688Y-58294583D02*
X84471069Y-58332679D01*
X84471069Y-58332679D02*
X84547259Y-58370774D01*
X84547259Y-58370774D02*
X84623450Y-58446964D01*
X84623450Y-58446964D02*
X84661545Y-58561250D01*
X84661545Y-58561250D02*
X84661545Y-58637441D01*
X84661545Y-58637441D02*
X84623450Y-58751726D01*
X84623450Y-58751726D02*
X84585354Y-58789822D01*
X84585354Y-58789822D02*
X84318688Y-58789822D01*
X84318688Y-58789822D02*
X84318688Y-58637441D01*
X84661545Y-59132679D02*
X83861545Y-59132679D01*
X83861545Y-59132679D02*
X84661545Y-59589822D01*
X84661545Y-59589822D02*
X83861545Y-59589822D01*
X84661545Y-59970774D02*
X83861545Y-59970774D01*
X83861545Y-59970774D02*
X83861545Y-60161250D01*
X83861545Y-60161250D02*
X83899640Y-60275536D01*
X83899640Y-60275536D02*
X83975830Y-60351726D01*
X83975830Y-60351726D02*
X84052021Y-60389821D01*
X84052021Y-60389821D02*
X84204402Y-60427917D01*
X84204402Y-60427917D02*
X84318688Y-60427917D01*
X84318688Y-60427917D02*
X84471069Y-60389821D01*
X84471069Y-60389821D02*
X84547259Y-60351726D01*
X84547259Y-60351726D02*
X84623450Y-60275536D01*
X84623450Y-60275536D02*
X84661545Y-60161250D01*
X84661545Y-60161250D02*
X84661545Y-59970774D01*
X68659640Y-70719821D02*
X68621545Y-70643631D01*
X68621545Y-70643631D02*
X68621545Y-70529345D01*
X68621545Y-70529345D02*
X68659640Y-70415059D01*
X68659640Y-70415059D02*
X68735830Y-70338869D01*
X68735830Y-70338869D02*
X68812021Y-70300774D01*
X68812021Y-70300774D02*
X68964402Y-70262678D01*
X68964402Y-70262678D02*
X69078688Y-70262678D01*
X69078688Y-70262678D02*
X69231069Y-70300774D01*
X69231069Y-70300774D02*
X69307259Y-70338869D01*
X69307259Y-70338869D02*
X69383450Y-70415059D01*
X69383450Y-70415059D02*
X69421545Y-70529345D01*
X69421545Y-70529345D02*
X69421545Y-70605536D01*
X69421545Y-70605536D02*
X69383450Y-70719821D01*
X69383450Y-70719821D02*
X69345354Y-70757917D01*
X69345354Y-70757917D02*
X69078688Y-70757917D01*
X69078688Y-70757917D02*
X69078688Y-70605536D01*
X69421545Y-71100774D02*
X68621545Y-71100774D01*
X68621545Y-71100774D02*
X68621545Y-71405536D01*
X68621545Y-71405536D02*
X68659640Y-71481726D01*
X68659640Y-71481726D02*
X68697735Y-71519821D01*
X68697735Y-71519821D02*
X68773926Y-71557917D01*
X68773926Y-71557917D02*
X68888211Y-71557917D01*
X68888211Y-71557917D02*
X68964402Y-71519821D01*
X68964402Y-71519821D02*
X69002497Y-71481726D01*
X69002497Y-71481726D02*
X69040592Y-71405536D01*
X69040592Y-71405536D02*
X69040592Y-71100774D01*
X68621545Y-72281726D02*
X68621545Y-71900774D01*
X68621545Y-71900774D02*
X69002497Y-71862678D01*
X69002497Y-71862678D02*
X68964402Y-71900774D01*
X68964402Y-71900774D02*
X68926307Y-71976964D01*
X68926307Y-71976964D02*
X68926307Y-72167440D01*
X68926307Y-72167440D02*
X68964402Y-72243631D01*
X68964402Y-72243631D02*
X69002497Y-72281726D01*
X69002497Y-72281726D02*
X69078688Y-72319821D01*
X69078688Y-72319821D02*
X69269164Y-72319821D01*
X69269164Y-72319821D02*
X69345354Y-72281726D01*
X69345354Y-72281726D02*
X69383450Y-72243631D01*
X69383450Y-72243631D02*
X69421545Y-72167440D01*
X69421545Y-72167440D02*
X69421545Y-71976964D01*
X69421545Y-71976964D02*
X69383450Y-71900774D01*
X69383450Y-71900774D02*
X69345354Y-71862678D01*
X63541545Y-58220773D02*
X63541545Y-58716011D01*
X63541545Y-58716011D02*
X63846307Y-58449345D01*
X63846307Y-58449345D02*
X63846307Y-58563630D01*
X63846307Y-58563630D02*
X63884402Y-58639821D01*
X63884402Y-58639821D02*
X63922497Y-58677916D01*
X63922497Y-58677916D02*
X63998688Y-58716011D01*
X63998688Y-58716011D02*
X64189164Y-58716011D01*
X64189164Y-58716011D02*
X64265354Y-58677916D01*
X64265354Y-58677916D02*
X64303450Y-58639821D01*
X64303450Y-58639821D02*
X64341545Y-58563630D01*
X64341545Y-58563630D02*
X64341545Y-58335059D01*
X64341545Y-58335059D02*
X64303450Y-58258868D01*
X64303450Y-58258868D02*
X64265354Y-58220773D01*
X63541545Y-58944583D02*
X64341545Y-59211250D01*
X64341545Y-59211250D02*
X63541545Y-59477916D01*
X63541545Y-59668392D02*
X63541545Y-60163630D01*
X63541545Y-60163630D02*
X63846307Y-59896964D01*
X63846307Y-59896964D02*
X63846307Y-60011249D01*
X63846307Y-60011249D02*
X63884402Y-60087440D01*
X63884402Y-60087440D02*
X63922497Y-60125535D01*
X63922497Y-60125535D02*
X63998688Y-60163630D01*
X63998688Y-60163630D02*
X64189164Y-60163630D01*
X64189164Y-60163630D02*
X64265354Y-60125535D01*
X64265354Y-60125535D02*
X64303450Y-60087440D01*
X64303450Y-60087440D02*
X64341545Y-60011249D01*
X64341545Y-60011249D02*
X64341545Y-59782678D01*
X64341545Y-59782678D02*
X64303450Y-59706487D01*
X64303450Y-59706487D02*
X64265354Y-59668392D01*
X81359640Y-70719821D02*
X81321545Y-70643631D01*
X81321545Y-70643631D02*
X81321545Y-70529345D01*
X81321545Y-70529345D02*
X81359640Y-70415059D01*
X81359640Y-70415059D02*
X81435830Y-70338869D01*
X81435830Y-70338869D02*
X81512021Y-70300774D01*
X81512021Y-70300774D02*
X81664402Y-70262678D01*
X81664402Y-70262678D02*
X81778688Y-70262678D01*
X81778688Y-70262678D02*
X81931069Y-70300774D01*
X81931069Y-70300774D02*
X82007259Y-70338869D01*
X82007259Y-70338869D02*
X82083450Y-70415059D01*
X82083450Y-70415059D02*
X82121545Y-70529345D01*
X82121545Y-70529345D02*
X82121545Y-70605536D01*
X82121545Y-70605536D02*
X82083450Y-70719821D01*
X82083450Y-70719821D02*
X82045354Y-70757917D01*
X82045354Y-70757917D02*
X81778688Y-70757917D01*
X81778688Y-70757917D02*
X81778688Y-70605536D01*
X82121545Y-71100774D02*
X81321545Y-71100774D01*
X81321545Y-71100774D02*
X81321545Y-71405536D01*
X81321545Y-71405536D02*
X81359640Y-71481726D01*
X81359640Y-71481726D02*
X81397735Y-71519821D01*
X81397735Y-71519821D02*
X81473926Y-71557917D01*
X81473926Y-71557917D02*
X81588211Y-71557917D01*
X81588211Y-71557917D02*
X81664402Y-71519821D01*
X81664402Y-71519821D02*
X81702497Y-71481726D01*
X81702497Y-71481726D02*
X81740592Y-71405536D01*
X81740592Y-71405536D02*
X81740592Y-71100774D01*
X82121545Y-71938869D02*
X82121545Y-72091250D01*
X82121545Y-72091250D02*
X82083450Y-72167440D01*
X82083450Y-72167440D02*
X82045354Y-72205536D01*
X82045354Y-72205536D02*
X81931069Y-72281726D01*
X81931069Y-72281726D02*
X81778688Y-72319821D01*
X81778688Y-72319821D02*
X81473926Y-72319821D01*
X81473926Y-72319821D02*
X81397735Y-72281726D01*
X81397735Y-72281726D02*
X81359640Y-72243631D01*
X81359640Y-72243631D02*
X81321545Y-72167440D01*
X81321545Y-72167440D02*
X81321545Y-72015059D01*
X81321545Y-72015059D02*
X81359640Y-71938869D01*
X81359640Y-71938869D02*
X81397735Y-71900774D01*
X81397735Y-71900774D02*
X81473926Y-71862678D01*
X81473926Y-71862678D02*
X81664402Y-71862678D01*
X81664402Y-71862678D02*
X81740592Y-71900774D01*
X81740592Y-71900774D02*
X81778688Y-71938869D01*
X81778688Y-71938869D02*
X81816783Y-72015059D01*
X81816783Y-72015059D02*
X81816783Y-72167440D01*
X81816783Y-72167440D02*
X81778688Y-72243631D01*
X81778688Y-72243631D02*
X81740592Y-72281726D01*
X81740592Y-72281726D02*
X81664402Y-72319821D01*
X78819640Y-70719821D02*
X78781545Y-70643631D01*
X78781545Y-70643631D02*
X78781545Y-70529345D01*
X78781545Y-70529345D02*
X78819640Y-70415059D01*
X78819640Y-70415059D02*
X78895830Y-70338869D01*
X78895830Y-70338869D02*
X78972021Y-70300774D01*
X78972021Y-70300774D02*
X79124402Y-70262678D01*
X79124402Y-70262678D02*
X79238688Y-70262678D01*
X79238688Y-70262678D02*
X79391069Y-70300774D01*
X79391069Y-70300774D02*
X79467259Y-70338869D01*
X79467259Y-70338869D02*
X79543450Y-70415059D01*
X79543450Y-70415059D02*
X79581545Y-70529345D01*
X79581545Y-70529345D02*
X79581545Y-70605536D01*
X79581545Y-70605536D02*
X79543450Y-70719821D01*
X79543450Y-70719821D02*
X79505354Y-70757917D01*
X79505354Y-70757917D02*
X79238688Y-70757917D01*
X79238688Y-70757917D02*
X79238688Y-70605536D01*
X79581545Y-71100774D02*
X78781545Y-71100774D01*
X78781545Y-71100774D02*
X78781545Y-71405536D01*
X78781545Y-71405536D02*
X78819640Y-71481726D01*
X78819640Y-71481726D02*
X78857735Y-71519821D01*
X78857735Y-71519821D02*
X78933926Y-71557917D01*
X78933926Y-71557917D02*
X79048211Y-71557917D01*
X79048211Y-71557917D02*
X79124402Y-71519821D01*
X79124402Y-71519821D02*
X79162497Y-71481726D01*
X79162497Y-71481726D02*
X79200592Y-71405536D01*
X79200592Y-71405536D02*
X79200592Y-71100774D01*
X79124402Y-72015059D02*
X79086307Y-71938869D01*
X79086307Y-71938869D02*
X79048211Y-71900774D01*
X79048211Y-71900774D02*
X78972021Y-71862678D01*
X78972021Y-71862678D02*
X78933926Y-71862678D01*
X78933926Y-71862678D02*
X78857735Y-71900774D01*
X78857735Y-71900774D02*
X78819640Y-71938869D01*
X78819640Y-71938869D02*
X78781545Y-72015059D01*
X78781545Y-72015059D02*
X78781545Y-72167440D01*
X78781545Y-72167440D02*
X78819640Y-72243631D01*
X78819640Y-72243631D02*
X78857735Y-72281726D01*
X78857735Y-72281726D02*
X78933926Y-72319821D01*
X78933926Y-72319821D02*
X78972021Y-72319821D01*
X78972021Y-72319821D02*
X79048211Y-72281726D01*
X79048211Y-72281726D02*
X79086307Y-72243631D01*
X79086307Y-72243631D02*
X79124402Y-72167440D01*
X79124402Y-72167440D02*
X79124402Y-72015059D01*
X79124402Y-72015059D02*
X79162497Y-71938869D01*
X79162497Y-71938869D02*
X79200592Y-71900774D01*
X79200592Y-71900774D02*
X79276783Y-71862678D01*
X79276783Y-71862678D02*
X79429164Y-71862678D01*
X79429164Y-71862678D02*
X79505354Y-71900774D01*
X79505354Y-71900774D02*
X79543450Y-71938869D01*
X79543450Y-71938869D02*
X79581545Y-72015059D01*
X79581545Y-72015059D02*
X79581545Y-72167440D01*
X79581545Y-72167440D02*
X79543450Y-72243631D01*
X79543450Y-72243631D02*
X79505354Y-72281726D01*
X79505354Y-72281726D02*
X79429164Y-72319821D01*
X79429164Y-72319821D02*
X79276783Y-72319821D01*
X79276783Y-72319821D02*
X79200592Y-72281726D01*
X79200592Y-72281726D02*
X79162497Y-72243631D01*
X79162497Y-72243631D02*
X79124402Y-72167440D01*
X94059640Y-58758868D02*
X94021545Y-58682678D01*
X94021545Y-58682678D02*
X94021545Y-58568392D01*
X94021545Y-58568392D02*
X94059640Y-58454106D01*
X94059640Y-58454106D02*
X94135830Y-58377916D01*
X94135830Y-58377916D02*
X94212021Y-58339821D01*
X94212021Y-58339821D02*
X94364402Y-58301725D01*
X94364402Y-58301725D02*
X94478688Y-58301725D01*
X94478688Y-58301725D02*
X94631069Y-58339821D01*
X94631069Y-58339821D02*
X94707259Y-58377916D01*
X94707259Y-58377916D02*
X94783450Y-58454106D01*
X94783450Y-58454106D02*
X94821545Y-58568392D01*
X94821545Y-58568392D02*
X94821545Y-58644583D01*
X94821545Y-58644583D02*
X94783450Y-58758868D01*
X94783450Y-58758868D02*
X94745354Y-58796964D01*
X94745354Y-58796964D02*
X94478688Y-58796964D01*
X94478688Y-58796964D02*
X94478688Y-58644583D01*
X94821545Y-59139821D02*
X94021545Y-59139821D01*
X94021545Y-59139821D02*
X94021545Y-59444583D01*
X94021545Y-59444583D02*
X94059640Y-59520773D01*
X94059640Y-59520773D02*
X94097735Y-59558868D01*
X94097735Y-59558868D02*
X94173926Y-59596964D01*
X94173926Y-59596964D02*
X94288211Y-59596964D01*
X94288211Y-59596964D02*
X94364402Y-59558868D01*
X94364402Y-59558868D02*
X94402497Y-59520773D01*
X94402497Y-59520773D02*
X94440592Y-59444583D01*
X94440592Y-59444583D02*
X94440592Y-59139821D01*
X94821545Y-60358868D02*
X94821545Y-59901725D01*
X94821545Y-60130297D02*
X94021545Y-60130297D01*
X94021545Y-60130297D02*
X94135830Y-60054106D01*
X94135830Y-60054106D02*
X94212021Y-59977916D01*
X94212021Y-59977916D02*
X94250116Y-59901725D01*
X94364402Y-60816011D02*
X94326307Y-60739821D01*
X94326307Y-60739821D02*
X94288211Y-60701726D01*
X94288211Y-60701726D02*
X94212021Y-60663630D01*
X94212021Y-60663630D02*
X94173926Y-60663630D01*
X94173926Y-60663630D02*
X94097735Y-60701726D01*
X94097735Y-60701726D02*
X94059640Y-60739821D01*
X94059640Y-60739821D02*
X94021545Y-60816011D01*
X94021545Y-60816011D02*
X94021545Y-60968392D01*
X94021545Y-60968392D02*
X94059640Y-61044583D01*
X94059640Y-61044583D02*
X94097735Y-61082678D01*
X94097735Y-61082678D02*
X94173926Y-61120773D01*
X94173926Y-61120773D02*
X94212021Y-61120773D01*
X94212021Y-61120773D02*
X94288211Y-61082678D01*
X94288211Y-61082678D02*
X94326307Y-61044583D01*
X94326307Y-61044583D02*
X94364402Y-60968392D01*
X94364402Y-60968392D02*
X94364402Y-60816011D01*
X94364402Y-60816011D02*
X94402497Y-60739821D01*
X94402497Y-60739821D02*
X94440592Y-60701726D01*
X94440592Y-60701726D02*
X94516783Y-60663630D01*
X94516783Y-60663630D02*
X94669164Y-60663630D01*
X94669164Y-60663630D02*
X94745354Y-60701726D01*
X94745354Y-60701726D02*
X94783450Y-60739821D01*
X94783450Y-60739821D02*
X94821545Y-60816011D01*
X94821545Y-60816011D02*
X94821545Y-60968392D01*
X94821545Y-60968392D02*
X94783450Y-61044583D01*
X94783450Y-61044583D02*
X94745354Y-61082678D01*
X94745354Y-61082678D02*
X94669164Y-61120773D01*
X94669164Y-61120773D02*
X94516783Y-61120773D01*
X94516783Y-61120773D02*
X94440592Y-61082678D01*
X94440592Y-61082678D02*
X94402497Y-61044583D01*
X94402497Y-61044583D02*
X94364402Y-60968392D01*
X86449640Y-58758868D02*
X86411545Y-58682678D01*
X86411545Y-58682678D02*
X86411545Y-58568392D01*
X86411545Y-58568392D02*
X86449640Y-58454106D01*
X86449640Y-58454106D02*
X86525830Y-58377916D01*
X86525830Y-58377916D02*
X86602021Y-58339821D01*
X86602021Y-58339821D02*
X86754402Y-58301725D01*
X86754402Y-58301725D02*
X86868688Y-58301725D01*
X86868688Y-58301725D02*
X87021069Y-58339821D01*
X87021069Y-58339821D02*
X87097259Y-58377916D01*
X87097259Y-58377916D02*
X87173450Y-58454106D01*
X87173450Y-58454106D02*
X87211545Y-58568392D01*
X87211545Y-58568392D02*
X87211545Y-58644583D01*
X87211545Y-58644583D02*
X87173450Y-58758868D01*
X87173450Y-58758868D02*
X87135354Y-58796964D01*
X87135354Y-58796964D02*
X86868688Y-58796964D01*
X86868688Y-58796964D02*
X86868688Y-58644583D01*
X87211545Y-59139821D02*
X86411545Y-59139821D01*
X86411545Y-59139821D02*
X86411545Y-59444583D01*
X86411545Y-59444583D02*
X86449640Y-59520773D01*
X86449640Y-59520773D02*
X86487735Y-59558868D01*
X86487735Y-59558868D02*
X86563926Y-59596964D01*
X86563926Y-59596964D02*
X86678211Y-59596964D01*
X86678211Y-59596964D02*
X86754402Y-59558868D01*
X86754402Y-59558868D02*
X86792497Y-59520773D01*
X86792497Y-59520773D02*
X86830592Y-59444583D01*
X86830592Y-59444583D02*
X86830592Y-59139821D01*
X86487735Y-59901725D02*
X86449640Y-59939821D01*
X86449640Y-59939821D02*
X86411545Y-60016011D01*
X86411545Y-60016011D02*
X86411545Y-60206487D01*
X86411545Y-60206487D02*
X86449640Y-60282678D01*
X86449640Y-60282678D02*
X86487735Y-60320773D01*
X86487735Y-60320773D02*
X86563926Y-60358868D01*
X86563926Y-60358868D02*
X86640116Y-60358868D01*
X86640116Y-60358868D02*
X86754402Y-60320773D01*
X86754402Y-60320773D02*
X87211545Y-59863630D01*
X87211545Y-59863630D02*
X87211545Y-60358868D01*
X87211545Y-61120773D02*
X87211545Y-60663630D01*
X87211545Y-60892202D02*
X86411545Y-60892202D01*
X86411545Y-60892202D02*
X86525830Y-60816011D01*
X86525830Y-60816011D02*
X86602021Y-60739821D01*
X86602021Y-60739821D02*
X86640116Y-60663630D01*
X96599640Y-58751726D02*
X96561545Y-58675536D01*
X96561545Y-58675536D02*
X96561545Y-58561250D01*
X96561545Y-58561250D02*
X96599640Y-58446964D01*
X96599640Y-58446964D02*
X96675830Y-58370774D01*
X96675830Y-58370774D02*
X96752021Y-58332679D01*
X96752021Y-58332679D02*
X96904402Y-58294583D01*
X96904402Y-58294583D02*
X97018688Y-58294583D01*
X97018688Y-58294583D02*
X97171069Y-58332679D01*
X97171069Y-58332679D02*
X97247259Y-58370774D01*
X97247259Y-58370774D02*
X97323450Y-58446964D01*
X97323450Y-58446964D02*
X97361545Y-58561250D01*
X97361545Y-58561250D02*
X97361545Y-58637441D01*
X97361545Y-58637441D02*
X97323450Y-58751726D01*
X97323450Y-58751726D02*
X97285354Y-58789822D01*
X97285354Y-58789822D02*
X97018688Y-58789822D01*
X97018688Y-58789822D02*
X97018688Y-58637441D01*
X97361545Y-59132679D02*
X96561545Y-59132679D01*
X96561545Y-59132679D02*
X97361545Y-59589822D01*
X97361545Y-59589822D02*
X96561545Y-59589822D01*
X97361545Y-59970774D02*
X96561545Y-59970774D01*
X96561545Y-59970774D02*
X96561545Y-60161250D01*
X96561545Y-60161250D02*
X96599640Y-60275536D01*
X96599640Y-60275536D02*
X96675830Y-60351726D01*
X96675830Y-60351726D02*
X96752021Y-60389821D01*
X96752021Y-60389821D02*
X96904402Y-60427917D01*
X96904402Y-60427917D02*
X97018688Y-60427917D01*
X97018688Y-60427917D02*
X97171069Y-60389821D01*
X97171069Y-60389821D02*
X97247259Y-60351726D01*
X97247259Y-60351726D02*
X97323450Y-60275536D01*
X97323450Y-60275536D02*
X97361545Y-60161250D01*
X97361545Y-60161250D02*
X97361545Y-59970774D01*
X101679640Y-58758868D02*
X101641545Y-58682678D01*
X101641545Y-58682678D02*
X101641545Y-58568392D01*
X101641545Y-58568392D02*
X101679640Y-58454106D01*
X101679640Y-58454106D02*
X101755830Y-58377916D01*
X101755830Y-58377916D02*
X101832021Y-58339821D01*
X101832021Y-58339821D02*
X101984402Y-58301725D01*
X101984402Y-58301725D02*
X102098688Y-58301725D01*
X102098688Y-58301725D02*
X102251069Y-58339821D01*
X102251069Y-58339821D02*
X102327259Y-58377916D01*
X102327259Y-58377916D02*
X102403450Y-58454106D01*
X102403450Y-58454106D02*
X102441545Y-58568392D01*
X102441545Y-58568392D02*
X102441545Y-58644583D01*
X102441545Y-58644583D02*
X102403450Y-58758868D01*
X102403450Y-58758868D02*
X102365354Y-58796964D01*
X102365354Y-58796964D02*
X102098688Y-58796964D01*
X102098688Y-58796964D02*
X102098688Y-58644583D01*
X102441545Y-59139821D02*
X101641545Y-59139821D01*
X101641545Y-59139821D02*
X101641545Y-59444583D01*
X101641545Y-59444583D02*
X101679640Y-59520773D01*
X101679640Y-59520773D02*
X101717735Y-59558868D01*
X101717735Y-59558868D02*
X101793926Y-59596964D01*
X101793926Y-59596964D02*
X101908211Y-59596964D01*
X101908211Y-59596964D02*
X101984402Y-59558868D01*
X101984402Y-59558868D02*
X102022497Y-59520773D01*
X102022497Y-59520773D02*
X102060592Y-59444583D01*
X102060592Y-59444583D02*
X102060592Y-59139821D01*
X102441545Y-60358868D02*
X102441545Y-59901725D01*
X102441545Y-60130297D02*
X101641545Y-60130297D01*
X101641545Y-60130297D02*
X101755830Y-60054106D01*
X101755830Y-60054106D02*
X101832021Y-59977916D01*
X101832021Y-59977916D02*
X101870116Y-59901725D01*
X101641545Y-61044583D02*
X101641545Y-60892202D01*
X101641545Y-60892202D02*
X101679640Y-60816011D01*
X101679640Y-60816011D02*
X101717735Y-60777916D01*
X101717735Y-60777916D02*
X101832021Y-60701726D01*
X101832021Y-60701726D02*
X101984402Y-60663630D01*
X101984402Y-60663630D02*
X102289164Y-60663630D01*
X102289164Y-60663630D02*
X102365354Y-60701726D01*
X102365354Y-60701726D02*
X102403450Y-60739821D01*
X102403450Y-60739821D02*
X102441545Y-60816011D01*
X102441545Y-60816011D02*
X102441545Y-60968392D01*
X102441545Y-60968392D02*
X102403450Y-61044583D01*
X102403450Y-61044583D02*
X102365354Y-61082678D01*
X102365354Y-61082678D02*
X102289164Y-61120773D01*
X102289164Y-61120773D02*
X102098688Y-61120773D01*
X102098688Y-61120773D02*
X102022497Y-61082678D01*
X102022497Y-61082678D02*
X101984402Y-61044583D01*
X101984402Y-61044583D02*
X101946307Y-60968392D01*
X101946307Y-60968392D02*
X101946307Y-60816011D01*
X101946307Y-60816011D02*
X101984402Y-60739821D01*
X101984402Y-60739821D02*
X102022497Y-60701726D01*
X102022497Y-60701726D02*
X102098688Y-60663630D01*
X96599640Y-70681726D02*
X96561545Y-70605536D01*
X96561545Y-70605536D02*
X96561545Y-70491250D01*
X96561545Y-70491250D02*
X96599640Y-70376964D01*
X96599640Y-70376964D02*
X96675830Y-70300774D01*
X96675830Y-70300774D02*
X96752021Y-70262679D01*
X96752021Y-70262679D02*
X96904402Y-70224583D01*
X96904402Y-70224583D02*
X97018688Y-70224583D01*
X97018688Y-70224583D02*
X97171069Y-70262679D01*
X97171069Y-70262679D02*
X97247259Y-70300774D01*
X97247259Y-70300774D02*
X97323450Y-70376964D01*
X97323450Y-70376964D02*
X97361545Y-70491250D01*
X97361545Y-70491250D02*
X97361545Y-70567441D01*
X97361545Y-70567441D02*
X97323450Y-70681726D01*
X97323450Y-70681726D02*
X97285354Y-70719822D01*
X97285354Y-70719822D02*
X97018688Y-70719822D01*
X97018688Y-70719822D02*
X97018688Y-70567441D01*
X97361545Y-71062679D02*
X96561545Y-71062679D01*
X96561545Y-71062679D02*
X97361545Y-71519822D01*
X97361545Y-71519822D02*
X96561545Y-71519822D01*
X97361545Y-71900774D02*
X96561545Y-71900774D01*
X96561545Y-71900774D02*
X96561545Y-72091250D01*
X96561545Y-72091250D02*
X96599640Y-72205536D01*
X96599640Y-72205536D02*
X96675830Y-72281726D01*
X96675830Y-72281726D02*
X96752021Y-72319821D01*
X96752021Y-72319821D02*
X96904402Y-72357917D01*
X96904402Y-72357917D02*
X97018688Y-72357917D01*
X97018688Y-72357917D02*
X97171069Y-72319821D01*
X97171069Y-72319821D02*
X97247259Y-72281726D01*
X97247259Y-72281726D02*
X97323450Y-72205536D01*
X97323450Y-72205536D02*
X97361545Y-72091250D01*
X97361545Y-72091250D02*
X97361545Y-71900774D01*
X100008774Y-68115450D02*
X99894488Y-68153545D01*
X99894488Y-68153545D02*
X99704012Y-68153545D01*
X99704012Y-68153545D02*
X99627821Y-68115450D01*
X99627821Y-68115450D02*
X99589726Y-68077354D01*
X99589726Y-68077354D02*
X99551631Y-68001164D01*
X99551631Y-68001164D02*
X99551631Y-67924973D01*
X99551631Y-67924973D02*
X99589726Y-67848783D01*
X99589726Y-67848783D02*
X99627821Y-67810688D01*
X99627821Y-67810688D02*
X99704012Y-67772592D01*
X99704012Y-67772592D02*
X99856393Y-67734497D01*
X99856393Y-67734497D02*
X99932583Y-67696402D01*
X99932583Y-67696402D02*
X99970678Y-67658307D01*
X99970678Y-67658307D02*
X100008774Y-67582116D01*
X100008774Y-67582116D02*
X100008774Y-67505926D01*
X100008774Y-67505926D02*
X99970678Y-67429735D01*
X99970678Y-67429735D02*
X99932583Y-67391640D01*
X99932583Y-67391640D02*
X99856393Y-67353545D01*
X99856393Y-67353545D02*
X99665916Y-67353545D01*
X99665916Y-67353545D02*
X99551631Y-67391640D01*
X99284964Y-67353545D02*
X99094488Y-68153545D01*
X99094488Y-68153545D02*
X98942107Y-67582116D01*
X98942107Y-67582116D02*
X98789726Y-68153545D01*
X98789726Y-68153545D02*
X98599250Y-67353545D01*
X97837344Y-68077354D02*
X97875440Y-68115450D01*
X97875440Y-68115450D02*
X97989725Y-68153545D01*
X97989725Y-68153545D02*
X98065916Y-68153545D01*
X98065916Y-68153545D02*
X98180202Y-68115450D01*
X98180202Y-68115450D02*
X98256392Y-68039259D01*
X98256392Y-68039259D02*
X98294487Y-67963069D01*
X98294487Y-67963069D02*
X98332583Y-67810688D01*
X98332583Y-67810688D02*
X98332583Y-67696402D01*
X98332583Y-67696402D02*
X98294487Y-67544021D01*
X98294487Y-67544021D02*
X98256392Y-67467830D01*
X98256392Y-67467830D02*
X98180202Y-67391640D01*
X98180202Y-67391640D02*
X98065916Y-67353545D01*
X98065916Y-67353545D02*
X97989725Y-67353545D01*
X97989725Y-67353545D02*
X97875440Y-67391640D01*
X97875440Y-67391640D02*
X97837344Y-67429735D01*
X97113535Y-68153545D02*
X97494487Y-68153545D01*
X97494487Y-68153545D02*
X97494487Y-67353545D01*
X96846868Y-68153545D02*
X96846868Y-67353545D01*
X96389725Y-68153545D02*
X96732583Y-67696402D01*
X96389725Y-67353545D02*
X96846868Y-67810688D01*
X88979640Y-69988868D02*
X88941545Y-69912678D01*
X88941545Y-69912678D02*
X88941545Y-69798392D01*
X88941545Y-69798392D02*
X88979640Y-69684106D01*
X88979640Y-69684106D02*
X89055830Y-69607916D01*
X89055830Y-69607916D02*
X89132021Y-69569821D01*
X89132021Y-69569821D02*
X89284402Y-69531725D01*
X89284402Y-69531725D02*
X89398688Y-69531725D01*
X89398688Y-69531725D02*
X89551069Y-69569821D01*
X89551069Y-69569821D02*
X89627259Y-69607916D01*
X89627259Y-69607916D02*
X89703450Y-69684106D01*
X89703450Y-69684106D02*
X89741545Y-69798392D01*
X89741545Y-69798392D02*
X89741545Y-69874583D01*
X89741545Y-69874583D02*
X89703450Y-69988868D01*
X89703450Y-69988868D02*
X89665354Y-70026964D01*
X89665354Y-70026964D02*
X89398688Y-70026964D01*
X89398688Y-70026964D02*
X89398688Y-69874583D01*
X89741545Y-70369821D02*
X88941545Y-70369821D01*
X88941545Y-70369821D02*
X88941545Y-70674583D01*
X88941545Y-70674583D02*
X88979640Y-70750773D01*
X88979640Y-70750773D02*
X89017735Y-70788868D01*
X89017735Y-70788868D02*
X89093926Y-70826964D01*
X89093926Y-70826964D02*
X89208211Y-70826964D01*
X89208211Y-70826964D02*
X89284402Y-70788868D01*
X89284402Y-70788868D02*
X89322497Y-70750773D01*
X89322497Y-70750773D02*
X89360592Y-70674583D01*
X89360592Y-70674583D02*
X89360592Y-70369821D01*
X89741545Y-71588868D02*
X89741545Y-71131725D01*
X89741545Y-71360297D02*
X88941545Y-71360297D01*
X88941545Y-71360297D02*
X89055830Y-71284106D01*
X89055830Y-71284106D02*
X89132021Y-71207916D01*
X89132021Y-71207916D02*
X89170116Y-71131725D01*
X89741545Y-72350773D02*
X89741545Y-71893630D01*
X89741545Y-72122202D02*
X88941545Y-72122202D01*
X88941545Y-72122202D02*
X89055830Y-72046011D01*
X89055830Y-72046011D02*
X89132021Y-71969821D01*
X89132021Y-71969821D02*
X89170116Y-71893630D01*
X71732973Y-58301726D02*
X71732973Y-58682679D01*
X71961545Y-58225536D02*
X71161545Y-58492203D01*
X71161545Y-58492203D02*
X71961545Y-58758869D01*
X71199640Y-59444583D02*
X71161545Y-59368393D01*
X71161545Y-59368393D02*
X71161545Y-59254107D01*
X71161545Y-59254107D02*
X71199640Y-59139821D01*
X71199640Y-59139821D02*
X71275830Y-59063631D01*
X71275830Y-59063631D02*
X71352021Y-59025536D01*
X71352021Y-59025536D02*
X71504402Y-58987440D01*
X71504402Y-58987440D02*
X71618688Y-58987440D01*
X71618688Y-58987440D02*
X71771069Y-59025536D01*
X71771069Y-59025536D02*
X71847259Y-59063631D01*
X71847259Y-59063631D02*
X71923450Y-59139821D01*
X71923450Y-59139821D02*
X71961545Y-59254107D01*
X71961545Y-59254107D02*
X71961545Y-59330298D01*
X71961545Y-59330298D02*
X71923450Y-59444583D01*
X71923450Y-59444583D02*
X71885354Y-59482679D01*
X71885354Y-59482679D02*
X71618688Y-59482679D01*
X71618688Y-59482679D02*
X71618688Y-59330298D01*
X71961545Y-59825536D02*
X71161545Y-59825536D01*
X71161545Y-59825536D02*
X71961545Y-60282679D01*
X71961545Y-60282679D02*
X71161545Y-60282679D01*
X71961545Y-60663631D02*
X71161545Y-60663631D01*
X71161545Y-60663631D02*
X71161545Y-60854107D01*
X71161545Y-60854107D02*
X71199640Y-60968393D01*
X71199640Y-60968393D02*
X71275830Y-61044583D01*
X71275830Y-61044583D02*
X71352021Y-61082678D01*
X71352021Y-61082678D02*
X71504402Y-61120774D01*
X71504402Y-61120774D02*
X71618688Y-61120774D01*
X71618688Y-61120774D02*
X71771069Y-61082678D01*
X71771069Y-61082678D02*
X71847259Y-61044583D01*
X71847259Y-61044583D02*
X71923450Y-60968393D01*
X71923450Y-60968393D02*
X71961545Y-60854107D01*
X71961545Y-60854107D02*
X71961545Y-60663631D01*
X63579640Y-70719821D02*
X63541545Y-70643631D01*
X63541545Y-70643631D02*
X63541545Y-70529345D01*
X63541545Y-70529345D02*
X63579640Y-70415059D01*
X63579640Y-70415059D02*
X63655830Y-70338869D01*
X63655830Y-70338869D02*
X63732021Y-70300774D01*
X63732021Y-70300774D02*
X63884402Y-70262678D01*
X63884402Y-70262678D02*
X63998688Y-70262678D01*
X63998688Y-70262678D02*
X64151069Y-70300774D01*
X64151069Y-70300774D02*
X64227259Y-70338869D01*
X64227259Y-70338869D02*
X64303450Y-70415059D01*
X64303450Y-70415059D02*
X64341545Y-70529345D01*
X64341545Y-70529345D02*
X64341545Y-70605536D01*
X64341545Y-70605536D02*
X64303450Y-70719821D01*
X64303450Y-70719821D02*
X64265354Y-70757917D01*
X64265354Y-70757917D02*
X63998688Y-70757917D01*
X63998688Y-70757917D02*
X63998688Y-70605536D01*
X64341545Y-71100774D02*
X63541545Y-71100774D01*
X63541545Y-71100774D02*
X63541545Y-71405536D01*
X63541545Y-71405536D02*
X63579640Y-71481726D01*
X63579640Y-71481726D02*
X63617735Y-71519821D01*
X63617735Y-71519821D02*
X63693926Y-71557917D01*
X63693926Y-71557917D02*
X63808211Y-71557917D01*
X63808211Y-71557917D02*
X63884402Y-71519821D01*
X63884402Y-71519821D02*
X63922497Y-71481726D01*
X63922497Y-71481726D02*
X63960592Y-71405536D01*
X63960592Y-71405536D02*
X63960592Y-71100774D01*
X63541545Y-71824583D02*
X63541545Y-72319821D01*
X63541545Y-72319821D02*
X63846307Y-72053155D01*
X63846307Y-72053155D02*
X63846307Y-72167440D01*
X63846307Y-72167440D02*
X63884402Y-72243631D01*
X63884402Y-72243631D02*
X63922497Y-72281726D01*
X63922497Y-72281726D02*
X63998688Y-72319821D01*
X63998688Y-72319821D02*
X64189164Y-72319821D01*
X64189164Y-72319821D02*
X64265354Y-72281726D01*
X64265354Y-72281726D02*
X64303450Y-72243631D01*
X64303450Y-72243631D02*
X64341545Y-72167440D01*
X64341545Y-72167440D02*
X64341545Y-71938869D01*
X64341545Y-71938869D02*
X64303450Y-71862678D01*
X64303450Y-71862678D02*
X64265354Y-71824583D01*
X99894488Y-63035450D02*
X99780202Y-63073545D01*
X99780202Y-63073545D02*
X99589726Y-63073545D01*
X99589726Y-63073545D02*
X99513535Y-63035450D01*
X99513535Y-63035450D02*
X99475440Y-62997354D01*
X99475440Y-62997354D02*
X99437345Y-62921164D01*
X99437345Y-62921164D02*
X99437345Y-62844973D01*
X99437345Y-62844973D02*
X99475440Y-62768783D01*
X99475440Y-62768783D02*
X99513535Y-62730688D01*
X99513535Y-62730688D02*
X99589726Y-62692592D01*
X99589726Y-62692592D02*
X99742107Y-62654497D01*
X99742107Y-62654497D02*
X99818297Y-62616402D01*
X99818297Y-62616402D02*
X99856392Y-62578307D01*
X99856392Y-62578307D02*
X99894488Y-62502116D01*
X99894488Y-62502116D02*
X99894488Y-62425926D01*
X99894488Y-62425926D02*
X99856392Y-62349735D01*
X99856392Y-62349735D02*
X99818297Y-62311640D01*
X99818297Y-62311640D02*
X99742107Y-62273545D01*
X99742107Y-62273545D02*
X99551630Y-62273545D01*
X99551630Y-62273545D02*
X99437345Y-62311640D01*
X99170678Y-62273545D02*
X98980202Y-63073545D01*
X98980202Y-63073545D02*
X98827821Y-62502116D01*
X98827821Y-62502116D02*
X98675440Y-63073545D01*
X98675440Y-63073545D02*
X98484964Y-62273545D01*
X98180201Y-63073545D02*
X98180201Y-62273545D01*
X98180201Y-62273545D02*
X97989725Y-62273545D01*
X97989725Y-62273545D02*
X97875439Y-62311640D01*
X97875439Y-62311640D02*
X97799249Y-62387830D01*
X97799249Y-62387830D02*
X97761154Y-62464021D01*
X97761154Y-62464021D02*
X97723058Y-62616402D01*
X97723058Y-62616402D02*
X97723058Y-62730688D01*
X97723058Y-62730688D02*
X97761154Y-62883069D01*
X97761154Y-62883069D02*
X97799249Y-62959259D01*
X97799249Y-62959259D02*
X97875439Y-63035450D01*
X97875439Y-63035450D02*
X97989725Y-63073545D01*
X97989725Y-63073545D02*
X98180201Y-63073545D01*
X97380201Y-63073545D02*
X97380201Y-62273545D01*
X96846868Y-62273545D02*
X96694487Y-62273545D01*
X96694487Y-62273545D02*
X96618297Y-62311640D01*
X96618297Y-62311640D02*
X96542106Y-62387830D01*
X96542106Y-62387830D02*
X96504011Y-62540211D01*
X96504011Y-62540211D02*
X96504011Y-62806878D01*
X96504011Y-62806878D02*
X96542106Y-62959259D01*
X96542106Y-62959259D02*
X96618297Y-63035450D01*
X96618297Y-63035450D02*
X96694487Y-63073545D01*
X96694487Y-63073545D02*
X96846868Y-63073545D01*
X96846868Y-63073545D02*
X96923059Y-63035450D01*
X96923059Y-63035450D02*
X96999249Y-62959259D01*
X96999249Y-62959259D02*
X97037345Y-62806878D01*
X97037345Y-62806878D02*
X97037345Y-62540211D01*
X97037345Y-62540211D02*
X96999249Y-62387830D01*
X96999249Y-62387830D02*
X96923059Y-62311640D01*
X96923059Y-62311640D02*
X96846868Y-62273545D01*
X61039640Y-70719821D02*
X61001545Y-70643631D01*
X61001545Y-70643631D02*
X61001545Y-70529345D01*
X61001545Y-70529345D02*
X61039640Y-70415059D01*
X61039640Y-70415059D02*
X61115830Y-70338869D01*
X61115830Y-70338869D02*
X61192021Y-70300774D01*
X61192021Y-70300774D02*
X61344402Y-70262678D01*
X61344402Y-70262678D02*
X61458688Y-70262678D01*
X61458688Y-70262678D02*
X61611069Y-70300774D01*
X61611069Y-70300774D02*
X61687259Y-70338869D01*
X61687259Y-70338869D02*
X61763450Y-70415059D01*
X61763450Y-70415059D02*
X61801545Y-70529345D01*
X61801545Y-70529345D02*
X61801545Y-70605536D01*
X61801545Y-70605536D02*
X61763450Y-70719821D01*
X61763450Y-70719821D02*
X61725354Y-70757917D01*
X61725354Y-70757917D02*
X61458688Y-70757917D01*
X61458688Y-70757917D02*
X61458688Y-70605536D01*
X61801545Y-71100774D02*
X61001545Y-71100774D01*
X61001545Y-71100774D02*
X61001545Y-71405536D01*
X61001545Y-71405536D02*
X61039640Y-71481726D01*
X61039640Y-71481726D02*
X61077735Y-71519821D01*
X61077735Y-71519821D02*
X61153926Y-71557917D01*
X61153926Y-71557917D02*
X61268211Y-71557917D01*
X61268211Y-71557917D02*
X61344402Y-71519821D01*
X61344402Y-71519821D02*
X61382497Y-71481726D01*
X61382497Y-71481726D02*
X61420592Y-71405536D01*
X61420592Y-71405536D02*
X61420592Y-71100774D01*
X61077735Y-71862678D02*
X61039640Y-71900774D01*
X61039640Y-71900774D02*
X61001545Y-71976964D01*
X61001545Y-71976964D02*
X61001545Y-72167440D01*
X61001545Y-72167440D02*
X61039640Y-72243631D01*
X61039640Y-72243631D02*
X61077735Y-72281726D01*
X61077735Y-72281726D02*
X61153926Y-72319821D01*
X61153926Y-72319821D02*
X61230116Y-72319821D01*
X61230116Y-72319821D02*
X61344402Y-72281726D01*
X61344402Y-72281726D02*
X61801545Y-71824583D01*
X61801545Y-71824583D02*
X61801545Y-72319821D01*
X286422819Y-113725714D02*
X285422819Y-113725714D01*
X285422819Y-113725714D02*
X285422819Y-113963809D01*
X285422819Y-113963809D02*
X285470438Y-114106666D01*
X285470438Y-114106666D02*
X285565676Y-114201904D01*
X285565676Y-114201904D02*
X285660914Y-114249523D01*
X285660914Y-114249523D02*
X285851390Y-114297142D01*
X285851390Y-114297142D02*
X285994247Y-114297142D01*
X285994247Y-114297142D02*
X286184723Y-114249523D01*
X286184723Y-114249523D02*
X286279961Y-114201904D01*
X286279961Y-114201904D02*
X286375200Y-114106666D01*
X286375200Y-114106666D02*
X286422819Y-113963809D01*
X286422819Y-113963809D02*
X286422819Y-113725714D01*
X286422819Y-115249523D02*
X286422819Y-114678095D01*
X286422819Y-114963809D02*
X285422819Y-114963809D01*
X285422819Y-114963809D02*
X285565676Y-114868571D01*
X285565676Y-114868571D02*
X285660914Y-114773333D01*
X285660914Y-114773333D02*
X285708533Y-114678095D01*
X285422819Y-115582857D02*
X285422819Y-116201904D01*
X285422819Y-116201904D02*
X285803771Y-115868571D01*
X285803771Y-115868571D02*
X285803771Y-116011428D01*
X285803771Y-116011428D02*
X285851390Y-116106666D01*
X285851390Y-116106666D02*
X285899009Y-116154285D01*
X285899009Y-116154285D02*
X285994247Y-116201904D01*
X285994247Y-116201904D02*
X286232342Y-116201904D01*
X286232342Y-116201904D02*
X286327580Y-116154285D01*
X286327580Y-116154285D02*
X286375200Y-116106666D01*
X286375200Y-116106666D02*
X286422819Y-116011428D01*
X286422819Y-116011428D02*
X286422819Y-115725714D01*
X286422819Y-115725714D02*
X286375200Y-115630476D01*
X286375200Y-115630476D02*
X286327580Y-115582857D01*
X286102819Y-118488095D02*
X285102819Y-118488095D01*
X286102819Y-119059523D02*
X285531390Y-118630952D01*
X285102819Y-119059523D02*
X285674247Y-118488095D01*
X172122819Y-114201905D02*
X171122819Y-114201905D01*
X171122819Y-114201905D02*
X171122819Y-114440000D01*
X171122819Y-114440000D02*
X171170438Y-114582857D01*
X171170438Y-114582857D02*
X171265676Y-114678095D01*
X171265676Y-114678095D02*
X171360914Y-114725714D01*
X171360914Y-114725714D02*
X171551390Y-114773333D01*
X171551390Y-114773333D02*
X171694247Y-114773333D01*
X171694247Y-114773333D02*
X171884723Y-114725714D01*
X171884723Y-114725714D02*
X171979961Y-114678095D01*
X171979961Y-114678095D02*
X172075200Y-114582857D01*
X172075200Y-114582857D02*
X172122819Y-114440000D01*
X172122819Y-114440000D02*
X172122819Y-114201905D01*
X171218057Y-115154286D02*
X171170438Y-115201905D01*
X171170438Y-115201905D02*
X171122819Y-115297143D01*
X171122819Y-115297143D02*
X171122819Y-115535238D01*
X171122819Y-115535238D02*
X171170438Y-115630476D01*
X171170438Y-115630476D02*
X171218057Y-115678095D01*
X171218057Y-115678095D02*
X171313295Y-115725714D01*
X171313295Y-115725714D02*
X171408533Y-115725714D01*
X171408533Y-115725714D02*
X171551390Y-115678095D01*
X171551390Y-115678095D02*
X172122819Y-115106667D01*
X172122819Y-115106667D02*
X172122819Y-115725714D01*
X171802819Y-118488095D02*
X170802819Y-118488095D01*
X171802819Y-119059523D02*
X171231390Y-118630952D01*
X170802819Y-119059523D02*
X171374247Y-118488095D01*
X314997819Y-94675714D02*
X313997819Y-94675714D01*
X313997819Y-94675714D02*
X313997819Y-94913809D01*
X313997819Y-94913809D02*
X314045438Y-95056666D01*
X314045438Y-95056666D02*
X314140676Y-95151904D01*
X314140676Y-95151904D02*
X314235914Y-95199523D01*
X314235914Y-95199523D02*
X314426390Y-95247142D01*
X314426390Y-95247142D02*
X314569247Y-95247142D01*
X314569247Y-95247142D02*
X314759723Y-95199523D01*
X314759723Y-95199523D02*
X314854961Y-95151904D01*
X314854961Y-95151904D02*
X314950200Y-95056666D01*
X314950200Y-95056666D02*
X314997819Y-94913809D01*
X314997819Y-94913809D02*
X314997819Y-94675714D01*
X314997819Y-96199523D02*
X314997819Y-95628095D01*
X314997819Y-95913809D02*
X313997819Y-95913809D01*
X313997819Y-95913809D02*
X314140676Y-95818571D01*
X314140676Y-95818571D02*
X314235914Y-95723333D01*
X314235914Y-95723333D02*
X314283533Y-95628095D01*
X313997819Y-97056666D02*
X313997819Y-96866190D01*
X313997819Y-96866190D02*
X314045438Y-96770952D01*
X314045438Y-96770952D02*
X314093057Y-96723333D01*
X314093057Y-96723333D02*
X314235914Y-96628095D01*
X314235914Y-96628095D02*
X314426390Y-96580476D01*
X314426390Y-96580476D02*
X314807342Y-96580476D01*
X314807342Y-96580476D02*
X314902580Y-96628095D01*
X314902580Y-96628095D02*
X314950200Y-96675714D01*
X314950200Y-96675714D02*
X314997819Y-96770952D01*
X314997819Y-96770952D02*
X314997819Y-96961428D01*
X314997819Y-96961428D02*
X314950200Y-97056666D01*
X314950200Y-97056666D02*
X314902580Y-97104285D01*
X314902580Y-97104285D02*
X314807342Y-97151904D01*
X314807342Y-97151904D02*
X314569247Y-97151904D01*
X314569247Y-97151904D02*
X314474009Y-97104285D01*
X314474009Y-97104285D02*
X314426390Y-97056666D01*
X314426390Y-97056666D02*
X314378771Y-96961428D01*
X314378771Y-96961428D02*
X314378771Y-96770952D01*
X314378771Y-96770952D02*
X314426390Y-96675714D01*
X314426390Y-96675714D02*
X314474009Y-96628095D01*
X314474009Y-96628095D02*
X314569247Y-96580476D01*
X314677819Y-99438095D02*
X313677819Y-99438095D01*
X314677819Y-100009523D02*
X314106390Y-99580952D01*
X313677819Y-100009523D02*
X314249247Y-99438095D01*
X162280319Y-95151905D02*
X161280319Y-95151905D01*
X161280319Y-95151905D02*
X161280319Y-95390000D01*
X161280319Y-95390000D02*
X161327938Y-95532857D01*
X161327938Y-95532857D02*
X161423176Y-95628095D01*
X161423176Y-95628095D02*
X161518414Y-95675714D01*
X161518414Y-95675714D02*
X161708890Y-95723333D01*
X161708890Y-95723333D02*
X161851747Y-95723333D01*
X161851747Y-95723333D02*
X162042223Y-95675714D01*
X162042223Y-95675714D02*
X162137461Y-95628095D01*
X162137461Y-95628095D02*
X162232700Y-95532857D01*
X162232700Y-95532857D02*
X162280319Y-95390000D01*
X162280319Y-95390000D02*
X162280319Y-95151905D01*
X161708890Y-96294762D02*
X161661271Y-96199524D01*
X161661271Y-96199524D02*
X161613652Y-96151905D01*
X161613652Y-96151905D02*
X161518414Y-96104286D01*
X161518414Y-96104286D02*
X161470795Y-96104286D01*
X161470795Y-96104286D02*
X161375557Y-96151905D01*
X161375557Y-96151905D02*
X161327938Y-96199524D01*
X161327938Y-96199524D02*
X161280319Y-96294762D01*
X161280319Y-96294762D02*
X161280319Y-96485238D01*
X161280319Y-96485238D02*
X161327938Y-96580476D01*
X161327938Y-96580476D02*
X161375557Y-96628095D01*
X161375557Y-96628095D02*
X161470795Y-96675714D01*
X161470795Y-96675714D02*
X161518414Y-96675714D01*
X161518414Y-96675714D02*
X161613652Y-96628095D01*
X161613652Y-96628095D02*
X161661271Y-96580476D01*
X161661271Y-96580476D02*
X161708890Y-96485238D01*
X161708890Y-96485238D02*
X161708890Y-96294762D01*
X161708890Y-96294762D02*
X161756509Y-96199524D01*
X161756509Y-96199524D02*
X161804128Y-96151905D01*
X161804128Y-96151905D02*
X161899366Y-96104286D01*
X161899366Y-96104286D02*
X162089842Y-96104286D01*
X162089842Y-96104286D02*
X162185080Y-96151905D01*
X162185080Y-96151905D02*
X162232700Y-96199524D01*
X162232700Y-96199524D02*
X162280319Y-96294762D01*
X162280319Y-96294762D02*
X162280319Y-96485238D01*
X162280319Y-96485238D02*
X162232700Y-96580476D01*
X162232700Y-96580476D02*
X162185080Y-96628095D01*
X162185080Y-96628095D02*
X162089842Y-96675714D01*
X162089842Y-96675714D02*
X161899366Y-96675714D01*
X161899366Y-96675714D02*
X161804128Y-96628095D01*
X161804128Y-96628095D02*
X161756509Y-96580476D01*
X161756509Y-96580476D02*
X161708890Y-96485238D01*
X161960319Y-99438095D02*
X160960319Y-99438095D01*
X161960319Y-100009523D02*
X161388890Y-99580952D01*
X160960319Y-100009523D02*
X161531747Y-99438095D01*
X305472819Y-113725714D02*
X304472819Y-113725714D01*
X304472819Y-113725714D02*
X304472819Y-113963809D01*
X304472819Y-113963809D02*
X304520438Y-114106666D01*
X304520438Y-114106666D02*
X304615676Y-114201904D01*
X304615676Y-114201904D02*
X304710914Y-114249523D01*
X304710914Y-114249523D02*
X304901390Y-114297142D01*
X304901390Y-114297142D02*
X305044247Y-114297142D01*
X305044247Y-114297142D02*
X305234723Y-114249523D01*
X305234723Y-114249523D02*
X305329961Y-114201904D01*
X305329961Y-114201904D02*
X305425200Y-114106666D01*
X305425200Y-114106666D02*
X305472819Y-113963809D01*
X305472819Y-113963809D02*
X305472819Y-113725714D01*
X305472819Y-115249523D02*
X305472819Y-114678095D01*
X305472819Y-114963809D02*
X304472819Y-114963809D01*
X304472819Y-114963809D02*
X304615676Y-114868571D01*
X304615676Y-114868571D02*
X304710914Y-114773333D01*
X304710914Y-114773333D02*
X304758533Y-114678095D01*
X304472819Y-116154285D02*
X304472819Y-115678095D01*
X304472819Y-115678095D02*
X304949009Y-115630476D01*
X304949009Y-115630476D02*
X304901390Y-115678095D01*
X304901390Y-115678095D02*
X304853771Y-115773333D01*
X304853771Y-115773333D02*
X304853771Y-116011428D01*
X304853771Y-116011428D02*
X304901390Y-116106666D01*
X304901390Y-116106666D02*
X304949009Y-116154285D01*
X304949009Y-116154285D02*
X305044247Y-116201904D01*
X305044247Y-116201904D02*
X305282342Y-116201904D01*
X305282342Y-116201904D02*
X305377580Y-116154285D01*
X305377580Y-116154285D02*
X305425200Y-116106666D01*
X305425200Y-116106666D02*
X305472819Y-116011428D01*
X305472819Y-116011428D02*
X305472819Y-115773333D01*
X305472819Y-115773333D02*
X305425200Y-115678095D01*
X305425200Y-115678095D02*
X305377580Y-115630476D01*
X305152819Y-118488095D02*
X304152819Y-118488095D01*
X305152819Y-119059523D02*
X304581390Y-118630952D01*
X304152819Y-119059523D02*
X304724247Y-118488095D01*
X191172819Y-114201905D02*
X190172819Y-114201905D01*
X190172819Y-114201905D02*
X190172819Y-114440000D01*
X190172819Y-114440000D02*
X190220438Y-114582857D01*
X190220438Y-114582857D02*
X190315676Y-114678095D01*
X190315676Y-114678095D02*
X190410914Y-114725714D01*
X190410914Y-114725714D02*
X190601390Y-114773333D01*
X190601390Y-114773333D02*
X190744247Y-114773333D01*
X190744247Y-114773333D02*
X190934723Y-114725714D01*
X190934723Y-114725714D02*
X191029961Y-114678095D01*
X191029961Y-114678095D02*
X191125200Y-114582857D01*
X191125200Y-114582857D02*
X191172819Y-114440000D01*
X191172819Y-114440000D02*
X191172819Y-114201905D01*
X190172819Y-115106667D02*
X190172819Y-115725714D01*
X190172819Y-115725714D02*
X190553771Y-115392381D01*
X190553771Y-115392381D02*
X190553771Y-115535238D01*
X190553771Y-115535238D02*
X190601390Y-115630476D01*
X190601390Y-115630476D02*
X190649009Y-115678095D01*
X190649009Y-115678095D02*
X190744247Y-115725714D01*
X190744247Y-115725714D02*
X190982342Y-115725714D01*
X190982342Y-115725714D02*
X191077580Y-115678095D01*
X191077580Y-115678095D02*
X191125200Y-115630476D01*
X191125200Y-115630476D02*
X191172819Y-115535238D01*
X191172819Y-115535238D02*
X191172819Y-115249524D01*
X191172819Y-115249524D02*
X191125200Y-115154286D01*
X191125200Y-115154286D02*
X191077580Y-115106667D01*
X190852819Y-118488095D02*
X189852819Y-118488095D01*
X190852819Y-119059523D02*
X190281390Y-118630952D01*
X189852819Y-119059523D02*
X190424247Y-118488095D01*
X119735319Y-87531964D02*
X118735319Y-87531964D01*
X118735319Y-87531964D02*
X118735319Y-87770059D01*
X118735319Y-87770059D02*
X118782938Y-87912916D01*
X118782938Y-87912916D02*
X118878176Y-88008154D01*
X118878176Y-88008154D02*
X118973414Y-88055773D01*
X118973414Y-88055773D02*
X119163890Y-88103392D01*
X119163890Y-88103392D02*
X119306747Y-88103392D01*
X119306747Y-88103392D02*
X119497223Y-88055773D01*
X119497223Y-88055773D02*
X119592461Y-88008154D01*
X119592461Y-88008154D02*
X119687700Y-87912916D01*
X119687700Y-87912916D02*
X119735319Y-87770059D01*
X119735319Y-87770059D02*
X119735319Y-87531964D01*
X118830557Y-88484345D02*
X118782938Y-88531964D01*
X118782938Y-88531964D02*
X118735319Y-88627202D01*
X118735319Y-88627202D02*
X118735319Y-88865297D01*
X118735319Y-88865297D02*
X118782938Y-88960535D01*
X118782938Y-88960535D02*
X118830557Y-89008154D01*
X118830557Y-89008154D02*
X118925795Y-89055773D01*
X118925795Y-89055773D02*
X119021033Y-89055773D01*
X119021033Y-89055773D02*
X119163890Y-89008154D01*
X119163890Y-89008154D02*
X119735319Y-88436726D01*
X119735319Y-88436726D02*
X119735319Y-89055773D01*
X119163890Y-89627202D02*
X119116271Y-89531964D01*
X119116271Y-89531964D02*
X119068652Y-89484345D01*
X119068652Y-89484345D02*
X118973414Y-89436726D01*
X118973414Y-89436726D02*
X118925795Y-89436726D01*
X118925795Y-89436726D02*
X118830557Y-89484345D01*
X118830557Y-89484345D02*
X118782938Y-89531964D01*
X118782938Y-89531964D02*
X118735319Y-89627202D01*
X118735319Y-89627202D02*
X118735319Y-89817678D01*
X118735319Y-89817678D02*
X118782938Y-89912916D01*
X118782938Y-89912916D02*
X118830557Y-89960535D01*
X118830557Y-89960535D02*
X118925795Y-90008154D01*
X118925795Y-90008154D02*
X118973414Y-90008154D01*
X118973414Y-90008154D02*
X119068652Y-89960535D01*
X119068652Y-89960535D02*
X119116271Y-89912916D01*
X119116271Y-89912916D02*
X119163890Y-89817678D01*
X119163890Y-89817678D02*
X119163890Y-89627202D01*
X119163890Y-89627202D02*
X119211509Y-89531964D01*
X119211509Y-89531964D02*
X119259128Y-89484345D01*
X119259128Y-89484345D02*
X119354366Y-89436726D01*
X119354366Y-89436726D02*
X119544842Y-89436726D01*
X119544842Y-89436726D02*
X119640080Y-89484345D01*
X119640080Y-89484345D02*
X119687700Y-89531964D01*
X119687700Y-89531964D02*
X119735319Y-89627202D01*
X119735319Y-89627202D02*
X119735319Y-89817678D01*
X119735319Y-89817678D02*
X119687700Y-89912916D01*
X119687700Y-89912916D02*
X119640080Y-89960535D01*
X119640080Y-89960535D02*
X119544842Y-90008154D01*
X119544842Y-90008154D02*
X119354366Y-90008154D01*
X119354366Y-90008154D02*
X119259128Y-89960535D01*
X119259128Y-89960535D02*
X119211509Y-89912916D01*
X119211509Y-89912916D02*
X119163890Y-89817678D01*
X119415319Y-92294345D02*
X118415319Y-92294345D01*
X119415319Y-92865773D02*
X118843890Y-92437202D01*
X118415319Y-92865773D02*
X118986747Y-92294345D01*
X381672819Y-113725714D02*
X380672819Y-113725714D01*
X380672819Y-113725714D02*
X380672819Y-113963809D01*
X380672819Y-113963809D02*
X380720438Y-114106666D01*
X380720438Y-114106666D02*
X380815676Y-114201904D01*
X380815676Y-114201904D02*
X380910914Y-114249523D01*
X380910914Y-114249523D02*
X381101390Y-114297142D01*
X381101390Y-114297142D02*
X381244247Y-114297142D01*
X381244247Y-114297142D02*
X381434723Y-114249523D01*
X381434723Y-114249523D02*
X381529961Y-114201904D01*
X381529961Y-114201904D02*
X381625200Y-114106666D01*
X381625200Y-114106666D02*
X381672819Y-113963809D01*
X381672819Y-113963809D02*
X381672819Y-113725714D01*
X380768057Y-114678095D02*
X380720438Y-114725714D01*
X380720438Y-114725714D02*
X380672819Y-114820952D01*
X380672819Y-114820952D02*
X380672819Y-115059047D01*
X380672819Y-115059047D02*
X380720438Y-115154285D01*
X380720438Y-115154285D02*
X380768057Y-115201904D01*
X380768057Y-115201904D02*
X380863295Y-115249523D01*
X380863295Y-115249523D02*
X380958533Y-115249523D01*
X380958533Y-115249523D02*
X381101390Y-115201904D01*
X381101390Y-115201904D02*
X381672819Y-114630476D01*
X381672819Y-114630476D02*
X381672819Y-115249523D01*
X380768057Y-115630476D02*
X380720438Y-115678095D01*
X380720438Y-115678095D02*
X380672819Y-115773333D01*
X380672819Y-115773333D02*
X380672819Y-116011428D01*
X380672819Y-116011428D02*
X380720438Y-116106666D01*
X380720438Y-116106666D02*
X380768057Y-116154285D01*
X380768057Y-116154285D02*
X380863295Y-116201904D01*
X380863295Y-116201904D02*
X380958533Y-116201904D01*
X380958533Y-116201904D02*
X381101390Y-116154285D01*
X381101390Y-116154285D02*
X381672819Y-115582857D01*
X381672819Y-115582857D02*
X381672819Y-116201904D01*
X381352819Y-118488095D02*
X380352819Y-118488095D01*
X381352819Y-119059523D02*
X380781390Y-118630952D01*
X380352819Y-119059523D02*
X380924247Y-118488095D01*
X362622819Y-113725714D02*
X361622819Y-113725714D01*
X361622819Y-113725714D02*
X361622819Y-113963809D01*
X361622819Y-113963809D02*
X361670438Y-114106666D01*
X361670438Y-114106666D02*
X361765676Y-114201904D01*
X361765676Y-114201904D02*
X361860914Y-114249523D01*
X361860914Y-114249523D02*
X362051390Y-114297142D01*
X362051390Y-114297142D02*
X362194247Y-114297142D01*
X362194247Y-114297142D02*
X362384723Y-114249523D01*
X362384723Y-114249523D02*
X362479961Y-114201904D01*
X362479961Y-114201904D02*
X362575200Y-114106666D01*
X362575200Y-114106666D02*
X362622819Y-113963809D01*
X362622819Y-113963809D02*
X362622819Y-113725714D01*
X361718057Y-114678095D02*
X361670438Y-114725714D01*
X361670438Y-114725714D02*
X361622819Y-114820952D01*
X361622819Y-114820952D02*
X361622819Y-115059047D01*
X361622819Y-115059047D02*
X361670438Y-115154285D01*
X361670438Y-115154285D02*
X361718057Y-115201904D01*
X361718057Y-115201904D02*
X361813295Y-115249523D01*
X361813295Y-115249523D02*
X361908533Y-115249523D01*
X361908533Y-115249523D02*
X362051390Y-115201904D01*
X362051390Y-115201904D02*
X362622819Y-114630476D01*
X362622819Y-114630476D02*
X362622819Y-115249523D01*
X361622819Y-115868571D02*
X361622819Y-115963809D01*
X361622819Y-115963809D02*
X361670438Y-116059047D01*
X361670438Y-116059047D02*
X361718057Y-116106666D01*
X361718057Y-116106666D02*
X361813295Y-116154285D01*
X361813295Y-116154285D02*
X362003771Y-116201904D01*
X362003771Y-116201904D02*
X362241866Y-116201904D01*
X362241866Y-116201904D02*
X362432342Y-116154285D01*
X362432342Y-116154285D02*
X362527580Y-116106666D01*
X362527580Y-116106666D02*
X362575200Y-116059047D01*
X362575200Y-116059047D02*
X362622819Y-115963809D01*
X362622819Y-115963809D02*
X362622819Y-115868571D01*
X362622819Y-115868571D02*
X362575200Y-115773333D01*
X362575200Y-115773333D02*
X362527580Y-115725714D01*
X362527580Y-115725714D02*
X362432342Y-115678095D01*
X362432342Y-115678095D02*
X362241866Y-115630476D01*
X362241866Y-115630476D02*
X362003771Y-115630476D01*
X362003771Y-115630476D02*
X361813295Y-115678095D01*
X361813295Y-115678095D02*
X361718057Y-115725714D01*
X361718057Y-115725714D02*
X361670438Y-115773333D01*
X361670438Y-115773333D02*
X361622819Y-115868571D01*
X362302819Y-118488095D02*
X361302819Y-118488095D01*
X362302819Y-119059523D02*
X361731390Y-118630952D01*
X361302819Y-119059523D02*
X361874247Y-118488095D01*
X372147819Y-94675714D02*
X371147819Y-94675714D01*
X371147819Y-94675714D02*
X371147819Y-94913809D01*
X371147819Y-94913809D02*
X371195438Y-95056666D01*
X371195438Y-95056666D02*
X371290676Y-95151904D01*
X371290676Y-95151904D02*
X371385914Y-95199523D01*
X371385914Y-95199523D02*
X371576390Y-95247142D01*
X371576390Y-95247142D02*
X371719247Y-95247142D01*
X371719247Y-95247142D02*
X371909723Y-95199523D01*
X371909723Y-95199523D02*
X372004961Y-95151904D01*
X372004961Y-95151904D02*
X372100200Y-95056666D01*
X372100200Y-95056666D02*
X372147819Y-94913809D01*
X372147819Y-94913809D02*
X372147819Y-94675714D01*
X371243057Y-95628095D02*
X371195438Y-95675714D01*
X371195438Y-95675714D02*
X371147819Y-95770952D01*
X371147819Y-95770952D02*
X371147819Y-96009047D01*
X371147819Y-96009047D02*
X371195438Y-96104285D01*
X371195438Y-96104285D02*
X371243057Y-96151904D01*
X371243057Y-96151904D02*
X371338295Y-96199523D01*
X371338295Y-96199523D02*
X371433533Y-96199523D01*
X371433533Y-96199523D02*
X371576390Y-96151904D01*
X371576390Y-96151904D02*
X372147819Y-95580476D01*
X372147819Y-95580476D02*
X372147819Y-96199523D01*
X372147819Y-97151904D02*
X372147819Y-96580476D01*
X372147819Y-96866190D02*
X371147819Y-96866190D01*
X371147819Y-96866190D02*
X371290676Y-96770952D01*
X371290676Y-96770952D02*
X371385914Y-96675714D01*
X371385914Y-96675714D02*
X371433533Y-96580476D01*
X371827819Y-99438095D02*
X370827819Y-99438095D01*
X371827819Y-100009523D02*
X371256390Y-99580952D01*
X370827819Y-100009523D02*
X371399247Y-99438095D01*
X248322819Y-114201905D02*
X247322819Y-114201905D01*
X247322819Y-114201905D02*
X247322819Y-114440000D01*
X247322819Y-114440000D02*
X247370438Y-114582857D01*
X247370438Y-114582857D02*
X247465676Y-114678095D01*
X247465676Y-114678095D02*
X247560914Y-114725714D01*
X247560914Y-114725714D02*
X247751390Y-114773333D01*
X247751390Y-114773333D02*
X247894247Y-114773333D01*
X247894247Y-114773333D02*
X248084723Y-114725714D01*
X248084723Y-114725714D02*
X248179961Y-114678095D01*
X248179961Y-114678095D02*
X248275200Y-114582857D01*
X248275200Y-114582857D02*
X248322819Y-114440000D01*
X248322819Y-114440000D02*
X248322819Y-114201905D01*
X247322819Y-115630476D02*
X247322819Y-115440000D01*
X247322819Y-115440000D02*
X247370438Y-115344762D01*
X247370438Y-115344762D02*
X247418057Y-115297143D01*
X247418057Y-115297143D02*
X247560914Y-115201905D01*
X247560914Y-115201905D02*
X247751390Y-115154286D01*
X247751390Y-115154286D02*
X248132342Y-115154286D01*
X248132342Y-115154286D02*
X248227580Y-115201905D01*
X248227580Y-115201905D02*
X248275200Y-115249524D01*
X248275200Y-115249524D02*
X248322819Y-115344762D01*
X248322819Y-115344762D02*
X248322819Y-115535238D01*
X248322819Y-115535238D02*
X248275200Y-115630476D01*
X248275200Y-115630476D02*
X248227580Y-115678095D01*
X248227580Y-115678095D02*
X248132342Y-115725714D01*
X248132342Y-115725714D02*
X247894247Y-115725714D01*
X247894247Y-115725714D02*
X247799009Y-115678095D01*
X247799009Y-115678095D02*
X247751390Y-115630476D01*
X247751390Y-115630476D02*
X247703771Y-115535238D01*
X247703771Y-115535238D02*
X247703771Y-115344762D01*
X247703771Y-115344762D02*
X247751390Y-115249524D01*
X247751390Y-115249524D02*
X247799009Y-115201905D01*
X247799009Y-115201905D02*
X247894247Y-115154286D01*
X248002819Y-118488095D02*
X247002819Y-118488095D01*
X248002819Y-119059523D02*
X247431390Y-118630952D01*
X247002819Y-119059523D02*
X247574247Y-118488095D01*
X219747819Y-94675714D02*
X218747819Y-94675714D01*
X218747819Y-94675714D02*
X218747819Y-94913809D01*
X218747819Y-94913809D02*
X218795438Y-95056666D01*
X218795438Y-95056666D02*
X218890676Y-95151904D01*
X218890676Y-95151904D02*
X218985914Y-95199523D01*
X218985914Y-95199523D02*
X219176390Y-95247142D01*
X219176390Y-95247142D02*
X219319247Y-95247142D01*
X219319247Y-95247142D02*
X219509723Y-95199523D01*
X219509723Y-95199523D02*
X219604961Y-95151904D01*
X219604961Y-95151904D02*
X219700200Y-95056666D01*
X219700200Y-95056666D02*
X219747819Y-94913809D01*
X219747819Y-94913809D02*
X219747819Y-94675714D01*
X219747819Y-96199523D02*
X219747819Y-95628095D01*
X219747819Y-95913809D02*
X218747819Y-95913809D01*
X218747819Y-95913809D02*
X218890676Y-95818571D01*
X218890676Y-95818571D02*
X218985914Y-95723333D01*
X218985914Y-95723333D02*
X219033533Y-95628095D01*
X218747819Y-96818571D02*
X218747819Y-96913809D01*
X218747819Y-96913809D02*
X218795438Y-97009047D01*
X218795438Y-97009047D02*
X218843057Y-97056666D01*
X218843057Y-97056666D02*
X218938295Y-97104285D01*
X218938295Y-97104285D02*
X219128771Y-97151904D01*
X219128771Y-97151904D02*
X219366866Y-97151904D01*
X219366866Y-97151904D02*
X219557342Y-97104285D01*
X219557342Y-97104285D02*
X219652580Y-97056666D01*
X219652580Y-97056666D02*
X219700200Y-97009047D01*
X219700200Y-97009047D02*
X219747819Y-96913809D01*
X219747819Y-96913809D02*
X219747819Y-96818571D01*
X219747819Y-96818571D02*
X219700200Y-96723333D01*
X219700200Y-96723333D02*
X219652580Y-96675714D01*
X219652580Y-96675714D02*
X219557342Y-96628095D01*
X219557342Y-96628095D02*
X219366866Y-96580476D01*
X219366866Y-96580476D02*
X219128771Y-96580476D01*
X219128771Y-96580476D02*
X218938295Y-96628095D01*
X218938295Y-96628095D02*
X218843057Y-96675714D01*
X218843057Y-96675714D02*
X218795438Y-96723333D01*
X218795438Y-96723333D02*
X218747819Y-96818571D01*
X219427819Y-99438095D02*
X218427819Y-99438095D01*
X219427819Y-100009523D02*
X218856390Y-99580952D01*
X218427819Y-100009523D02*
X218999247Y-99438095D01*
X62585319Y-87531964D02*
X61585319Y-87531964D01*
X61585319Y-87531964D02*
X61585319Y-87770059D01*
X61585319Y-87770059D02*
X61632938Y-87912916D01*
X61632938Y-87912916D02*
X61728176Y-88008154D01*
X61728176Y-88008154D02*
X61823414Y-88055773D01*
X61823414Y-88055773D02*
X62013890Y-88103392D01*
X62013890Y-88103392D02*
X62156747Y-88103392D01*
X62156747Y-88103392D02*
X62347223Y-88055773D01*
X62347223Y-88055773D02*
X62442461Y-88008154D01*
X62442461Y-88008154D02*
X62537700Y-87912916D01*
X62537700Y-87912916D02*
X62585319Y-87770059D01*
X62585319Y-87770059D02*
X62585319Y-87531964D01*
X61680557Y-88484345D02*
X61632938Y-88531964D01*
X61632938Y-88531964D02*
X61585319Y-88627202D01*
X61585319Y-88627202D02*
X61585319Y-88865297D01*
X61585319Y-88865297D02*
X61632938Y-88960535D01*
X61632938Y-88960535D02*
X61680557Y-89008154D01*
X61680557Y-89008154D02*
X61775795Y-89055773D01*
X61775795Y-89055773D02*
X61871033Y-89055773D01*
X61871033Y-89055773D02*
X62013890Y-89008154D01*
X62013890Y-89008154D02*
X62585319Y-88436726D01*
X62585319Y-88436726D02*
X62585319Y-89055773D01*
X61585319Y-89960535D02*
X61585319Y-89484345D01*
X61585319Y-89484345D02*
X62061509Y-89436726D01*
X62061509Y-89436726D02*
X62013890Y-89484345D01*
X62013890Y-89484345D02*
X61966271Y-89579583D01*
X61966271Y-89579583D02*
X61966271Y-89817678D01*
X61966271Y-89817678D02*
X62013890Y-89912916D01*
X62013890Y-89912916D02*
X62061509Y-89960535D01*
X62061509Y-89960535D02*
X62156747Y-90008154D01*
X62156747Y-90008154D02*
X62394842Y-90008154D01*
X62394842Y-90008154D02*
X62490080Y-89960535D01*
X62490080Y-89960535D02*
X62537700Y-89912916D01*
X62537700Y-89912916D02*
X62585319Y-89817678D01*
X62585319Y-89817678D02*
X62585319Y-89579583D01*
X62585319Y-89579583D02*
X62537700Y-89484345D01*
X62537700Y-89484345D02*
X62490080Y-89436726D01*
X62265319Y-92294345D02*
X61265319Y-92294345D01*
X62265319Y-92865773D02*
X61693890Y-92437202D01*
X61265319Y-92865773D02*
X61836747Y-92294345D01*
X400722819Y-113725714D02*
X399722819Y-113725714D01*
X399722819Y-113725714D02*
X399722819Y-113963809D01*
X399722819Y-113963809D02*
X399770438Y-114106666D01*
X399770438Y-114106666D02*
X399865676Y-114201904D01*
X399865676Y-114201904D02*
X399960914Y-114249523D01*
X399960914Y-114249523D02*
X400151390Y-114297142D01*
X400151390Y-114297142D02*
X400294247Y-114297142D01*
X400294247Y-114297142D02*
X400484723Y-114249523D01*
X400484723Y-114249523D02*
X400579961Y-114201904D01*
X400579961Y-114201904D02*
X400675200Y-114106666D01*
X400675200Y-114106666D02*
X400722819Y-113963809D01*
X400722819Y-113963809D02*
X400722819Y-113725714D01*
X399818057Y-114678095D02*
X399770438Y-114725714D01*
X399770438Y-114725714D02*
X399722819Y-114820952D01*
X399722819Y-114820952D02*
X399722819Y-115059047D01*
X399722819Y-115059047D02*
X399770438Y-115154285D01*
X399770438Y-115154285D02*
X399818057Y-115201904D01*
X399818057Y-115201904D02*
X399913295Y-115249523D01*
X399913295Y-115249523D02*
X400008533Y-115249523D01*
X400008533Y-115249523D02*
X400151390Y-115201904D01*
X400151390Y-115201904D02*
X400722819Y-114630476D01*
X400722819Y-114630476D02*
X400722819Y-115249523D01*
X400056152Y-116106666D02*
X400722819Y-116106666D01*
X399675200Y-115868571D02*
X400389485Y-115630476D01*
X400389485Y-115630476D02*
X400389485Y-116249523D01*
X400402819Y-118488095D02*
X399402819Y-118488095D01*
X400402819Y-119059523D02*
X399831390Y-118630952D01*
X399402819Y-119059523D02*
X399974247Y-118488095D01*
X391197819Y-94675714D02*
X390197819Y-94675714D01*
X390197819Y-94675714D02*
X390197819Y-94913809D01*
X390197819Y-94913809D02*
X390245438Y-95056666D01*
X390245438Y-95056666D02*
X390340676Y-95151904D01*
X390340676Y-95151904D02*
X390435914Y-95199523D01*
X390435914Y-95199523D02*
X390626390Y-95247142D01*
X390626390Y-95247142D02*
X390769247Y-95247142D01*
X390769247Y-95247142D02*
X390959723Y-95199523D01*
X390959723Y-95199523D02*
X391054961Y-95151904D01*
X391054961Y-95151904D02*
X391150200Y-95056666D01*
X391150200Y-95056666D02*
X391197819Y-94913809D01*
X391197819Y-94913809D02*
X391197819Y-94675714D01*
X390293057Y-95628095D02*
X390245438Y-95675714D01*
X390245438Y-95675714D02*
X390197819Y-95770952D01*
X390197819Y-95770952D02*
X390197819Y-96009047D01*
X390197819Y-96009047D02*
X390245438Y-96104285D01*
X390245438Y-96104285D02*
X390293057Y-96151904D01*
X390293057Y-96151904D02*
X390388295Y-96199523D01*
X390388295Y-96199523D02*
X390483533Y-96199523D01*
X390483533Y-96199523D02*
X390626390Y-96151904D01*
X390626390Y-96151904D02*
X391197819Y-95580476D01*
X391197819Y-95580476D02*
X391197819Y-96199523D01*
X390197819Y-96532857D02*
X390197819Y-97151904D01*
X390197819Y-97151904D02*
X390578771Y-96818571D01*
X390578771Y-96818571D02*
X390578771Y-96961428D01*
X390578771Y-96961428D02*
X390626390Y-97056666D01*
X390626390Y-97056666D02*
X390674009Y-97104285D01*
X390674009Y-97104285D02*
X390769247Y-97151904D01*
X390769247Y-97151904D02*
X391007342Y-97151904D01*
X391007342Y-97151904D02*
X391102580Y-97104285D01*
X391102580Y-97104285D02*
X391150200Y-97056666D01*
X391150200Y-97056666D02*
X391197819Y-96961428D01*
X391197819Y-96961428D02*
X391197819Y-96675714D01*
X391197819Y-96675714D02*
X391150200Y-96580476D01*
X391150200Y-96580476D02*
X391102580Y-96532857D01*
X390877819Y-99438095D02*
X389877819Y-99438095D01*
X390877819Y-100009523D02*
X390306390Y-99580952D01*
X389877819Y-100009523D02*
X390449247Y-99438095D01*
X210222819Y-114201905D02*
X209222819Y-114201905D01*
X209222819Y-114201905D02*
X209222819Y-114440000D01*
X209222819Y-114440000D02*
X209270438Y-114582857D01*
X209270438Y-114582857D02*
X209365676Y-114678095D01*
X209365676Y-114678095D02*
X209460914Y-114725714D01*
X209460914Y-114725714D02*
X209651390Y-114773333D01*
X209651390Y-114773333D02*
X209794247Y-114773333D01*
X209794247Y-114773333D02*
X209984723Y-114725714D01*
X209984723Y-114725714D02*
X210079961Y-114678095D01*
X210079961Y-114678095D02*
X210175200Y-114582857D01*
X210175200Y-114582857D02*
X210222819Y-114440000D01*
X210222819Y-114440000D02*
X210222819Y-114201905D01*
X209556152Y-115630476D02*
X210222819Y-115630476D01*
X209175200Y-115392381D02*
X209889485Y-115154286D01*
X209889485Y-115154286D02*
X209889485Y-115773333D01*
X209902819Y-118488095D02*
X208902819Y-118488095D01*
X209902819Y-119059523D02*
X209331390Y-118630952D01*
X208902819Y-119059523D02*
X209474247Y-118488095D01*
X353097819Y-94675714D02*
X352097819Y-94675714D01*
X352097819Y-94675714D02*
X352097819Y-94913809D01*
X352097819Y-94913809D02*
X352145438Y-95056666D01*
X352145438Y-95056666D02*
X352240676Y-95151904D01*
X352240676Y-95151904D02*
X352335914Y-95199523D01*
X352335914Y-95199523D02*
X352526390Y-95247142D01*
X352526390Y-95247142D02*
X352669247Y-95247142D01*
X352669247Y-95247142D02*
X352859723Y-95199523D01*
X352859723Y-95199523D02*
X352954961Y-95151904D01*
X352954961Y-95151904D02*
X353050200Y-95056666D01*
X353050200Y-95056666D02*
X353097819Y-94913809D01*
X353097819Y-94913809D02*
X353097819Y-94675714D01*
X353097819Y-96199523D02*
X353097819Y-95628095D01*
X353097819Y-95913809D02*
X352097819Y-95913809D01*
X352097819Y-95913809D02*
X352240676Y-95818571D01*
X352240676Y-95818571D02*
X352335914Y-95723333D01*
X352335914Y-95723333D02*
X352383533Y-95628095D01*
X353097819Y-96675714D02*
X353097819Y-96866190D01*
X353097819Y-96866190D02*
X353050200Y-96961428D01*
X353050200Y-96961428D02*
X353002580Y-97009047D01*
X353002580Y-97009047D02*
X352859723Y-97104285D01*
X352859723Y-97104285D02*
X352669247Y-97151904D01*
X352669247Y-97151904D02*
X352288295Y-97151904D01*
X352288295Y-97151904D02*
X352193057Y-97104285D01*
X352193057Y-97104285D02*
X352145438Y-97056666D01*
X352145438Y-97056666D02*
X352097819Y-96961428D01*
X352097819Y-96961428D02*
X352097819Y-96770952D01*
X352097819Y-96770952D02*
X352145438Y-96675714D01*
X352145438Y-96675714D02*
X352193057Y-96628095D01*
X352193057Y-96628095D02*
X352288295Y-96580476D01*
X352288295Y-96580476D02*
X352526390Y-96580476D01*
X352526390Y-96580476D02*
X352621628Y-96628095D01*
X352621628Y-96628095D02*
X352669247Y-96675714D01*
X352669247Y-96675714D02*
X352716866Y-96770952D01*
X352716866Y-96770952D02*
X352716866Y-96961428D01*
X352716866Y-96961428D02*
X352669247Y-97056666D01*
X352669247Y-97056666D02*
X352621628Y-97104285D01*
X352621628Y-97104285D02*
X352526390Y-97151904D01*
X352777819Y-99438095D02*
X351777819Y-99438095D01*
X352777819Y-100009523D02*
X352206390Y-99580952D01*
X351777819Y-100009523D02*
X352349247Y-99438095D01*
X181330319Y-95151905D02*
X180330319Y-95151905D01*
X180330319Y-95151905D02*
X180330319Y-95390000D01*
X180330319Y-95390000D02*
X180377938Y-95532857D01*
X180377938Y-95532857D02*
X180473176Y-95628095D01*
X180473176Y-95628095D02*
X180568414Y-95675714D01*
X180568414Y-95675714D02*
X180758890Y-95723333D01*
X180758890Y-95723333D02*
X180901747Y-95723333D01*
X180901747Y-95723333D02*
X181092223Y-95675714D01*
X181092223Y-95675714D02*
X181187461Y-95628095D01*
X181187461Y-95628095D02*
X181282700Y-95532857D01*
X181282700Y-95532857D02*
X181330319Y-95390000D01*
X181330319Y-95390000D02*
X181330319Y-95151905D01*
X181330319Y-96199524D02*
X181330319Y-96390000D01*
X181330319Y-96390000D02*
X181282700Y-96485238D01*
X181282700Y-96485238D02*
X181235080Y-96532857D01*
X181235080Y-96532857D02*
X181092223Y-96628095D01*
X181092223Y-96628095D02*
X180901747Y-96675714D01*
X180901747Y-96675714D02*
X180520795Y-96675714D01*
X180520795Y-96675714D02*
X180425557Y-96628095D01*
X180425557Y-96628095D02*
X180377938Y-96580476D01*
X180377938Y-96580476D02*
X180330319Y-96485238D01*
X180330319Y-96485238D02*
X180330319Y-96294762D01*
X180330319Y-96294762D02*
X180377938Y-96199524D01*
X180377938Y-96199524D02*
X180425557Y-96151905D01*
X180425557Y-96151905D02*
X180520795Y-96104286D01*
X180520795Y-96104286D02*
X180758890Y-96104286D01*
X180758890Y-96104286D02*
X180854128Y-96151905D01*
X180854128Y-96151905D02*
X180901747Y-96199524D01*
X180901747Y-96199524D02*
X180949366Y-96294762D01*
X180949366Y-96294762D02*
X180949366Y-96485238D01*
X180949366Y-96485238D02*
X180901747Y-96580476D01*
X180901747Y-96580476D02*
X180854128Y-96628095D01*
X180854128Y-96628095D02*
X180758890Y-96675714D01*
X181010319Y-99438095D02*
X180010319Y-99438095D01*
X181010319Y-100009523D02*
X180438890Y-99580952D01*
X180010319Y-100009523D02*
X180581747Y-99438095D01*
X257847819Y-94675714D02*
X256847819Y-94675714D01*
X256847819Y-94675714D02*
X256847819Y-94913809D01*
X256847819Y-94913809D02*
X256895438Y-95056666D01*
X256895438Y-95056666D02*
X256990676Y-95151904D01*
X256990676Y-95151904D02*
X257085914Y-95199523D01*
X257085914Y-95199523D02*
X257276390Y-95247142D01*
X257276390Y-95247142D02*
X257419247Y-95247142D01*
X257419247Y-95247142D02*
X257609723Y-95199523D01*
X257609723Y-95199523D02*
X257704961Y-95151904D01*
X257704961Y-95151904D02*
X257800200Y-95056666D01*
X257800200Y-95056666D02*
X257847819Y-94913809D01*
X257847819Y-94913809D02*
X257847819Y-94675714D01*
X257847819Y-96199523D02*
X257847819Y-95628095D01*
X257847819Y-95913809D02*
X256847819Y-95913809D01*
X256847819Y-95913809D02*
X256990676Y-95818571D01*
X256990676Y-95818571D02*
X257085914Y-95723333D01*
X257085914Y-95723333D02*
X257133533Y-95628095D01*
X256943057Y-96580476D02*
X256895438Y-96628095D01*
X256895438Y-96628095D02*
X256847819Y-96723333D01*
X256847819Y-96723333D02*
X256847819Y-96961428D01*
X256847819Y-96961428D02*
X256895438Y-97056666D01*
X256895438Y-97056666D02*
X256943057Y-97104285D01*
X256943057Y-97104285D02*
X257038295Y-97151904D01*
X257038295Y-97151904D02*
X257133533Y-97151904D01*
X257133533Y-97151904D02*
X257276390Y-97104285D01*
X257276390Y-97104285D02*
X257847819Y-96532857D01*
X257847819Y-96532857D02*
X257847819Y-97151904D01*
X257527819Y-99438095D02*
X256527819Y-99438095D01*
X257527819Y-100009523D02*
X256956390Y-99580952D01*
X256527819Y-100009523D02*
X257099247Y-99438095D01*
X295947819Y-94675714D02*
X294947819Y-94675714D01*
X294947819Y-94675714D02*
X294947819Y-94913809D01*
X294947819Y-94913809D02*
X294995438Y-95056666D01*
X294995438Y-95056666D02*
X295090676Y-95151904D01*
X295090676Y-95151904D02*
X295185914Y-95199523D01*
X295185914Y-95199523D02*
X295376390Y-95247142D01*
X295376390Y-95247142D02*
X295519247Y-95247142D01*
X295519247Y-95247142D02*
X295709723Y-95199523D01*
X295709723Y-95199523D02*
X295804961Y-95151904D01*
X295804961Y-95151904D02*
X295900200Y-95056666D01*
X295900200Y-95056666D02*
X295947819Y-94913809D01*
X295947819Y-94913809D02*
X295947819Y-94675714D01*
X295947819Y-96199523D02*
X295947819Y-95628095D01*
X295947819Y-95913809D02*
X294947819Y-95913809D01*
X294947819Y-95913809D02*
X295090676Y-95818571D01*
X295090676Y-95818571D02*
X295185914Y-95723333D01*
X295185914Y-95723333D02*
X295233533Y-95628095D01*
X295281152Y-97056666D02*
X295947819Y-97056666D01*
X294900200Y-96818571D02*
X295614485Y-96580476D01*
X295614485Y-96580476D02*
X295614485Y-97199523D01*
X295627819Y-99438095D02*
X294627819Y-99438095D01*
X295627819Y-100009523D02*
X295056390Y-99580952D01*
X294627819Y-100009523D02*
X295199247Y-99438095D01*
X229272819Y-114201905D02*
X228272819Y-114201905D01*
X228272819Y-114201905D02*
X228272819Y-114440000D01*
X228272819Y-114440000D02*
X228320438Y-114582857D01*
X228320438Y-114582857D02*
X228415676Y-114678095D01*
X228415676Y-114678095D02*
X228510914Y-114725714D01*
X228510914Y-114725714D02*
X228701390Y-114773333D01*
X228701390Y-114773333D02*
X228844247Y-114773333D01*
X228844247Y-114773333D02*
X229034723Y-114725714D01*
X229034723Y-114725714D02*
X229129961Y-114678095D01*
X229129961Y-114678095D02*
X229225200Y-114582857D01*
X229225200Y-114582857D02*
X229272819Y-114440000D01*
X229272819Y-114440000D02*
X229272819Y-114201905D01*
X228272819Y-115678095D02*
X228272819Y-115201905D01*
X228272819Y-115201905D02*
X228749009Y-115154286D01*
X228749009Y-115154286D02*
X228701390Y-115201905D01*
X228701390Y-115201905D02*
X228653771Y-115297143D01*
X228653771Y-115297143D02*
X228653771Y-115535238D01*
X228653771Y-115535238D02*
X228701390Y-115630476D01*
X228701390Y-115630476D02*
X228749009Y-115678095D01*
X228749009Y-115678095D02*
X228844247Y-115725714D01*
X228844247Y-115725714D02*
X229082342Y-115725714D01*
X229082342Y-115725714D02*
X229177580Y-115678095D01*
X229177580Y-115678095D02*
X229225200Y-115630476D01*
X229225200Y-115630476D02*
X229272819Y-115535238D01*
X229272819Y-115535238D02*
X229272819Y-115297143D01*
X229272819Y-115297143D02*
X229225200Y-115201905D01*
X229225200Y-115201905D02*
X229177580Y-115154286D01*
X228952819Y-118488095D02*
X227952819Y-118488095D01*
X228952819Y-119059523D02*
X228381390Y-118630952D01*
X227952819Y-119059523D02*
X228524247Y-118488095D01*
X81635319Y-87531964D02*
X80635319Y-87531964D01*
X80635319Y-87531964D02*
X80635319Y-87770059D01*
X80635319Y-87770059D02*
X80682938Y-87912916D01*
X80682938Y-87912916D02*
X80778176Y-88008154D01*
X80778176Y-88008154D02*
X80873414Y-88055773D01*
X80873414Y-88055773D02*
X81063890Y-88103392D01*
X81063890Y-88103392D02*
X81206747Y-88103392D01*
X81206747Y-88103392D02*
X81397223Y-88055773D01*
X81397223Y-88055773D02*
X81492461Y-88008154D01*
X81492461Y-88008154D02*
X81587700Y-87912916D01*
X81587700Y-87912916D02*
X81635319Y-87770059D01*
X81635319Y-87770059D02*
X81635319Y-87531964D01*
X80730557Y-88484345D02*
X80682938Y-88531964D01*
X80682938Y-88531964D02*
X80635319Y-88627202D01*
X80635319Y-88627202D02*
X80635319Y-88865297D01*
X80635319Y-88865297D02*
X80682938Y-88960535D01*
X80682938Y-88960535D02*
X80730557Y-89008154D01*
X80730557Y-89008154D02*
X80825795Y-89055773D01*
X80825795Y-89055773D02*
X80921033Y-89055773D01*
X80921033Y-89055773D02*
X81063890Y-89008154D01*
X81063890Y-89008154D02*
X81635319Y-88436726D01*
X81635319Y-88436726D02*
X81635319Y-89055773D01*
X80635319Y-89912916D02*
X80635319Y-89722440D01*
X80635319Y-89722440D02*
X80682938Y-89627202D01*
X80682938Y-89627202D02*
X80730557Y-89579583D01*
X80730557Y-89579583D02*
X80873414Y-89484345D01*
X80873414Y-89484345D02*
X81063890Y-89436726D01*
X81063890Y-89436726D02*
X81444842Y-89436726D01*
X81444842Y-89436726D02*
X81540080Y-89484345D01*
X81540080Y-89484345D02*
X81587700Y-89531964D01*
X81587700Y-89531964D02*
X81635319Y-89627202D01*
X81635319Y-89627202D02*
X81635319Y-89817678D01*
X81635319Y-89817678D02*
X81587700Y-89912916D01*
X81587700Y-89912916D02*
X81540080Y-89960535D01*
X81540080Y-89960535D02*
X81444842Y-90008154D01*
X81444842Y-90008154D02*
X81206747Y-90008154D01*
X81206747Y-90008154D02*
X81111509Y-89960535D01*
X81111509Y-89960535D02*
X81063890Y-89912916D01*
X81063890Y-89912916D02*
X81016271Y-89817678D01*
X81016271Y-89817678D02*
X81016271Y-89627202D01*
X81016271Y-89627202D02*
X81063890Y-89531964D01*
X81063890Y-89531964D02*
X81111509Y-89484345D01*
X81111509Y-89484345D02*
X81206747Y-89436726D01*
X81315319Y-92294345D02*
X80315319Y-92294345D01*
X81315319Y-92865773D02*
X80743890Y-92437202D01*
X80315319Y-92865773D02*
X80886747Y-92294345D01*
X238797819Y-94675714D02*
X237797819Y-94675714D01*
X237797819Y-94675714D02*
X237797819Y-94913809D01*
X237797819Y-94913809D02*
X237845438Y-95056666D01*
X237845438Y-95056666D02*
X237940676Y-95151904D01*
X237940676Y-95151904D02*
X238035914Y-95199523D01*
X238035914Y-95199523D02*
X238226390Y-95247142D01*
X238226390Y-95247142D02*
X238369247Y-95247142D01*
X238369247Y-95247142D02*
X238559723Y-95199523D01*
X238559723Y-95199523D02*
X238654961Y-95151904D01*
X238654961Y-95151904D02*
X238750200Y-95056666D01*
X238750200Y-95056666D02*
X238797819Y-94913809D01*
X238797819Y-94913809D02*
X238797819Y-94675714D01*
X238797819Y-96199523D02*
X238797819Y-95628095D01*
X238797819Y-95913809D02*
X237797819Y-95913809D01*
X237797819Y-95913809D02*
X237940676Y-95818571D01*
X237940676Y-95818571D02*
X238035914Y-95723333D01*
X238035914Y-95723333D02*
X238083533Y-95628095D01*
X238797819Y-97151904D02*
X238797819Y-96580476D01*
X238797819Y-96866190D02*
X237797819Y-96866190D01*
X237797819Y-96866190D02*
X237940676Y-96770952D01*
X237940676Y-96770952D02*
X238035914Y-96675714D01*
X238035914Y-96675714D02*
X238083533Y-96580476D01*
X238477819Y-99438095D02*
X237477819Y-99438095D01*
X238477819Y-100009523D02*
X237906390Y-99580952D01*
X237477819Y-100009523D02*
X238049247Y-99438095D01*
X153072819Y-114201905D02*
X152072819Y-114201905D01*
X152072819Y-114201905D02*
X152072819Y-114440000D01*
X152072819Y-114440000D02*
X152120438Y-114582857D01*
X152120438Y-114582857D02*
X152215676Y-114678095D01*
X152215676Y-114678095D02*
X152310914Y-114725714D01*
X152310914Y-114725714D02*
X152501390Y-114773333D01*
X152501390Y-114773333D02*
X152644247Y-114773333D01*
X152644247Y-114773333D02*
X152834723Y-114725714D01*
X152834723Y-114725714D02*
X152929961Y-114678095D01*
X152929961Y-114678095D02*
X153025200Y-114582857D01*
X153025200Y-114582857D02*
X153072819Y-114440000D01*
X153072819Y-114440000D02*
X153072819Y-114201905D01*
X153072819Y-115725714D02*
X153072819Y-115154286D01*
X153072819Y-115440000D02*
X152072819Y-115440000D01*
X152072819Y-115440000D02*
X152215676Y-115344762D01*
X152215676Y-115344762D02*
X152310914Y-115249524D01*
X152310914Y-115249524D02*
X152358533Y-115154286D01*
X152752819Y-118488095D02*
X151752819Y-118488095D01*
X152752819Y-119059523D02*
X152181390Y-118630952D01*
X151752819Y-119059523D02*
X152324247Y-118488095D01*
X100685319Y-87531964D02*
X99685319Y-87531964D01*
X99685319Y-87531964D02*
X99685319Y-87770059D01*
X99685319Y-87770059D02*
X99732938Y-87912916D01*
X99732938Y-87912916D02*
X99828176Y-88008154D01*
X99828176Y-88008154D02*
X99923414Y-88055773D01*
X99923414Y-88055773D02*
X100113890Y-88103392D01*
X100113890Y-88103392D02*
X100256747Y-88103392D01*
X100256747Y-88103392D02*
X100447223Y-88055773D01*
X100447223Y-88055773D02*
X100542461Y-88008154D01*
X100542461Y-88008154D02*
X100637700Y-87912916D01*
X100637700Y-87912916D02*
X100685319Y-87770059D01*
X100685319Y-87770059D02*
X100685319Y-87531964D01*
X99780557Y-88484345D02*
X99732938Y-88531964D01*
X99732938Y-88531964D02*
X99685319Y-88627202D01*
X99685319Y-88627202D02*
X99685319Y-88865297D01*
X99685319Y-88865297D02*
X99732938Y-88960535D01*
X99732938Y-88960535D02*
X99780557Y-89008154D01*
X99780557Y-89008154D02*
X99875795Y-89055773D01*
X99875795Y-89055773D02*
X99971033Y-89055773D01*
X99971033Y-89055773D02*
X100113890Y-89008154D01*
X100113890Y-89008154D02*
X100685319Y-88436726D01*
X100685319Y-88436726D02*
X100685319Y-89055773D01*
X99685319Y-89389107D02*
X99685319Y-90055773D01*
X99685319Y-90055773D02*
X100685319Y-89627202D01*
X100365319Y-92294345D02*
X99365319Y-92294345D01*
X100365319Y-92865773D02*
X99793890Y-92437202D01*
X99365319Y-92865773D02*
X99936747Y-92294345D01*
X267372819Y-114201905D02*
X266372819Y-114201905D01*
X266372819Y-114201905D02*
X266372819Y-114440000D01*
X266372819Y-114440000D02*
X266420438Y-114582857D01*
X266420438Y-114582857D02*
X266515676Y-114678095D01*
X266515676Y-114678095D02*
X266610914Y-114725714D01*
X266610914Y-114725714D02*
X266801390Y-114773333D01*
X266801390Y-114773333D02*
X266944247Y-114773333D01*
X266944247Y-114773333D02*
X267134723Y-114725714D01*
X267134723Y-114725714D02*
X267229961Y-114678095D01*
X267229961Y-114678095D02*
X267325200Y-114582857D01*
X267325200Y-114582857D02*
X267372819Y-114440000D01*
X267372819Y-114440000D02*
X267372819Y-114201905D01*
X266372819Y-115106667D02*
X266372819Y-115773333D01*
X266372819Y-115773333D02*
X267372819Y-115344762D01*
X267052819Y-118488095D02*
X266052819Y-118488095D01*
X267052819Y-119059523D02*
X266481390Y-118630952D01*
X266052819Y-119059523D02*
X266624247Y-118488095D01*
X343572819Y-113725714D02*
X342572819Y-113725714D01*
X342572819Y-113725714D02*
X342572819Y-113963809D01*
X342572819Y-113963809D02*
X342620438Y-114106666D01*
X342620438Y-114106666D02*
X342715676Y-114201904D01*
X342715676Y-114201904D02*
X342810914Y-114249523D01*
X342810914Y-114249523D02*
X343001390Y-114297142D01*
X343001390Y-114297142D02*
X343144247Y-114297142D01*
X343144247Y-114297142D02*
X343334723Y-114249523D01*
X343334723Y-114249523D02*
X343429961Y-114201904D01*
X343429961Y-114201904D02*
X343525200Y-114106666D01*
X343525200Y-114106666D02*
X343572819Y-113963809D01*
X343572819Y-113963809D02*
X343572819Y-113725714D01*
X343572819Y-115249523D02*
X343572819Y-114678095D01*
X343572819Y-114963809D02*
X342572819Y-114963809D01*
X342572819Y-114963809D02*
X342715676Y-114868571D01*
X342715676Y-114868571D02*
X342810914Y-114773333D01*
X342810914Y-114773333D02*
X342858533Y-114678095D01*
X343001390Y-115820952D02*
X342953771Y-115725714D01*
X342953771Y-115725714D02*
X342906152Y-115678095D01*
X342906152Y-115678095D02*
X342810914Y-115630476D01*
X342810914Y-115630476D02*
X342763295Y-115630476D01*
X342763295Y-115630476D02*
X342668057Y-115678095D01*
X342668057Y-115678095D02*
X342620438Y-115725714D01*
X342620438Y-115725714D02*
X342572819Y-115820952D01*
X342572819Y-115820952D02*
X342572819Y-116011428D01*
X342572819Y-116011428D02*
X342620438Y-116106666D01*
X342620438Y-116106666D02*
X342668057Y-116154285D01*
X342668057Y-116154285D02*
X342763295Y-116201904D01*
X342763295Y-116201904D02*
X342810914Y-116201904D01*
X342810914Y-116201904D02*
X342906152Y-116154285D01*
X342906152Y-116154285D02*
X342953771Y-116106666D01*
X342953771Y-116106666D02*
X343001390Y-116011428D01*
X343001390Y-116011428D02*
X343001390Y-115820952D01*
X343001390Y-115820952D02*
X343049009Y-115725714D01*
X343049009Y-115725714D02*
X343096628Y-115678095D01*
X343096628Y-115678095D02*
X343191866Y-115630476D01*
X343191866Y-115630476D02*
X343382342Y-115630476D01*
X343382342Y-115630476D02*
X343477580Y-115678095D01*
X343477580Y-115678095D02*
X343525200Y-115725714D01*
X343525200Y-115725714D02*
X343572819Y-115820952D01*
X343572819Y-115820952D02*
X343572819Y-116011428D01*
X343572819Y-116011428D02*
X343525200Y-116106666D01*
X343525200Y-116106666D02*
X343477580Y-116154285D01*
X343477580Y-116154285D02*
X343382342Y-116201904D01*
X343382342Y-116201904D02*
X343191866Y-116201904D01*
X343191866Y-116201904D02*
X343096628Y-116154285D01*
X343096628Y-116154285D02*
X343049009Y-116106666D01*
X343049009Y-116106666D02*
X343001390Y-116011428D01*
X343252819Y-118488095D02*
X342252819Y-118488095D01*
X343252819Y-119059523D02*
X342681390Y-118630952D01*
X342252819Y-119059523D02*
X342824247Y-118488095D01*
X324522819Y-113725714D02*
X323522819Y-113725714D01*
X323522819Y-113725714D02*
X323522819Y-113963809D01*
X323522819Y-113963809D02*
X323570438Y-114106666D01*
X323570438Y-114106666D02*
X323665676Y-114201904D01*
X323665676Y-114201904D02*
X323760914Y-114249523D01*
X323760914Y-114249523D02*
X323951390Y-114297142D01*
X323951390Y-114297142D02*
X324094247Y-114297142D01*
X324094247Y-114297142D02*
X324284723Y-114249523D01*
X324284723Y-114249523D02*
X324379961Y-114201904D01*
X324379961Y-114201904D02*
X324475200Y-114106666D01*
X324475200Y-114106666D02*
X324522819Y-113963809D01*
X324522819Y-113963809D02*
X324522819Y-113725714D01*
X324522819Y-115249523D02*
X324522819Y-114678095D01*
X324522819Y-114963809D02*
X323522819Y-114963809D01*
X323522819Y-114963809D02*
X323665676Y-114868571D01*
X323665676Y-114868571D02*
X323760914Y-114773333D01*
X323760914Y-114773333D02*
X323808533Y-114678095D01*
X323522819Y-115582857D02*
X323522819Y-116249523D01*
X323522819Y-116249523D02*
X324522819Y-115820952D01*
X324202819Y-118488095D02*
X323202819Y-118488095D01*
X324202819Y-119059523D02*
X323631390Y-118630952D01*
X323202819Y-119059523D02*
X323774247Y-118488095D01*
G04 #@! TO.C,U1*
X52449250Y-54751250D02*
X52449250Y-75751250D01*
X52449250Y-54751250D02*
X103449250Y-54751250D01*
X52449250Y-75751250D02*
X103449250Y-75751250D01*
X55116250Y-54751250D02*
X55116250Y-57758250D01*
X55116250Y-57758250D02*
X52449250Y-57758250D01*
X103449250Y-75751250D02*
X103449250Y-54751250D01*
D11*
G04 #@! TO.C,D13*
X282728000Y-112820000D02*
X282728000Y-117060000D01*
X282728000Y-116220000D02*
X284968000Y-116220000D01*
X282728000Y-116340000D02*
X284968000Y-116340000D01*
X282728000Y-116460000D02*
X284968000Y-116460000D01*
X282728000Y-117060000D02*
X284968000Y-117060000D01*
X283848000Y-112820000D02*
X283848000Y-112170000D01*
X283848000Y-117060000D02*
X283848000Y-117710000D01*
X284968000Y-112820000D02*
X282728000Y-112820000D01*
X284968000Y-117060000D02*
X284968000Y-112820000D01*
G04 #@! TO.C,D2*
X168428000Y-112820000D02*
X168428000Y-117060000D01*
X168428000Y-116220000D02*
X170668000Y-116220000D01*
X168428000Y-116340000D02*
X170668000Y-116340000D01*
X168428000Y-116460000D02*
X170668000Y-116460000D01*
X168428000Y-117060000D02*
X170668000Y-117060000D01*
X169548000Y-112820000D02*
X169548000Y-112170000D01*
X169548000Y-117060000D02*
X169548000Y-117710000D01*
X170668000Y-112820000D02*
X168428000Y-112820000D01*
X170668000Y-117060000D02*
X170668000Y-112820000D01*
G04 #@! TO.C,D16*
X311303000Y-93770000D02*
X311303000Y-98010000D01*
X311303000Y-97170000D02*
X313543000Y-97170000D01*
X311303000Y-97290000D02*
X313543000Y-97290000D01*
X311303000Y-97410000D02*
X313543000Y-97410000D01*
X311303000Y-98010000D02*
X313543000Y-98010000D01*
X312423000Y-93770000D02*
X312423000Y-93120000D01*
X312423000Y-98010000D02*
X312423000Y-98660000D01*
X313543000Y-93770000D02*
X311303000Y-93770000D01*
X313543000Y-98010000D02*
X313543000Y-93770000D01*
G04 #@! TO.C,D8*
X158585500Y-93770000D02*
X158585500Y-98010000D01*
X158585500Y-97170000D02*
X160825500Y-97170000D01*
X158585500Y-97290000D02*
X160825500Y-97290000D01*
X158585500Y-97410000D02*
X160825500Y-97410000D01*
X158585500Y-98010000D02*
X160825500Y-98010000D01*
X159705500Y-93770000D02*
X159705500Y-93120000D01*
X159705500Y-98010000D02*
X159705500Y-98660000D01*
X160825500Y-93770000D02*
X158585500Y-93770000D01*
X160825500Y-98010000D02*
X160825500Y-93770000D01*
G04 #@! TO.C,D15*
X301778000Y-112820000D02*
X301778000Y-117060000D01*
X301778000Y-116220000D02*
X304018000Y-116220000D01*
X301778000Y-116340000D02*
X304018000Y-116340000D01*
X301778000Y-116460000D02*
X304018000Y-116460000D01*
X301778000Y-117060000D02*
X304018000Y-117060000D01*
X302898000Y-112820000D02*
X302898000Y-112170000D01*
X302898000Y-117060000D02*
X302898000Y-117710000D01*
X304018000Y-112820000D02*
X301778000Y-112820000D01*
X304018000Y-117060000D02*
X304018000Y-112820000D01*
G04 #@! TO.C,D3*
X187478000Y-112820000D02*
X187478000Y-117060000D01*
X187478000Y-116220000D02*
X189718000Y-116220000D01*
X187478000Y-116340000D02*
X189718000Y-116340000D01*
X187478000Y-116460000D02*
X189718000Y-116460000D01*
X187478000Y-117060000D02*
X189718000Y-117060000D01*
X188598000Y-112820000D02*
X188598000Y-112170000D01*
X188598000Y-117060000D02*
X188598000Y-117710000D01*
X189718000Y-112820000D02*
X187478000Y-112820000D01*
X189718000Y-117060000D02*
X189718000Y-112820000D01*
G04 #@! TO.C,D28*
X116040500Y-86626250D02*
X116040500Y-90866250D01*
X116040500Y-90026250D02*
X118280500Y-90026250D01*
X116040500Y-90146250D02*
X118280500Y-90146250D01*
X116040500Y-90266250D02*
X118280500Y-90266250D01*
X116040500Y-90866250D02*
X118280500Y-90866250D01*
X117160500Y-86626250D02*
X117160500Y-85976250D01*
X117160500Y-90866250D02*
X117160500Y-91516250D01*
X118280500Y-86626250D02*
X116040500Y-86626250D01*
X118280500Y-90866250D02*
X118280500Y-86626250D01*
G04 #@! TO.C,D22*
X377978000Y-112820000D02*
X377978000Y-117060000D01*
X377978000Y-116220000D02*
X380218000Y-116220000D01*
X377978000Y-116340000D02*
X380218000Y-116340000D01*
X377978000Y-116460000D02*
X380218000Y-116460000D01*
X377978000Y-117060000D02*
X380218000Y-117060000D01*
X379098000Y-112820000D02*
X379098000Y-112170000D01*
X379098000Y-117060000D02*
X379098000Y-117710000D01*
X380218000Y-112820000D02*
X377978000Y-112820000D01*
X380218000Y-117060000D02*
X380218000Y-112820000D01*
G04 #@! TO.C,D20*
X358928000Y-112820000D02*
X358928000Y-117060000D01*
X358928000Y-116220000D02*
X361168000Y-116220000D01*
X358928000Y-116340000D02*
X361168000Y-116340000D01*
X358928000Y-116460000D02*
X361168000Y-116460000D01*
X358928000Y-117060000D02*
X361168000Y-117060000D01*
X360048000Y-112820000D02*
X360048000Y-112170000D01*
X360048000Y-117060000D02*
X360048000Y-117710000D01*
X361168000Y-112820000D02*
X358928000Y-112820000D01*
X361168000Y-117060000D02*
X361168000Y-112820000D01*
G04 #@! TO.C,D21*
X368453000Y-93770000D02*
X368453000Y-98010000D01*
X368453000Y-97170000D02*
X370693000Y-97170000D01*
X368453000Y-97290000D02*
X370693000Y-97290000D01*
X368453000Y-97410000D02*
X370693000Y-97410000D01*
X368453000Y-98010000D02*
X370693000Y-98010000D01*
X369573000Y-93770000D02*
X369573000Y-93120000D01*
X369573000Y-98010000D02*
X369573000Y-98660000D01*
X370693000Y-93770000D02*
X368453000Y-93770000D01*
X370693000Y-98010000D02*
X370693000Y-93770000D01*
G04 #@! TO.C,D6*
X244628000Y-112820000D02*
X244628000Y-117060000D01*
X244628000Y-116220000D02*
X246868000Y-116220000D01*
X244628000Y-116340000D02*
X246868000Y-116340000D01*
X244628000Y-116460000D02*
X246868000Y-116460000D01*
X244628000Y-117060000D02*
X246868000Y-117060000D01*
X245748000Y-112820000D02*
X245748000Y-112170000D01*
X245748000Y-117060000D02*
X245748000Y-117710000D01*
X246868000Y-112820000D02*
X244628000Y-112820000D01*
X246868000Y-117060000D02*
X246868000Y-112820000D01*
G04 #@! TO.C,D10*
X216053000Y-93770000D02*
X216053000Y-98010000D01*
X216053000Y-97170000D02*
X218293000Y-97170000D01*
X216053000Y-97290000D02*
X218293000Y-97290000D01*
X216053000Y-97410000D02*
X218293000Y-97410000D01*
X216053000Y-98010000D02*
X218293000Y-98010000D01*
X217173000Y-93770000D02*
X217173000Y-93120000D01*
X217173000Y-98010000D02*
X217173000Y-98660000D01*
X218293000Y-93770000D02*
X216053000Y-93770000D01*
X218293000Y-98010000D02*
X218293000Y-93770000D01*
G04 #@! TO.C,D25*
X58890500Y-86626250D02*
X58890500Y-90866250D01*
X58890500Y-90026250D02*
X61130500Y-90026250D01*
X58890500Y-90146250D02*
X61130500Y-90146250D01*
X58890500Y-90266250D02*
X61130500Y-90266250D01*
X58890500Y-90866250D02*
X61130500Y-90866250D01*
X60010500Y-86626250D02*
X60010500Y-85976250D01*
X60010500Y-90866250D02*
X60010500Y-91516250D01*
X61130500Y-86626250D02*
X58890500Y-86626250D01*
X61130500Y-90866250D02*
X61130500Y-86626250D01*
G04 #@! TO.C,D24*
X397028000Y-112820000D02*
X397028000Y-117060000D01*
X397028000Y-116220000D02*
X399268000Y-116220000D01*
X397028000Y-116340000D02*
X399268000Y-116340000D01*
X397028000Y-116460000D02*
X399268000Y-116460000D01*
X397028000Y-117060000D02*
X399268000Y-117060000D01*
X398148000Y-112820000D02*
X398148000Y-112170000D01*
X398148000Y-117060000D02*
X398148000Y-117710000D01*
X399268000Y-112820000D02*
X397028000Y-112820000D01*
X399268000Y-117060000D02*
X399268000Y-112820000D01*
G04 #@! TO.C,D23*
X387503000Y-93770000D02*
X387503000Y-98010000D01*
X387503000Y-97170000D02*
X389743000Y-97170000D01*
X387503000Y-97290000D02*
X389743000Y-97290000D01*
X387503000Y-97410000D02*
X389743000Y-97410000D01*
X387503000Y-98010000D02*
X389743000Y-98010000D01*
X388623000Y-93770000D02*
X388623000Y-93120000D01*
X388623000Y-98010000D02*
X388623000Y-98660000D01*
X389743000Y-93770000D02*
X387503000Y-93770000D01*
X389743000Y-98010000D02*
X389743000Y-93770000D01*
G04 #@! TO.C,D4*
X206528000Y-112820000D02*
X206528000Y-117060000D01*
X206528000Y-116220000D02*
X208768000Y-116220000D01*
X206528000Y-116340000D02*
X208768000Y-116340000D01*
X206528000Y-116460000D02*
X208768000Y-116460000D01*
X206528000Y-117060000D02*
X208768000Y-117060000D01*
X207648000Y-112820000D02*
X207648000Y-112170000D01*
X207648000Y-117060000D02*
X207648000Y-117710000D01*
X208768000Y-112820000D02*
X206528000Y-112820000D01*
X208768000Y-117060000D02*
X208768000Y-112820000D01*
G04 #@! TO.C,D19*
X349403000Y-93770000D02*
X349403000Y-98010000D01*
X349403000Y-97170000D02*
X351643000Y-97170000D01*
X349403000Y-97290000D02*
X351643000Y-97290000D01*
X349403000Y-97410000D02*
X351643000Y-97410000D01*
X349403000Y-98010000D02*
X351643000Y-98010000D01*
X350523000Y-93770000D02*
X350523000Y-93120000D01*
X350523000Y-98010000D02*
X350523000Y-98660000D01*
X351643000Y-93770000D02*
X349403000Y-93770000D01*
X351643000Y-98010000D02*
X351643000Y-93770000D01*
G04 #@! TO.C,D9*
X177635500Y-93770000D02*
X177635500Y-98010000D01*
X177635500Y-97170000D02*
X179875500Y-97170000D01*
X177635500Y-97290000D02*
X179875500Y-97290000D01*
X177635500Y-97410000D02*
X179875500Y-97410000D01*
X177635500Y-98010000D02*
X179875500Y-98010000D01*
X178755500Y-93770000D02*
X178755500Y-93120000D01*
X178755500Y-98010000D02*
X178755500Y-98660000D01*
X179875500Y-93770000D02*
X177635500Y-93770000D01*
X179875500Y-98010000D02*
X179875500Y-93770000D01*
G04 #@! TO.C,D12*
X254153000Y-93770000D02*
X254153000Y-98010000D01*
X254153000Y-97170000D02*
X256393000Y-97170000D01*
X254153000Y-97290000D02*
X256393000Y-97290000D01*
X254153000Y-97410000D02*
X256393000Y-97410000D01*
X254153000Y-98010000D02*
X256393000Y-98010000D01*
X255273000Y-93770000D02*
X255273000Y-93120000D01*
X255273000Y-98010000D02*
X255273000Y-98660000D01*
X256393000Y-93770000D02*
X254153000Y-93770000D01*
X256393000Y-98010000D02*
X256393000Y-93770000D01*
G04 #@! TO.C,D14*
X292253000Y-93770000D02*
X292253000Y-98010000D01*
X292253000Y-97170000D02*
X294493000Y-97170000D01*
X292253000Y-97290000D02*
X294493000Y-97290000D01*
X292253000Y-97410000D02*
X294493000Y-97410000D01*
X292253000Y-98010000D02*
X294493000Y-98010000D01*
X293373000Y-93770000D02*
X293373000Y-93120000D01*
X293373000Y-98010000D02*
X293373000Y-98660000D01*
X294493000Y-93770000D02*
X292253000Y-93770000D01*
X294493000Y-98010000D02*
X294493000Y-93770000D01*
G04 #@! TO.C,D5*
X225578000Y-112820000D02*
X225578000Y-117060000D01*
X225578000Y-116220000D02*
X227818000Y-116220000D01*
X225578000Y-116340000D02*
X227818000Y-116340000D01*
X225578000Y-116460000D02*
X227818000Y-116460000D01*
X225578000Y-117060000D02*
X227818000Y-117060000D01*
X226698000Y-112820000D02*
X226698000Y-112170000D01*
X226698000Y-117060000D02*
X226698000Y-117710000D01*
X227818000Y-112820000D02*
X225578000Y-112820000D01*
X227818000Y-117060000D02*
X227818000Y-112820000D01*
G04 #@! TO.C,D26*
X77940500Y-86626250D02*
X77940500Y-90866250D01*
X77940500Y-90026250D02*
X80180500Y-90026250D01*
X77940500Y-90146250D02*
X80180500Y-90146250D01*
X77940500Y-90266250D02*
X80180500Y-90266250D01*
X77940500Y-90866250D02*
X80180500Y-90866250D01*
X79060500Y-86626250D02*
X79060500Y-85976250D01*
X79060500Y-90866250D02*
X79060500Y-91516250D01*
X80180500Y-86626250D02*
X77940500Y-86626250D01*
X80180500Y-90866250D02*
X80180500Y-86626250D01*
G04 #@! TO.C,D11*
X235103000Y-93770000D02*
X235103000Y-98010000D01*
X235103000Y-97170000D02*
X237343000Y-97170000D01*
X235103000Y-97290000D02*
X237343000Y-97290000D01*
X235103000Y-97410000D02*
X237343000Y-97410000D01*
X235103000Y-98010000D02*
X237343000Y-98010000D01*
X236223000Y-93770000D02*
X236223000Y-93120000D01*
X236223000Y-98010000D02*
X236223000Y-98660000D01*
X237343000Y-93770000D02*
X235103000Y-93770000D01*
X237343000Y-98010000D02*
X237343000Y-93770000D01*
G04 #@! TO.C,D1*
X149378000Y-112820000D02*
X149378000Y-117060000D01*
X149378000Y-116220000D02*
X151618000Y-116220000D01*
X149378000Y-116340000D02*
X151618000Y-116340000D01*
X149378000Y-116460000D02*
X151618000Y-116460000D01*
X149378000Y-117060000D02*
X151618000Y-117060000D01*
X150498000Y-112820000D02*
X150498000Y-112170000D01*
X150498000Y-117060000D02*
X150498000Y-117710000D01*
X151618000Y-112820000D02*
X149378000Y-112820000D01*
X151618000Y-117060000D02*
X151618000Y-112820000D01*
G04 #@! TO.C,D27*
X96990500Y-86626250D02*
X96990500Y-90866250D01*
X96990500Y-90026250D02*
X99230500Y-90026250D01*
X96990500Y-90146250D02*
X99230500Y-90146250D01*
X96990500Y-90266250D02*
X99230500Y-90266250D01*
X96990500Y-90866250D02*
X99230500Y-90866250D01*
X98110500Y-86626250D02*
X98110500Y-85976250D01*
X98110500Y-90866250D02*
X98110500Y-91516250D01*
X99230500Y-86626250D02*
X96990500Y-86626250D01*
X99230500Y-90866250D02*
X99230500Y-86626250D01*
G04 #@! TO.C,D7*
X263678000Y-112820000D02*
X263678000Y-117060000D01*
X263678000Y-116220000D02*
X265918000Y-116220000D01*
X263678000Y-116340000D02*
X265918000Y-116340000D01*
X263678000Y-116460000D02*
X265918000Y-116460000D01*
X263678000Y-117060000D02*
X265918000Y-117060000D01*
X264798000Y-112820000D02*
X264798000Y-112170000D01*
X264798000Y-117060000D02*
X264798000Y-117710000D01*
X265918000Y-112820000D02*
X263678000Y-112820000D01*
X265918000Y-117060000D02*
X265918000Y-112820000D01*
G04 #@! TO.C,D18*
X339878000Y-112820000D02*
X339878000Y-117060000D01*
X339878000Y-116220000D02*
X342118000Y-116220000D01*
X339878000Y-116340000D02*
X342118000Y-116340000D01*
X339878000Y-116460000D02*
X342118000Y-116460000D01*
X339878000Y-117060000D02*
X342118000Y-117060000D01*
X340998000Y-112820000D02*
X340998000Y-112170000D01*
X340998000Y-117060000D02*
X340998000Y-117710000D01*
X342118000Y-112820000D02*
X339878000Y-112820000D01*
X342118000Y-117060000D02*
X342118000Y-112820000D01*
G04 #@! TO.C,D17*
X320828000Y-112820000D02*
X320828000Y-117060000D01*
X320828000Y-116220000D02*
X323068000Y-116220000D01*
X320828000Y-116340000D02*
X323068000Y-116340000D01*
X320828000Y-116460000D02*
X323068000Y-116460000D01*
X320828000Y-117060000D02*
X323068000Y-117060000D01*
X321948000Y-112820000D02*
X321948000Y-112170000D01*
X321948000Y-117060000D02*
X321948000Y-117710000D01*
X323068000Y-112820000D02*
X320828000Y-112820000D01*
X323068000Y-117060000D02*
X323068000Y-112820000D01*
G04 #@! TD*
%LPC*%
D12*
G04 #@! TO.C,U2*
X75409250Y-105573750D03*
X81759250Y-105573750D03*
X75409250Y-110653750D03*
X81759250Y-110653750D03*
X76044250Y-128433750D03*
X78584250Y-128433750D03*
X81124250Y-128433750D03*
D13*
X70964250Y-111606250D03*
X70964250Y-124941250D03*
X86204250Y-124941250D03*
X86204250Y-111606250D03*
D12*
X68424250Y-115733750D03*
X68424250Y-118273750D03*
X68424250Y-120813750D03*
G04 #@! TD*
D14*
G04 #@! TO.C,SW20*
X345443000Y-115892500D03*
D15*
X350523000Y-115892500D03*
D14*
X355603000Y-115892500D03*
D16*
X346713000Y-113352500D03*
X353063000Y-110812500D03*
G04 #@! TD*
D14*
G04 #@! TO.C,SW13*
X269243000Y-115892500D03*
D15*
X274323000Y-115892500D03*
D14*
X279403000Y-115892500D03*
D16*
X270513000Y-113352500D03*
X276863000Y-110812500D03*
G04 #@! TD*
D17*
G04 #@! TO.C,U1*
X53819250Y-74141250D03*
X56359250Y-74141250D03*
D18*
X58899250Y-74141250D03*
D17*
X61439250Y-74141250D03*
X63979250Y-74141250D03*
X66519250Y-74141250D03*
X69059250Y-74141250D03*
D18*
X71599250Y-74141250D03*
D17*
X74139250Y-74141250D03*
X76679250Y-74141250D03*
X79219250Y-74141250D03*
X81759250Y-74141250D03*
D18*
X84299250Y-74141250D03*
D17*
X86839250Y-74141250D03*
X89379250Y-74141250D03*
X91919250Y-74141250D03*
X94459250Y-74141250D03*
D18*
X96999250Y-74141250D03*
D17*
X99539250Y-74141250D03*
X102079250Y-74141250D03*
X102079250Y-56361250D03*
X99539250Y-56361250D03*
D18*
X96999250Y-56361250D03*
D17*
X94459250Y-56361250D03*
X91919250Y-56361250D03*
X89379250Y-56361250D03*
X86839250Y-56361250D03*
D18*
X84299250Y-56361250D03*
D17*
X81759250Y-56361250D03*
X79219250Y-56361250D03*
X76679250Y-56361250D03*
X74139250Y-56361250D03*
D18*
X71599250Y-56361250D03*
D17*
X69059250Y-56361250D03*
X66519250Y-56361250D03*
X63979250Y-56361250D03*
X61439250Y-56361250D03*
D18*
X58899250Y-56361250D03*
D17*
X56359250Y-56361250D03*
X53819250Y-56361250D03*
X101849250Y-67791250D03*
D18*
X101849250Y-65251250D03*
D17*
X101849250Y-62711250D03*
G04 #@! TD*
D14*
G04 #@! TO.C,SW15*
X288293000Y-115892500D03*
D15*
X293373000Y-115892500D03*
D14*
X298453000Y-115892500D03*
D16*
X289563000Y-113352500D03*
X295913000Y-110812500D03*
G04 #@! TD*
D14*
G04 #@! TO.C,SW24*
X383543000Y-115892500D03*
D15*
X388623000Y-115892500D03*
D14*
X393703000Y-115892500D03*
D16*
X384813000Y-113352500D03*
X391163000Y-110812500D03*
G04 #@! TD*
D14*
G04 #@! TO.C,SW1*
X135893000Y-115892500D03*
D15*
X140973000Y-115892500D03*
D14*
X146053000Y-115892500D03*
D16*
X137163000Y-113352500D03*
X143513000Y-110812500D03*
G04 #@! TD*
D14*
G04 #@! TO.C,SW11*
X221618000Y-96842500D03*
D15*
X226698000Y-96842500D03*
D14*
X231778000Y-96842500D03*
D16*
X222888000Y-94302500D03*
X229238000Y-91762500D03*
G04 #@! TD*
D14*
G04 #@! TO.C,SW3*
X173993000Y-115892500D03*
D15*
X179073000Y-115892500D03*
D14*
X184153000Y-115892500D03*
D16*
X175263000Y-113352500D03*
X181613000Y-110812500D03*
G04 #@! TD*
D14*
G04 #@! TO.C,SW18*
X326393000Y-115892500D03*
D15*
X331473000Y-115892500D03*
D14*
X336553000Y-115892500D03*
D16*
X327663000Y-113352500D03*
X334013000Y-110812500D03*
G04 #@! TD*
D14*
G04 #@! TO.C,SW12*
X240668000Y-96842500D03*
D15*
X245748000Y-96842500D03*
D14*
X250828000Y-96842500D03*
D16*
X241938000Y-94302500D03*
X248288000Y-91762500D03*
G04 #@! TD*
D14*
G04 #@! TO.C,SW4*
X193043000Y-115892500D03*
D15*
X198123000Y-115892500D03*
D14*
X203203000Y-115892500D03*
D16*
X194313000Y-113352500D03*
X200663000Y-110812500D03*
G04 #@! TD*
D14*
G04 #@! TO.C,SW19*
X335918000Y-96842500D03*
D15*
X340998000Y-96842500D03*
D14*
X346078000Y-96842500D03*
D16*
X337188000Y-94302500D03*
X343538000Y-91762500D03*
G04 #@! TD*
D14*
G04 #@! TO.C,SW25*
X45405500Y-89698750D03*
D15*
X50485500Y-89698750D03*
D14*
X55565500Y-89698750D03*
D16*
X46675500Y-87158750D03*
X53025500Y-84618750D03*
G04 #@! TD*
D14*
G04 #@! TO.C,SW21*
X354968000Y-96842500D03*
D15*
X360048000Y-96842500D03*
D14*
X365128000Y-96842500D03*
D16*
X356238000Y-94302500D03*
X362588000Y-91762500D03*
G04 #@! TD*
D14*
G04 #@! TO.C,SW7*
X250193000Y-115892500D03*
D15*
X255273000Y-115892500D03*
D14*
X260353000Y-115892500D03*
D16*
X251463000Y-113352500D03*
X257813000Y-110812500D03*
G04 #@! TD*
D14*
G04 #@! TO.C,SW14*
X278768000Y-96842500D03*
D15*
X283848000Y-96842500D03*
D14*
X288928000Y-96842500D03*
D16*
X280038000Y-94302500D03*
X286388000Y-91762500D03*
G04 #@! TD*
D14*
G04 #@! TO.C,SW16*
X297818000Y-96842500D03*
D15*
X302898000Y-96842500D03*
D14*
X307978000Y-96842500D03*
D16*
X299088000Y-94302500D03*
X305438000Y-91762500D03*
G04 #@! TD*
D14*
G04 #@! TO.C,SW5*
X212093000Y-115892500D03*
D15*
X217173000Y-115892500D03*
D14*
X222253000Y-115892500D03*
D16*
X213363000Y-113352500D03*
X219713000Y-110812500D03*
G04 #@! TD*
D14*
G04 #@! TO.C,SW26*
X64455500Y-89698750D03*
D15*
X69535500Y-89698750D03*
D14*
X74615500Y-89698750D03*
D16*
X65725500Y-87158750D03*
X72075500Y-84618750D03*
G04 #@! TD*
D14*
G04 #@! TO.C,SW10*
X202568000Y-96842500D03*
D15*
X207648000Y-96842500D03*
D14*
X212728000Y-96842500D03*
D16*
X203838000Y-94302500D03*
X210188000Y-91762500D03*
G04 #@! TD*
D14*
G04 #@! TO.C,SW22*
X364493000Y-115892500D03*
D15*
X369573000Y-115892500D03*
D14*
X374653000Y-115892500D03*
D16*
X365763000Y-113352500D03*
X372113000Y-110812500D03*
G04 #@! TD*
D14*
G04 #@! TO.C,SW9*
X164150500Y-96842500D03*
D15*
X169230500Y-96842500D03*
D14*
X174310500Y-96842500D03*
D16*
X165420500Y-94302500D03*
X171770500Y-91762500D03*
G04 #@! TD*
D14*
G04 #@! TO.C,SW2*
X154943000Y-115892500D03*
D15*
X160023000Y-115892500D03*
D14*
X165103000Y-115892500D03*
D16*
X156213000Y-113352500D03*
X162563000Y-110812500D03*
G04 #@! TD*
D14*
G04 #@! TO.C,SW28*
X102555500Y-89698750D03*
D15*
X107635500Y-89698750D03*
D14*
X112715500Y-89698750D03*
D16*
X103825500Y-87158750D03*
X110175500Y-84618750D03*
G04 #@! TD*
D14*
G04 #@! TO.C,SW27*
X83505500Y-89698750D03*
D15*
X88585500Y-89698750D03*
D14*
X93665500Y-89698750D03*
D16*
X84775500Y-87158750D03*
X91125500Y-84618750D03*
G04 #@! TD*
D14*
G04 #@! TO.C,SW8*
X145100500Y-96842500D03*
D15*
X150180500Y-96842500D03*
D14*
X155260500Y-96842500D03*
D16*
X146370500Y-94302500D03*
X152720500Y-91762500D03*
G04 #@! TD*
D14*
G04 #@! TO.C,SW23*
X374018000Y-96842500D03*
D15*
X379098000Y-96842500D03*
D14*
X384178000Y-96842500D03*
D16*
X375288000Y-94302500D03*
X381638000Y-91762500D03*
G04 #@! TD*
D14*
G04 #@! TO.C,SW17*
X307343000Y-115892500D03*
D15*
X312423000Y-115892500D03*
D14*
X317503000Y-115892500D03*
D16*
X308613000Y-113352500D03*
X314963000Y-110812500D03*
G04 #@! TD*
D14*
G04 #@! TO.C,SW6*
X231143000Y-115892500D03*
D15*
X236223000Y-115892500D03*
D14*
X241303000Y-115892500D03*
D16*
X232413000Y-113352500D03*
X238763000Y-110812500D03*
G04 #@! TD*
D19*
G04 #@! TO.C,D13*
X283848000Y-118750000D03*
D20*
X283848000Y-111130000D03*
G04 #@! TD*
D19*
G04 #@! TO.C,D2*
X169548000Y-118750000D03*
D20*
X169548000Y-111130000D03*
G04 #@! TD*
D19*
G04 #@! TO.C,D16*
X312423000Y-99700000D03*
D20*
X312423000Y-92080000D03*
G04 #@! TD*
D19*
G04 #@! TO.C,D8*
X159705500Y-99700000D03*
D20*
X159705500Y-92080000D03*
G04 #@! TD*
D19*
G04 #@! TO.C,D15*
X302898000Y-118750000D03*
D20*
X302898000Y-111130000D03*
G04 #@! TD*
D19*
G04 #@! TO.C,D3*
X188598000Y-118750000D03*
D20*
X188598000Y-111130000D03*
G04 #@! TD*
D19*
G04 #@! TO.C,D28*
X117160500Y-92556250D03*
D20*
X117160500Y-84936250D03*
G04 #@! TD*
D19*
G04 #@! TO.C,D22*
X379098000Y-118750000D03*
D20*
X379098000Y-111130000D03*
G04 #@! TD*
D19*
G04 #@! TO.C,D20*
X360048000Y-118750000D03*
D20*
X360048000Y-111130000D03*
G04 #@! TD*
D19*
G04 #@! TO.C,D21*
X369573000Y-99700000D03*
D20*
X369573000Y-92080000D03*
G04 #@! TD*
D19*
G04 #@! TO.C,D6*
X245748000Y-118750000D03*
D20*
X245748000Y-111130000D03*
G04 #@! TD*
D19*
G04 #@! TO.C,D10*
X217173000Y-99700000D03*
D20*
X217173000Y-92080000D03*
G04 #@! TD*
D19*
G04 #@! TO.C,D25*
X60010500Y-92556250D03*
D20*
X60010500Y-84936250D03*
G04 #@! TD*
D19*
G04 #@! TO.C,D24*
X398148000Y-118750000D03*
D20*
X398148000Y-111130000D03*
G04 #@! TD*
D19*
G04 #@! TO.C,D23*
X388623000Y-99700000D03*
D20*
X388623000Y-92080000D03*
G04 #@! TD*
D19*
G04 #@! TO.C,D4*
X207648000Y-118750000D03*
D20*
X207648000Y-111130000D03*
G04 #@! TD*
D19*
G04 #@! TO.C,D19*
X350523000Y-99700000D03*
D20*
X350523000Y-92080000D03*
G04 #@! TD*
D19*
G04 #@! TO.C,D9*
X178755500Y-99700000D03*
D20*
X178755500Y-92080000D03*
G04 #@! TD*
D19*
G04 #@! TO.C,D12*
X255273000Y-99700000D03*
D20*
X255273000Y-92080000D03*
G04 #@! TD*
D19*
G04 #@! TO.C,D14*
X293373000Y-99700000D03*
D20*
X293373000Y-92080000D03*
G04 #@! TD*
D19*
G04 #@! TO.C,D5*
X226698000Y-118750000D03*
D20*
X226698000Y-111130000D03*
G04 #@! TD*
D19*
G04 #@! TO.C,D26*
X79060500Y-92556250D03*
D20*
X79060500Y-84936250D03*
G04 #@! TD*
D19*
G04 #@! TO.C,D11*
X236223000Y-99700000D03*
D20*
X236223000Y-92080000D03*
G04 #@! TD*
D19*
G04 #@! TO.C,D1*
X150498000Y-118750000D03*
D20*
X150498000Y-111130000D03*
G04 #@! TD*
D19*
G04 #@! TO.C,D27*
X98110500Y-92556250D03*
D20*
X98110500Y-84936250D03*
G04 #@! TD*
D19*
G04 #@! TO.C,D7*
X264798000Y-118750000D03*
D20*
X264798000Y-111130000D03*
G04 #@! TD*
D19*
G04 #@! TO.C,D18*
X340998000Y-118750000D03*
D20*
X340998000Y-111130000D03*
G04 #@! TD*
D19*
G04 #@! TO.C,D17*
X321948000Y-118750000D03*
D20*
X321948000Y-111130000D03*
G04 #@! TD*
%LPD*%
M02*
