M48
; DRILL file {KiCad 8.0.3} date 2024-06-27T13:33:53-0700
; FORMAT={-:-/ absolute / metric / decimal}
; #@! TF.CreationDate,2024-06-27T13:33:53-07:00
; #@! TF.GenerationSoftware,Kicad,Pcbnew,8.0.3
; #@! TF.FileFunction,NonPlated,1,2,NPTH
FMAT,2
METRIC
; #@! TA.AperFunction,NonPlated,NPTH,ComponentDrill
T1C1.750
; #@! TA.AperFunction,NonPlated,NPTH,ComponentDrill
T2C4.000
%
G90
G05
T1
X45.405Y-89.699
X55.566Y-89.699
X64.456Y-89.699
X74.615Y-89.699
X83.505Y-89.699
X93.665Y-89.699
X102.555Y-89.699
X112.715Y-89.699
X135.893Y-115.892
X145.1Y-96.843
X146.053Y-115.892
X154.943Y-115.892
X155.26Y-96.843
X164.15Y-96.843
X165.103Y-115.892
X173.993Y-115.892
X174.31Y-96.843
X184.153Y-115.892
X193.043Y-115.892
X202.568Y-96.843
X203.203Y-115.892
X212.093Y-115.892
X212.728Y-96.843
X221.618Y-96.843
X222.253Y-115.892
X231.143Y-115.892
X231.778Y-96.843
X240.668Y-96.843
X241.303Y-115.892
X250.193Y-115.892
X250.828Y-96.843
X260.353Y-115.892
X269.243Y-115.892
X278.768Y-96.843
X279.403Y-115.892
X288.293Y-115.892
X288.928Y-96.843
X297.818Y-96.843
X298.453Y-115.892
X307.343Y-115.892
X307.978Y-96.843
X317.503Y-115.892
X326.393Y-115.892
X335.918Y-96.843
X336.553Y-115.892
X345.443Y-115.892
X346.078Y-96.843
X354.968Y-96.843
X355.603Y-115.892
X364.493Y-115.892
X365.128Y-96.843
X374.018Y-96.843
X374.653Y-115.892
X383.543Y-115.892
X384.178Y-96.843
X393.703Y-115.892
T2
X50.485Y-89.699
X69.535Y-89.699
X88.585Y-89.699
X107.635Y-89.699
X140.973Y-115.892
X150.18Y-96.843
X160.023Y-115.892
X169.231Y-96.843
X179.073Y-115.892
X198.123Y-115.892
X207.648Y-96.843
X217.173Y-115.892
X226.698Y-96.843
X236.223Y-115.892
X245.748Y-96.843
X255.273Y-115.892
X274.323Y-115.892
X283.848Y-96.843
X293.373Y-115.892
X302.898Y-96.843
X312.423Y-115.892
X331.473Y-115.892
X340.998Y-96.843
X350.523Y-115.892
X360.048Y-96.843
X369.573Y-115.892
X379.098Y-96.843
X388.623Y-115.892
M30
