G04 #@! TF.GenerationSoftware,KiCad,Pcbnew,8.0.3*
G04 #@! TF.CreationDate,2024-06-27T13:33:53-07:00*
G04 #@! TF.ProjectId,new midi keyboard,6e657720-6d69-4646-9920-6b6579626f61,rev?*
G04 #@! TF.SameCoordinates,Original*
G04 #@! TF.FileFunction,Other,ECO1*
%FSLAX46Y46*%
G04 Gerber Fmt 4.6, Leading zero omitted, Abs format (unit mm)*
G04 Created by KiCad (PCBNEW 8.0.3) date 2024-06-27 13:33:53*
%MOMM*%
%LPD*%
G01*
G04 APERTURE LIST*
%ADD10C,0.100000*%
G04 APERTURE END LIST*
D10*
G04 #@! TO.C,SW20*
X343523000Y-108892500D02*
X343523000Y-122892500D01*
X343523000Y-122892500D02*
X357523000Y-122892500D01*
X357523000Y-108892500D02*
X343523000Y-108892500D01*
X357523000Y-122892500D02*
X357523000Y-108892500D01*
G04 #@! TO.C,SW13*
X267323000Y-108892500D02*
X267323000Y-122892500D01*
X267323000Y-122892500D02*
X281323000Y-122892500D01*
X281323000Y-108892500D02*
X267323000Y-108892500D01*
X281323000Y-122892500D02*
X281323000Y-108892500D01*
G04 #@! TO.C,SW15*
X286373000Y-108892500D02*
X286373000Y-122892500D01*
X286373000Y-122892500D02*
X300373000Y-122892500D01*
X300373000Y-108892500D02*
X286373000Y-108892500D01*
X300373000Y-122892500D02*
X300373000Y-108892500D01*
G04 #@! TO.C,SW24*
X381623000Y-108892500D02*
X381623000Y-122892500D01*
X381623000Y-122892500D02*
X395623000Y-122892500D01*
X395623000Y-108892500D02*
X381623000Y-108892500D01*
X395623000Y-122892500D02*
X395623000Y-108892500D01*
G04 #@! TO.C,SW1*
X133973000Y-108892500D02*
X133973000Y-122892500D01*
X133973000Y-122892500D02*
X147973000Y-122892500D01*
X147973000Y-108892500D02*
X133973000Y-108892500D01*
X147973000Y-122892500D02*
X147973000Y-108892500D01*
G04 #@! TO.C,SW11*
X219698000Y-89842500D02*
X219698000Y-103842500D01*
X219698000Y-103842500D02*
X233698000Y-103842500D01*
X233698000Y-89842500D02*
X219698000Y-89842500D01*
X233698000Y-103842500D02*
X233698000Y-89842500D01*
G04 #@! TO.C,SW3*
X172073000Y-108892500D02*
X172073000Y-122892500D01*
X172073000Y-122892500D02*
X186073000Y-122892500D01*
X186073000Y-108892500D02*
X172073000Y-108892500D01*
X186073000Y-122892500D02*
X186073000Y-108892500D01*
G04 #@! TO.C,SW18*
X324473000Y-108892500D02*
X324473000Y-122892500D01*
X324473000Y-122892500D02*
X338473000Y-122892500D01*
X338473000Y-108892500D02*
X324473000Y-108892500D01*
X338473000Y-122892500D02*
X338473000Y-108892500D01*
G04 #@! TO.C,SW12*
X238748000Y-89842500D02*
X238748000Y-103842500D01*
X238748000Y-103842500D02*
X252748000Y-103842500D01*
X252748000Y-89842500D02*
X238748000Y-89842500D01*
X252748000Y-103842500D02*
X252748000Y-89842500D01*
G04 #@! TO.C,SW4*
X191123000Y-108892500D02*
X191123000Y-122892500D01*
X191123000Y-122892500D02*
X205123000Y-122892500D01*
X205123000Y-108892500D02*
X191123000Y-108892500D01*
X205123000Y-122892500D02*
X205123000Y-108892500D01*
G04 #@! TO.C,SW19*
X333998000Y-89842500D02*
X333998000Y-103842500D01*
X333998000Y-103842500D02*
X347998000Y-103842500D01*
X347998000Y-89842500D02*
X333998000Y-89842500D01*
X347998000Y-103842500D02*
X347998000Y-89842500D01*
G04 #@! TO.C,SW25*
X43485500Y-82698750D02*
X43485500Y-96698750D01*
X43485500Y-96698750D02*
X57485500Y-96698750D01*
X57485500Y-82698750D02*
X43485500Y-82698750D01*
X57485500Y-96698750D02*
X57485500Y-82698750D01*
G04 #@! TO.C,SW21*
X353048000Y-89842500D02*
X353048000Y-103842500D01*
X353048000Y-103842500D02*
X367048000Y-103842500D01*
X367048000Y-89842500D02*
X353048000Y-89842500D01*
X367048000Y-103842500D02*
X367048000Y-89842500D01*
G04 #@! TO.C,SW7*
X248273000Y-108892500D02*
X248273000Y-122892500D01*
X248273000Y-122892500D02*
X262273000Y-122892500D01*
X262273000Y-108892500D02*
X248273000Y-108892500D01*
X262273000Y-122892500D02*
X262273000Y-108892500D01*
G04 #@! TO.C,SW14*
X276848000Y-89842500D02*
X276848000Y-103842500D01*
X276848000Y-103842500D02*
X290848000Y-103842500D01*
X290848000Y-89842500D02*
X276848000Y-89842500D01*
X290848000Y-103842500D02*
X290848000Y-89842500D01*
G04 #@! TO.C,SW16*
X295898000Y-89842500D02*
X295898000Y-103842500D01*
X295898000Y-103842500D02*
X309898000Y-103842500D01*
X309898000Y-89842500D02*
X295898000Y-89842500D01*
X309898000Y-103842500D02*
X309898000Y-89842500D01*
G04 #@! TO.C,SW5*
X210173000Y-108892500D02*
X210173000Y-122892500D01*
X210173000Y-122892500D02*
X224173000Y-122892500D01*
X224173000Y-108892500D02*
X210173000Y-108892500D01*
X224173000Y-122892500D02*
X224173000Y-108892500D01*
G04 #@! TO.C,SW26*
X62535500Y-82698750D02*
X62535500Y-96698750D01*
X62535500Y-96698750D02*
X76535500Y-96698750D01*
X76535500Y-82698750D02*
X62535500Y-82698750D01*
X76535500Y-96698750D02*
X76535500Y-82698750D01*
G04 #@! TO.C,SW10*
X200648000Y-89842500D02*
X200648000Y-103842500D01*
X200648000Y-103842500D02*
X214648000Y-103842500D01*
X214648000Y-89842500D02*
X200648000Y-89842500D01*
X214648000Y-103842500D02*
X214648000Y-89842500D01*
G04 #@! TO.C,SW22*
X362573000Y-108892500D02*
X362573000Y-122892500D01*
X362573000Y-122892500D02*
X376573000Y-122892500D01*
X376573000Y-108892500D02*
X362573000Y-108892500D01*
X376573000Y-122892500D02*
X376573000Y-108892500D01*
G04 #@! TO.C,SW9*
X162230500Y-89842500D02*
X162230500Y-103842500D01*
X162230500Y-103842500D02*
X176230500Y-103842500D01*
X176230500Y-89842500D02*
X162230500Y-89842500D01*
X176230500Y-103842500D02*
X176230500Y-89842500D01*
G04 #@! TO.C,SW2*
X153023000Y-108892500D02*
X153023000Y-122892500D01*
X153023000Y-122892500D02*
X167023000Y-122892500D01*
X167023000Y-108892500D02*
X153023000Y-108892500D01*
X167023000Y-122892500D02*
X167023000Y-108892500D01*
G04 #@! TO.C,SW28*
X100635500Y-82698750D02*
X100635500Y-96698750D01*
X100635500Y-96698750D02*
X114635500Y-96698750D01*
X114635500Y-82698750D02*
X100635500Y-82698750D01*
X114635500Y-96698750D02*
X114635500Y-82698750D01*
G04 #@! TO.C,SW27*
X81585500Y-82698750D02*
X81585500Y-96698750D01*
X81585500Y-96698750D02*
X95585500Y-96698750D01*
X95585500Y-82698750D02*
X81585500Y-82698750D01*
X95585500Y-96698750D02*
X95585500Y-82698750D01*
G04 #@! TO.C,SW8*
X143180500Y-89842500D02*
X143180500Y-103842500D01*
X143180500Y-103842500D02*
X157180500Y-103842500D01*
X157180500Y-89842500D02*
X143180500Y-89842500D01*
X157180500Y-103842500D02*
X157180500Y-89842500D01*
G04 #@! TO.C,SW23*
X372098000Y-89842500D02*
X372098000Y-103842500D01*
X372098000Y-103842500D02*
X386098000Y-103842500D01*
X386098000Y-89842500D02*
X372098000Y-89842500D01*
X386098000Y-103842500D02*
X386098000Y-89842500D01*
G04 #@! TO.C,SW17*
X305423000Y-108892500D02*
X305423000Y-122892500D01*
X305423000Y-122892500D02*
X319423000Y-122892500D01*
X319423000Y-108892500D02*
X305423000Y-108892500D01*
X319423000Y-122892500D02*
X319423000Y-108892500D01*
G04 #@! TO.C,SW6*
X229223000Y-108892500D02*
X229223000Y-122892500D01*
X229223000Y-122892500D02*
X243223000Y-122892500D01*
X243223000Y-108892500D02*
X229223000Y-108892500D01*
X243223000Y-122892500D02*
X243223000Y-108892500D01*
G04 #@! TD*
M02*
